<svg width="22" height="22" viewBox="0 0 22 22" fill="none" xmlns="http://www.w3.org/2000/svg">
<g clip-path="url(#clip0_903_11460)">
<path d="M11.9222 17.5444C12.0452 17.667 12.1428 17.8127 12.2094 17.973C12.2761 18.1334 12.3103 18.3054 12.3103 18.479C12.3103 18.6527 12.2761 18.8247 12.2094 18.9851C12.1428 19.1454 12.0452 19.2911 11.9222 19.4137L11.2688 20.0669C10.0309 21.3046 8.35186 22 6.60113 22C4.8504 22 3.17139 21.3046 1.93343 20.0669C0.695477 18.8292 0 17.1506 0 15.4C0 13.6497 0.695477 11.9711 1.93343 10.7334L4.58623 8.08217C5.77569 6.89001 7.37605 6.19769 9.05951 6.14697C10.743 6.09627 12.3821 6.69105 13.6412 7.80947C13.7712 7.92499 13.8772 8.06499 13.9531 8.22144C14.0289 8.37792 14.0732 8.54779 14.0834 8.72136C14.0936 8.89495 14.0695 9.06885 14.0125 9.23313C13.9556 9.3974 13.8668 9.54885 13.7512 9.67882C13.6356 9.80878 13.4957 9.91472 13.3391 9.99058C13.1826 10.0664 13.0127 10.1107 12.8391 10.1209C12.6655 10.1312 12.4915 10.1071 12.3272 10.0501C12.1629 9.99309 12.0114 9.9043 11.8815 9.78878C11.1264 9.11837 10.1438 8.76172 9.13441 8.79177C8.12506 8.82182 7.16535 9.23629 6.45155 9.95043L3.80095 12.5983C3.0583 13.3409 2.64107 14.3478 2.64107 15.3979C2.64107 16.4479 3.0583 17.455 3.80095 18.1976C4.5436 18.9401 5.55086 19.3571 6.60113 19.3571C7.65141 19.3571 8.65866 18.9401 9.40131 18.1976L10.0546 17.5444C10.1772 17.4217 10.3228 17.3244 10.483 17.258C10.6432 17.1915 10.8149 17.1573 10.9884 17.1573C11.1618 17.1573 11.3336 17.1915 11.4938 17.258C11.654 17.3244 11.7996 17.4217 11.9222 17.5444ZM20.0698 1.92982C18.8308 0.694015 17.1521 0 15.402 0C13.6519 0 11.9733 0.694015 10.7343 1.92982L10.081 2.58299C9.83308 2.83088 9.69378 3.16709 9.69378 3.51766C9.69378 3.86823 9.83308 4.20446 10.081 4.45235C10.329 4.70024 10.6652 4.83949 11.0159 4.83949C11.3665 4.83949 11.7029 4.70024 11.9508 4.45235L12.604 3.79916C13.3467 3.05666 14.354 2.63953 15.4042 2.63953C16.4546 2.63953 17.4617 3.05666 18.2045 3.79916C18.9471 4.54168 19.3643 5.54872 19.3643 6.5988C19.3643 7.64885 18.9471 8.65591 18.2045 9.39842L15.5527 12.0507C14.8383 12.7645 13.878 13.1784 12.8685 13.2076C11.8588 13.2368 10.8762 12.8792 10.1217 12.208C9.99173 12.0924 9.84025 12.0036 9.67593 11.9466C9.51163 11.8896 9.3377 11.8655 9.16407 11.8758C8.99045 11.8859 8.82054 11.9303 8.66405 12.0061C8.50755 12.082 8.36753 12.188 8.25199 12.3179C8.13644 12.4478 8.04764 12.5992 7.99062 12.7636C7.93362 12.9279 7.90953 13.1017 7.91975 13.2753C7.92996 13.449 7.97428 13.6188 8.05014 13.7752C8.12602 13.9317 8.23199 14.0718 8.36197 14.1872C9.62017 15.3055 11.2583 15.9006 12.9409 15.8509C14.6236 15.8012 16.2236 15.1105 17.4137 13.9201L20.0664 11.2689C21.304 10.0304 21.9993 8.35168 22 6.60112C22.0006 4.85057 21.3064 3.1713 20.0698 1.93202V1.92982Z" fill="#B7E6FD"/>
<path d="M11.8497 17.504C11.972 17.6277 12.0689 17.7747 12.1351 17.9365C12.2014 18.0984 12.2354 18.2719 12.2354 18.4471C12.2354 18.6224 12.2014 18.7959 12.1351 18.9579C12.0689 19.1196 11.972 19.2666 11.8497 19.3903L11.2003 20.0495C9.96987 21.2984 8.30105 22 6.56098 22C4.8209 22 3.15209 21.2984 1.92167 20.0495C0.691246 18.8005 0 17.1065 0 15.3402C0 13.5739 0.691246 11.8801 1.92167 10.6311L4.55833 7.95581C5.74055 6.75281 7.33118 6.05418 9.00441 6.00302C10.6776 5.95186 12.3068 6.55204 13.5583 7.68062C13.6874 7.79719 13.7928 7.93845 13.8682 8.09635C13.9436 8.25423 13.9875 8.42564 13.9978 8.60081C14.0078 8.77598 13.9839 8.95145 13.9272 9.11722C13.8707 9.28299 13.7824 9.43582 13.6675 9.56695C13.5527 9.69811 13.4136 9.805 13.258 9.88155C13.1024 9.95811 12.9335 10.0028 12.761 10.0131C12.5885 10.0234 12.4155 9.99911 12.2522 9.9416C12.0889 9.88409 11.9384 9.79449 11.8092 9.67792C11.0587 9.00142 10.082 8.64152 9.07884 8.67184C8.07564 8.70216 7.12176 9.12041 6.41231 9.84103L3.77783 12.513C3.0397 13.2622 2.62501 14.2784 2.62501 15.3381C2.62501 16.3976 3.0397 17.4138 3.77783 18.1631C4.51596 18.9124 5.5171 19.3332 6.56098 19.3332C7.60487 19.3332 8.60599 18.9124 9.34412 18.1631L9.99346 17.504C10.1153 17.3802 10.26 17.282 10.4192 17.215C10.5785 17.148 10.7492 17.1135 10.9215 17.1135C11.0939 17.1135 11.2646 17.148 11.4239 17.215C11.5831 17.282 11.7278 17.3802 11.8497 17.504Z" fill="#63B8E4"/>
</g>
<defs>
<clipPath id="clip0_903_11460">
<rect width="22" height="22" fill="white"/>
</clipPath>
</defs>
</svg>
