<svg width="18" height="20" viewBox="0 0 18 20" fill="none" xmlns="http://www.w3.org/2000/svg">
<path d="M17.639 14.1233L11.9856 19.6472C11.5042 20.1176 10.7142 20.1176 10.2328 19.6472C9.75141 19.1768 9.75141 18.4049 10.2328 17.9346L13.7878 14.4731H1.23436C0.55546 14.4731 0 13.9303 0 13.267V1.20609C0 0.542741 0.55546 0 1.23436 0C1.91325 0 2.46871 0.542741 2.46871 1.20609V12.0609H13.7878L10.2328 8.59943C9.75141 8.12905 9.75141 7.35715 10.2328 6.88678C10.7142 6.4164 11.5042 6.4164 11.9856 6.88678L17.639 12.4107C18.1203 12.881 18.1203 13.6529 17.639 14.1233Z" fill="black"/>
</svg>
