<svg width="16" height="13" viewBox="0 0 16 13" fill="none" xmlns="http://www.w3.org/2000/svg">
<path d="M7.38462 0H1.6C0.72 0 0.00799999 0.73125 0.00799999 1.625L0 11.375C0 12.2688 0.72 13 1.6 13H13.4C14.28 13 15 12.2688 15 11.375V3.625C15 2.73125 14.28 2 13.4 2H8.98462L7.38462 0Z" fill="#91B3E2"/>
<path d="M9.04774 4H14.4996C15.329 4 16 4.702 16 5.56L15.0796 11.44C15.0796 12.298 14.401 13 13.5716 13H1.50796C0.678581 13 1.23641e-07 12.298 1.23641e-07 11.44L0.927973 5.56C0.927973 4.702 1.60655 4 2.43593 4H7.53978H9.04774Z" fill="#266FD5"/>
</svg>
