<svg width="63" height="65" viewBox="0 0 63 65" fill="none" xmlns="http://www.w3.org/2000/svg">
<path d="M2.21456 38C0.989169 38 0 36.9856 0 35.7289C0 21.1486 10.3641 9.00592 23.9246 6.62885L21.2819 3.85814C20.4256 2.96485 20.4404 1.5265 21.3188 0.648351C22.1899 -0.229799 23.5924 -0.214658 24.4487 0.686203L30.369 6.89381C30.989 7.54486 31.1736 8.52142 30.8266 9.36172C30.4797 10.202 29.6751 10.7546 28.7819 10.7546C15.3543 10.7471 4.42912 21.9511 4.42912 35.7289C4.42912 36.9856 3.43995 38 2.21456 38Z" fill="white"/>
<path d="M29.1996 65C20.5985 65 12.1862 61.258 6.49242 54.449L5.45032 58.146C5.1105 59.3383 3.86452 60.0432 2.65629 59.7057C1.44806 59.3683 0.745776 58.131 1.08559 56.9311L3.41898 48.6448C3.66818 47.7749 4.41577 47.13 5.31439 47.0176C6.21301 46.9051 7.10408 47.34 7.55717 48.1274C14.429 59.9457 29.698 64.0101 41.599 57.1861C42.6864 56.5637 44.0683 56.9311 44.6951 58.011C45.3219 59.0833 44.9519 60.4631 43.8645 61.0856C39.243 63.7402 34.1835 65 29.192 65H29.1996Z" fill="white"/>
<path d="M52.2889 51C51.5902 51 50.9143 50.6805 50.4738 50.1159C49.9195 49.4026 49.8587 48.4293 50.3144 47.6566C53.6635 41.9877 54.552 35.3753 52.8205 29.0526C51.089 22.7299 46.9425 17.4399 41.1404 14.1634C40.0544 13.5468 39.6746 12.1871 40.305 11.1172C40.9353 10.0474 42.3251 9.68331 43.4187 10.3C50.2688 14.1709 55.1672 20.4193 57.2177 27.8936C58.8277 33.7705 58.5239 39.848 56.3975 45.4351L60.1567 44.4916C61.3794 44.1869 62.6173 44.9076 62.9286 46.0964C63.24 47.2926 62.5033 48.5036 61.2882 48.8082L52.8509 50.9183C52.661 50.9628 52.4712 50.9851 52.2889 50.9851V51Z" fill="white"/>
<path d="M40.1192 36.5152C40.177 36.0934 40.206 35.6574 40.206 35.1934C40.206 34.7434 40.177 34.2934 40.1048 33.8715L43.0395 31.6496C43.2998 31.4527 43.3721 31.073 43.213 30.7918L40.4373 26.123C40.2638 25.8137 39.9024 25.7152 39.5843 25.8137L36.1291 27.1637C35.4062 26.6293 34.64 26.1793 33.787 25.8418L33.2666 22.2699C33.2087 21.9324 32.9196 21.6934 32.5726 21.6934H27.0211C26.6741 21.6934 26.3995 21.9324 26.3416 22.2699L25.8212 25.8418C24.9682 26.1793 24.1875 26.6434 23.4791 27.1637L20.0239 25.8137C19.7058 25.7012 19.3444 25.8137 19.1709 26.123L16.4096 30.7918C16.2362 31.0871 16.294 31.4527 16.5831 31.6496L19.5179 33.8715C19.4456 34.2934 19.3878 34.7574 19.3878 35.1934C19.3878 35.6293 19.4167 36.0934 19.489 36.5152L16.5542 38.7371C16.294 38.934 16.2217 39.3137 16.3807 39.5949L19.1565 44.2637C19.33 44.573 19.6914 44.6715 20.0094 44.573L23.4647 43.223C24.1875 43.7574 24.9538 44.2074 25.8067 44.5449L26.3272 48.1168C26.3995 48.4543 26.6741 48.6934 27.0211 48.6934H32.5726C32.9196 48.6934 33.2087 48.4543 33.2521 48.1168L33.7726 44.5449C34.6255 44.2074 35.4062 43.7574 36.1146 43.223L39.5698 44.573C39.8879 44.6855 40.2493 44.573 40.4228 44.2637L43.1986 39.5949C43.372 39.2855 43.2998 38.934 43.0251 38.7371L40.1192 36.5152ZM29.7969 40.8695C26.9344 40.8695 23.9495 37.9777 23.9495 35.1934C23.9495 32.409 26.9344 29.5172 29.7969 29.5172C32.6594 29.5172 35.6443 32.409 35.6443 35.1934C35.6443 37.9777 32.6594 40.8695 29.7969 40.8695Z" fill="white"/>
</svg>
