<svg width="23" height="20" viewBox="0 0 23 20" fill="none" xmlns="http://www.w3.org/2000/svg">
<g clip-path="url(#clip0_156_2)">
<path d="M14.84 16.5L17 14.34L19.16 16.5L20 15.66L17.84 13.5L20 11.34L19.16 10.5L17 12.66L14.84 10.5L14 11.34L16.16 13.5L14 15.66L14.84 16.5Z" fill="white"/>
<path fill-rule="evenodd" clip-rule="evenodd" d="M0 0.5H12V1.5H20V4.5H21V9.02779C22.2275 10.1264 23 11.723 23 13.5C23 16.8137 20.3137 19.5 17 19.5C15.223 19.5 13.6264 18.7275 12.5278 17.5H0V0.5ZM19 4.5H12V2.5H19V4.5ZM3.0029 13.5L5.6539 5.371H7.3479L9.9879 13.5H8.4589L7.83193 11.3H5.10947L4.4769 13.5H3.0029ZM7.2269 9.177L7.50904 10.167H5.43525L5.7199 9.177C5.84457 8.74433 5.96924 8.30433 6.0939 7.857C6.21857 7.40233 6.3359 6.95133 6.4459 6.504H6.4899C6.61457 6.944 6.73557 7.39133 6.8529 7.846C6.97024 8.30067 7.0949 8.74433 7.2269 9.177ZM22 13.5C22 16.2614 19.7614 18.5 17 18.5C14.2386 18.5 12 16.2614 12 13.5C12 10.7386 14.2386 8.5 17 8.5C19.7614 8.5 22 10.7386 22 13.5Z" fill="white"/>
</g>
<defs>
<clipPath id="clip0_156_2">
<rect width="23" height="19" fill="white" transform="translate(0 0.5)"/>
</clipPath>
</defs>
</svg>
