<svg width="18" height="18" viewBox="0 0 18 18" fill="none" xmlns="http://www.w3.org/2000/svg">
<rect x="0.5" y="2.5" width="17" height="13" fill="#100551" stroke="#3A7BC2"/>
<path d="M6.736 12.117C6.268 12.117 5.836 12.03 5.44 11.856C5.05 11.682 4.714 11.445 4.432 11.145L4.927 10.569C5.161 10.815 5.437 11.013 5.755 11.163C6.073 11.313 6.403 11.388 6.745 11.388C7.183 11.388 7.522 11.289 7.762 11.091C8.008 10.893 8.131 10.635 8.131 10.317C8.131 10.083 8.08 9.897 7.978 9.759C7.882 9.621 7.75 9.507 7.582 9.417C7.42 9.321 7.234 9.228 7.024 9.138L6.079 8.724C5.875 8.634 5.668 8.52 5.458 8.382C5.254 8.244 5.083 8.064 4.945 7.842C4.807 7.62 4.738 7.35 4.738 7.032C4.738 6.69 4.828 6.39 5.008 6.132C5.188 5.868 5.434 5.661 5.746 5.511C6.058 5.361 6.415 5.286 6.817 5.286C7.213 5.286 7.576 5.361 7.906 5.511C8.242 5.661 8.524 5.856 8.752 6.096L8.32 6.627C8.116 6.441 7.891 6.294 7.645 6.186C7.405 6.072 7.129 6.015 6.817 6.015C6.445 6.015 6.145 6.102 5.917 6.276C5.695 6.444 5.584 6.675 5.584 6.969C5.584 7.185 5.638 7.362 5.746 7.5C5.86 7.638 6.001 7.749 6.169 7.833C6.337 7.917 6.508 7.998 6.682 8.076L7.618 8.481C7.87 8.589 8.098 8.718 8.302 8.868C8.512 9.018 8.677 9.204 8.797 9.426C8.917 9.648 8.977 9.921 8.977 10.245C8.977 10.593 8.887 10.911 8.707 11.199C8.527 11.481 8.269 11.706 7.933 11.874C7.597 12.036 7.198 12.117 6.736 12.117ZM11.9391 12.117C11.4711 12.117 11.0391 12.03 10.6431 11.856C10.2531 11.682 9.91713 11.445 9.63513 11.145L10.1301 10.569C10.3641 10.815 10.6401 11.013 10.9581 11.163C11.2761 11.313 11.6061 11.388 11.9481 11.388C12.3861 11.388 12.7251 11.289 12.9651 11.091C13.2111 10.893 13.3341 10.635 13.3341 10.317C13.3341 10.083 13.2831 9.897 13.1811 9.759C13.0851 9.621 12.9531 9.507 12.7851 9.417C12.6231 9.321 12.4371 9.228 12.2271 9.138L11.2821 8.724C11.0781 8.634 10.8711 8.52 10.6611 8.382C10.4571 8.244 10.2861 8.064 10.1481 7.842C10.0101 7.62 9.94113 7.35 9.94113 7.032C9.94113 6.69 10.0311 6.39 10.2111 6.132C10.3911 5.868 10.6371 5.661 10.9491 5.511C11.2611 5.361 11.6181 5.286 12.0201 5.286C12.4161 5.286 12.7791 5.361 13.1091 5.511C13.4451 5.661 13.7271 5.856 13.9551 6.096L13.5231 6.627C13.3191 6.441 13.0941 6.294 12.8481 6.186C12.6081 6.072 12.3321 6.015 12.0201 6.015C11.6481 6.015 11.3481 6.102 11.1201 6.276C10.8981 6.444 10.7871 6.675 10.7871 6.969C10.7871 7.185 10.8411 7.362 10.9491 7.5C11.0631 7.638 11.2041 7.749 11.3721 7.833C11.5401 7.917 11.7111 7.998 11.8851 8.076L12.8211 8.481C13.0731 8.589 13.3011 8.718 13.5051 8.868C13.7151 9.018 13.8801 9.204 14.0001 9.426C14.1201 9.648 14.1801 9.921 14.1801 10.245C14.1801 10.593 14.0901 10.911 13.9101 11.199C13.7301 11.481 13.4721 11.706 13.1361 11.874C12.8001 12.036 12.4011 12.117 11.9391 12.117Z" fill="#4F9FF4"/>
</svg>
