<svg width="18" height="14" viewBox="0 0 18 14" fill="none" xmlns="http://www.w3.org/2000/svg">
<rect x="0.5" y="0.5" width="17" height="13" fill="#100551" stroke="#3A7BC2"/>
<path d="M5.277 10V4.105H3.279V3.403H8.112V4.105H6.114V10H5.277ZM9.0167 10L7.6217 3.403H8.4767L9.1697 6.994C9.2357 7.348 9.3017 7.705 9.3677 8.065C9.4337 8.419 9.4997 8.776 9.5657 9.136H9.6017C9.6797 8.776 9.7577 8.419 9.8357 8.065C9.9137 7.705 9.9917 7.348 10.0697 6.994L10.9787 3.403H11.7437L12.6617 6.994C12.7397 7.348 12.8177 7.705 12.8957 8.065C12.9737 8.419 13.0547 8.776 13.1387 9.136H13.1837C13.2437 8.776 13.3037 8.419 13.3637 8.065C13.4237 7.705 13.4837 7.348 13.5437 6.994L14.2547 3.403H15.0467L13.6877 10H12.6797L11.6807 6.022C11.6207 5.758 11.5637 5.506 11.5097 5.266C11.4617 5.02 11.4107 4.771 11.3567 4.519H11.3207C11.2727 4.771 11.2187 5.02 11.1587 5.266C11.0987 5.506 11.0417 5.758 10.9877 6.022L10.0067 10H9.0167Z" fill="#4F9FF4"/>
</svg>
