<?xml version="1.0" encoding="UTF-8" standalone="no"?>
<!-- Generator: Adobe Illustrator 25.4.1, SVG Export Plug-In . SVG Version: 6.00 Build 0)  -->

<svg
   version="1.1"
   id="레이어_1"
   x="0px"
   y="0px"
   viewBox="0 0 54 54"
   style="enable-background:new 0 0 54 54;"
   xml:space="preserve"
   sodipodi:docname="Generator.svg"
   inkscape:version="1.1.1 (3bf5ae0d25, 2021-09-20)"
   xmlns:inkscape="http://www.inkscape.org/namespaces/inkscape"
   xmlns:sodipodi="http://sodipodi.sourceforge.net/DTD/sodipodi-0.dtd"
   xmlns:xlink="http://www.w3.org/1999/xlink"
   xmlns="http://www.w3.org/2000/svg"
   xmlns:svg="http://www.w3.org/2000/svg"><defs
   id="defs56" /><sodipodi:namedview
   id="namedview54"
   pagecolor="#ffffff"
   bordercolor="#666666"
   borderopacity="1.0"
   inkscape:pageshadow="2"
   inkscape:pageopacity="0.0"
   inkscape:pagecheckerboard="0"
   showgrid="false"
   inkscape:zoom="15.592593"
   inkscape:cx="26.967933"
   inkscape:cy="27"
   inkscape:window-width="1920"
   inkscape:window-height="1058"
   inkscape:window-x="1912"
   inkscape:window-y="-8"
   inkscape:window-maximized="1"
   inkscape:current-layer="g51" />
<style
   type="text/css"
   id="style2">
	.그림자_x0020_만들기{fill:none;}
	.모퉁이_x0020_둥글리기_x0020_2pt{fill:#FFFFFF;stroke:#231815;stroke-miterlimit:10;}
	.라이브_x0020_반사_x0020_X{fill:none;}
	.경사_x0020_부드럽게{fill:url(#SVGID_1_);}
	.황혼{fill:#FFFFFF;}
	.잎_GS{fill:#FFE100;}
	.퐁파두르_GS{fill-rule:evenodd;clip-rule:evenodd;fill:#4CACE2;}
	.st0{fill:#0C3A1A;}
	.st1{opacity:0.3;}
	.st2{fill:#247C4B;}
	.st3{opacity:0.3;clip-path:url(#SVGID_00000125567845311264239690000005465552731032057274_);}
	.st4{fill:#E8E8E8;}
</style>
<linearGradient
   id="SVGID_1_"
   gradientUnits="userSpaceOnUse"
   x1="0"
   y1="0"
   x2="0.7071"
   y2="0.7071">
	<stop
   offset="0"
   style="stop-color:#E6E7EA"
   id="stop4" />
	<stop
   offset="0.1747"
   style="stop-color:#E2E3E6"
   id="stop6" />
	<stop
   offset="0.3538"
   style="stop-color:#D6D7DA"
   id="stop8" />
	<stop
   offset="0.5349"
   style="stop-color:#C1C4C5"
   id="stop10" />
	<stop
   offset="0.7174"
   style="stop-color:#A4A8A8"
   id="stop12" />
	<stop
   offset="0.8993"
   style="stop-color:#808584"
   id="stop14" />
	<stop
   offset="1"
   style="stop-color:#686E6C"
   id="stop16" />
</linearGradient>
<g
   id="g51">
	
	<g
   id="g43">
		<defs
   id="defs36">
			<circle
   id="SVGID_00000014635871291731481040000003339130045624146062_"
   cx="27"
   cy="27"
   r="25" />
		</defs>
		<clipPath
   id="SVGID_00000067915007684947920160000018335078999823203504_">
			<use
   xlink:href="#SVGID_00000014635871291731481040000003339130045624146062_"
   style="overflow:visible;"
   id="use38" />
		</clipPath>
		<polygon
   style="opacity:0.3;clip-path:url(#SVGID_00000067915007684947920160000018335078999823203504_);"
   points="64.29,43.7     42,63 18,41 21,30 29,14 37,23 40,20   "
   clip-path="url(#SVGID_00000067915007684947920160000018335078999823203504_)"
   id="polygon41" />
	</g>
	<path
   class="st1"
   d="M15.94,24.16c0,0-6.98,16.13,8.31,20.36c0,0-2.87-2.54-2.43-5.49c0.39-2.59,2.28-4.04,1.05-6.85   c0,0,2.39,1.33,2.93,3.22c0,0-0.68-5.48,3.69-6.4c0,0-0.96,3.33,0.61,4.11c1.57,0.78,2.59,3.65,1.91,5.26c0,0,2.52-2.28,2.73-4.14   c0,0,1.08,8.02-2.34,10.6c0,0,7.11-2.95,7.93-8.64s-3.63-7.31,1.01-14.86c0,0-6.8-0.19-8.24,4.13c0,0,2.18-9.18-8.19-13.69   c0,0,2.39,4.2-1.3,8.52s-3.28,10.62-3.28,10.62S15.63,28.87,15.94,24.16z"
   id="path45" />
	<path
   class="st4"
   d="M14.94,23.16c0,0-6.98,16.13,8.31,20.36c0,0-2.87-2.54-2.43-5.49c0.39-2.59,2.28-4.04,1.05-6.85   c0,0,2.39,1.33,2.93,3.22c0,0-0.68-5.48,3.69-6.4c0,0-0.96,3.33,0.61,4.11c1.57,0.78,2.59,3.65,1.91,5.26c0,0,2.52-2.28,2.73-4.14   c0,0,1.08,8.02-2.34,10.6c0,0,7.11-2.95,7.93-8.64s-3.63-7.31,1.01-14.86c0,0-6.8-0.19-8.24,4.13c0,0,2.18-9.18-8.19-13.69   c0,0,2.39,4.2-1.3,8.52s-3.28,10.62-3.28,10.62S14.63,27.87,14.94,23.16z"
   id="path47" />
	<path
   class="st4"
   d="M14.94,23.16c0,0-6.98,16.13,8.31,20.36c0,0-2.87-2.54-2.43-5.49c0.39-2.59,2.28-4.04,1.05-6.85   c0,0,2.39,1.33,2.93,3.22c0,0-0.68-5.48,3.69-6.4c0,0-0.96,3.33,0.61,4.11c1.57,0.78,2.59,3.65,1.91,5.26c0,0,2.52-2.28,2.73-4.14   c0,0,1.08,8.02-2.34,10.6c0,0,7.11-2.95,7.93-8.64s-3.63-7.31,1.01-14.86c0,0-6.8-0.19-8.24,4.13c0,0,2.18-9.18-8.19-13.69   c0,0,2.39,4.2-1.3,8.52s-3.28,10.62-3.28,10.62S14.63,27.87,14.94,23.16z"
   id="path49" />
  <circle
    cx="27"
    cy="27"
    r="27"
    style="fill:#ffffff;fill-opacity:0"/>
</g>
</svg>
