<?xml version="1.0" encoding="utf-8"?>
<!-- Generator: Adobe Illustrator 25.4.1, SVG Export Plug-In . SVG Version: 6.00 Build 0)  -->
<svg version="1.1" id="레이어_1" xmlns="http://www.w3.org/2000/svg" xmlns:xlink="http://www.w3.org/1999/xlink" x="0px"
	 y="0px" viewBox="0 0 50 50" style="enable-background:new 0 0 50 50;" xml:space="preserve">
<style type="text/css">
	.그림자_x0020_만들기{fill:none;}
	.모퉁이_x0020_둥글리기_x0020_2pt{fill:#FFFFFF;stroke:#231815;stroke-miterlimit:10;}
	.라이브_x0020_반사_x0020_X{fill:none;}
	.경사_x0020_부드럽게{fill:url(#SVGID_1_);}
	.황혼{fill:#FFFFFF;}
	.잎_GS{fill:#FFE100;}
	.퐁파두르_GS{fill-rule:evenodd;clip-rule:evenodd;fill:#4CACE2;}
	.st0{opacity:0.3;clip-path:url(#SVGID_00000178900239972145076470000007295322593524223380_);}
	.st1{fill:none;}
	.st2{fill:#6B6B6B;}
	.st3{fill:#9E9E9E;}
	.st4{opacity:0.3;}
	.st5{fill:#E8E8E8;}
</style>
<linearGradient id="SVGID_1_" gradientUnits="userSpaceOnUse" x1="0" y1="0" x2="0.7071" y2="0.7071">
	<stop  offset="0" style="stop-color:#E6E7EA"/>
	<stop  offset="0.1747" style="stop-color:#E2E3E6"/>
	<stop  offset="0.3538" style="stop-color:#D6D7DA"/>
	<stop  offset="0.5349" style="stop-color:#C1C4C5"/>
	<stop  offset="0.7174" style="stop-color:#A4A8A8"/>
	<stop  offset="0.8993" style="stop-color:#808584"/>
	<stop  offset="1" style="stop-color:#686E6C"/>
</linearGradient>
<g>
	<g>
		<defs>
			<rect id="SVGID_00000160169237421928924580000017955284390278872986_" width="50" height="50"/>
		</defs>
		<clipPath id="SVGID_00000063609284182269705050000014184320177651785371_">
			<use xlink:href="#SVGID_00000160169237421928924580000017955284390278872986_"  style="overflow:visible;"/>
		</clipPath>
		<polygon style="opacity:0.3;clip-path:url(#SVGID_00000063609284182269705050000014184320177651785371_);" points="62.01,44.47 
			36.35,63.93 13.93,39.3 15.17,37.46 9.67,29.21 11.4,21.55 13.44,23.56 14.72,18.23 22.18,18.23 22.18,16.9 27.18,15.2 
			30.08,17.51 33.68,11.54 38.69,12.25 55.99,30.69 		"/>
	</g>
	<g>
		<path class="st1" d="M32.71,23.54H19.38c-0.37,0-0.67,0.3-0.67,0.67s0.3,0.67,0.67,0.67h13.33c0.37,0,0.67-0.3,0.67-0.67
			S33.08,23.54,32.71,23.54z"/>
		<path class="st1" d="M32.71,26.87H19.38c-0.37,0-0.67,0.3-0.67,0.67s0.3,0.67,0.67,0.67h13.33c0.37,0,0.67-0.3,0.67-0.67
			S33.08,26.87,32.71,26.87z"/>
		<path class="st1" d="M32.71,30.21H19.38c-0.37,0-0.67,0.3-0.67,0.67c0,0.37,0.3,0.67,0.67,0.67h13.33c0.37,0,0.67-0.3,0.67-0.67
			C33.38,30.51,33.08,30.21,32.71,30.21z"/>
		<path class="st1" d="M29.94,21.54H19.38c-0.37,0-0.66-0.3-0.66-0.67c0-0.37,0.3-0.66,0.66-0.66h9.5
			C29.18,20.69,29.53,21.14,29.94,21.54z"/>
		<path class="st2" d="M41.38,22.21v7.34c0,2.21-1.79,4-4,4V23.19c1.46-0.52,2.71-1.49,3.57-2.75
			C41.21,20.97,41.38,21.57,41.38,22.21z"/>
		<path class="st3" d="M34.98,23.61c-1.97,0-3.74-0.79-5.04-2.06H19.38c-0.37,0-0.66-0.3-0.66-0.67c0-0.37,0.3-0.66,0.66-0.66h9.5
			c-0.38-0.61-0.67-1.28-0.86-2H16.04v15.34h20V23.52C35.7,23.57,35.34,23.61,34.98,23.61z M32.71,31.54H19.38
			c-0.37,0-0.66-0.3-0.66-0.67c0-0.37,0.3-0.66,0.66-0.66h13.34c0.37,0,0.66,0.3,0.66,0.66C33.38,31.25,33.08,31.54,32.71,31.54z
			 M32.71,28.21H19.38c-0.37,0-0.66-0.3-0.66-0.66s0.3-0.67,0.66-0.67h13.34c0.37,0,0.66,0.3,0.66,0.67S33.08,28.21,32.71,28.21z
			 M32.71,24.87H19.38c-0.37,0-0.66-0.3-0.66-0.66s0.3-0.66,0.66-0.66h13.34c0.37,0,0.66,0.3,0.66,0.66S33.08,24.87,32.71,24.87z"/>
		<path class="st2" d="M20.71,36.87h-2.67h-3.4c-0.7,0-1.27,0.57-1.27,1.27v0.13c0,0.7,0.57,1.27,1.27,1.27h22.8
			c0.7,0,1.27-0.57,1.27-1.27v-0.13c0-0.7-0.57-1.27-1.27-1.27h-3.4h-2.67H20.71z"/>
		<rect x="18.04" y="33.54" class="st2" width="2.67" height="3.33"/>
		<rect x="31.38" y="33.54" class="st2" width="2.67" height="3.33"/>
		<path class="st2" d="M14.71,18.21c-1.1,0-2,0.9-2,2v11.33c0,1.1,0.9,2,2,2V18.21z"/>
		<path class="st2" d="M9.38,23.54v4.67c0,1.1,0.9,2,2,2v-8.67C10.27,21.54,9.38,22.44,9.38,23.54z"/>
		<path class="st2" d="M27.8,16.87h0.24v-0.12c0-0.32-0.09-0.63-0.24-0.89c0,0,0-0.01,0-0.01c-0.32-0.58-0.93-0.98-1.64-0.98h-2.11
			c-1.04,0-1.88,0.84-1.88,1.88v0.12L27.8,16.87"/>
	</g>
	<g class="st4">
		<g>
			<g>
				<g>
					<path d="M35.98,11.73c-3.09,0-5.6,2.5-5.6,5.6c0,3.1,2.51,5.6,5.6,5.6c3.1,0,5.6-2.5,5.6-5.6
						C41.58,14.24,39.07,11.73,35.98,11.73z M39.37,19.48c-0.22,1.54-2.33,2.4-2.33,2.4c0.87-0.63,0.85-2.17,0.81-2.93
						c-0.06,0.51-1.13,1.19-1.13,1.19c0.18-0.44,0.25-0.97-0.18-1.19c-0.42-0.21-0.33-1.07-0.33-1.07c-0.95,0.6-0.56,2.02-0.56,2.02
						c-0.15-0.51-0.88-1.06-0.88-1.06c0.34,0.76-0.02,0.82-0.12,1.53c-0.12,0.8,0.82,1.62,0.82,1.62c-4.53-1.11-2.72-5.77-2.72-5.77
						c-0.09,1.27,1.2,1.83,1.2,1.83s-0.61-1.93,0.65-2.91c1.22-0.94,0.59-2.29,0.59-2.29c2.82,1.22,2.22,3.72,2.22,3.72
						c0.39-1.18,2.24-1.13,2.24-1.13C38.38,17.49,39.59,17.93,39.37,19.48z"/>
				</g>
			</g>
		</g>
	</g>
	<g>
		<g>
			<g>
				<g>
					<path class="st5" d="M34.98,10.73c-3.09,0-5.6,2.5-5.6,5.6c0,3.1,2.51,5.6,5.6,5.6c3.1,0,5.6-2.5,5.6-5.6
						C40.58,13.24,38.07,10.73,34.98,10.73z M38.37,18.48c-0.22,1.54-2.33,2.4-2.33,2.4c0.87-0.63,0.85-2.17,0.81-2.93
						c-0.06,0.51-1.13,1.19-1.13,1.19c0.18-0.44,0.25-0.97-0.18-1.19c-0.42-0.21-0.33-1.07-0.33-1.07c-0.95,0.6-0.56,2.02-0.56,2.02
						c-0.15-0.51-0.88-1.06-0.88-1.06c0.34,0.76-0.02,0.82-0.12,1.53c-0.12,0.8,0.82,1.62,0.82,1.62c-4.53-1.11-2.72-5.77-2.72-5.77
						c-0.09,1.27,1.2,1.83,1.2,1.83s-0.61-1.93,0.65-2.91c1.22-0.94,0.59-2.29,0.59-2.29c2.82,1.22,2.22,3.72,2.22,3.72
						c0.39-1.18,2.24-1.13,2.24-1.13C37.38,16.49,38.59,16.93,38.37,18.48z"/>
				</g>
			</g>
		</g>
	</g>
  <rect
    width="50"
    height="50"
    x="0"
    y="0"
    style="fill:#ffffff;fill-opacity:0" />
</g>
</svg>
