<?xml version="1.0" encoding="utf-8"?>
<!-- Generator: Adobe Illustrator 25.4.1, SVG Export Plug-In . SVG Version: 6.00 Build 0)  -->
<svg version="1.1" id="레이어_1" xmlns="http://www.w3.org/2000/svg" xmlns:xlink="http://www.w3.org/1999/xlink" x="0px"
	 y="0px" viewBox="0 0 50 50" style="enable-background:new 0 0 50 50;" xml:space="preserve">
<style type="text/css">
	.그림자_x0020_만들기{fill:none;}
	.모퉁이_x0020_둥글리기_x0020_2pt{fill:#FFFFFF;stroke:#231815;stroke-miterlimit:10;}
	.라이브_x0020_반사_x0020_X{fill:none;}
	.경사_x0020_부드럽게{fill:url(#SVGID_1_);}
	.황혼{fill:#FFFFFF;}
	.잎_GS{fill:#FFE100;}
	.퐁파두르_GS{fill-rule:evenodd;clip-rule:evenodd;fill:#4CACE2;}
	.st0{opacity:0.3;clip-path:url(#SVGID_00000104688304982217293660000004527250883998419097_);}
	.st1{opacity:0.3;}
	.st2{fill:#E8E8E8;}
</style>
<linearGradient id="SVGID_1_" gradientUnits="userSpaceOnUse" x1="0" y1="0" x2="0.7071" y2="0.7071">
	<stop  offset="0" style="stop-color:#E6E7EA"/>
	<stop  offset="0.1747" style="stop-color:#E2E3E6"/>
	<stop  offset="0.3538" style="stop-color:#D6D7DA"/>
	<stop  offset="0.5349" style="stop-color:#C1C4C5"/>
	<stop  offset="0.7174" style="stop-color:#A4A8A8"/>
	<stop  offset="0.8993" style="stop-color:#808584"/>
	<stop  offset="1" style="stop-color:#686E6C"/>
</linearGradient>
<g>
	<g>
		<defs>
			<rect id="SVGID_00000145738149968172923740000000671299383026392760_" width="50" height="50"/>
		</defs>
		<clipPath id="SVGID_00000139980990676270971500000017811645558964088470_">
			<use xlink:href="#SVGID_00000145738149968172923740000000671299383026392760_"  style="overflow:visible;"/>
		</clipPath>
		<polygon style="opacity:0.3;clip-path:url(#SVGID_00000139980990676270971500000017811645558964088470_);" points="58.99,36.26 
			39.45,67.45 9.74,37.15 13.48,10.05 37.4,10.12 		"/>
	</g>
	<g class="st1">
		<path d="M36.4,35.52c-1.48-0.08-2.94,0.5-4,1.58c-0.19,0.19-0.19,0.51,0,0.71c0.09,0.09,0.2,0.14,0.32,0.15
			c0.13,0.01,0.27-0.04,0.37-0.15c0.86-0.88,2.05-1.35,3.26-1.29c1.15,0.06,2.22,0.58,2.99,1.46c0.18,0.21,0.49,0.22,0.69,0.03
			c0.2-0.19,0.22-0.5,0.04-0.71C39.11,36.23,37.81,35.59,36.4,35.52z"/>
		<path d="M41.85,35.65c-1.38-1.57-3.27-2.5-5.33-2.6c-2.14-0.11-4.17,0.67-5.73,2.21c-0.19,0.19-0.2,0.51-0.02,0.71
			c0.09,0.1,0.21,0.15,0.33,0.15c0.13,0.01,0.26-0.04,0.36-0.14c1.37-1.34,3.14-2.03,5.01-1.93c1.8,0.09,3.45,0.9,4.66,2.28
			c0.18,0.2,0.49,0.22,0.69,0.04C42.02,36.17,42.03,35.86,41.85,35.65z"/>
		<path d="M36.27,37.99c-0.85-0.04-1.68,0.31-2.27,0.96c-0.18,0.2-0.17,0.52,0.03,0.71c0.09,0.08,0.2,0.13,0.31,0.13
			c0.14,0.01,0.28-0.05,0.38-0.16c0.76-0.84,2.1-0.82,2.83,0.01c0.18,0.2,0.49,0.22,0.69,0.03c0.2-0.19,0.22-0.5,0.04-0.71
			C37.75,38.38,37.04,38.03,36.27,37.99z"/>
	</g>
	<circle class="st1" cx="36.14" cy="41.2" r="0.8"/>
	<g>
		<path class="st2" d="M35.4,34.52c-1.48-0.08-2.94,0.5-4,1.58c-0.19,0.19-0.19,0.51,0,0.71c0.09,0.09,0.2,0.14,0.32,0.15
			c0.13,0.01,0.27-0.04,0.37-0.15c0.86-0.88,2.05-1.35,3.26-1.29c1.15,0.06,2.22,0.58,2.99,1.46c0.18,0.21,0.49,0.22,0.69,0.03
			c0.2-0.19,0.22-0.5,0.04-0.71C38.11,35.23,36.81,34.59,35.4,34.52z"/>
		<path class="st2" d="M40.85,34.65c-1.38-1.57-3.27-2.5-5.33-2.6c-2.14-0.11-4.17,0.67-5.73,2.21c-0.19,0.19-0.2,0.51-0.02,0.71
			c0.09,0.1,0.21,0.15,0.33,0.15c0.13,0.01,0.26-0.04,0.36-0.14c1.37-1.34,3.14-2.03,5.01-1.93c1.8,0.09,3.45,0.9,4.66,2.28
			c0.18,0.2,0.49,0.22,0.69,0.04C41.02,35.17,41.03,34.86,40.85,34.65z"/>
		<path class="st2" d="M35.27,36.99c-0.85-0.04-1.68,0.31-2.27,0.96c-0.18,0.2-0.17,0.52,0.03,0.71c0.09,0.08,0.2,0.13,0.31,0.13
			c0.14,0.01,0.28-0.05,0.38-0.16c0.76-0.84,2.1-0.82,2.83,0.01c0.18,0.2,0.49,0.22,0.69,0.03c0.2-0.19,0.22-0.5,0.04-0.71
			C36.75,37.38,36.04,37.03,35.27,36.99z"/>
	</g>
	<circle class="st2" cx="35.14" cy="40.2" r="0.8"/>
	<circle class="st1" cx="19.58" cy="24.4" r="1.6"/>
	<circle class="st1" cx="28.38" cy="24.4" r="1.6"/>
	<g class="st1">
		<path d="M36.38,10h-24c-1.33,0-2.4,1.07-2.4,2.4v24c0,1.33,1.07,2.4,2.4,2.4h18.77c-0.27-0.33-0.43-0.73-0.47-1.14
			c-0.41-0.09-0.78-0.3-1.07-0.61c-0.77-0.83-0.74-2.15,0.06-2.94c1.76-1.72,4.05-2.67,6.46-2.67c0.15,0,0.31,0,0.47,0.01
			c0.75,0.04,1.47,0.18,2.18,0.39V12.4C38.78,11.07,37.71,10,36.38,10z M25.98,34.66V33.6c0-0.22-0.18-0.4-0.4-0.4h-2.4
			c-0.22,0-0.4,0.18-0.4,0.4v1.06c-4.98-0.77-8.8-5.06-8.8-10.26s3.82-9.5,8.8-10.26v1.06c0,0.22,0.18,0.4,0.4,0.4h2.4
			c0.22,0,0.4-0.18,0.4-0.4v-1.06c4.98,0.77,8.8,5.06,8.8,10.26S30.96,33.9,25.98,34.66z"/>
	</g>
	<circle class="st2" cx="18.58" cy="23.4" r="1.6"/>
	<circle class="st2" cx="27.38" cy="23.4" r="1.6"/>
	<g>
		<path class="st2" d="M35.38,9h-24c-1.33,0-2.4,1.07-2.4,2.4v24c0,1.33,1.07,2.4,2.4,2.4h18.77c-0.27-0.33-0.43-0.73-0.47-1.14
			c-0.41-0.09-0.78-0.3-1.07-0.61c-0.77-0.83-0.74-2.15,0.06-2.94c1.76-1.72,4.05-2.67,6.46-2.67c0.15,0,0.31,0,0.47,0.01
			c0.75,0.04,1.47,0.18,2.18,0.39V11.4C37.78,10.07,36.71,9,35.38,9z M24.98,33.66V32.6c0-0.22-0.18-0.4-0.4-0.4h-2.4
			c-0.22,0-0.4,0.18-0.4,0.4v1.06c-4.98-0.77-8.8-5.06-8.8-10.26s3.82-9.5,8.8-10.26v1.06c0,0.22,0.18,0.4,0.4,0.4h2.4
			c0.22,0,0.4-0.18,0.4-0.4v-1.06c4.98,0.77,8.8,5.06,8.8,10.26S29.96,32.9,24.98,33.66z"/>
	</g>
  <rect
    width="50"
    height="50"
    x="0"
    y="0"
    style="fill:#ffffff;fill-opacity:0" />
</g>
</svg>
