<?xml version="1.0" encoding="UTF-8" standalone="no"?>
<!-- Generator: Adobe Illustrator 25.4.1, SVG Export Plug-In . SVG Version: 6.00 Build 0)  -->

<svg
   version="1.1"
   id="레이어_1"
   x="0px"
   y="0px"
   viewBox="0 0 54 54"
   style="enable-background:new 0 0 54 54;"
   xml:space="preserve"
   xmlns:xlink="http://www.w3.org/1999/xlink"
   xmlns="http://www.w3.org/2000/svg"
   xmlns:svg="http://www.w3.org/2000/svg"><defs
   id="defs86" />
<style
   type="text/css"
   id="style2">
	.그림자_x0020_만들기{fill:none;}
	.모퉁이_x0020_둥글리기_x0020_2pt{fill:#FFFFFF;stroke:#231815;stroke-miterlimit:10;}
	.라이브_x0020_반사_x0020_X{fill:none;}
	.경사_x0020_부드럽게{fill:url(#SVGID_1_);}
	.황혼{fill:#FFFFFF;}
	.잎_GS{fill:#FFE100;}
	.퐁파두르_GS{fill-rule:evenodd;clip-rule:evenodd;fill:#4CACE2;}
	.st0{fill:#0C3A1A;}
	.st1{opacity:0.3;}
	.st2{fill:#247C4B;}
	.st3{opacity:0.3;clip-path:url(#SVGID_00000049218245522801495960000012676178284843821227_);}
	.st4{opacity:0.7;}
	.st5{opacity:0.2;fill:#FFFFFF;}
	.st6{opacity:0.2;}
	.st7{fill:#E8E8E8;}
	.st8{fill:#6B6B6B;}
	.st9{fill:#9E9E9E;}
</style>
<linearGradient
   id="SVGID_1_"
   gradientUnits="userSpaceOnUse"
   x1="0"
   y1="0"
   x2="0.7071"
   y2="0.7071">
	<stop
   offset="0"
   style="stop-color:#E6E7EA"
   id="stop4" />
	<stop
   offset="0.1747"
   style="stop-color:#E2E3E6"
   id="stop6" />
	<stop
   offset="0.3538"
   style="stop-color:#D6D7DA"
   id="stop8" />
	<stop
   offset="0.5349"
   style="stop-color:#C1C4C5"
   id="stop10" />
	<stop
   offset="0.7174"
   style="stop-color:#A4A8A8"
   id="stop12" />
	<stop
   offset="0.8993"
   style="stop-color:#808584"
   id="stop14" />
	<stop
   offset="1"
   style="stop-color:#686E6C"
   id="stop16" />
</linearGradient>
<g
   id="g81">
	
	<g
   id="g43">
		<defs
   id="defs36">
			<circle
   id="SVGID_00000168827314295409715450000004277530247791828156_"
   cx="27"
   cy="27"
   r="25" />
		</defs>
		<clipPath
   id="SVGID_00000073684402770391679330000001546525322900667021_">
			<use
   xlink:href="#SVGID_00000168827314295409715450000004277530247791828156_"
   style="overflow:visible;"
   id="use38" />
		</clipPath>
		<polygon
   style="opacity:0.3;clip-path:url(#SVGID_00000073684402770391679330000001546525322900667021_);"
   points="66.29,41.7     44.15,64.03 17,42 20.63,15.11 37,15   "
   clip-path="url(#SVGID_00000073684402770391679330000001546525322900667021_)"
   id="polygon41" />
	</g>
	<g
   class="st4"
   id="g57">
		<g
   id="g49">
			<path
   d="M30.37,12.44H25.2c-1.43,0-2.59,1.16-2.59,2.59h10.34C32.96,13.6,31.8,12.44,30.37,12.44z"
   id="path45" />
			<path
   d="M35.54,15.03H20.03c-1.43,0-2.59,1.15-2.59,2.58v7.76v15.51c0,1.43,1.16,2.59,2.59,2.59h15.51     c1.43,0,2.59-1.16,2.59-2.59V25.37v-7.76C38.13,16.18,36.97,15.03,35.54,15.03z M26.92,40.23l0.64-5.36h-3.92l4.9-6.88     l-0.48,5.13h3.86L26.92,40.23z M24.86,19.22h1.95v-1.95c0-0.54,0.44-0.98,0.98-0.98c0.54,0,0.98,0.44,0.98,0.98v1.95h1.95     c0.54,0,0.98,0.44,0.98,0.98s-0.44,0.98-0.98,0.98h-1.95v1.95c0,0.54-0.44,0.98-0.98,0.98c-0.54,0-0.98-0.44-0.98-0.98v-1.95     h-1.95c-0.54,0-0.98-0.44-0.98-0.98S24.31,19.22,24.86,19.22z"
   id="path47" />
		</g>
		<g
   id="g55">
			<path
   class="st5"
   d="M30.37,12.44H25.2c-1.43,0-2.59,1.16-2.59,2.59h10.34C32.96,13.6,31.8,12.44,30.37,12.44z"
   id="path51" />
			<path
   class="st6"
   d="M35.54,15.03H20.03c-1.43,0-2.59,1.15-2.59,2.58v7.76v15.51c0,1.43,1.16,2.59,2.59,2.59h15.51     c1.43,0,2.59-1.16,2.59-2.59V25.37v-7.76C38.13,16.18,36.97,15.03,35.54,15.03z M26.92,40.23l0.64-5.36h-3.92l4.9-6.88     l-0.48,5.13h3.86L26.92,40.23z M24.86,19.22h1.95v-1.95c0-0.54,0.44-0.98,0.98-0.98c0.54,0,0.98,0.44,0.98,0.98v1.95h1.95     c0.54,0,0.98,0.44,0.98,0.98s-0.44,0.98-0.98,0.98h-1.95v1.95c0,0.54-0.44,0.98-0.98,0.98c-0.54,0-0.98-0.44-0.98-0.98v-1.95     h-1.95c-0.54,0-0.98-0.44-0.98-0.98S24.31,19.22,24.86,19.22z"
   id="path53" />
		</g>
	</g>
	<path
   class="st7"
   d="M31.99,14.06H21.64v0c0-1.43,1.16-2.59,2.59-2.59h5.17C30.83,11.47,31.99,12.63,31.99,14.06L31.99,14.06z"
   id="path59" />
	<g
   id="g69">
		<g
   id="g63">
			<path
   class="st8"
   d="M34.57,14.06H19.06c-1.43,0-2.59,1.15-2.59,2.58v7.76h20.69v-7.76C37.16,15.21,36,14.06,34.57,14.06z      M29.74,20.21h-1.95v1.95c0,0.54-0.44,0.98-0.98,0.98c-0.54,0-0.98-0.44-0.98-0.98v-1.95h-1.95c-0.54,0-0.98-0.44-0.98-0.98     s0.44-0.98,0.98-0.98h1.95V16.3c0-0.54,0.44-0.98,0.98-0.98c0.54,0,0.98,0.44,0.98,0.98v1.95h1.95c0.54,0,0.98,0.44,0.98,0.98     S30.29,20.21,29.74,20.21z"
   id="path61" />
		</g>
		<g
   id="g67">
			<path
   class="st8"
   d="M34.57,14.06H19.06c-1.43,0-2.59,1.15-2.59,2.58v7.76h20.69v-7.76C37.16,15.21,36,14.06,34.57,14.06z      M29.74,20.21h-1.95v1.95c0,0.54-0.44,0.98-0.98,0.98c-0.54,0-0.98-0.44-0.98-0.98v-1.95h-1.95c-0.54,0-0.98-0.44-0.98-0.98     s0.44-0.98,0.98-0.98h1.95V16.3c0-0.54,0.44-0.98,0.98-0.98c0.54,0,0.98,0.44,0.98,0.98v1.95h1.95c0.54,0,0.98,0.44,0.98,0.98     S30.29,20.21,29.74,20.21z"
   id="path65" />
		</g>
	</g>
	<g
   id="g79">
		<g
   id="g73">
			<path
   class="st9"
   d="M16.47,24.4v15.51c0,1.43,1.16,2.59,2.59,2.59h15.51c1.43,0,2.59-1.16,2.59-2.59V24.4H16.47z M25.95,39.26     l0.64-5.36h-3.92l4.9-6.88l-0.48,5.13h3.86L25.95,39.26z"
   id="path71" />
		</g>
		<g
   id="g77">
			<path
   class="st9"
   d="M16.47,24.4v15.51c0,1.43,1.16,2.59,2.59,2.59h15.51c1.43,0,2.59-1.16,2.59-2.59V24.4H16.47z M25.95,39.26     l0.64-5.36h-3.92l4.9-6.88l-0.48,5.13h3.86L25.95,39.26z"
   id="path75" />
		</g>
	</g>
  <circle
    cx="27"
    cy="27"
    r="27"
    style="fill:#ffffff;fill-opacity:0"/>
</g>
</svg>
