<?xml version="1.0" encoding="utf-8"?>
<!-- Generator: Adobe Illustrator 25.4.1, SVG Export Plug-In . SVG Version: 6.00 Build 0)  -->
<svg version="1.1" id="레이어_1" xmlns="http://www.w3.org/2000/svg" xmlns:xlink="http://www.w3.org/1999/xlink" x="0px"
	 y="0px" viewBox="0 0 50 50" style="enable-background:new 0 0 50 50;" xml:space="preserve">
<style type="text/css">
	.그림자_x0020_만들기{fill:none;}
	.모퉁이_x0020_둥글리기_x0020_2pt{fill:#FFFFFF;stroke:#231815;stroke-miterlimit:10;}
	.라이브_x0020_반사_x0020_X{fill:none;}
	.경사_x0020_부드럽게{fill:url(#SVGID_1_);}
	.황혼{fill:#FFFFFF;}
	.잎_GS{fill:#FFE100;}
	.퐁파두르_GS{fill-rule:evenodd;clip-rule:evenodd;fill:#4CACE2;}
	.st0{opacity:0.3;clip-path:url(#SVGID_00000160881165489400552310000011468999786021318053_);}
	.st1{opacity:0.3;}
	.st2{fill:#9E9E9E;}
	.st3{fill:#6B6B6B;}
	.st4{fill:#E8E8E8;}
</style>
<linearGradient id="SVGID_1_" gradientUnits="userSpaceOnUse" x1="0" y1="0" x2="0.7071" y2="0.7071">
	<stop  offset="0" style="stop-color:#E6E7EA"/>
	<stop  offset="0.1747" style="stop-color:#E2E3E6"/>
	<stop  offset="0.3538" style="stop-color:#D6D7DA"/>
	<stop  offset="0.5349" style="stop-color:#C1C4C5"/>
	<stop  offset="0.7174" style="stop-color:#A4A8A8"/>
	<stop  offset="0.8993" style="stop-color:#808584"/>
	<stop  offset="1" style="stop-color:#686E6C"/>
</linearGradient>
<g>
	<g>
		<defs>
			<rect id="SVGID_00000111874823122182517510000008275817901481151912_" width="50" height="50"/>
		</defs>
		<clipPath id="SVGID_00000102508512749126788330000009409792120905947578_">
			<use xlink:href="#SVGID_00000111874823122182517510000008275817901481151912_"  style="overflow:visible;"/>
		</clipPath>
		<polygon style="opacity:0.3;clip-path:url(#SVGID_00000102508512749126788330000009409792120905947578_);" points="64.24,40.49 
			33.57,63.14 10.3,38.56 15,33.3 13.79,20.37 13.79,17.77 15.11,17.37 21.04,17.14 19.14,14.64 26.65,11.65 30.26,12.2 
			31.51,14.56 37.29,10.64 37.35,11.49 38.32,11.82 		"/>
	</g>
	<path class="st1" d="M37,11.2c-0.92,0-1.72,0.52-2.14,1.27c-0.67-0.77-1.65-1.27-2.76-1.27c-1,0-1.9,0.4-2.56,1.05
		c-0.35-1.31-1.53-2.27-2.95-2.27c-1.6,0-2.9,1.24-3.04,2.8c-0.37-0.22-0.79-0.35-1.25-0.35c-1.35,0-2.45,1.1-2.45,2.45
		c0,0.45,0.13,0.86,0.34,1.22h0.88h2.45h0.88c0.12-0.21,0.21-0.44,0.26-0.69c0.53,0.42,1.18,0.69,1.91,0.69
		c0.72,0,1.37-0.26,1.89-0.67c0.27,1.76,1.78,3.12,3.62,3.12c1.74,0,3.19-1.22,3.57-2.84c0.38,0.25,0.84,0.4,1.33,0.4
		c1.35,0,2.45-1.1,2.45-2.45C39.45,12.3,38.35,11.2,37,11.2z"/>
	<g>
		<g>
			<path class="st2" d="M29.87,37.59l-3.65-10.83v-6.02H13.98v6.02l-3.66,10.83C10.2,38.33,10.77,39,11.52,39h16.95
				C29.22,39,29.99,38.33,29.87,37.59z"/>
			<path class="st2" d="M26.22,18.18c0-0.68-0.55-1.22-1.22-1.22h-9.8c-0.68,0-1.22,0.55-1.22,1.22v1.22h12.24V18.18z"/>
		</g>
		<g>
			<path class="st2" d="M29.87,37.59l-3.65-10.83v-6.02H13.98v6.02l-3.66,10.83C10.2,38.33,10.77,39,11.52,39h16.95
				C29.22,39,29.99,38.33,29.87,37.59z"/>
			<path class="st2" d="M26.22,18.18c0-0.68-0.55-1.22-1.22-1.22h-9.8c-0.68,0-1.22,0.55-1.22,1.22v1.22h12.24V18.18z"/>
		</g>
	</g>
	<g>
		<path class="st3" d="M36.02,23.08L36.02,23.08c0-0.68-0.55-1.22-1.22-1.22h-7.35v1.22H36.02z"/>
		<path class="st3" d="M36.02,27.98v-3.52h-8.57v2.2l3.64,10.74c0.09,0.56-0.03,1.12-0.31,1.6h7.69c0.75,0,1.32-0.67,1.21-1.41
			L36.02,27.98z"/>
	</g>
	<path class="st4" d="M36.02,10.22c-0.92,0-1.72,0.52-2.14,1.27c-0.67-0.77-1.65-1.27-2.76-1.27c-1,0-1.9,0.4-2.56,1.05
		C28.21,9.97,27.03,9,25.61,9c-1.6,0-2.9,1.24-3.04,2.8c-0.37-0.22-0.79-0.35-1.25-0.35c-1.35,0-2.45,1.1-2.45,2.45
		c0,0.45,0.13,0.86,0.34,1.22h0.88h2.45h0.88c0.12-0.21,0.21-0.44,0.26-0.69c0.53,0.42,1.18,0.69,1.91,0.69
		c0.72,0,1.37-0.26,1.89-0.67c0.27,1.76,1.78,3.12,3.62,3.12c1.74,0,3.19-1.22,3.57-2.84c0.38,0.25,0.84,0.4,1.33,0.4
		c1.35,0,2.45-1.1,2.45-2.45C38.47,11.32,37.37,10.22,36.02,10.22z"/>
  <rect
    width="50"
    height="50"
    x="0"
    y="0"
    style="fill:#ffffff;fill-opacity:0" />
</g>
</svg>
