<?xml version="1.0" encoding="utf-8"?>
<!-- Generator: Adobe Illustrator 25.4.1, SVG Export Plug-In . SVG Version: 6.00 Build 0)  -->
<svg version="1.1" id="레이어_1" xmlns="http://www.w3.org/2000/svg" xmlns:xlink="http://www.w3.org/1999/xlink" x="0px"
	 y="0px" viewBox="0 0 50 50" style="enable-background:new 0 0 50 50;" xml:space="preserve">
<style type="text/css">
	.그림자_x0020_만들기{fill:none;}
	.모퉁이_x0020_둥글리기_x0020_2pt{fill:#FFFFFF;stroke:#231815;stroke-miterlimit:10;}
	.라이브_x0020_반사_x0020_X{fill:none;}
	.경사_x0020_부드럽게{fill:url(#SVGID_1_);}
	.황혼{fill:#FFFFFF;}
	.잎_GS{fill:#FFE100;}
	.퐁파두르_GS{fill-rule:evenodd;clip-rule:evenodd;fill:#4CACE2;}
	.st0{opacity:0.3;clip-path:url(#SVGID_00000041259344560883721510000016034166043169613240_);}
	.st1{fill:#E8E8E8;}
	.st2{fill:#6B6B6B;}
	.st3{fill:#9E9E9E;}
</style>
<linearGradient id="SVGID_1_" gradientUnits="userSpaceOnUse" x1="0" y1="0" x2="0.7071" y2="0.7071">
	<stop  offset="0" style="stop-color:#E6E7EA"/>
	<stop  offset="0.1747" style="stop-color:#E2E3E6"/>
	<stop  offset="0.3538" style="stop-color:#D6D7DA"/>
	<stop  offset="0.5349" style="stop-color:#C1C4C5"/>
	<stop  offset="0.7174" style="stop-color:#A4A8A8"/>
	<stop  offset="0.8993" style="stop-color:#808584"/>
	<stop  offset="1" style="stop-color:#686E6C"/>
</linearGradient>
<g>
	<g>
		<defs>
			<rect id="SVGID_00000029046955237498037320000013051432434273488039_" width="50" height="50"/>
		</defs>
		<clipPath id="SVGID_00000165212508912610376940000014969368020800067731_">
			<use xlink:href="#SVGID_00000029046955237498037320000013051432434273488039_"  style="overflow:visible;"/>
		</clipPath>
		<polygon style="opacity:0.3;clip-path:url(#SVGID_00000165212508912610376940000014969368020800067731_);" points="60,35 
			40,63.63 13.38,40.33 16,22 18,11 34,11 37.04,10.68 		"/>
	</g>
	<path class="st1" d="M28.71,38.33h-6.67c-0.74,0-1.33,0.6-1.33,1.33v0.67h9.33v-0.67C30.05,38.93,29.45,38.33,28.71,38.33z"/>
	<path class="st1" d="M25.38,9c-2.77,0-5.3,0.16-7.33,0.42v6.25c0,0.74,0.6,1.33,1.33,1.33h12c0.74,0,1.33-0.6,1.33-1.33V9.42
		C30.68,9.16,28.15,9,25.38,9z M30.71,15H20.04c-0.37,0-0.67-0.3-0.67-0.67c0-0.37,0.3-0.67,0.67-0.67h10.67
		c0.37,0,0.67,0.3,0.67,0.67C31.38,14.7,31.08,15,30.71,15z M30.71,12.33H20.04c-0.37,0-0.67-0.3-0.67-0.67S19.68,11,20.04,11h10.67
		c0.37,0,0.67,0.3,0.67,0.67S31.08,12.33,30.71,12.33z"/>
	<path class="st2" d="M29.3,22.29l-2.46,2.46c-0.79-1.34-1.53-2.42-1.53-2.42s-3.34,4.83-3.34,6.67c0,0.19,0.03,0.37,0.06,0.55
		l-2.1,2.11c-0.83-1.12-1.34-2.5-1.34-3.99c0-3.71,3.01-6.73,6.72-6.73C26.8,20.94,28.18,21.46,29.3,22.29z"/>
	<path class="st2" d="M32.03,27.67c0,3.71-3.01,6.72-6.72,6.72c-1.49,0-2.85-0.51-3.96-1.32l1.68-1.68c0.6,0.57,1.38,0.94,2.28,0.94
		c1.84,0,3.33-1.49,3.33-3.33c0-0.58-0.35-1.48-0.81-2.42l2.88-2.87C31.52,24.82,32.03,26.18,32.03,27.67z"/>
	<path class="st3" d="M35.38,9.89c-0.73-0.18-1.63-0.34-2.67-0.47v6.25c0,0.74-0.6,1.33-1.33,1.33h-12c-0.74,0-1.33-0.59-1.33-1.33
		V9.42c-1.04,0.13-1.95,0.29-2.67,0.47c-1.26,0.32-2,0.7-2,1.78v28.66c0,0.08,0.61,0.67,1.37,0.67h5.3c0.36,0,0.66-0.3,0.66-0.67
		v-0.66c0-0.74,0.6-1.34,1.34-1.34h6.66c0.74,0,1.34,0.6,1.34,1.34v0.66c0,0.37,0.3,0.67,0.66,0.67h5.3c0.76,0,1.37-0.59,1.37-0.67
		V11.67C37.38,10.59,36.64,10.21,35.38,9.89z M25.31,36.33c-4.79,0-8.67-3.88-8.67-8.66c0-4.79,3.88-8.67,8.67-8.67
		c4.78,0,8.66,3.88,8.66,8.67C33.97,32.45,30.09,36.33,25.31,36.33z"/>
	<path class="st1" d="M25.31,22.33c0,0-3.34,4.83-3.34,6.67c0,0.19,0.03,0.37,0.06,0.55l0.26-0.25l4.38-4.38l0.17-0.17
		C26.05,23.41,25.31,22.33,25.31,22.33z"/>
	<path class="st1" d="M27.83,26.58l-0.17,0.17l-4.38,4.38l-0.25,0.26c0.6,0.57,1.38,0.94,2.28,0.94c1.84,0,3.33-1.49,3.33-3.33
		C28.64,28.42,28.29,27.52,27.83,26.58z"/>
  <rect
    width="50"
    height="50"
    x="0"
    y="0"
    style="fill:#ffffff;fill-opacity:0" />
</g>
</svg>
