<?xml version="1.0" encoding="utf-8"?>
<!-- Generator: Adobe Illustrator 25.4.1, SVG Export Plug-In . SVG Version: 6.00 Build 0)  -->
<svg version="1.1" id="레이어_1" xmlns="http://www.w3.org/2000/svg" xmlns:xlink="http://www.w3.org/1999/xlink" x="0px"
	 y="0px" viewBox="0 0 50 50" style="enable-background:new 0 0 50 50;" xml:space="preserve">
<style type="text/css">
	.그림자_x0020_만들기{fill:none;}
	.모퉁이_x0020_둥글리기_x0020_2pt{fill:#FFFFFF;stroke:#231815;stroke-miterlimit:10;}
	.라이브_x0020_반사_x0020_X{fill:none;}
	.경사_x0020_부드럽게{fill:url(#SVGID_1_);}
	.황혼{fill:#FFFFFF;}
	.잎_GS{fill:#FFE100;}
	.퐁파두르_GS{fill-rule:evenodd;clip-rule:evenodd;fill:#4CACE2;}
	.st0{opacity:0.3;clip-path:url(#SVGID_00000114771099199218259960000007129888960072753549_);}
	.st1{opacity:0.3;}
	.st2{fill:#E8E8E8;}
	.st3{fill:#9E9E9E;}
</style>
<linearGradient id="SVGID_1_" gradientUnits="userSpaceOnUse" x1="0" y1="0" x2="0.7071" y2="0.7071">
	<stop  offset="0" style="stop-color:#E6E7EA"/>
	<stop  offset="0.1747" style="stop-color:#E2E3E6"/>
	<stop  offset="0.3538" style="stop-color:#D6D7DA"/>
	<stop  offset="0.5349" style="stop-color:#C1C4C5"/>
	<stop  offset="0.7174" style="stop-color:#A4A8A8"/>
	<stop  offset="0.8993" style="stop-color:#808584"/>
	<stop  offset="1" style="stop-color:#686E6C"/>
</linearGradient>
<g>
	<g>
		<defs>
			<rect id="SVGID_00000039115842914734748550000001245776876865691057_" width="50" height="50"/>
		</defs>
		<clipPath id="SVGID_00000163051587710798934730000006466691066637609647_">
			<use xlink:href="#SVGID_00000039115842914734748550000001245776876865691057_"  style="overflow:visible;"/>
		</clipPath>
		<polygon style="opacity:0.3;clip-path:url(#SVGID_00000163051587710798934730000006466691066637609647_);" points="61.64,42 
			35.89,64.31 13.55,40.62 14,34.93 14.74,33.41 17.28,12.78 23.93,12.15 26.59,9.41 30.48,12.15 33.19,11.99 33.33,12.12 		"/>
	</g>
	<g class="st1">
		<path d="M36.67,34v-2h-10v3.33H30v5.34C30,41.4,30.6,42,31.33,42h5.34C37.4,42,38,41.4,38,40.67v-5.34C38,34.6,37.4,34,36.67,34z
			 M36.98,38.15C36.91,38.63,36.5,39,36,39h-4c-0.5,0-0.91-0.37-0.98-0.85C31.01,38.1,31,38.05,31,38s0.01-0.1,0.02-0.15
			C31.09,37.37,31.5,37,32,37h4c0.5,0,0.91,0.37,0.98,0.85C37,37.9,37,37.95,37,38S37,38.1,36.98,38.15z"/>
		<polygon points="36.67,30.48 36.67,27.33 26.67,27.33 26.67,30.48 26.67,30.67 36.67,30.67 		"/>
		<polygon points="36.67,22.85 36.67,22.67 26.67,22.67 26.67,22.85 26.67,26 36.67,26 		"/>
	</g>
	<g>
		<path class="st2" d="M35.67,33v-2h-10v3.33H29v5.34C29,40.4,29.6,41,30.33,41h5.34C36.4,41,37,40.4,37,39.67v-5.34
			C37,33.6,36.4,33,35.67,33z M35.98,37.15C35.91,37.63,35.5,38,35,38h-4c-0.5,0-0.91-0.37-0.98-0.85C30.01,37.1,30,37.05,30,37
			s0.01-0.1,0.02-0.15C30.09,36.37,30.5,36,31,36h4c0.5,0,0.91,0.37,0.98,0.85C36,36.9,36,36.95,36,37S36,37.1,35.98,37.15z"/>
		<polygon class="st2" points="35.67,29.48 35.67,26.33 25.67,26.33 25.67,29.48 25.67,29.67 35.67,29.67 		"/>
		<polygon class="st2" points="35.67,21.85 35.67,21.67 25.67,21.67 25.67,21.85 25.67,25 35.67,25 		"/>
	</g>
	<g>
		<path class="st3" d="M34.33,17h-0.66v-4c0-0.74-0.6-1.33-1.34-1.33h-4.06C27.96,10.15,26.61,9,25,9s-2.96,1.15-3.27,2.67h-4.06
			c-0.74,0-1.34,0.59-1.34,1.33v4h-0.64c-0.75,0-1.36,0.61-1.36,1.36V33C13.6,33,13,33.6,13,34.33v5.34C13,40.4,13.6,41,14.33,41
			h5.34C20.4,41,21,40.4,21,39.67v-5.34h3.33V17h-6.66v-4h4.06c0.31,1.52,1.66,2.67,3.27,2.67s2.96-1.15,3.27-2.67h4.06v4h-6.66
			v3.33h10v-1.94C35.67,17.62,35.07,17,34.33,17z M18,35v1h1c0.5,0,0.91,0.37,0.98,0.85C20,36.9,20,36.95,20,37s0,0.1-0.02,0.15
			C19.91,37.63,19.5,38,19,38h-1v1c0,0.5-0.37,0.91-0.85,0.98C17.1,40,17.05,40,17,40s-0.1,0-0.15-0.02C16.37,39.91,16,39.5,16,39
			v-1h-1c-0.5,0-0.91-0.37-0.98-0.85C14.01,37.1,14,37.05,14,37s0.01-0.1,0.02-0.15C14.09,36.37,14.5,36,15,36h1v-1
			c0-0.5,0.37-0.91,0.85-0.98C16.9,34.01,16.95,34,17,34s0.1,0,0.15,0.02C17.63,34.09,18,34.5,18,35z"/>
	</g>
  <rect
    width="50"
    height="50"
    x="0"
    y="0"
    style="fill:#ffffff;fill-opacity:0" />
</g>
</svg>
