<?xml version="1.0" encoding="utf-8"?>
<!-- Generator: Adobe Illustrator 25.4.1, SVG Export Plug-In . SVG Version: 6.00 Build 0)  -->
<svg version="1.1" id="레이어_1" xmlns="http://www.w3.org/2000/svg" xmlns:xlink="http://www.w3.org/1999/xlink" x="0px"
	 y="0px" viewBox="0 0 50 50" style="enable-background:new 0 0 50 50;" xml:space="preserve">
<style type="text/css">
	.그림자_x0020_만들기{fill:none;}
	.모퉁이_x0020_둥글리기_x0020_2pt{fill:#FFFFFF;stroke:#231815;stroke-miterlimit:10;}
	.라이브_x0020_반사_x0020_X{fill:none;}
	.경사_x0020_부드럽게{fill:url(#SVGID_1_);}
	.황혼{fill:#FFFFFF;}
	.잎_GS{fill:#FFE100;}
	.퐁파두르_GS{fill-rule:evenodd;clip-rule:evenodd;fill:#4CACE2;}
	.st0{opacity:0.3;clip-path:url(#SVGID_00000039100956527799009480000012917661489246904229_);}
	.st1{opacity:0.3;}
	.st2{fill:#E8E8E8;}
	.st3{fill:#9E9E9E;}
</style>
<linearGradient id="SVGID_1_" gradientUnits="userSpaceOnUse" x1="0" y1="0" x2="0.7071" y2="0.7071">
	<stop  offset="0" style="stop-color:#E6E7EA"/>
	<stop  offset="0.1747" style="stop-color:#E2E3E6"/>
	<stop  offset="0.3538" style="stop-color:#D6D7DA"/>
	<stop  offset="0.5349" style="stop-color:#C1C4C5"/>
	<stop  offset="0.7174" style="stop-color:#A4A8A8"/>
	<stop  offset="0.8993" style="stop-color:#808584"/>
	<stop  offset="1" style="stop-color:#686E6C"/>
</linearGradient>
<g>
	<g>
		<defs>
			<rect id="SVGID_00000065042897387404608070000015591715472864776345_" width="50" height="50"/>
		</defs>
		<clipPath id="SVGID_00000090270763126982612130000000104486585371898291_">
			<use xlink:href="#SVGID_00000065042897387404608070000015591715472864776345_"  style="overflow:visible;"/>
		</clipPath>
		<polygon style="opacity:0.3;clip-path:url(#SVGID_00000090270763126982612130000000104486585371898291_);" points="67.74,42.91 
			34.16,61.5 14,41 14.42,11.01 36,10 		"/>
	</g>
	<path class="st1" d="M34.67,10H17.33c-1.47,0-2.67,1.19-2.67,2.67v28.67c0,0.37,0.3,0.67,0.67,0.67h21.33
		c0.37,0,0.67-0.3,0.67-0.67V12.67C37.33,11.19,36.14,10,34.67,10z"/>
	<g>
		<circle class="st2" cx="17" cy="13.67" r="0.67"/>
		<circle class="st3" cx="17" cy="16.33" r="0.67"/>
		<circle class="st3" cx="19.67" cy="13.67" r="0.67"/>
		<circle class="st3" cx="19.67" cy="16.33" r="0.67"/>
		<circle class="st3" cx="22.33" cy="13.67" r="0.67"/>
		<circle class="st2" cx="22.33" cy="16.33" r="0.67"/>
		<circle class="st3" cx="25" cy="13.67" r="0.67"/>
		<circle class="st3" cx="25" cy="16.33" r="0.67"/>
		<circle class="st3" cx="27.67" cy="13.67" r="0.67"/>
		<circle class="st3" cx="27.67" cy="16.33" r="0.67"/>
		<circle class="st2" cx="30.33" cy="13.67" r="0.67"/>
		<circle class="st3" cx="30.33" cy="16.33" r="0.67"/>
		<circle class="st3" cx="33" cy="13.67" r="0.67"/>
		<circle class="st3" cx="33" cy="16.33" r="0.67"/>
		<circle class="st3" cx="17" cy="22.33" r="0.67"/>
		<circle class="st3" cx="17" cy="25" r="0.67"/>
		<circle class="st2" cx="19.67" cy="22.33" r="0.67"/>
		<circle class="st3" cx="19.67" cy="25" r="0.67"/>
		<circle class="st3" cx="22.33" cy="22.33" r="0.67"/>
		<circle class="st2" cx="22.33" cy="25" r="0.67"/>
		<circle class="st3" cx="25" cy="22.33" r="0.67"/>
		<circle class="st3" cx="25" cy="25" r="0.67"/>
		<circle class="st3" cx="27.67" cy="22.33" r="0.67"/>
		<circle class="st3" cx="27.67" cy="25" r="0.67"/>
		<circle class="st3" cx="30.33" cy="22.33" r="0.67"/>
		<circle class="st3" cx="30.33" cy="25" r="0.67"/>
		<circle class="st3" cx="33" cy="22.33" r="0.67"/>
		<circle class="st3" cx="33" cy="25" r="0.67"/>
		<path class="st2" d="M33.67,9H16.33c-1.47,0-2.67,1.19-2.67,2.67v28.67c0,0.37,0.3,0.67,0.67,0.67h21.33
			c0.37,0,0.67-0.3,0.67-0.67V11.67C36.33,10.19,35.14,9,33.67,9z M35,35c0,0.37-0.3,0.67-0.67,0.67H15.67
			C15.3,35.67,15,35.37,15,35v-5.33C15,29.3,15.3,29,15.67,29h18.67C34.7,29,35,29.3,35,29.67V35z M35,26.33
			C35,26.7,34.7,27,34.33,27H15.67C15.3,27,15,26.7,15,26.33V21c0-0.37,0.3-0.67,0.67-0.67h18.67c0.37,0,0.67,0.3,0.67,0.67V26.33z
			 M35,17.67c0,0.37-0.3,0.67-0.67,0.67H15.67c-0.37,0-0.67-0.3-0.67-0.67v-5.33c0-0.37,0.3-0.67,0.67-0.67h18.67
			c0.37,0,0.67,0.3,0.67,0.67V17.67z"/>
		<circle class="st3" cx="17" cy="31" r="0.67"/>
		<circle class="st3" cx="17" cy="33.67" r="0.67"/>
		<circle class="st3" cx="19.67" cy="31" r="0.67"/>
		<circle class="st2" cx="19.67" cy="33.67" r="0.67"/>
		<circle class="st3" cx="22.33" cy="31" r="0.67"/>
		<circle class="st3" cx="22.33" cy="33.67" r="0.67"/>
		<circle class="st3" cx="25" cy="31" r="0.67"/>
		<circle class="st3" cx="25" cy="33.67" r="0.67"/>
		<circle class="st2" cx="27.67" cy="31" r="0.67"/>
		<circle class="st3" cx="27.67" cy="33.67" r="0.67"/>
		<circle class="st3" cx="30.33" cy="31" r="0.67"/>
		<circle class="st2" cx="30.33" cy="33.67" r="0.67"/>
		<circle class="st3" cx="33" cy="31" r="0.67"/>
		<circle class="st3" cx="33" cy="33.67" r="0.67"/>
	</g>
  <rect
    width="50"
    height="50"
    x="0"
    y="0"
    style="fill:#ffffff;fill-opacity:0" />
</g>
</svg>
