<?xml version="1.0" encoding="utf-8"?>
<!-- Generator: Adobe Illustrator 25.4.1, SVG Export Plug-In . SVG Version: 6.00 Build 0)  -->
<svg version="1.1" id="레이어_1" xmlns="http://www.w3.org/2000/svg" xmlns:xlink="http://www.w3.org/1999/xlink" x="0px"
	 y="0px" viewBox="0 0 50 50" style="enable-background:new 0 0 50 50;" xml:space="preserve">
<style type="text/css">
	.그림자_x0020_만들기{fill:none;}
	.모퉁이_x0020_둥글리기_x0020_2pt{fill:#FFFFFF;stroke:#231815;stroke-miterlimit:10;}
	.라이브_x0020_반사_x0020_X{fill:none;}
	.경사_x0020_부드럽게{fill:url(#SVGID_1_);}
	.황혼{fill:#FFFFFF;}
	.잎_GS{fill:#FFE100;}
	.퐁파두르_GS{fill-rule:evenodd;clip-rule:evenodd;fill:#4CACE2;}
	.st0{opacity:0.3;clip-path:url(#SVGID_00000149372917717046567820000005408719287898667908_);}
	.st1{fill:none;}
	.st2{opacity:0.3;}
	.st3{fill:#E8E8E8;}
	.st4{fill:#9E9E9E;}
</style>
<linearGradient id="SVGID_1_" gradientUnits="userSpaceOnUse" x1="0" y1="0" x2="0.7071" y2="0.7071">
	<stop  offset="0" style="stop-color:#E6E7EA"/>
	<stop  offset="0.1747" style="stop-color:#E2E3E6"/>
	<stop  offset="0.3538" style="stop-color:#D6D7DA"/>
	<stop  offset="0.5349" style="stop-color:#C1C4C5"/>
	<stop  offset="0.7174" style="stop-color:#A4A8A8"/>
	<stop  offset="0.8993" style="stop-color:#808584"/>
	<stop  offset="1" style="stop-color:#686E6C"/>
</linearGradient>
<g>
	<g>
		<defs>
			<rect id="SVGID_00000101822951942792221110000009491024901320376992_" width="50" height="50"/>
		</defs>
		<clipPath id="SVGID_00000166663370502031575900000000561067552210435006_">
			<use xlink:href="#SVGID_00000101822951942792221110000009491024901320376992_"  style="overflow:visible;"/>
		</clipPath>
		<polygon style="opacity:0.3;clip-path:url(#SVGID_00000166663370502031575900000000561067552210435006_);" points="63.21,39.55 
			35.66,62.42 11,35.75 11.88,12.85 39.49,12.25 		"/>
	</g>
	<g>
		<circle class="st1" cx="21.99" cy="23.81" r="9.68"/>
	</g>
	<g>
		<path class="st2" d="M38.11,12.71H13.92c-1.22,0-2.23,0.91-2.39,2.09c-0.01,0.09-0.02,0.18-0.03,0.28v19.4
			c0,1.34,1.08,2.42,2.42,2.42h1.21v1.21c0,0.67,0.54,1.21,1.21,1.21h2.42c0.67,0,1.21-0.54,1.21-1.21V36.9h12.1v1.21
			c0,0.67,0.54,1.21,1.21,1.21h2.42c0.67,0,1.21-0.54,1.21-1.21V36.9h1.21c1.34,0,2.42-1.08,2.42-2.42V15.13
			C40.53,13.79,39.45,12.71,38.11,12.71z M23,34.48c-5.35,0-9.68-4.34-9.68-9.68s4.33-9.68,9.68-9.68c5.34,0,9.68,4.34,9.68,9.68
			S28.34,34.48,23,34.48z M38.6,33.76h-3.87v-2.9h3.87V33.76z M38.6,28.92h-3.87v-2.9h3.87V28.92z M38.6,24.08h-3.87v-2.9h3.87
			V24.08z M38.6,19.24h-3.87v-2.9h3.87V19.24z"/>
	</g>
	<g>
		<circle class="st1" cx="21.99" cy="23.81" r="9.68"/>
		<path class="st3" d="M37.11,11.71H12.92c-1.22,0-2.23,0.91-2.39,2.09c-0.01,0.09-0.02,0.18-0.03,0.28v19.4
			c0,1.34,1.08,2.42,2.42,2.42h1.21v1.21c0,0.67,0.54,1.21,1.21,1.21h2.42c0.67,0,1.21-0.54,1.21-1.21V35.9h12.1v1.21
			c0,0.67,0.54,1.21,1.21,1.21h2.42c0.67,0,1.21-0.54,1.21-1.21V35.9h1.21c1.34,0,2.42-1.08,2.42-2.42V14.13
			C39.53,12.79,38.45,11.71,37.11,11.71z M22,33.48c-5.35,0-9.68-4.34-9.68-9.68s4.33-9.68,9.68-9.68c5.34,0,9.68,4.34,9.68,9.68
			S27.34,33.48,22,33.48z M37.6,32.76h-3.87v-2.9h3.87V32.76z M37.6,27.92h-3.87v-2.9h3.87V27.92z M37.6,23.08h-3.87v-2.9h3.87
			V23.08z M37.6,18.24h-3.87v-2.9h3.87V18.24z"/>
	</g>
	<circle class="st2" cx="22.99" cy="24.78" r="0.96"/>
	<circle class="st3" cx="21.99" cy="23.78" r="0.96"/>
	<g>
		<path class="st4" d="M24.21,30.77c-2.02,2.46-5.2,0.75-5.45-0.78c-0.26-1.54,1.02-0.7,2.24-2.34c0.44-0.58,0.62-1.1,0.68-1.55
			c0.1,0.02,0.2,0.04,0.31,0.04c0.48,0,0.93-0.15,1.31-0.4C24.45,26.98,25.6,29.09,24.21,30.77z"/>
		<path class="st4" d="M28.2,27.02c-1.54,0.25-0.7-1.03-2.34-2.25c-0.58-0.44-1.1-0.61-1.55-0.67c0.02-0.11,0.04-0.2,0.04-0.31
			c0-0.48-0.15-0.94-0.4-1.31c1.23-1.16,3.35-2.29,5.03-0.92C31.44,23.59,29.73,26.76,28.2,27.02z"/>
		<path class="st4" d="M22.97,19.93c-0.44,0.58-0.61,1.1-0.67,1.54c-0.11-0.01-0.2-0.03-0.31-0.03c-0.48,0-0.94,0.15-1.31,0.4
			c-1.16-1.24-2.29-3.36-0.92-5.03c2.02-2.47,5.2-0.75,5.46,0.77C25.48,19.11,24.2,18.28,22.97,19.93z"/>
		<path class="st4" d="M20.04,25.09c-1.24,1.15-3.36,2.29-5.03,0.91c-2.47-2.02-0.75-5.2,0.77-5.45c1.54-0.26,0.7,1.02,2.35,2.25
			c0.57,0.44,1.1,0.62,1.54,0.68c-0.02,0.1-0.03,0.2-0.03,0.31C19.65,24.27,19.79,24.72,20.04,25.09z"/>
	</g>
  <rect
      width="50"
      height="50"
      x="0"
      y="0"
      style="fill:#ffffff;fill-opacity:0" />
</g>
</svg>
