<?xml version="1.0" encoding="utf-8"?>
<!-- Generator: Adobe Illustrator 25.4.1, SVG Export Plug-In . SVG Version: 6.00 Build 0)  -->
<svg version="1.1" id="레이어_1" xmlns="http://www.w3.org/2000/svg" xmlns:xlink="http://www.w3.org/1999/xlink" x="0px"
	 y="0px" viewBox="0 0 50 50" style="enable-background:new 0 0 50 50;" xml:space="preserve">
<style type="text/css">
	.그림자_x0020_만들기{fill:none;}
	.모퉁이_x0020_둥글리기_x0020_2pt{fill:#FFFFFF;stroke:#231815;stroke-miterlimit:10;}
	.라이브_x0020_반사_x0020_X{fill:none;}
	.경사_x0020_부드럽게{fill:url(#SVGID_1_);}
	.황혼{fill:#FFFFFF;}
	.잎_GS{fill:#FFE100;}
	.퐁파두르_GS{fill-rule:evenodd;clip-rule:evenodd;fill:#4CACE2;}
	.st0{opacity:0.3;clip-path:url(#SVGID_00000181060767859650632330000005532087388787671698_);}
	.st1{opacity:0.3;}
	.st2{fill:#E8E8E8;}
	.st3{fill:none;}
	.st4{fill:#6B6B6B;}
	.st5{fill:#9E9E9E;}
</style>
<linearGradient id="SVGID_1_" gradientUnits="userSpaceOnUse" x1="0" y1="0" x2="0.7071" y2="0.7071">
	<stop  offset="0" style="stop-color:#E6E7EA"/>
	<stop  offset="0.1747" style="stop-color:#E2E3E6"/>
	<stop  offset="0.3538" style="stop-color:#D6D7DA"/>
	<stop  offset="0.5349" style="stop-color:#C1C4C5"/>
	<stop  offset="0.7174" style="stop-color:#A4A8A8"/>
	<stop  offset="0.8993" style="stop-color:#808584"/>
	<stop  offset="1" style="stop-color:#686E6C"/>
</linearGradient>
<g>
	<g>
		<defs>
			<rect id="SVGID_00000018955069390493757480000015361337970254621826_" width="50" height="50"/>
		</defs>
		<clipPath id="SVGID_00000036951114526677199860000016786467818777093020_">
			<use xlink:href="#SVGID_00000018955069390493757480000015361337970254621826_"  style="overflow:visible;"/>
		</clipPath>
		<polygon style="opacity:0.3;clip-path:url(#SVGID_00000036951114526677199860000016786467818777093020_);" points="62.01,44.47 
			36.35,63.93 13.93,39.3 15.17,37.46 9.67,29.21 11.4,21.55 13.44,23.56 14.72,18.23 22.18,18.23 22.18,16.9 27.18,15.2 
			31.65,18.76 32.03,12.32 38.69,12.25 55.99,30.69 		"/>
	</g>
	<g class="st1">
		<path d="M35.98,11.81c-3.1,0-5.6,2.5-5.6,5.6s2.5,5.6,5.6,5.6s5.6-2.5,5.6-5.6S39.07,11.81,35.98,11.81z M38.86,20.98h-1.7v-2.94
			h-2.35v2.94H33.1v-7.14h1.71v2.71h2.35v-2.71h1.7V20.98z"/>
	</g>
	<g>
		<g>
			<g>
				<g>
					<path class="st2" d="M34.98,10.81c-3.1,0-5.6,2.5-5.6,5.6s2.5,5.6,5.6,5.6s5.6-2.5,5.6-5.6S38.07,10.81,34.98,10.81z
						 M37.86,19.98h-1.7v-2.94h-2.35v2.94H32.1v-7.14h1.71v2.71h2.35v-2.71h1.7V19.98z"/>
				</g>
			</g>
		</g>
	</g>
	<g>
		<path class="st3" d="M32.71,23.55H19.38c-0.37,0-0.67,0.3-0.67,0.67s0.3,0.67,0.67,0.67h13.33c0.37,0,0.67-0.3,0.67-0.67
			S33.08,23.55,32.71,23.55z"/>
		<path class="st3" d="M32.71,26.88H19.38c-0.37,0-0.67,0.3-0.67,0.67s0.3,0.67,0.67,0.67h13.33c0.37,0,0.67-0.3,0.67-0.67
			S33.08,26.88,32.71,26.88z"/>
		<path class="st3" d="M32.71,30.22H19.38c-0.37,0-0.67,0.3-0.67,0.67c0,0.37,0.3,0.67,0.67,0.67h13.33c0.37,0,0.67-0.3,0.67-0.67
			C33.38,30.51,33.08,30.22,32.71,30.22z"/>
		<path class="st3" d="M29.94,21.55H19.38c-0.37,0-0.66-0.3-0.66-0.67c0-0.37,0.3-0.66,0.66-0.66h9.5
			C29.18,20.7,29.53,21.15,29.94,21.55z"/>
		<path class="st4" d="M41.38,22.21v7.34c0,2.21-1.79,4-4,4V23.2c1.46-0.52,2.71-1.49,3.57-2.75
			C41.21,20.98,41.38,21.57,41.38,22.21z"/>
		<path class="st5" d="M34.98,23.61c-1.97,0-3.74-0.79-5.04-2.06H19.38c-0.37,0-0.66-0.3-0.66-0.67c0-0.37,0.3-0.66,0.66-0.66h9.5
			c-0.38-0.61-0.67-1.28-0.86-2H16.04v15.34h20V23.53C35.7,23.58,35.34,23.61,34.98,23.61z M32.71,31.55H19.38
			c-0.37,0-0.66-0.3-0.66-0.67c0-0.37,0.3-0.66,0.66-0.66h13.34c0.37,0,0.66,0.3,0.66,0.66C33.38,31.25,33.08,31.55,32.71,31.55z
			 M32.71,28.21H19.38c-0.37,0-0.66-0.3-0.66-0.66c0-0.37,0.3-0.67,0.66-0.67h13.34c0.37,0,0.66,0.3,0.66,0.67
			C33.38,27.92,33.08,28.21,32.71,28.21z M32.71,24.88H19.38c-0.37,0-0.66-0.3-0.66-0.66c0-0.37,0.3-0.66,0.66-0.66h13.34
			c0.37,0,0.66,0.3,0.66,0.66C33.38,24.58,33.08,24.88,32.71,24.88z"/>
		<path class="st4" d="M20.71,36.88h-2.67h-3.4c-0.7,0-1.27,0.57-1.27,1.27v0.13c0,0.7,0.57,1.27,1.27,1.27h22.8
			c0.7,0,1.27-0.57,1.27-1.27v-0.13c0-0.7-0.57-1.27-1.27-1.27h-3.4h-2.67H20.71z"/>
		<rect x="18.04" y="33.55" class="st4" width="2.67" height="3.33"/>
		<rect x="31.38" y="33.55" class="st4" width="2.67" height="3.33"/>
		<path class="st4" d="M14.71,18.22c-1.1,0-2,0.9-2,2v11.33c0,1.1,0.9,2,2,2V18.22z"/>
		<path class="st4" d="M9.38,23.55v4.67c0,1.1,0.9,2,2,2v-8.67C10.27,21.55,9.38,22.44,9.38,23.55z"/>
		<path class="st4" d="M27.8,16.88h0.24v-0.12c0-0.32-0.09-0.63-0.24-0.89c0,0,0-0.01,0-0.01c-0.32-0.58-0.93-0.98-1.64-0.98h-2.11
			c-1.04,0-1.88,0.84-1.88,1.88v0.12L27.8,16.88"/>
	</g>
  <rect
    width="50"
    height="50"
    x="0"
    y="0"
    style="fill:#ffffff;fill-opacity:0" />
</g>
</svg>
