<?xml version="1.0" encoding="utf-8"?>
<!-- Generator: Adobe Illustrator 25.4.1, SVG Export Plug-In . SVG Version: 6.00 Build 0)  -->
<svg version="1.1" id="레이어_1" xmlns="http://www.w3.org/2000/svg" xmlns:xlink="http://www.w3.org/1999/xlink" x="0px"
	 y="0px" viewBox="0 0 50 50" style="enable-background:new 0 0 50 50;" xml:space="preserve">
<style type="text/css">
	.그림자_x0020_만들기{fill:none;}
	.모퉁이_x0020_둥글리기_x0020_2pt{fill:#FFFFFF;stroke:#231815;stroke-miterlimit:10;}
	.라이브_x0020_반사_x0020_X{fill:none;}
	.경사_x0020_부드럽게{fill:url(#SVGID_1_);}
	.황혼{fill:#FFFFFF;}
	.잎_GS{fill:#FFE100;}
	.퐁파두르_GS{fill-rule:evenodd;clip-rule:evenodd;fill:#4CACE2;}
	.st0{opacity:0.3;clip-path:url(#SVGID_00000153674260876423324230000009898207317382588311_);}
	.st1{fill:#9E9E9E;}
	.st2{opacity:0.3;}
	.st3{fill:#E8E8E8;}
	.st4{opacity:0.3;fill:#E8E8E8;}
</style>
<linearGradient id="SVGID_1_" gradientUnits="userSpaceOnUse" x1="0" y1="0" x2="0.7071" y2="0.7071">
	<stop  offset="0" style="stop-color:#E6E7EA"/>
	<stop  offset="0.1747" style="stop-color:#E2E3E6"/>
	<stop  offset="0.3538" style="stop-color:#D6D7DA"/>
	<stop  offset="0.5349" style="stop-color:#C1C4C5"/>
	<stop  offset="0.7174" style="stop-color:#A4A8A8"/>
	<stop  offset="0.8993" style="stop-color:#808584"/>
	<stop  offset="1" style="stop-color:#686E6C"/>
</linearGradient>
<g>
	<g>
		<defs>
			<rect id="SVGID_00000055688134136920336080000014372538507230518199_" width="50" height="50"/>
		</defs>
		<clipPath id="SVGID_00000086660840774329199170000002776910568832048032_">
			<use xlink:href="#SVGID_00000055688134136920336080000014372538507230518199_"  style="overflow:visible;"/>
		</clipPath>
		<polygon style="opacity:0.3;clip-path:url(#SVGID_00000086660840774329199170000002776910568832048032_);" points="65.45,39.5 
			38.1,59.09 12,32.43 12,14.42 40.53,13.66 		"/>
	</g>
	<path class="st1" d="M29.75,36.62H28.5v-2.5h-4.38v2.5h-1.25c-1.04,0-1.88,0.84-1.88,1.88v0.31c0,0.17,0.14,0.31,0.31,0.31h10
		c0.17,0,0.31-0.14,0.31-0.31V38.5C31.62,37.46,30.79,36.62,29.75,36.62z"/>
	<path class="st2" d="M39.5,15.88c0.28,0,0.5,0.22,0.5,0.5v15c0,0.28-0.22,0.5-0.5,0.5h-25c-0.28,0-0.5-0.22-0.5-0.5v-15
		c0-0.28,0.22-0.5,0.5-0.5H39.5 M39.5,13.88h-25c-1.38,0-2.5,1.12-2.5,2.5v15c0,1.38,1.12,2.5,2.5,2.5h25c1.38,0,2.5-1.12,2.5-2.5
		v-15C42,14.99,40.88,13.88,39.5,13.88L39.5,13.88z"/>
	<path class="st3" d="M38.5,14.88c0.28,0,0.5,0.22,0.5,0.5v15c0,0.28-0.22,0.5-0.5,0.5h-25c-0.28,0-0.5-0.22-0.5-0.5v-15
		c0-0.28,0.22-0.5,0.5-0.5H38.5 M38.5,12.88h-25c-1.38,0-2.5,1.12-2.5,2.5v15c0,1.38,1.12,2.5,2.5,2.5h25c1.38,0,2.5-1.12,2.5-2.5
		v-15C41,13.99,39.88,12.88,38.5,12.88L38.5,12.88z"/>
	<path class="st4" d="M37.35,16h-0.01h-0.01h-22.6c-0.33,0-0.59,0.26-0.59,0.57v12.49c0,0.23,0.18,0.41,0.41,0.41
		c0.04,0,0.07-0.01,0.11-0.02l0.19-0.11l22.6-13.08l0.01-0.01c0.03-0.03,0.04-0.06,0.04-0.11C37.48,16.07,37.42,16.01,37.35,16z"/>
  <rect
    width="50"
    height="50"
    x="0"
    y="0"
    style="fill:#ffffff;fill-opacity:0" />
</g>
</svg>
