<?xml version="1.0" encoding="utf-8"?>
<!-- Generator: Adobe Illustrator 25.4.1, SVG Export Plug-In . SVG Version: 6.00 Build 0)  -->
<svg version="1.1" id="레이어_1" xmlns="http://www.w3.org/2000/svg" xmlns:xlink="http://www.w3.org/1999/xlink" x="0px"
	 y="0px" viewBox="0 0 50 50" style="enable-background:new 0 0 50 50;" xml:space="preserve">
<style type="text/css">
	.그림자_x0020_만들기{fill:none;}
	.모퉁이_x0020_둥글리기_x0020_2pt{fill:#FFFFFF;stroke:#231815;stroke-miterlimit:10;}
	.라이브_x0020_반사_x0020_X{fill:none;}
	.경사_x0020_부드럽게{fill:url(#SVGID_1_);}
	.황혼{fill:#FFFFFF;}
	.잎_GS{fill:#FFE100;}
	.퐁파두르_GS{fill-rule:evenodd;clip-rule:evenodd;fill:#4CACE2;}
	.st0{opacity:0.3;clip-path:url(#SVGID_00000145034723236115216910000010865238162389688481_);}
	.st1{fill:#9E9E9E;}
	.st2{opacity:0.3;}
	.st3{fill:none;}
	.st4{fill:#E8E8E8;}
</style>
<linearGradient id="SVGID_1_" gradientUnits="userSpaceOnUse" x1="0" y1="0" x2="0.7071" y2="0.7071">
	<stop  offset="0" style="stop-color:#E6E7EA"/>
	<stop  offset="0.1747" style="stop-color:#E2E3E6"/>
	<stop  offset="0.3538" style="stop-color:#D6D7DA"/>
	<stop  offset="0.5349" style="stop-color:#C1C4C5"/>
	<stop  offset="0.7174" style="stop-color:#A4A8A8"/>
	<stop  offset="0.8993" style="stop-color:#808584"/>
	<stop  offset="1" style="stop-color:#686E6C"/>
</linearGradient>
<g>
	<g>
		<defs>
			<rect id="SVGID_00000097465757854491039640000011588780622458125486_" width="50" height="50"/>
		</defs>
		<clipPath id="SVGID_00000079447292366620223110000011369695578695445139_">
			<use xlink:href="#SVGID_00000097465757854491039640000011588780622458125486_"  style="overflow:visible;"/>
		</clipPath>
		<polygon style="opacity:0.3;clip-path:url(#SVGID_00000079447292366620223110000011369695578695445139_);" points="54.62,39.15 
			50,50.7 27.1,55.96 10.4,37.9 13.44,11.9 15.44,11.33 18.44,10.82 20.38,10.73 30.54,13.55 36.43,20.95 40,22.61 		"/>
	</g>
	<g>
		<g>
			<path class="st1" d="M32.5,19.52v15.58v1.88c0,0.46-0.13,0.88-0.35,1.25h0.35h1.25h5c0.69,0,1.25-0.56,1.25-1.25V23.13
				C40,21.29,36.74,19.78,32.5,19.52z"/>
		</g>
		<g>
			<path class="st1" d="M32.5,19.52v15.58v1.88c0,0.46-0.13,0.88-0.35,1.25h0.35h1.25h5c0.69,0,1.25-0.56,1.25-1.25V23.13
				C40,21.29,36.74,19.78,32.5,19.52z"/>
		</g>
	</g>
	<g class="st2">
		<g>
			<rect x="16.44" y="24.85" width="3" height="0.29"/>
			<rect x="16.44" y="21.1" width="3" height="0.04"/>
			<rect x="16.44" y="23.15" width="3" height="2"/>
			<rect x="16.44" y="19.15" width="3" height="1.96"/>
			<rect x="16.44" y="15.15" width="3" height="2"/>
			<path d="M19.44,11.81v0.33l0,0v1h-3v-0.82C17.46,12.08,18.25,11.9,19.44,11.81z"/>
			<rect x="16.44" y="27.15" width="3" height="2"/>
			<path d="M32.25,16.1v21.88c0,0.69-0.56,1.25-1.25,1.25H12.25c-0.69,0-1.25-0.56-1.25-1.25V16.1c0-1.27,1.33-2.41,3.44-3.21v20.25
				c0,0.55,0.45,1,1,1s1-0.45,1-1v-2h3v2c0,0.55,0.45,1,1,1s1-0.45,1-1v-21l0,0v-0.4c0.21-0.01-0.03-0.01,0.19-0.01
				C27.49,11.73,32.25,13.7,32.25,16.1z"/>
		</g>
		<g>
			<rect x="16.44" y="24.85" width="3" height="0.29"/>
			<rect x="16.44" y="21.1" width="3" height="0.04"/>
			<rect x="16.44" y="23.15" width="3" height="2"/>
			<rect x="16.44" y="19.15" width="3" height="1.96"/>
			<rect x="16.44" y="15.15" width="3" height="2"/>
			<path d="M19.44,11.81v0.33l0,0v1h-3v-0.82C17.46,12.08,18.25,11.9,19.44,11.81z"/>
			<rect x="16.44" y="27.15" width="3" height="2"/>
			<path d="M32.25,16.1v21.88c0,0.69-0.56,1.25-1.25,1.25H12.25c-0.69,0-1.25-0.56-1.25-1.25V16.1c0-1.27,1.33-2.41,3.44-3.21v20.25
				c0,0.55,0.45,1,1,1s1-0.45,1-1v-2h3v2c0,0.55,0.45,1,1,1s1-0.45,1-1v-21l0,0v-0.4c0.21-0.01-0.03-0.01,0.19-0.01
				C27.49,11.73,32.25,13.7,32.25,16.1z"/>
		</g>
	</g>
	<g>
		<rect x="15.44" y="20.1" class="st3" width="3" height="0.04"/>
		<rect x="15.44" y="22.15" class="st4" width="3" height="2"/>
		<rect x="15.44" y="18.15" class="st4" width="3" height="1.96"/>
		<rect x="15.44" y="14.15" class="st4" width="3" height="2"/>
		<path class="st4" d="M18.44,10.81v0.33l0,0v1h-3v-0.82C16.46,11.08,17.25,10.9,18.44,10.81z"/>
		<rect x="15.44" y="26.15" class="st4" width="3" height="2"/>
		<path class="st4" d="M31.25,15.1v21.88c0,0.69-0.56,1.25-1.25,1.25H11.25c-0.69,0-1.25-0.56-1.25-1.25V15.1
			c0-1.27,1.33-2.41,3.44-3.21v20.25c0,0.55,0.45,1,1,1s1-0.45,1-1v-2h3v2c0,0.55,0.45,1,1,1s1-0.45,1-1v-21l0,0v-0.4
			c0.21-0.01-0.03-0.01,0.19-0.01C26.49,10.73,31.25,12.7,31.25,15.1z"/>
	</g>
  <rect
    width="50"
    height="50"
    x="0"
    y="0"
    style="fill:#ffffff;fill-opacity:0" />
</g>
</svg>
