<svg width="18" height="14" viewBox="0 0 18 14" fill="none" xmlns="http://www.w3.org/2000/svg">
<g clip-path="url(#clip0_433_7904)">
<path d="M17.5 0.5H0.5V13.5H17.5V0.5Z" fill="#100551" stroke="#4394EC"/>
<path d="M9.78526 9.24C9.72659 9.24 9.69727 9.21067 9.69727 9.152V4.088C9.69727 4.02933 9.72659 4 9.78526 4H11.3853C12.0466 4 12.5319 4.12533 12.8413 4.376C13.1506 4.62667 13.3053 4.99733 13.3053 5.488C13.3053 5.86667 13.2173 6.184 13.0413 6.44C12.8653 6.69067 12.6093 6.864 12.2733 6.96V6.968L13.5933 9.136C13.6093 9.16267 13.6119 9.18667 13.6013 9.208C13.5906 9.22933 13.5666 9.24 13.5293 9.24H12.7933C12.7453 9.24 12.7106 9.22133 12.6893 9.184L11.4253 7.072H10.5053V9.152C10.5053 9.21067 10.4759 9.24 10.4173 9.24H9.78526ZM10.5053 6.432H11.3293C11.7399 6.432 12.0359 6.36 12.2173 6.216C12.4039 6.072 12.4973 5.84267 12.4973 5.528C12.4973 5.224 12.4119 5.008 12.2413 4.88C12.0706 4.752 11.7826 4.688 11.3773 4.688H10.5053V6.432Z" fill="#98CAFF"/>
<path d="M6.584 9.24C6.52533 9.24 6.496 9.21067 6.496 9.152V4.72H5.088C5.02933 4.72 5 4.69067 5 4.632V4.088C5 4.02933 5.02933 4 5.088 4H8.72C8.77867 4 8.808 4.02933 8.808 4.088V4.632C8.808 4.69067 8.77867 4.72 8.72 4.72H7.304V9.152C7.304 9.21067 7.27467 9.24 7.216 9.24H6.584Z" fill="#98CAFF"/>
</g>
<defs>
<clipPath id="clip0_433_7904">
<rect width="18" height="14" fill="white"/>
</clipPath>
</defs>
</svg>
