<svg width="18" height="14" viewBox="0 0 18 14" fill="none" xmlns="http://www.w3.org/2000/svg">
<g clip-path="url(#clip0_433_7757)">
<path d="M17.5 0.5H0.5V13.5H17.5V0.5Z" fill="#100551" stroke="#4394EC"/>
<path d="M11.9571 9.3357C11.8985 9.3357 11.8691 9.30637 11.8691 9.2477V4.1837C11.8691 4.12504 11.8985 4.0957 11.9571 4.0957H14.9011C14.9545 4.0957 14.9811 4.12504 14.9811 4.1837V4.7277C14.9811 4.78637 14.9545 4.8157 14.9011 4.8157H12.6771V6.3357H14.7091C14.7625 6.3357 14.7891 6.36237 14.7891 6.4157V6.9357C14.7891 6.99437 14.7625 7.0237 14.7091 7.0237H12.6771V8.6157H14.9011C14.9545 8.6157 14.9811 8.64504 14.9811 8.7037V9.2477C14.9811 9.30637 14.9545 9.3357 14.9011 9.3357H11.9571Z" fill="#98CAFF"/>
<path d="M9.39162 9.43181C8.95428 9.43181 8.59428 9.37048 8.31162 9.24781C8.03428 9.11981 7.83162 8.94381 7.70362 8.71981C7.58095 8.49048 7.53028 8.22115 7.55162 7.91181C7.55695 7.82115 7.59162 7.77581 7.65562 7.77581H8.27162C8.33562 7.77581 8.36762 7.81581 8.36762 7.89581C8.36762 8.18915 8.45562 8.40248 8.63162 8.53581C8.80762 8.66915 9.07962 8.73581 9.44762 8.73581C9.79962 8.73581 10.0636 8.67448 10.2396 8.55181C10.4209 8.42915 10.5116 8.24248 10.5116 7.99181C10.5116 7.86915 10.4903 7.76515 10.4476 7.67981C10.4103 7.58915 10.3409 7.50915 10.2396 7.43981C10.1383 7.37048 10.0049 7.30115 9.83962 7.23181L8.66362 6.74381C8.41295 6.63715 8.21028 6.51981 8.05562 6.39181C7.90628 6.26381 7.79695 6.11715 7.72762 5.95181C7.66362 5.78648 7.63162 5.59715 7.63162 5.38381C7.63695 4.93581 7.78628 4.59448 8.07962 4.35981C8.37828 4.12515 8.81295 4.00781 9.38362 4.00781C9.77828 4.00781 10.1169 4.06381 10.3996 4.17581C10.6876 4.28781 10.9009 4.45315 11.0396 4.67181C11.1836 4.89048 11.2423 5.15981 11.2156 5.47981C11.2049 5.57581 11.1729 5.62381 11.1196 5.62381H10.4956C10.4689 5.62381 10.4476 5.61315 10.4316 5.59181C10.4209 5.57048 10.4183 5.53315 10.4236 5.47981C10.4396 5.23448 10.3543 5.04248 10.1676 4.90381C9.98095 4.76515 9.71428 4.69581 9.36762 4.69581C9.06362 4.69581 8.83428 4.75181 8.67962 4.86381C8.52495 4.97048 8.44495 5.13315 8.43962 5.35181C8.43962 5.46915 8.46095 5.57048 8.50362 5.65581C8.54628 5.74115 8.61828 5.82115 8.71962 5.89581C8.82095 5.97048 8.95962 6.04515 9.13562 6.11981L10.2956 6.60781C10.5463 6.70915 10.7463 6.82381 10.8956 6.95181C11.0503 7.07981 11.1596 7.22648 11.2236 7.39181C11.2876 7.55715 11.3196 7.75715 11.3196 7.99181C11.3196 8.44515 11.1649 8.79981 10.8556 9.05581C10.5463 9.30648 10.0583 9.43181 9.39162 9.43181Z" fill="#98CAFF"/>
<path d="M4.904 9.432C4.50933 9.432 4.17067 9.35733 3.888 9.208C3.60533 9.05867 3.38667 8.84 3.232 8.552C3.07733 8.264 3 7.91733 3 7.512V5.92C3 5.312 3.18133 4.84 3.544 4.504C3.912 4.168 4.416 4 5.056 4C5.49867 4 5.87733 4.072 6.192 4.216C6.50667 4.36 6.73867 4.56267 6.888 4.824C7.04267 5.08533 7.09333 5.38933 7.04 5.736C7.03467 5.79467 7.00533 5.824 6.952 5.824L6.312 5.816C6.25333 5.816 6.22667 5.78667 6.232 5.728C6.248 5.50933 6.21333 5.32533 6.128 5.176C6.04267 5.02133 5.912 4.904 5.736 4.824C5.56533 4.744 5.344 4.704 5.072 4.704C4.656 4.704 4.34133 4.80533 4.128 5.008C3.91467 5.21067 3.808 5.51733 3.808 5.928V7.504C3.808 7.91467 3.90933 8.22133 4.112 8.424C4.32 8.62667 4.62933 8.728 5.04 8.728C5.45067 8.728 5.76267 8.62933 5.976 8.432C6.19467 8.22933 6.304 7.94133 6.304 7.568V7.28H5.128C5.06933 7.28 5.04 7.25333 5.04 7.2V6.72C5.04 6.66133 5.06933 6.632 5.128 6.632H6.976C7.00267 6.632 7.024 6.64 7.04 6.656C7.056 6.672 7.064 6.69333 7.064 6.72V8.248C7.064 8.41867 7.06667 8.58933 7.072 8.76C7.08267 8.92533 7.09867 9.08533 7.12 9.24C7.13067 9.272 7.128 9.296 7.112 9.312C7.096 9.328 7.07467 9.336 7.048 9.336H6.528C6.50667 9.336 6.488 9.33067 6.472 9.32C6.456 9.30933 6.44533 9.29067 6.44 9.264C6.424 9.19467 6.41067 9.11733 6.4 9.032C6.39467 8.94667 6.38933 8.856 6.384 8.76H6.376C6.28 8.90933 6.15733 9.03467 6.008 9.136C5.864 9.232 5.69867 9.304 5.512 9.352C5.32533 9.40533 5.12267 9.432 4.904 9.432Z" fill="#98CAFF"/>
</g>
<defs>
<clipPath id="clip0_433_7757">
<rect width="18" height="14" fill="white"/>
</clipPath>
</defs>
</svg>
