<svg width="18" height="14" viewBox="0 0 18 14" fill="none" xmlns="http://www.w3.org/2000/svg">
<g clip-path="url(#clip0_433_7689)">
<path d="M17.5 0.5H0.5V13.5H17.5V0.5Z" fill="#100551" stroke="#4394EC"/>
<path d="M10.3712 9.24C10.3125 9.24 10.2832 9.21067 10.2832 9.152V4.088C10.2832 4.02933 10.3125 4 10.3712 4H11.0112C11.0645 4 11.0912 4.02933 11.0912 4.088V8.52H13.2512C13.3099 8.52 13.3392 8.54933 13.3392 8.608V9.152C13.3392 9.21067 13.3099 9.24 13.2512 9.24H10.3712Z" fill="#98CAFF"/>
<path d="M6.8048 9.24C6.7568 9.24 6.72213 9.216 6.7008 9.168L5.0048 4.096C4.9888 4.032 5.0128 4 5.0768 4H5.7648C5.81813 4 5.8528 4.024 5.8688 4.072L6.9088 7.368C6.96747 7.54933 7.02347 7.736 7.0768 7.928C7.13547 8.11467 7.19147 8.30133 7.2448 8.488H7.2608C7.31413 8.30667 7.37013 8.12267 7.4288 7.936C7.48747 7.74933 7.54613 7.56533 7.6048 7.384L8.6768 4.072C8.6928 4.024 8.72747 4 8.7808 4H9.4608C9.5248 4 9.5488 4.032 9.5328 4.096L7.8048 9.168C7.7888 9.216 7.75413 9.24 7.7008 9.24H6.8048Z" fill="#98CAFF"/>
</g>
<defs>
<clipPath id="clip0_433_7689">
<rect width="18" height="14" fill="white"/>
</clipPath>
</defs>
</svg>
