<svg width="18" height="14" viewBox="0 0 18 14" fill="none" xmlns="http://www.w3.org/2000/svg">
<g clip-path="url(#clip0_433_7744)">
<path d="M17.5 0.5H0.5V13.5H17.5V0.5Z" fill="#100551" stroke="#4394EC"/>
<path d="M9.37706 9.24C9.3184 9.24 9.28906 9.21067 9.28906 9.152V4.088C9.28906 4.02933 9.3184 4 9.37706 4H10.3931C10.4464 4 10.4811 4.02133 10.4971 4.064L11.9051 6.904C12.0011 7.096 12.0864 7.272 12.1611 7.432C12.2411 7.592 12.3104 7.744 12.3691 7.888C12.4331 8.032 12.4917 8.17067 12.5451 8.304H12.5611C12.5611 8.19733 12.5584 8.08267 12.5531 7.96C12.5531 7.83733 12.5504 7.71467 12.5451 7.592C12.5451 7.464 12.5451 7.34133 12.5451 7.224C12.5451 7.10133 12.5451 6.984 12.5451 6.872V4.088C12.5451 4.02933 12.5717 4 12.6251 4H13.2491C13.3077 4 13.3371 4.02933 13.3371 4.088V9.152C13.3371 9.21067 13.3077 9.24 13.2491 9.24H12.2411C12.1931 9.24 12.1611 9.21867 12.1451 9.176L10.7691 6.416C10.6837 6.24533 10.6011 6.07733 10.5211 5.912C10.4464 5.74667 10.3717 5.584 10.2971 5.424C10.2224 5.25867 10.1504 5.09867 10.0811 4.944H10.0651C10.0651 5.07733 10.0651 5.208 10.0651 5.336C10.0704 5.45867 10.0731 5.584 10.0731 5.712C10.0784 5.83467 10.0811 5.96 10.0811 6.088C10.0811 6.216 10.0811 6.34667 10.0811 6.48V9.152C10.0811 9.21067 10.0517 9.24 9.99306 9.24H9.37706Z" fill="#98CAFF"/>
<path d="M5.088 9.24C5.02933 9.24 5 9.21067 5 9.152V4.088C5 4.02933 5.02933 4 5.088 4H8.032C8.08533 4 8.112 4.02933 8.112 4.088V4.632C8.112 4.69067 8.08533 4.72 8.032 4.72H5.808V6.24H7.84C7.89333 6.24 7.92 6.26667 7.92 6.32V6.84C7.92 6.89867 7.89333 6.928 7.84 6.928H5.808V8.52H8.032C8.08533 8.52 8.112 8.54933 8.112 8.608V9.152C8.112 9.21067 8.08533 9.24 8.032 9.24H5.088Z" fill="#98CAFF"/>
</g>
<defs>
<clipPath id="clip0_433_7744">
<rect width="18" height="14" fill="white"/>
</clipPath>
</defs>
</svg>
