<svg width="18" height="14" viewBox="0 0 18 14" fill="none" xmlns="http://www.w3.org/2000/svg">
<g clip-path="url(#clip0_433_7707)">
<path d="M17.5 0.5H0.5V13.5H17.5V0.5Z" fill="#100551" stroke="#4394EC"/>
<path d="M10.7478 9.74C10.6891 9.74 10.6598 9.71067 10.6598 9.652V7.94L8.95581 4.604C8.93981 4.572 8.93714 4.548 8.94781 4.532C8.96381 4.51067 8.98514 4.5 9.01181 4.5H9.74781C9.79581 4.5 9.82781 4.52133 9.84381 4.564L10.6518 6.236C10.7211 6.38 10.7905 6.52933 10.8598 6.684C10.9345 6.83867 11.0038 6.988 11.0678 7.132H11.0758C11.1505 6.97733 11.2225 6.82533 11.2918 6.676C11.3611 6.52667 11.4331 6.372 11.5078 6.212L12.2998 4.564C12.3211 4.52133 12.3558 4.5 12.4038 4.5H13.1238C13.1505 4.5 13.1691 4.51067 13.1798 4.532C13.1958 4.548 13.1958 4.572 13.1798 4.604L11.4678 7.94V9.652C11.4678 9.71067 11.4411 9.74 11.3878 9.74H10.7478Z" fill="#98CAFF"/>
<path d="M5.088 9.74C5.02933 9.74 5 9.71067 5 9.652V4.588C5 4.52933 5.02933 4.5 5.088 4.5H6.584C7.20267 4.5 7.66667 4.60933 7.976 4.828C8.28533 5.04133 8.44 5.36667 8.44 5.804C8.44 6.09733 8.37067 6.33467 8.232 6.516C8.09333 6.69733 7.86933 6.844 7.56 6.956V6.972C7.92267 7.04133 8.19733 7.18533 8.384 7.404C8.57067 7.62267 8.664 7.91333 8.664 8.276C8.664 8.77733 8.496 9.148 8.16 9.388C7.82933 9.62267 7.304 9.74 6.584 9.74H5.088ZM5.808 9.052H6.592C7.04533 9.052 7.368 8.988 7.56 8.86C7.75733 8.732 7.856 8.51867 7.856 8.22C7.856 7.92133 7.75733 7.70267 7.56 7.564C7.36267 7.42533 7.048 7.356 6.616 7.356H5.808V9.052ZM5.808 6.724H6.552C6.92533 6.724 7.19733 6.66 7.368 6.532C7.544 6.404 7.632 6.204 7.632 5.932C7.632 5.66 7.544 5.468 7.368 5.356C7.192 5.23867 6.89867 5.18 6.488 5.18H5.808V6.724Z" fill="#98CAFF"/>
</g>
<defs>
<clipPath id="clip0_433_7707">
<rect width="18" height="14" fill="white"/>
</clipPath>
</defs>
</svg>
