<svg width="18" height="18" viewBox="0 0 18 18" fill="none" xmlns="http://www.w3.org/2000/svg">
<path d="M14.6667 11.3092C14.0756 11.3092 13.5467 11.5502 13.1422 11.9277L5.59667 9.59438C5.63556 9.40964 5.66667 9.2249 5.66667 9.03213C5.66667 8.83936 5.63556 8.65462 5.59667 8.46988L13.08 6.16867C13.5 6.57028 14.0522 6.81928 14.6667 6.81928C15.9578 6.81928 17 5.74297 17 4.40964C17 3.07631 15.9578 2 14.6667 2C13.3756 2 12.3333 3.07631 12.3333 4.40964C12.3333 4.60241 12.3644 4.78715 12.4033 4.97189L4.92 7.27309C4.5 6.87149 3.94778 6.62249 3.33333 6.62249C2.04222 6.62249 1 7.69879 1 9.03213C1 10.3655 2.04222 11.4418 3.33333 11.4418C3.94778 11.4418 4.5 11.1928 4.92 10.7912L12.4578 13.1325C12.4189 13.3012 12.3956 13.4779 12.3956 13.6546C12.3956 14.9478 13.4144 16 14.6667 16C15.9189 16 16.9378 14.9478 16.9378 13.6546C16.9378 12.3614 15.9189 11.3092 14.6667 11.3092Z" fill="#9A9EA4"/>
</svg>
