<svg width="18" height="14" viewBox="0 0 18 14" fill="none" xmlns="http://www.w3.org/2000/svg">
<g clip-path="url(#clip0_433_7900)">
<path d="M17.5 0.5H0.5V13.5H17.5V0.5Z" fill="#100551" stroke="#4394EC"/>
<path d="M9.81394 9.24C9.76594 9.24 9.7366 9.216 9.72594 9.168L8.27794 4.096C8.26194 4.032 8.2886 4 8.35794 4H8.99794C9.05127 4 9.08327 4.024 9.09394 4.072L9.94994 7.176C9.98727 7.304 10.0219 7.43733 10.0539 7.576C10.0859 7.71467 10.1179 7.85333 10.1499 7.992C10.1819 8.12533 10.2139 8.256 10.2459 8.384H10.2539C10.3073 8.19733 10.3606 8.01333 10.4139 7.832C10.4726 7.64533 10.5313 7.46133 10.5899 7.28L11.2299 5.176L10.9419 4.184C10.9313 4.15733 10.9339 4.136 10.9499 4.12C10.9659 4.09867 10.9873 4.088 11.0139 4.088H11.6619C11.7153 4.088 11.7473 4.11467 11.7579 4.168L12.6139 7.328C12.6673 7.504 12.7153 7.68 12.7579 7.856C12.8006 8.032 12.8459 8.208 12.8939 8.384H12.9019C12.9286 8.26133 12.9579 8.13067 12.9899 7.992C13.0219 7.85333 13.0539 7.71467 13.0859 7.576C13.1179 7.43733 13.1499 7.304 13.1819 7.176L14.0059 4.072C14.0166 4.024 14.0486 4 14.1019 4H14.7659C14.8353 4 14.8593 4.032 14.8379 4.096L13.4459 9.168C13.4353 9.216 13.4033 9.24 13.3499 9.24H12.5019C12.4486 9.24 12.4166 9.216 12.4059 9.168L11.8939 7.392C11.8406 7.21067 11.7899 7.032 11.7419 6.856C11.6939 6.67467 11.6459 6.49333 11.5979 6.312H11.5819C11.5339 6.488 11.4833 6.664 11.4299 6.84C11.3819 7.016 11.3286 7.19467 11.2699 7.376L10.7339 9.168C10.7233 9.19467 10.7099 9.21333 10.6939 9.224C10.6833 9.23467 10.6646 9.24 10.6379 9.24H9.81394Z" fill="#98CAFF"/>
<path d="M5.584 9.24C5.52533 9.24 5.496 9.21067 5.496 9.152V4.72H4.088C4.02933 4.72 4 4.69067 4 4.632V4.088C4 4.02933 4.02933 4 4.088 4H7.72C7.77867 4 7.808 4.02933 7.808 4.088V4.632C7.808 4.69067 7.77867 4.72 7.72 4.72H6.304V9.152C6.304 9.21067 6.27467 9.24 6.216 9.24H5.584Z" fill="#98CAFF"/>
</g>
<defs>
<clipPath id="clip0_433_7900">
<rect width="18" height="14" fill="white"/>
</clipPath>
</defs>
</svg>
