<svg width="18" height="14" viewBox="0 0 18 14" fill="none" xmlns="http://www.w3.org/2000/svg">
<g clip-path="url(#clip0_433_7726)">
<path d="M17.5 0.5H0.5V13.5H17.5V0.5Z" fill="#100551" stroke="#4394EC"/>
<path d="M11.6005 9.83141C10.9179 9.83141 10.4059 9.66608 10.0645 9.33541C9.72855 8.99941 9.56055 8.52475 9.56055 7.91141V6.31941C9.56055 5.70075 9.72855 5.22608 10.0645 4.89541C10.4059 4.56475 10.9179 4.39941 11.6005 4.39941C12.2832 4.39941 12.7925 4.56475 13.1285 4.89541C13.4699 5.22608 13.6405 5.70075 13.6405 6.31941V7.91141C13.6405 8.52475 13.4699 8.99941 13.1285 9.33541C12.7925 9.66608 12.2832 9.83141 11.6005 9.83141ZM11.6005 9.11941C12.0059 9.11941 12.3125 9.01541 12.5205 8.80741C12.7285 8.59408 12.8325 8.28741 12.8325 7.88741V6.34341C12.8325 5.93808 12.7285 5.63141 12.5205 5.42341C12.3125 5.21541 12.0059 5.11141 11.6005 5.11141C11.2005 5.11141 10.8939 5.21541 10.6805 5.42341C10.4725 5.63141 10.3685 5.93808 10.3685 6.34341V7.88741C10.3685 8.28741 10.4725 8.59408 10.6805 8.80741C10.8939 9.01541 11.2005 9.11941 11.6005 9.11941Z" fill="#98CAFF"/>
<path d="M4.588 9.73512C4.52933 9.73512 4.5 9.70578 4.5 9.64712V4.58312C4.5 4.52445 4.52933 4.49512 4.588 4.49512H6.084C6.90533 4.49512 7.51867 4.68712 7.924 5.07112C8.32933 5.44978 8.532 6.02578 8.532 6.79912V7.23112C8.532 8.07378 8.32933 8.70312 7.924 9.11912C7.524 9.52978 6.91067 9.73512 6.084 9.73512H4.588ZM5.308 9.04712H6.028C6.60933 9.04712 7.036 8.90312 7.308 8.61512C7.58533 8.32178 7.724 7.87112 7.724 7.26312V6.76712C7.724 6.22845 7.58533 5.83112 7.308 5.57512C7.036 5.31378 6.60933 5.18312 6.028 5.18312H5.308V9.04712Z" fill="#98CAFF"/>
</g>
<defs>
<clipPath id="clip0_433_7726">
<rect width="18" height="14" fill="white"/>
</clipPath>
</defs>
</svg>
