<svg width="18" height="14" viewBox="0 0 18 14" fill="none" xmlns="http://www.w3.org/2000/svg">
<rect x="0.5" y="0.5" width="17" height="13" fill="#ED7D31" stroke="#AE5A21"/>
<path d="M9.92198 9.32789C9.86332 9.32789 9.83398 9.29589 9.83398 9.23189V4.18389C9.83398 4.11989 9.86332 4.08789 9.92198 4.08789H12.986C13.0447 4.08789 13.074 4.11989 13.074 4.18389V4.83989C13.074 4.90389 13.0447 4.93589 12.986 4.93589H10.794V6.27189H12.794C12.8527 6.27189 12.882 6.30389 12.882 6.36789V6.98389C12.882 7.04789 12.8527 7.07989 12.794 7.07989H10.794V8.47989H12.986C13.0447 8.47989 13.074 8.51189 13.074 8.57589V9.23189C13.074 9.29589 13.0447 9.32789 12.986 9.32789H9.92198Z" fill="white"/>
<path d="M6.8949 9.424C6.4469 9.424 6.07623 9.36267 5.7829 9.24C5.4949 9.11733 5.2869 8.94133 5.1589 8.712C5.0309 8.47733 4.98023 8.19467 5.0069 7.864C5.01756 7.77333 5.0549 7.728 5.1189 7.728H5.8709C5.94023 7.728 5.97223 7.768 5.9669 7.848C5.9669 8.10933 6.0469 8.30133 6.2069 8.424C6.3669 8.54133 6.61223 8.6 6.9429 8.6C7.26823 8.6 7.50823 8.54933 7.6629 8.448C7.8229 8.34133 7.9029 8.17867 7.9029 7.96C7.9029 7.85867 7.88423 7.77067 7.8469 7.696C7.80956 7.616 7.74556 7.54667 7.6549 7.488C7.56423 7.424 7.44156 7.36 7.2869 7.296L6.1269 6.8C5.8709 6.688 5.66556 6.568 5.5109 6.44C5.35623 6.30667 5.2469 6.15467 5.1829 5.984C5.1189 5.81333 5.0869 5.61867 5.0869 5.4C5.09223 4.94667 5.24423 4.6 5.5429 4.36C5.84156 4.12 6.2869 4 6.8789 4C7.2949 4 7.6469 4.05867 7.9349 4.176C8.22823 4.288 8.4469 4.456 8.5909 4.68C8.7349 4.89867 8.7909 5.17333 8.7589 5.504C8.74823 5.6 8.71623 5.648 8.6629 5.648H7.9029C7.8709 5.648 7.8469 5.63733 7.8309 5.616C7.8149 5.59467 7.80956 5.55733 7.8149 5.504C7.8309 5.29067 7.75356 5.12267 7.5829 5C7.41756 4.872 7.18023 4.808 6.8709 4.808C6.5989 4.808 6.39356 4.856 6.2549 4.952C6.11623 5.048 6.0469 5.192 6.0469 5.384C6.0469 5.48533 6.06556 5.576 6.1029 5.656C6.14023 5.73067 6.20423 5.8 6.2949 5.864C6.3909 5.928 6.5189 5.99467 6.6789 6.064L7.8229 6.552C8.08423 6.65867 8.28956 6.77867 8.4389 6.912C8.59356 7.04 8.7029 7.18933 8.7669 7.36C8.83623 7.53067 8.86823 7.73333 8.8629 7.968C8.8629 8.432 8.70556 8.792 8.3909 9.048C8.07623 9.29867 7.57756 9.424 6.8949 9.424Z" fill="white"/>
</svg>
