<svg width="18" height="18" viewBox="0 0 18 18" fill="none" xmlns="http://www.w3.org/2000/svg">
<g clip-path="url(#clip0_433_8056)">
<mask id="mask0_433_8056" style="mask-type:luminance" maskUnits="userSpaceOnUse" x="0" y="0" width="18" height="18">
<path d="M18 0H0V18H18V0Z" fill="white"/>
</mask>
<g mask="url(#mask0_433_8056)">
<path d="M11.3739 11.374C9.45478 13.2931 7.42179 14.7025 5.70211 15.4395C4.84089 15.8086 4.08265 15.9986 3.47068 16.0156C2.86017 16.0327 2.44354 15.8786 2.18155 15.6166C1.91957 15.3546 1.7655 14.938 1.78253 14.3275C1.79961 13.7155 1.98955 12.9573 2.35864 12.0961C3.09565 10.3764 4.50504 8.34335 6.42419 6.42419C8.34335 4.50503 10.3763 3.09565 12.096 2.35864C12.9572 1.98954 13.7155 1.79961 14.3274 1.78253C14.9379 1.76549 15.3546 1.91957 15.6166 2.18155C15.8785 2.44353 16.0326 2.86017 16.0156 3.47068C15.9985 4.08265 15.8086 4.84089 15.4395 5.70211C14.7025 7.42179 13.2931 9.45478 11.3739 11.374Z" stroke="#A7A9BB"/>
<path d="M11.3739 11.374C9.45478 13.2931 7.42179 14.7025 5.70211 15.4395C4.84089 15.8086 4.08265 15.9986 3.47068 16.0156C2.86017 16.0327 2.44354 15.8786 2.18155 15.6166C1.91957 15.3546 1.7655 14.938 1.78253 14.3275C1.79961 13.7155 1.98955 12.9573 2.35864 12.0961C3.09565 10.3764 4.50504 8.34335 6.42419 6.42419C8.34335 4.50503 10.3763 3.09565 12.096 2.35864C12.9572 1.98954 13.7155 1.79961 14.3274 1.78253C14.9379 1.76549 15.3546 1.91957 15.6166 2.18155C15.8785 2.44353 16.0326 2.86017 16.0156 3.47068C15.9985 4.08265 15.8086 4.84089 15.4395 5.70211C14.7025 7.42179 13.2931 9.45478 11.3739 11.374Z" stroke="#7B8294"/>
<path d="M6.42614 11.374C8.3453 13.2931 10.3783 14.7025 12.098 15.4395C12.9592 15.8086 13.7175 15.9986 14.3294 16.0156C14.9399 16.0327 15.3566 15.8786 15.6186 15.6166C15.8805 15.3546 16.0346 14.938 16.0176 14.3275C16.0005 13.7155 15.8106 12.9573 15.4415 12.0961C14.7045 10.3764 13.2951 8.34335 11.3759 6.42419C9.45673 4.50503 7.42374 3.09565 5.70405 2.35864C4.84284 1.98954 4.08459 1.79961 3.47263 1.78253C2.86212 1.76549 2.44548 1.91957 2.1835 2.18155C1.92152 2.44353 1.76744 2.86017 1.78448 3.47068C1.80156 4.08265 1.99149 4.84089 2.36059 5.70211C3.09759 7.42179 4.50698 9.45478 6.42614 11.374Z" stroke="#A7A9BB"/>
<path d="M6.42614 11.374C8.3453 13.2931 10.3783 14.7025 12.098 15.4395C12.9592 15.8086 13.7175 15.9986 14.3294 16.0156C14.9399 16.0327 15.3566 15.8786 15.6186 15.6166C15.8805 15.3546 16.0346 14.938 16.0176 14.3275C16.0005 13.7155 15.8106 12.9573 15.4415 12.0961C14.7045 10.3764 13.2951 8.34335 11.3759 6.42419C9.45673 4.50503 7.42374 3.09565 5.70405 2.35864C4.84284 1.98954 4.08459 1.79961 3.47263 1.78253C2.86212 1.76549 2.44548 1.91957 2.1835 2.18155C1.92152 2.44353 1.76744 2.86017 1.78448 3.47068C1.80156 4.08265 1.99149 4.84089 2.36059 5.70211C3.09759 7.42179 4.50698 9.45478 6.42614 11.374Z" stroke="#7B8294"/>
<path d="M2 3.5C2.82843 3.5 3.5 2.82843 3.5 2C3.5 1.17157 2.82843 0.5 2 0.5C1.17157 0.5 0.5 1.17157 0.5 2C0.5 2.82843 1.17157 3.5 2 3.5Z" fill="#FFC90D"/>
<path d="M12.5 17C13.3284 17 14 16.3284 14 15.5C14 14.6716 13.3284 14 12.5 14C11.6716 14 11 14.6716 11 15.5C11 16.3284 11.6716 17 12.5 17Z" fill="#FFC90D"/>
<path d="M9 11C10.1046 11 11 10.1046 11 9C11 7.89543 10.1046 7 9 7C7.89543 7 7 7.89543 7 9C7 10.1046 7.89543 11 9 11Z" fill="#0290FF"/>
</g>
</g>
<defs>
<clipPath id="clip0_433_8056">
<rect width="18" height="18" fill="white"/>
</clipPath>
</defs>
</svg>
