<?xml version="1.0" encoding="utf-8"?>
<!-- Generator: Adobe Illustrator 16.0.0, SVG Export Plug-In . SVG Version: 6.00 Build 0)  -->
<!DOCTYPE svg PUBLIC "-//W3C//DTD SVG 1.1//EN" "http://www.w3.org/Graphics/SVG/1.1/DTD/svg11.dtd">
<svg version="1.1" id="Layer_1" xmlns="http://www.w3.org/2000/svg" xmlns:xlink="http://www.w3.org/1999/xlink" x="0px" y="0px"
	 width="54px" height="54px" viewBox="0 0 54 54" enable-background="new 0 0 54 54" xml:space="preserve">
<g>
	<g>
		<defs>
			<rect id="SVGID_1_" width="54" height="54"/>
		</defs>
		<clipPath id="SVGID_2_">
			<use xlink:href="#SVGID_1_"  overflow="visible"/>
		</clipPath>
		<g opacity="0.3" clip-path="url(#SVGID_2_)">
			<g>
				<defs>
					<rect id="SVGID_3_" x="11.74" y="12.05" width="49.25" height="57.4"/>
				</defs>
				<clipPath id="SVGID_4_">
					<use xlink:href="#SVGID_3_"  overflow="visible"/>
				</clipPath>
				<polygon clip-path="url(#SVGID_4_)" fill="#010101" points="69.556,47.3 41.981,67.615 12.274,37.315 13.681,18.75 
					41.86,16.817 				"/>
			</g>
		</g>
	</g>
	<g>
		<g>
			<path fill="#6B6C6C" d="M14.25,16.5v21h25.5v-21H14.25z M34.541,24.75c0,0.412-0.337,0.75-0.75,0.75H19.916
				c-0.412,0-0.75-0.338-0.75-0.75V19.5c0-0.412,0.338-0.75,0.75-0.75h13.875c0.413,0,0.75,0.338,0.75,0.75V24.75z"/>
		</g>
		<g opacity="0.4">
			<path fill="#FFFFFF" d="M33.791,19.5v5.25H19.916V19.5H33.791 M33.791,18.75H19.916c-0.412,0-0.75,0.338-0.75,0.75v5.25
				c0,0.412,0.338,0.75,0.75,0.75h13.875c0.413,0,0.75-0.338,0.75-0.75V19.5C34.541,19.088,34.204,18.75,33.791,18.75L33.791,18.75z
				"/>
		</g>
		<g opacity="0.1">
			<g>
				<defs>
					<rect id="SVGID_5_" x="20.682" y="20.219" width="12.391" height="3.781"/>
				</defs>
				<clipPath id="SVGID_6_">
					<use xlink:href="#SVGID_5_"  overflow="visible"/>
				</clipPath>
				<path clip-path="url(#SVGID_6_)" fill="#FFFFFF" d="M33.014,20.219h-0.006H33H20.949c-0.148,0-0.269,0.072-0.269,0.162v3.503
					c0,0.064,0.083,0.116,0.185,0.116c0.018,0,0.032-0.003,0.049-0.007L21,23.962l12.051-3.671l0.005-0.001
					c0.012-0.008,0.019-0.019,0.019-0.03C33.074,20.238,33.047,20.222,33.014,20.219"/>
			</g>
		</g>
		<g>
			<path fill="#E8E8E8" d="M20.631,32.358l0.841-0.044c0.012,0.268,0.058,0.448,0.138,0.542c0.129,0.152,0.367,0.229,0.715,0.229
				c0.289,0,0.498-0.052,0.627-0.155s0.193-0.229,0.193-0.375c0-0.127-0.053-0.234-0.158-0.322
				c-0.074-0.064-0.277-0.169-0.611-0.313c-0.333-0.145-0.576-0.265-0.729-0.362c-0.153-0.096-0.274-0.222-0.362-0.376
				s-0.132-0.335-0.132-0.542c0-0.361,0.131-0.661,0.393-0.899s0.641-0.357,1.137-0.357c0.504,0,0.895,0.118,1.17,0.354
				c0.276,0.236,0.429,0.551,0.456,0.943l-0.847,0.038c-0.021-0.205-0.096-0.362-0.223-0.472s-0.314-0.164-0.563-0.164
				c-0.244,0-0.418,0.043-0.523,0.129c-0.104,0.086-0.156,0.194-0.156,0.325c0,0.123,0.048,0.225,0.144,0.305
				c0.096,0.082,0.308,0.194,0.636,0.337c0.494,0.213,0.809,0.386,0.943,0.519c0.201,0.195,0.302,0.446,0.302,0.753
				c0,0.379-0.15,0.702-0.45,0.971c-0.299,0.27-0.717,0.403-1.252,0.403c-0.369,0-0.689-0.063-0.959-0.187
				c-0.271-0.123-0.462-0.296-0.573-0.517S20.623,32.646,20.631,32.358z"/>
			<path fill="#E8E8E8" d="M26.646,33.75h-0.943l-0.771-4.295h0.882l0.545,3.249l1.778-3.249h0.876L26.646,33.75z"/>
			<path fill="#E8E8E8" d="M31.611,32.203l0.891,0.135c-0.174,0.482-0.435,0.852-0.782,1.105c-0.348,0.256-0.755,0.383-1.222,0.383
				c-0.525,0-0.936-0.158-1.232-0.475c-0.295-0.316-0.443-0.775-0.443-1.377c0-0.488,0.099-0.936,0.297-1.34
				c0.199-0.405,0.474-0.716,0.825-0.931s0.734-0.322,1.148-0.322c0.465,0,0.841,0.124,1.128,0.374
				c0.287,0.248,0.456,0.588,0.507,1.018l-0.847,0.082c-0.047-0.25-0.137-0.432-0.271-0.543c-0.134-0.112-0.312-0.169-0.534-0.169
				c-0.244,0-0.473,0.074-0.685,0.223c-0.211,0.148-0.381,0.38-0.508,0.696c-0.127,0.315-0.19,0.63-0.19,0.944
				c0,0.344,0.083,0.609,0.247,0.797c0.165,0.188,0.371,0.281,0.617,0.281c0.229,0,0.438-0.074,0.629-0.223
				C31.375,32.714,31.518,32.494,31.611,32.203z"/>
		</g>
		<path fill="#9E9E9E" d="M41.25,16.5H40.5h-0.75v0.75v19.5v0.75h0.75h0.75c0.412,0,0.75-0.338,0.75-0.75v-19.5
			C42,16.838,41.662,16.5,41.25,16.5z"/>
		<path fill="#9E9E9E" d="M12.75,37.5h0.75h0.75v-0.75v-19.5V16.5H13.5h-0.75c-0.412,0-0.75,0.338-0.75,0.75v19.5
			C12,37.162,12.338,37.5,12.75,37.5z"/>
	</g>
  <rect
      width="50"
      height="50"
      x="0"
      y="0"
      style="fill:#ffffff;fill-opacity:0" /> 
</g>
</svg>
