<svg width="182" height="47" viewBox="0 0 182 47" fill="none" xmlns="http://www.w3.org/2000/svg">
<path d="M36.1878 0H50V46H40.0553V14.5119L29.7652 39.5655H20.3039L9.94475 14.5119V46H0V0H13.8122L25 27.244L36.1878 0Z" fill="#324CD0"/>
<path d="M36.1878 0H50V46H40.0553V14.5119L29.7652 39.5655H20.3039L9.94475 14.5119V46H0V0H13.8122L25 27.244L36.1878 0Z" fill="url(#paint0_linear_359_13)" fill-opacity="0.5"/>
<path d="M77.4361 34.7738L86.9353 0H99L82.983 46H70.7797L54 0H67.0354L77.4361 34.7738Z" fill="#324CD0"/>
<path d="M77.4361 34.7738L86.9353 0H99L82.983 46H70.7797L54 0H67.0354L77.4361 34.7738Z" fill="url(#paint1_linear_359_13)" fill-opacity="0.5"/>
<path d="M167.886 0C177.023 0 181.932 3.05636 181.932 3.05636L180.091 12.3613C180.091 12.3613 175.932 9.30491 169.25 9.30491C163.864 9.30491 156.977 12.7009 156.977 23.5C156.977 35.25 165.295 37.6951 168.977 37.6951C175.591 37.6951 180.432 34.3671 180.432 34.3671L182 43.1965C182 43.1965 176.75 47 167.955 47C159.159 47 146 42.5173 146 23.1604C146 9.64451 155.341 0 167.886 0Z" fill="#324CD0"/>
<path d="M167.886 0C177.023 0 181.932 3.05636 181.932 3.05636L180.091 12.3613C180.091 12.3613 175.932 9.30491 169.25 9.30491C163.864 9.30491 156.977 12.7009 156.977 23.5C156.977 35.25 165.295 37.6951 168.977 37.6951C175.591 37.6951 180.432 34.3671 180.432 34.3671L182 43.1965C182 43.1965 176.75 47 167.955 47C159.159 47 146 42.5173 146 23.1604C146 9.64451 155.341 0 167.886 0Z" fill="url(#paint2_linear_359_13)" fill-opacity="0.5"/>
<path d="M116.729 46H103V0H116.729C133.121 0 142 9.24107 142 22.5208C142 35.8006 133.531 46 116.729 46ZM118.231 36.8958C124.788 36.8958 130.935 31.9673 130.935 22.4524C130.935 16.3601 127.793 9.10417 118.095 9.10417H113.928V36.8958H118.231Z" fill="#324CD0"/>
<path d="M116.729 46H103V0H116.729C133.121 0 142 9.24107 142 22.5208C142 35.8006 133.531 46 116.729 46ZM118.231 36.8958C124.788 36.8958 130.935 31.9673 130.935 22.4524C130.935 16.3601 127.793 9.10417 118.095 9.10417H113.928V36.8958H118.231Z" fill="url(#paint3_linear_359_13)" fill-opacity="0.5"/>
<defs>
<linearGradient id="paint0_linear_359_13" x1="0.274725" y1="-23.4894" x2="64.9351" y2="-14.4144" gradientUnits="userSpaceOnUse">
<stop stop-color="#0D31D1"/>
<stop offset="0.415" stop-color="#2164DF"/>
<stop offset="1" stop-color="#86C6FF"/>
</linearGradient>
<linearGradient id="paint1_linear_359_13" x1="54.2473" y1="-23.4894" x2="112.656" y2="-16.1115" gradientUnits="userSpaceOnUse">
<stop stop-color="#0D31D1"/>
<stop offset="0.415" stop-color="#2164DF"/>
<stop offset="1" stop-color="#86C6FF"/>
</linearGradient>
<linearGradient id="paint2_linear_359_13" x1="146.198" y1="-24" x2="193.21" y2="-19.3504" gradientUnits="userSpaceOnUse">
<stop stop-color="#0D31D1"/>
<stop offset="0.415" stop-color="#2164DF"/>
<stop offset="1" stop-color="#86C6FF"/>
</linearGradient>
<linearGradient id="paint3_linear_359_13" x1="103.214" y1="-23.4894" x2="154.034" y2="-17.926" gradientUnits="userSpaceOnUse">
<stop stop-color="#0D31D1"/>
<stop offset="0.415" stop-color="#2164DF"/>
<stop offset="1" stop-color="#86C6FF"/>
</linearGradient>
</defs>
</svg>
