<svg width="18" height="14" viewBox="0 0 18 14" fill="none" xmlns="http://www.w3.org/2000/svg">
<g clip-path="url(#clip0_433_7774)">
<path d="M17.5 0.5H0.5V13.5H17.5V0.5Z" fill="#100551" stroke="#4394EC"/>
<path d="M8.93956 9.63941C8.8809 9.63941 8.85156 9.61008 8.85156 9.55141V4.48741C8.85156 4.42875 8.8809 4.39941 8.93956 4.39941H9.95556C10.0089 4.39941 10.0436 4.42075 10.0596 4.46341L11.4676 7.30341C11.5636 7.49541 11.6489 7.67141 11.7236 7.83141C11.8036 7.99141 11.8729 8.14341 11.9316 8.28741C11.9956 8.43141 12.0542 8.57008 12.1076 8.70341H12.1236C12.1236 8.59675 12.1209 8.48208 12.1156 8.35941C12.1156 8.23675 12.1129 8.11408 12.1076 7.99141C12.1076 7.86341 12.1076 7.74075 12.1076 7.62341C12.1076 7.50075 12.1076 7.38341 12.1076 7.27141V4.48741C12.1076 4.42875 12.1342 4.39941 12.1876 4.39941H12.8116C12.8702 4.39941 12.8996 4.42875 12.8996 4.48741V9.55141C12.8996 9.61008 12.8702 9.63941 12.8116 9.63941H11.8036C11.7556 9.63941 11.7236 9.61808 11.7076 9.57541L10.3316 6.81541C10.2462 6.64475 10.1636 6.47675 10.0836 6.31141C10.0089 6.14608 9.93423 5.98341 9.85956 5.82341C9.7849 5.65808 9.7129 5.49808 9.64356 5.34341H9.62756C9.62756 5.47675 9.62756 5.60741 9.62756 5.73541C9.6329 5.85808 9.63556 5.98341 9.63556 6.11141C9.6409 6.23408 9.64356 6.35941 9.64356 6.48741C9.64356 6.61541 9.64356 6.74608 9.64356 6.87941V9.55141C9.64356 9.61008 9.61423 9.63941 9.55556 9.63941H8.93956Z" fill="#98CAFF"/>
<path d="M5.088 9.63941C5.02933 9.63941 5 9.61008 5 9.55141V4.48741C5 4.42875 5.02933 4.39941 5.088 4.39941H5.728C5.78133 4.39941 5.808 4.42875 5.808 4.48741V8.91941H7.968C8.02667 8.91941 8.056 8.94875 8.056 9.00741V9.55141C8.056 9.61008 8.02667 9.63941 7.968 9.63941H5.088Z" fill="#98CAFF"/>
</g>
<defs>
<clipPath id="clip0_433_7774">
<rect width="18" height="14" fill="white"/>
</clipPath>
</defs>
</svg>
