<svg width="18" height="14" viewBox="0 0 18 14" fill="none" xmlns="http://www.w3.org/2000/svg">
<g clip-path="url(#clip0_433_7734)">
<path d="M17.5 0.5H0.5V13.5H17.5V0.5Z" fill="#100551" stroke="#4394EC"/>
<path d="M13.1699 9.8357C13.1113 9.8357 13.0819 9.80637 13.0819 9.7477V5.3157H11.6739C11.6153 5.3157 11.5859 5.28637 11.5859 5.2277V4.6837C11.5859 4.62504 11.6153 4.5957 11.6739 4.5957H15.3059C15.3646 4.5957 15.3939 4.62504 15.3939 4.6837V5.2277C15.3939 5.28637 15.3646 5.3157 15.3059 5.3157H13.8899V9.7477C13.8899 9.80637 13.8606 9.8357 13.8019 9.8357H13.1699Z" fill="#98CAFF"/>
<path d="M9.39937 9.932C8.71671 9.932 8.20471 9.76667 7.86338 9.436C7.52738 9.1 7.35938 8.62533 7.35938 8.012V6.42C7.35938 5.80133 7.52738 5.32667 7.86338 4.996C8.20471 4.66533 8.71671 4.5 9.39937 4.5C10.082 4.5 10.5914 4.66533 10.9274 4.996C11.2687 5.32667 11.4394 5.80133 11.4394 6.42V8.012C11.4394 8.62533 11.2687 9.1 10.9274 9.436C10.5914 9.76667 10.082 9.932 9.39937 9.932ZM9.39937 9.22C9.80471 9.22 10.1114 9.116 10.3194 8.908C10.5274 8.69467 10.6314 8.388 10.6314 7.988V6.444C10.6314 6.03867 10.5274 5.732 10.3194 5.524C10.1114 5.316 9.80471 5.212 9.39937 5.212C8.99937 5.212 8.69271 5.316 8.47937 5.524C8.27137 5.732 8.16738 6.03867 8.16738 6.444V7.988C8.16738 8.388 8.27137 8.69467 8.47937 8.908C8.69271 9.116 8.99937 9.22 9.39937 9.22Z" fill="#98CAFF"/>
<path d="M2.88683 9.8357C2.82816 9.8357 2.79883 9.80637 2.79883 9.7477V4.6837C2.79883 4.62504 2.82816 4.5957 2.88683 4.5957H4.38283C5.20416 4.5957 5.81749 4.7877 6.22283 5.1717C6.62816 5.55037 6.83083 6.12637 6.83083 6.8997V7.3317C6.83083 8.17437 6.62816 8.8037 6.22283 9.2197C5.82283 9.63037 5.20949 9.8357 4.38283 9.8357H2.88683ZM3.60683 9.1477H4.32683C4.90816 9.1477 5.33483 9.0037 5.60683 8.7157C5.88416 8.42237 6.02283 7.9717 6.02283 7.3637V6.8677C6.02283 6.32904 5.88416 5.9317 5.60683 5.6757C5.33483 5.41437 4.90816 5.2837 4.32683 5.2837H3.60683V9.1477Z" fill="#98CAFF"/>
</g>
<defs>
<clipPath id="clip0_433_7734">
<rect width="18" height="14" fill="white"/>
</clipPath>
</defs>
</svg>
