<svg width="18" height="14" viewBox="0 0 18 14" fill="none" xmlns="http://www.w3.org/2000/svg">
<g clip-path="url(#clip0_433_7860)">
<path d="M17.5 0.5H0.5V13.5H17.5V0.5Z" fill="#100551" stroke="#4394EC"/>
<path d="M11.251 9.424C10.8137 9.424 10.4537 9.36267 10.171 9.24C9.89366 9.112 9.69099 8.936 9.56299 8.712C9.44032 8.48267 9.38966 8.21333 9.41099 7.904C9.41632 7.81333 9.45099 7.768 9.51499 7.768H10.131C10.195 7.768 10.227 7.808 10.227 7.888C10.227 8.18133 10.315 8.39467 10.491 8.528C10.667 8.66133 10.939 8.728 11.307 8.728C11.659 8.728 11.923 8.66667 12.099 8.544C12.2803 8.42133 12.371 8.23467 12.371 7.984C12.371 7.86133 12.3497 7.75733 12.307 7.672C12.2697 7.58133 12.2003 7.50133 12.099 7.432C11.9977 7.36267 11.8643 7.29333 11.699 7.224L10.523 6.736C10.2723 6.62933 10.0697 6.512 9.91499 6.384C9.76566 6.256 9.65632 6.10933 9.58699 5.944C9.52299 5.77867 9.49099 5.58933 9.49099 5.376C9.49632 4.928 9.64566 4.58667 9.93899 4.352C10.2377 4.11733 10.6723 4 11.243 4C11.6377 4 11.9763 4.056 12.259 4.168C12.547 4.28 12.7603 4.44533 12.899 4.664C13.043 4.88267 13.1017 5.152 13.075 5.472C13.0643 5.568 13.0323 5.616 12.979 5.616H12.355C12.3283 5.616 12.307 5.60533 12.291 5.584C12.2803 5.56267 12.2777 5.52533 12.283 5.472C12.299 5.22667 12.2137 5.03467 12.027 4.896C11.8403 4.75733 11.5737 4.688 11.227 4.688C10.923 4.688 10.6937 4.744 10.539 4.856C10.3843 4.96267 10.3043 5.12533 10.299 5.344C10.299 5.46133 10.3203 5.56267 10.363 5.648C10.4057 5.73333 10.4777 5.81333 10.579 5.888C10.6803 5.96267 10.819 6.03733 10.995 6.112L12.155 6.6C12.4057 6.70133 12.6057 6.816 12.755 6.944C12.9097 7.072 13.019 7.21867 13.083 7.384C13.147 7.54933 13.179 7.74933 13.179 7.984C13.179 8.43733 13.0243 8.792 12.715 9.048C12.4057 9.29867 11.9177 9.424 11.251 9.424Z" fill="#98CAFF"/>
<path d="M6.84474 9.424C6.40741 9.424 6.04741 9.36267 5.76474 9.24C5.48741 9.112 5.28474 8.936 5.15674 8.712C5.03407 8.48267 4.98341 8.21333 5.00474 7.904C5.01007 7.81333 5.04474 7.768 5.10874 7.768H5.72474C5.78874 7.768 5.82074 7.808 5.82074 7.888C5.82074 8.18133 5.90874 8.39467 6.08474 8.528C6.26074 8.66133 6.53274 8.728 6.90074 8.728C7.25274 8.728 7.51674 8.66667 7.69274 8.544C7.87407 8.42133 7.96474 8.23467 7.96474 7.984C7.96474 7.86133 7.94341 7.75733 7.90074 7.672C7.86341 7.58133 7.79407 7.50133 7.69274 7.432C7.59141 7.36267 7.45807 7.29333 7.29274 7.224L6.11674 6.736C5.86607 6.62933 5.66341 6.512 5.50874 6.384C5.35941 6.256 5.25007 6.10933 5.18074 5.944C5.11674 5.77867 5.08474 5.58933 5.08474 5.376C5.09007 4.928 5.23941 4.58667 5.53274 4.352C5.83141 4.11733 6.26607 4 6.83674 4C7.23141 4 7.57007 4.056 7.85274 4.168C8.14074 4.28 8.35407 4.44533 8.49274 4.664C8.63674 4.88267 8.69541 5.152 8.66874 5.472C8.65807 5.568 8.62607 5.616 8.57274 5.616H7.94874C7.92207 5.616 7.90074 5.60533 7.88474 5.584C7.87407 5.56267 7.87141 5.52533 7.87674 5.472C7.89274 5.22667 7.80741 5.03467 7.62074 4.896C7.43407 4.75733 7.16741 4.688 6.82074 4.688C6.51674 4.688 6.28741 4.744 6.13274 4.856C5.97807 4.96267 5.89807 5.12533 5.89274 5.344C5.89274 5.46133 5.91407 5.56267 5.95674 5.648C5.99941 5.73333 6.07141 5.81333 6.17274 5.888C6.27407 5.96267 6.41274 6.03733 6.58874 6.112L7.74874 6.6C7.99941 6.70133 8.19941 6.816 8.34874 6.944C8.50341 7.072 8.61274 7.21867 8.67674 7.384C8.74074 7.54933 8.77274 7.74933 8.77274 7.984C8.77274 8.43733 8.61807 8.792 8.30874 9.048C7.99941 9.29867 7.51141 9.424 6.84474 9.424Z" fill="#98CAFF"/>
</g>
<defs>
<clipPath id="clip0_433_7860">
<rect width="18" height="14" fill="white"/>
</clipPath>
</defs>
</svg>
