<svg width="18" height="18" viewBox="0 0 18 18" fill="none" xmlns="http://www.w3.org/2000/svg">
<path d="M9 13H10V16H9V13Z" fill="#01F9F3"/>
<path d="M17.5 0.5H1.5V5.5H17.5V0.5Z" fill="#40414C" stroke="#9FA6B6"/>
<path d="M3.7 3.6998C4.0866 3.6998 4.4 3.3864 4.4 2.9998C4.4 2.61321 4.0866 2.2998 3.7 2.2998C3.3134 2.2998 3 2.61321 3 2.9998C3 3.3864 3.3134 3.6998 3.7 3.6998Z" fill="#E73A1A"/>
<path d="M6.2 3.6998C6.5866 3.6998 6.9 3.3864 6.9 2.9998C6.9 2.61321 6.5866 2.2998 6.2 2.2998C5.8134 2.2998 5.5 2.61321 5.5 2.9998C5.5 3.3864 5.8134 3.6998 6.2 3.6998Z" fill="#FFC90D"/>
<path d="M8.7 3.6998C9.0866 3.6998 9.4 3.3864 9.4 2.9998C9.4 2.61321 9.0866 2.2998 8.7 2.2998C8.3134 2.2998 8 2.61321 8 2.9998C8 3.3864 8.3134 3.6998 8.7 3.6998Z" fill="#C5F000"/>
<path d="M17.5 7.5H1.5V12.5H17.5V7.5Z" fill="#40414C" stroke="#9FA6B6"/>
<path d="M3.7 10.6998C4.0866 10.6998 4.4 10.3864 4.4 9.9998C4.4 9.61321 4.0866 9.2998 3.7 9.2998C3.3134 9.2998 3 9.61321 3 9.9998C3 10.3864 3.3134 10.6998 3.7 10.6998Z" fill="#E73A1A"/>
<path d="M6.2 10.6998C6.5866 10.6998 6.9 10.3864 6.9 9.9998C6.9 9.61321 6.5866 9.2998 6.2 9.2998C5.8134 9.2998 5.5 9.61321 5.5 9.9998C5.5 10.3864 5.8134 10.6998 6.2 10.6998Z" fill="#FFC90D"/>
<path d="M8.7 10.6998C9.0866 10.6998 9.4 10.3864 9.4 9.9998C9.4 9.61321 9.0866 9.2998 8.7 9.2998C8.3134 9.2998 8 9.61321 8 9.9998C8 10.3864 8.3134 10.6998 8.7 10.6998Z" fill="#C5F000"/>
<path d="M18 17H1V16H18V17Z" fill="#01F9F3"/>
</svg>
