<svg width="18" height="14" viewBox="0 0 18 14" fill="none" xmlns="http://www.w3.org/2000/svg">
<g clip-path="url(#clip0_433_7730)">
<path d="M17.5 0.5H0.5V13.5H17.5V0.5Z" fill="#100551" stroke="#4394EC"/>
<path d="M8.90883 9.24C8.84483 9.24 8.82083 9.208 8.83683 9.144L10.5888 4.072C10.6048 4.024 10.6368 4 10.6848 4H11.5408C11.5942 4 11.6288 4.024 11.6448 4.072L13.4128 9.144C13.4235 9.17067 13.4208 9.19467 13.4048 9.216C13.3942 9.232 13.3728 9.24 13.3408 9.24H12.6528C12.5995 9.24 12.5648 9.216 12.5488 9.168L11.4288 5.712C11.3755 5.54667 11.3222 5.38133 11.2688 5.216C11.2155 5.04533 11.1622 4.87733 11.1088 4.712H11.0928C11.0448 4.87733 10.9942 5.04267 10.9408 5.208C10.8875 5.368 10.8342 5.53067 10.7808 5.696L9.67683 9.168C9.66083 9.216 9.62616 9.24 9.57283 9.24H8.90883ZM9.89283 8.072L10.0688 7.392H12.1408L12.3248 8.072H9.89283Z" fill="#98CAFF"/>
<path d="M4.588 9.24C4.52933 9.24 4.5 9.21067 4.5 9.152V4.088C4.5 4.02933 4.52933 4 4.588 4H6.084C6.90533 4 7.51867 4.192 7.924 4.576C8.32933 4.95467 8.532 5.53067 8.532 6.304V6.736C8.532 7.57867 8.32933 8.208 7.924 8.624C7.524 9.03467 6.91067 9.24 6.084 9.24H4.588ZM5.308 8.552H6.028C6.60933 8.552 7.036 8.408 7.308 8.12C7.58533 7.82667 7.724 7.376 7.724 6.768V6.272C7.724 5.73333 7.58533 5.336 7.308 5.08C7.036 4.81867 6.60933 4.688 6.028 4.688H5.308V8.552Z" fill="#98CAFF"/>
</g>
<defs>
<clipPath id="clip0_433_7730">
<rect width="18" height="14" fill="white"/>
</clipPath>
</defs>
</svg>
