<svg width="18" height="14" viewBox="0 0 18 14" fill="none" xmlns="http://www.w3.org/2000/svg">
<rect x="0.5" y="0.5" width="17" height="13" fill="#5B9BD5" stroke="#297AC3"/>
<path d="M10.9508 9.63941C10.8868 9.63941 10.8548 9.60741 10.8548 9.54341V5.24741H9.47881C9.41481 5.24741 9.38281 5.21541 9.38281 5.15141V4.49541C9.38281 4.43141 9.41481 4.39941 9.47881 4.39941H13.1988C13.2628 4.39941 13.2948 4.43141 13.2948 4.49541V5.15141C13.2948 5.21541 13.2628 5.24741 13.1988 5.24741H11.8228V9.54341C11.8228 9.60741 11.7908 9.63941 11.7268 9.63941H10.9508Z" fill="white"/>
<path d="M5.088 9.63941C5.02933 9.63941 5 9.60741 5 9.54341V4.49541C5 4.43141 5.02933 4.39941 5.088 4.39941H6.768C7.456 4.39941 7.95733 4.53275 8.272 4.79941C8.58667 5.06075 8.744 5.44475 8.744 5.95141C8.744 6.31941 8.65867 6.63141 8.488 6.88741C8.32267 7.13808 8.07467 7.31141 7.744 7.40741V7.42341L9.032 9.52741C9.05333 9.55941 9.056 9.58608 9.04 9.60741C9.02933 9.62875 9.00533 9.63941 8.968 9.63941H8.08C8.032 9.63941 7.99467 9.61808 7.968 9.57541L6.76 7.55141H5.96V9.54341C5.96 9.60741 5.928 9.63941 5.864 9.63941H5.088ZM5.96 6.79141H6.728C7.096 6.79141 7.36267 6.72741 7.528 6.59941C7.69867 6.47141 7.784 6.26608 7.784 5.98341C7.784 5.70608 7.70667 5.50875 7.552 5.39141C7.39733 5.27408 7.136 5.21541 6.768 5.21541H5.96V6.79141Z" fill="white"/>
</svg>
