<svg width="18" height="14" viewBox="0 0 18 14" fill="none" xmlns="http://www.w3.org/2000/svg">
<g clip-path="url(#clip0_433_7797)">
<path d="M17.5 0.5H0.5V13.5H17.5V0.5Z" fill="#100551" stroke="#4394EC"/>
<path d="M9.91026 9.32789C9.85159 9.32789 9.82227 9.29856 9.82227 9.23989V4.17589C9.82227 4.11722 9.85159 4.08789 9.91026 4.08789H11.4063C12.2276 4.08789 12.8409 4.27989 13.2463 4.66389C13.6516 5.04256 13.8543 5.61856 13.8543 6.39189V6.82389C13.8543 7.66656 13.6516 8.29589 13.2463 8.71189C12.8463 9.12256 12.2329 9.32789 11.4063 9.32789H9.91026ZM10.6303 8.63989H11.3503C11.9316 8.63989 12.3583 8.49589 12.6303 8.20789C12.9076 7.91456 13.0463 7.46389 13.0463 6.85589V6.35989C13.0463 5.82122 12.9076 5.42389 12.6303 5.16789C12.3583 4.90656 11.9316 4.77589 11.3503 4.77589H10.6303V8.63989Z" fill="#98CAFF"/>
<path d="M6.84474 9.424C6.40741 9.424 6.04741 9.36267 5.76474 9.24C5.48741 9.112 5.28474 8.936 5.15674 8.712C5.03407 8.48267 4.98341 8.21333 5.00474 7.904C5.01007 7.81333 5.04474 7.768 5.10874 7.768H5.72474C5.78874 7.768 5.82074 7.808 5.82074 7.888C5.82074 8.18133 5.90874 8.39467 6.08474 8.528C6.26074 8.66133 6.53274 8.728 6.90074 8.728C7.25274 8.728 7.51674 8.66667 7.69274 8.544C7.87407 8.42133 7.96474 8.23467 7.96474 7.984C7.96474 7.86133 7.94341 7.75733 7.90074 7.672C7.86341 7.58133 7.79407 7.50133 7.69274 7.432C7.59141 7.36267 7.45807 7.29333 7.29274 7.224L6.11674 6.736C5.86607 6.62933 5.66341 6.512 5.50874 6.384C5.35941 6.256 5.25007 6.10933 5.18074 5.944C5.11674 5.77867 5.08474 5.58933 5.08474 5.376C5.09007 4.928 5.23941 4.58667 5.53274 4.352C5.83141 4.11733 6.26607 4 6.83674 4C7.23141 4 7.57007 4.056 7.85274 4.168C8.14074 4.28 8.35407 4.44533 8.49274 4.664C8.63674 4.88267 8.69541 5.152 8.66874 5.472C8.65807 5.568 8.62607 5.616 8.57274 5.616H7.94874C7.92207 5.616 7.90074 5.60533 7.88474 5.584C7.87407 5.56267 7.87141 5.52533 7.87674 5.472C7.89274 5.22667 7.80741 5.03467 7.62074 4.896C7.43407 4.75733 7.16741 4.688 6.82074 4.688C6.51674 4.688 6.28741 4.744 6.13274 4.856C5.97807 4.96267 5.89807 5.12533 5.89274 5.344C5.89274 5.46133 5.91407 5.56267 5.95674 5.648C5.99941 5.73333 6.07141 5.81333 6.17274 5.888C6.27407 5.96267 6.41274 6.03733 6.58874 6.112L7.74874 6.6C7.99941 6.70133 8.19941 6.816 8.34874 6.944C8.50341 7.072 8.61274 7.21867 8.67674 7.384C8.74074 7.54933 8.77274 7.74933 8.77274 7.984C8.77274 8.43733 8.61807 8.792 8.30874 9.048C7.99941 9.29867 7.51141 9.424 6.84474 9.424Z" fill="#98CAFF"/>
</g>
<defs>
<clipPath id="clip0_433_7797">
<rect width="18" height="14" fill="white"/>
</clipPath>
</defs>
</svg>
