<svg width="14" height="14" viewBox="0 0 14 14" fill="none" xmlns="http://www.w3.org/2000/svg">
<rect x="0.5" y="0.5" width="13" height="13" fill="#F38440" stroke="#AE5A21"/>
<path d="M6.95761 10.111C6.19561 10.111 5.61061 9.925 5.20261 9.553C4.80061 9.175 4.59961 8.62 4.59961 7.888V6.232C4.59961 5.494 4.80361 4.939 5.21161 4.567C5.61961 4.189 6.20161 4 6.95761 4C7.47361 4 7.91761 4.084 8.28961 4.252C8.66161 4.42 8.93761 4.66 9.11761 4.972C9.29761 5.284 9.35761 5.653 9.29761 6.079C9.29161 6.109 9.27961 6.139 9.26161 6.169C9.24961 6.193 9.22561 6.205 9.18961 6.205H8.31661C8.24461 6.205 8.21161 6.169 8.21761 6.097C8.22961 5.731 8.13061 5.449 7.92061 5.251C7.71661 5.047 7.40161 4.945 6.97561 4.945C6.56161 4.945 6.24061 5.053 6.01261 5.269C5.79061 5.485 5.67961 5.812 5.67961 6.25V7.861C5.67961 8.299 5.79061 8.626 6.01261 8.842C6.24061 9.058 6.56161 9.166 6.97561 9.166C7.41361 9.166 7.73761 9.064 7.94761 8.86C8.15761 8.65 8.24761 8.368 8.21761 8.014C8.21161 7.942 8.24461 7.906 8.31661 7.906H9.18061C9.24661 7.906 9.28561 7.948 9.29761 8.032C9.33961 8.452 9.26761 8.818 9.08161 9.13C8.90161 9.442 8.62861 9.685 8.26261 9.859C7.90261 10.027 7.46761 10.111 6.95761 10.111Z" fill="white"/>
</svg>
