<svg width="18" height="14" viewBox="0 0 18 14" fill="none" xmlns="http://www.w3.org/2000/svg">
<g clip-path="url(#clip0_433_7703)">
<path d="M17.5 0.5H0.5V13.5H17.5V0.5Z" fill="#100551" stroke="#4394EC"/>
<path d="M10.3107 9.24C10.252 9.24 10.2227 9.21067 10.2227 9.152V4.088C10.2227 4.02933 10.252 4 10.3107 4H11.7107C12.3773 4 12.8733 4.14133 13.1987 4.424C13.5293 4.70667 13.6947 5.12 13.6947 5.664C13.6947 6.208 13.5267 6.62133 13.1907 6.904C12.86 7.18667 12.3667 7.328 11.7107 7.328H11.0307V9.152C11.0307 9.21067 11.0013 9.24 10.9427 9.24H10.3107ZM11.0307 6.648H11.6947C12.1053 6.648 12.4067 6.57067 12.5987 6.416C12.7907 6.26133 12.8867 6.01867 12.8867 5.688C12.8867 5.336 12.788 5.08267 12.5907 4.928C12.3987 4.768 12.0973 4.688 11.6867 4.688H11.0307V6.648Z" fill="#98CAFF"/>
<path d="M5.0768 9.24C5.0128 9.24 4.9888 9.208 5.0048 9.144L6.7568 4.072C6.7728 4.024 6.8048 4 6.8528 4H7.7088C7.76213 4 7.7968 4.024 7.8128 4.072L9.5808 9.144C9.59147 9.17067 9.5888 9.19467 9.5728 9.216C9.56213 9.232 9.5408 9.24 9.5088 9.24H8.8208C8.76747 9.24 8.7328 9.216 8.7168 9.168L7.5968 5.712C7.54347 5.54667 7.49013 5.38133 7.4368 5.216C7.38347 5.04533 7.33013 4.87733 7.2768 4.712H7.2608C7.2128 4.87733 7.16213 5.04267 7.1088 5.208C7.05547 5.368 7.00213 5.53067 6.9488 5.696L5.8448 9.168C5.8288 9.216 5.79413 9.24 5.7408 9.24H5.0768ZM6.0608 8.072L6.2368 7.392H8.3088L8.4928 8.072H6.0608Z" fill="#98CAFF"/>
</g>
<defs>
<clipPath id="clip0_433_7703">
<rect width="18" height="14" fill="white"/>
</clipPath>
</defs>
</svg>
