<svg width="18" height="18" viewBox="0 0 18 18" fill="none" xmlns="http://www.w3.org/2000/svg">
<path d="M18 5H1V17H18V5Z" fill="#D0D4E2"/>
<path d="M18 1H1V6H18V1Z" fill="#51B0FF"/>
<path d="M11 4.5C11.5523 4.5 12 4.05228 12 3.5C12 2.94772 11.5523 2.5 11 2.5C10.4477 2.5 10 2.94772 10 3.5C10 4.05228 10.4477 4.5 11 4.5Z" fill="#0367BA"/>
<path d="M13.5 4.5C14.0523 4.5 14.5 4.05228 14.5 3.5C14.5 2.94772 14.0523 2.5 13.5 2.5C12.9477 2.5 12.5 2.94772 12.5 3.5C12.5 4.05228 12.9477 4.5 13.5 4.5Z" fill="#0367BA"/>
<path d="M16 4.5C16.5523 4.5 17 4.05228 17 3.5C17 2.94772 16.5523 2.5 16 2.5C15.4477 2.5 15 2.94772 15 3.5C15 4.05228 15.4477 4.5 16 4.5Z" fill="#0367BA"/>
<path d="M9 8H3V13H9V8Z" fill="#EC512F"/>
<path d="M16 9H10V8H16V9Z" fill="#546879"/>
<path d="M16 11H10V10H16V11Z" fill="#546879"/>
<path d="M16 13H10V12H16V13Z" fill="#546879"/>
<path d="M16 15H3V14H16V15Z" fill="#546879"/>
</svg>
