<svg width="18" height="14" viewBox="0 0 18 14" fill="none" xmlns="http://www.w3.org/2000/svg">
<g clip-path="url(#clip0_433_7896)">
<path d="M17.5 0.5H0.5V13.5H17.5V0.5Z" fill="#100551" stroke="#4394EC"/>
<path d="M8.65617 9.74C8.63484 9.74 8.61617 9.732 8.60017 9.716C8.58417 9.7 8.57617 9.67867 8.57617 9.652L8.68817 4.588C8.68817 4.52933 8.71484 4.5 8.76817 4.5H9.67217C9.71484 4.5 9.74684 4.52133 9.76817 4.564L11.1442 7.644L12.5042 4.564C12.5255 4.52133 12.5575 4.5 12.6002 4.5H13.5042C13.5575 4.5 13.5842 4.52933 13.5842 4.588L13.6962 9.652C13.6962 9.67867 13.6882 9.7 13.6722 9.716C13.6615 9.732 13.6428 9.74 13.6162 9.74H13.0322C12.9788 9.74 12.9522 9.71067 12.9522 9.652L12.8722 6.628C12.8668 6.43067 12.8668 6.23333 12.8722 6.036C12.8828 5.83333 12.8935 5.63067 12.9042 5.428H12.8802C12.8002 5.63067 12.7175 5.83067 12.6322 6.028C12.5468 6.22533 12.4562 6.42267 12.3602 6.62L11.2402 9.036C11.2188 9.07867 11.1868 9.1 11.1442 9.1H11.1202C11.0775 9.1 11.0482 9.07867 11.0322 9.036L9.88817 6.588C9.80284 6.396 9.7175 6.204 9.63217 6.012C9.55217 5.81467 9.47484 5.62 9.40017 5.428H9.37617C9.38684 5.62 9.39484 5.81733 9.40017 6.02C9.40551 6.21733 9.40551 6.412 9.40017 6.604L9.32017 9.652C9.32017 9.71067 9.2935 9.74 9.24017 9.74H8.65617Z" fill="#98CAFF"/>
<path d="M5.592 9.74C5.53333 9.74 5.504 9.71067 5.504 9.652V5.188H4.08C4.02667 5.188 4 5.15867 4 5.1V4.588C4 4.52933 4.02667 4.5 4.08 4.5H7.696C7.74933 4.5 7.776 4.52933 7.776 4.588V5.1C7.776 5.15867 7.74933 5.188 7.696 5.188H6.272V9.652C6.272 9.71067 6.24267 9.74 6.184 9.74H5.592Z" fill="#98CAFF"/>
</g>
<defs>
<clipPath id="clip0_433_7896">
<rect width="18" height="14" fill="white"/>
</clipPath>
</defs>
</svg>
