<svg width="18" height="18" viewBox="0 0 18 18" fill="none" xmlns="http://www.w3.org/2000/svg">
<g clip-path="url(#clip0_433_8045)">
<mask id="mask0_433_8045" style="mask-type:luminance" maskUnits="userSpaceOnUse" x="0" y="0" width="18" height="18">
<path d="M18 0H0V18H18V0Z" fill="white"/>
</mask>
<g mask="url(#mask0_433_8045)">
<path d="M9 17C13.4183 17 17 13.4183 17 9C17 4.58172 13.4183 1 9 1C4.58172 1 1 4.58172 1 9C1 13.4183 4.58172 17 9 17Z" fill="white" stroke="#FF9000" stroke-width="2"/>
<mask id="mask1_433_8045" style="mask-type:alpha" maskUnits="userSpaceOnUse" x="2" y="2" width="14" height="14">
<path d="M9 16C12.866 16 16 12.866 16 9C16 5.13401 12.866 2 9 2C5.13401 2 2 5.13401 2 9C2 12.866 5.13401 16 9 16Z" fill="white"/>
</mask>
<g mask="url(#mask1_433_8045)">
<path d="M8.56822 12.7848C8.42697 12.6413 8.35916 12.4679 8.36481 12.2646C8.37094 12.0613 8.44462 11.8879 8.58587 11.7444L10.5811 9.71749H0.70626C0.506153 9.71749 0.338299 9.64861 0.202697 9.51085C0.0675656 9.37357 0 9.20329 0 9C0 8.79671 0.0675656 8.62619 0.202697 8.48843C0.338299 8.35115 0.506153 8.28251 0.70626 8.28251H10.5811L8.56822 6.23767C8.42697 6.09417 8.35634 5.92365 8.35634 5.7261C8.35634 5.52903 8.42697 5.35874 8.56822 5.21525C8.70947 5.07175 8.87732 5 9.07178 5C9.26577 5 9.43339 5.07175 9.57464 5.21525L12.8058 8.49776C12.8764 8.56951 12.9265 8.64723 12.9562 8.73094C12.9854 8.81465 13 8.90433 13 9C13 9.09566 12.9854 9.18535 12.9562 9.26906C12.9265 9.35277 12.8764 9.43049 12.8058 9.50224L9.55698 12.8027C9.4275 12.9342 9.26577 13 9.07178 13C8.87732 13 8.70947 12.9283 8.56822 12.7848Z" fill="#E52222" stroke="#E52222" stroke-width="0.6"/>
</g>
</g>
</g>
<defs>
<clipPath id="clip0_433_8045">
<rect width="18" height="18" fill="white"/>
</clipPath>
</defs>
</svg>
