<svg width="18" height="14" viewBox="0 0 18 14" fill="none" xmlns="http://www.w3.org/2000/svg">
<g clip-path="url(#clip0_433_7770)">
<path d="M17.5 0.5H0.5V13.5H17.5V0.5Z" fill="#100551" stroke="#4394EC"/>
<path d="M8.93956 9.24C8.8809 9.24 8.85156 9.21067 8.85156 9.152V4.088C8.85156 4.02933 8.8809 4 8.93956 4H10.4356C11.2569 4 11.8702 4.192 12.2756 4.576C12.6809 4.95467 12.8836 5.53067 12.8836 6.304V6.736C12.8836 7.57867 12.6809 8.208 12.2756 8.624C11.8756 9.03467 11.2622 9.24 10.4356 9.24H8.93956ZM9.65956 8.552H10.3796C10.9609 8.552 11.3876 8.408 11.6596 8.12C11.9369 7.82667 12.0756 7.376 12.0756 6.768V6.272C12.0756 5.73333 11.9369 5.336 11.6596 5.08C11.3876 4.81867 10.9609 4.688 10.3796 4.688H9.65956V8.552Z" fill="#98CAFF"/>
<path d="M5.088 9.24C5.02933 9.24 5 9.21067 5 9.152V4.088C5 4.02933 5.02933 4 5.088 4H5.728C5.78133 4 5.808 4.02933 5.808 4.088V8.52H7.968C8.02667 8.52 8.056 8.54933 8.056 8.608V9.152C8.056 9.21067 8.02667 9.24 7.968 9.24H5.088Z" fill="#98CAFF"/>
</g>
<defs>
<clipPath id="clip0_433_7770">
<rect width="18" height="14" fill="white"/>
</clipPath>
</defs>
</svg>
