<svg width="18" height="18" viewBox="0 0 18 18" fill="none" xmlns="http://www.w3.org/2000/svg">
<g clip-path="url(#clip0_89_678)">
<path fill-rule="evenodd" clip-rule="evenodd" d="M15.7602 9.909L15.7693 9.891L17.6904 11.385C17.8634 11.511 17.9909 11.619 17.9909 11.619L15.7785 15.399L13.1563 14.364L13.1745 14.328C12.692 14.697 12.1639 15.003 11.5994 15.237H11.6085L11.2625 17.622C11.2352 17.838 11.2079 18 11.2079 18H6.79211L6.3824 15.228H6.40971C5.83612 14.994 5.31715 14.688 4.8346 14.319L4.85281 14.355L2.23065 15.39L0.0182096 11.61L0.318665 11.376L2.23065 9.891L2.23976 9.909C2.19423 9.612 2.16692 9.306 2.16692 9C2.16692 8.694 2.19423 8.406 2.23065 8.109L2.22155 8.127L0 6.399L2.22155 2.601L4.8437 3.654L4.8346 3.663C5.30804 3.303 5.82701 2.997 6.3915 2.763H6.3824L6.783 0H11.217L11.6358 2.754H11.6267C12.1912 2.988 12.7102 3.294 13.1836 3.654L13.1745 3.645L15.7876 2.601L18 6.399L15.7785 8.127L15.7693 8.109C15.8058 8.406 15.8331 8.694 15.8331 9C15.8331 9.306 15.7967 9.612 15.7602 9.909ZM9 14C11.7614 14 14 11.7614 14 9C14 6.23858 11.7614 4 9 4C6.23858 4 4 6.23858 4 9C4 11.7614 6.23858 14 9 14Z" fill="#aaaaaa"/>
</g>
<defs>
<clipPath id="clip0_89_678">
<rect width="18" height="18" fill="white"/>
</clipPath>
</defs>
</svg>
