<svg width="21" height="12" viewBox="0 0 21 12" fill="none" xmlns="http://www.w3.org/2000/svg">
<path d="M0.0917969 11.1311L3.5638 0.869141H5.0058L8.4918 11.1311H7.1198L5.3278 5.39114C5.14113 4.80314 4.9638 4.22914 4.7958 3.66914C4.6278 3.09981 4.4598 2.51647 4.2918 1.91914H4.2358C4.07713 2.51647 3.90913 3.09981 3.7318 3.66914C3.5638 4.22914 3.39113 4.80314 3.2138 5.39114L1.3938 11.1311H0.0917969ZM1.8978 7.99514V6.97314H6.6298V7.99514H1.8978Z" fill="#E5EBF5"/>
<path d="M9.19738 6.70114V5.72114H12.7954V6.70114H9.19738Z" fill="#E5EBF5"/>
<path d="M13.7514 11.1311V10.3471L19.1694 1.96114H14.2414V0.869141H20.7654V1.63914L15.3474 10.0251H20.8354V11.1311H13.7514Z" fill="#E5EBF5"/>
</svg>
