<svg width="157" height="22" viewBox="0 0 157 22" fill="none" xmlns="http://www.w3.org/2000/svg">
<g clip-path="url(#clip0_94_2)">
<path d="M26.8174 0.457071C26.1643 0.262083 25.4856 0.126231 24.7862 0.0559082L17.1389 6.34185L1.65112 16.7992C1.90342 17.2068 2.18127 17.5952 2.48308 17.9628L17.5573 6.45693L26.8174 0.457071Z" fill="#B2B2B2"/>
<path d="M30.5316 2.40227C30.0813 2.04266 29.6039 1.71822 29.1009 1.43213L17.8639 10.2721L4.0368 19.518C4.51107 19.9064 5.01886 20.2564 5.55221 20.5601L17.4423 10.9945L30.5316 2.40227Z" fill="#B2B2B2"/>
<path d="M31.9161 3.72076C31.5664 3.32439 31.1895 2.9536 30.7871 2.61157L17.9389 12.4824L5.75821 20.6767C6.28197 20.9612 6.83288 21.2041 7.40455 21.4007L18.0539 12.9411L31.9161 3.72236V3.72076Z" fill="#B2B2B2"/>
<path d="M24.2784 0.0159826C24.0788 0.00479477 23.8792 0 23.6764 0C22.8828 0 22.1115 0.0863058 21.3658 0.244533L17.2906 3.97646L0.803223 15.1355C0.996441 15.6134 1.22319 16.0737 1.47869 16.5148L17.1773 4.43516L24.2784 0.0159826Z" fill="#B2B2B2"/>
<path d="M10.9895 0C4.91987 0 0 4.92423 0 11.0008C0 12.297 0.225155 13.5404 0.635544 14.696L17.0639 1.8332C15.3233 0.676063 13.2362 0 10.9895 0Z" fill="#B2B2B2"/>
<path d="M28.8534 1.29454C28.3408 1.01964 27.8026 0.784698 27.2437 0.591309L18.3206 7.71474L2.67313 18.1913C3.05477 18.634 3.47314 19.0464 3.92186 19.422L17.2156 8.93581L28.8534 1.29454Z" fill="#B2B2B2"/>
<path d="M17.4455 20.0597C19.2164 21.2823 21.3626 22 23.6764 22C29.746 22 34.6674 17.0757 34.6674 11.0007C34.6674 9.63744 34.4183 8.33166 33.9664 7.12817L17.4455 20.0613V20.0597Z" fill="#B2B2B2"/>
<path d="M33.8531 6.84047C33.6439 6.32583 33.3964 5.83037 33.1153 5.35889L18.3972 16.7545L10.2693 21.9744C10.5088 21.9903 10.7499 21.9983 10.9911 21.9983C11.6697 21.9983 12.3324 21.9344 12.9759 21.8177L17.2523 18.0123L33.8531 6.84047Z" fill="#B2B2B2"/>
<path d="M33.0083 5.18787C32.7337 4.74675 32.4287 4.32801 32.0965 3.93164L18.8156 14.1237L7.64407 21.4805C8.32113 21.6979 9.02854 21.8497 9.7567 21.9312L17.7489 15.3816L33.0083 5.18787Z" fill="#B2B2B2"/>
<path d="M28.2434 8.44678H27.4082V11.4467H28.2434V8.44678Z" fill="#F39200"/>
<path d="M32.0008 6.85181H29.0035V7.68769H32.0008V6.85181Z" fill="#F39200"/>
<path d="M26.5938 6.85181H23.5966V7.68769H26.5938V6.85181Z" fill="#F39200"/>
<path d="M28.2434 3.07666H27.4082V6.07659H28.2434V3.07666Z" fill="#F39200"/>
<path d="M6.83448 16.3263H5.03165V7.68774H6.83448V11.2007L10.1288 7.68774H12.4602L8.93752 11.2247L12.6646 16.3263H10.3443L7.67442 12.5369L6.83289 13.4031V16.3263H6.83448Z" fill="#E30413"/>
<path d="M14.0826 13.1746C14.0826 12.1645 14.4434 11.2119 15.5133 11.2119C16.6663 11.2119 16.9553 12.246 16.9553 13.2705C16.9553 14.2214 16.5337 15.1116 15.4654 15.1116C14.3971 15.1116 14.0826 13.9321 14.0826 13.1762V13.1746ZM18.5681 7.68774H16.885V10.7564H16.8611C16.596 10.3472 16.0914 9.75749 15.0087 9.75749C13.6035 9.75749 12.3532 10.8411 12.3532 13.0547C12.3532 14.8112 13.1468 16.4957 15.0471 16.4957C15.7433 16.4957 16.489 16.2432 16.8962 15.5224H16.9202V16.3279H18.5681V7.68934V7.68774Z" fill="#E30413"/>
<path d="M25.8529 16.3263H24.1698V12.4393C24.1698 11.9694 24.1459 11.1751 23.076 11.1751C22.3303 11.1751 21.7538 11.6818 21.7538 12.6567V16.3263H20.0691V9.92527H21.6803V10.8635H21.7043C21.9326 10.4783 22.4149 9.75586 23.6285 9.75586C24.8421 9.75586 25.8529 10.4895 25.8529 11.8975V16.3247V16.3263Z" fill="#E30413"/>
<path d="M81.1372 21.5429V0.821533H84.9968V10.0323H85.0606C85.6626 8.39887 86.6559 6.57206 87.4846 5.05691L89.7394 0.821533H94.1067L89 9.73341L94.3638 21.5445H89.9965L86.3461 13.3774L84.9983 15.6118V21.5445H81.1388L81.1372 21.5429Z" fill="#4A4A49"/>
<path d="M131.637 21.5429H130.405V0.821533H131.637V21.5429Z" fill="#4A4A49"/>
<path d="M157 21.5429H155.769V0.821533H157V21.5429Z" fill="#4A4A49"/>
<path d="M100.283 18.503V3.86941H102.837C105.144 3.86941 105.638 5.8049 105.638 10.6972C105.638 16.6858 105.419 18.503 101.96 18.503H100.283ZM103.578 21.5429C104.544 21.5429 105.593 21.4902 106.431 20.9963C109.615 19.1439 109.615 14.4147 109.615 10.3344C109.615 6.91089 109.368 4.61899 108.493 3.17736C107.308 1.24028 105.419 0.821533 104.488 0.821533H96.4238V21.5429H103.576H103.578Z" fill="#4A4A49"/>
<path d="M121.913 0.821533H125.772V21.5429H121.74L118.741 14.167C117.719 11.7121 116.889 9.1916 115.977 5.93436H115.921C116.068 7.64929 116.223 9.74939 116.34 11.8495C116.45 13.9224 116.531 15.9938 116.531 17.6544V21.5445H112.664V0.821533H116.669L119.677 8.3717C120.664 10.7739 121.502 13.2288 122.432 16.6075H122.487C122.36 14.7264 122.205 12.7078 122.104 10.7179C121.992 8.72651 121.913 6.74627 121.913 4.89389V0.821533Z" fill="#4A4A49"/>
<path d="M45.9859 6.44427C46.4138 6.95411 46.6518 7.58542 46.6518 8.343C46.6518 9.10057 46.4138 9.74147 45.9859 10.2593C45.5563 10.7628 45.0741 11.0201 44.5535 11.0201C44.0329 11.0201 43.5507 10.7644 43.1116 10.2593C42.6756 9.74147 42.4648 9.11016 42.4648 8.343C42.4648 7.57583 42.674 6.97489 43.1116 6.45386C43.5507 5.92483 44.0234 5.6771 44.5535 5.6771C45.0837 5.6771 45.5563 5.92483 45.9859 6.44427ZM55.7011 18.9298H43.8525V14.9694H40.1398V21.9521H55.7011V18.9298ZM51.7585 0.545103V15.6742H55.4727V8.23272H57.5694V5.20082H55.4727V0.545103H51.7585ZM39.327 6.0431C38.9358 6.71917 38.7458 7.47674 38.7458 8.343C38.7458 9.93166 39.3031 11.2726 40.4241 12.3866C41.5546 13.4926 42.9343 14.0504 44.5551 14.0504C46.1759 14.0504 47.5476 13.4926 48.6797 12.3866C49.7912 11.2726 50.3676 9.93166 50.3676 8.343C50.3676 7.47514 50.1584 6.69999 49.7656 6.01434C49.3552 5.32229 48.8522 4.74532 48.2422 4.28023H50.1297V1.24834H46.409V0.0895996H42.6964V1.24834H38.9741V4.28023H40.8361C40.2372 4.78208 39.7342 5.37503 39.3302 6.04151L39.327 6.0431Z" fill="#4A4A49"/>
<path d="M76.6788 15.6646H72.9565V7.99617H70.4032V4.96588H72.9565V0.537109H76.6788V15.6646ZM76.9039 18.9155H64.8206V14.9614H61.0984V21.9458H76.9039V18.9139V18.9155ZM63.9008 4.87318C63.9008 5.99835 63.6454 7.02124 63.1615 7.90667C62.6505 8.8001 61.9926 9.51292 61.1734 10.0339C60.498 10.4735 59.9423 10.7739 59.5127 10.9657C59.0768 11.1591 58.8373 11.2486 58.8021 11.2678L60.3878 14.0328C60.4245 14.0328 60.6257 13.9784 60.9882 13.8602C61.3651 13.7499 62.0022 13.4318 62.9124 12.9204C63.7603 12.4345 64.439 11.9327 64.958 11.4132C65.4673 10.9018 65.7324 10.6269 65.7516 10.5917C65.7867 10.6285 66.0614 10.9018 66.5708 11.4132C67.1009 11.9327 67.7844 12.4345 68.6339 12.9012C69.5457 13.3839 70.1844 13.686 70.5581 13.8314C70.9317 13.9689 71.1329 14.0328 71.1521 14.0328L72.6755 11.2486C72.6659 11.231 72.4456 11.1304 72.0272 10.9466C71.6184 10.7548 71.0707 10.4639 70.4032 10.0339C69.5201 9.47616 68.8351 8.75694 68.3417 7.86032C67.8482 6.9669 67.6119 5.952 67.6119 4.80286V4.03729H71.5689V1.01339H59.9423V4.03569H63.9008V4.87318Z" fill="#4A4A49"/>
<path d="M152.384 12.4234V15.4457H145.635V21.9633H141.913V15.4457H135.181V12.4234H152.384ZM141.222 4.05169H135.877V1.03418H151.673V4.05329H146.146C146.384 4.61907 146.812 5.17686 147.443 5.76981C148.078 6.34359 149.011 6.93654 150.285 7.54068C150.747 7.74046 151.189 7.92426 151.646 8.07929C152.101 8.23433 152.347 8.31584 152.382 8.33502L150.75 11.2918C150.734 11.2918 150.523 11.2279 150.138 11.108C149.739 10.9993 149.081 10.7436 148.134 10.3536C146.747 9.76705 145.68 9.11017 144.923 8.37977C144.176 7.64936 143.789 7.26738 143.765 7.21144C143.729 7.26738 143.345 7.64936 142.606 8.37018C141.876 9.09259 140.798 9.76705 139.411 10.3968C138.52 10.8075 137.862 11.0457 137.463 11.1463C137.06 11.2374 136.832 11.2918 136.805 11.2918L135.179 8.33502C135.219 8.31584 135.455 8.23433 135.912 8.08888C136.375 7.94184 136.822 7.75964 137.279 7.54068C138.429 6.93654 139.291 6.35478 139.888 5.7794C140.481 5.20403 140.936 4.63026 141.218 4.05329L141.222 4.05169Z" fill="#4A4A49"/>
</g>
<defs>
<clipPath id="clip0_94_2">
<rect width="157" height="22" fill="white"/>
</clipPath>
</defs>
</svg>
