<svg width="58" height="58" viewBox="0 0 58 58" fill="none" xmlns="http://www.w3.org/2000/svg">
<path fill-rule="evenodd" clip-rule="evenodd" d="M34.754 1.57182C35.0063 2.06192 35.0701 2.69123 35.1948 3.94985C35.4326 6.32787 35.5515 7.51689 36.0503 8.17229C36.3611 8.57923 36.7741 8.89663 37.2473 9.09223C37.7205 9.28783 38.237 9.35465 38.7444 9.28591C39.5564 9.17861 40.4845 8.4217 42.3347 6.90788C43.312 6.10457 43.8021 5.70436 44.327 5.53616C44.9955 5.32254 45.7189 5.3586 46.3628 5.63766C46.8703 5.85807 47.3198 6.30467 48.2102 7.19788L50.8028 9.79051C51.696 10.6837 52.1426 11.1303 52.363 11.6378C52.6421 12.2818 52.6781 13.0051 52.4645 13.6737C52.2963 14.1986 51.8961 14.6887 51.0957 15.666C49.579 17.5191 48.8221 18.4442 48.7119 19.2591C48.644 19.7663 48.7115 20.2825 48.9076 20.7551C49.1037 21.2278 49.4214 21.6402 49.8284 21.9503C50.4807 22.449 51.672 22.568 54.0513 22.8056L54.0513 22.8056L54.0537 22.8059C55.3094 22.9306 55.9387 22.9944 56.4317 23.2467C57.0537 23.5691 57.5378 24.1058 57.7948 24.7576C58.0007 25.2709 58.0007 25.9031 58.0007 27.1674V27.1675V30.8332V30.8332C58.0007 32.0976 58.0007 32.7298 57.7977 33.2402C57.5399 33.894 57.0535 34.4319 56.4288 34.754C55.9387 35.0063 55.3094 35.0701 54.0508 35.1948C51.6728 35.4326 50.4838 35.5515 49.8284 36.0503C49.497 36.3034 49.2249 36.6243 49.0297 36.9903L46.4831 35.4874C47.2331 33.467 47.6428 31.2814 47.6428 29C47.6428 18.7038 39.2962 10.3571 29 10.3571C18.7038 10.3571 10.3571 18.7038 10.3571 29C10.3571 39.2962 18.7038 47.6428 29 47.6428C30.9384 47.6428 32.8077 47.347 34.5653 46.798L36.2456 49.5985C36.1767 49.6715 36.1115 49.7482 36.0503 49.8284C35.5515 50.4809 35.4326 51.6699 35.1948 54.0508C35.0701 55.3094 35.0063 55.9387 34.754 56.4288C34.4326 57.0529 33.8958 57.5393 33.2431 57.7977C32.7298 58.0007 32.0976 58.0007 30.8332 58.0007H30.8332H27.1675H27.1674C25.9031 58.0007 25.2709 58.0007 24.7605 57.7977C24.1067 57.5399 23.5687 57.0535 23.2467 56.4288C22.9944 55.9387 22.9306 55.3094 22.8059 54.0508C22.5681 51.6728 22.4492 50.4838 21.9503 49.8284C21.6398 49.4219 21.2273 49.1048 20.7547 48.9092C20.282 48.7136 19.7661 48.6465 19.2591 48.7148C18.4459 48.8218 17.523 49.5758 15.6777 51.0832L15.666 51.0928C14.6887 51.8961 14.1986 52.2963 13.6737 52.4645C13.0051 52.6781 12.2818 52.6421 11.6378 52.363C11.1303 52.1426 10.6808 51.696 9.79051 50.8028L7.19788 48.2102C6.30467 47.3169 5.85807 46.8703 5.63766 46.3628C5.3586 45.7189 5.32254 44.9955 5.53616 44.327C5.70436 43.8021 6.10457 43.312 6.90498 42.3347C8.4217 40.4816 9.17861 39.5564 9.28591 38.7415C9.35412 38.2346 9.28703 37.7186 9.09145 37.246C8.89587 36.7733 8.57876 36.3608 8.17229 36.0503C7.52 35.5517 6.32866 35.4327 3.9493 35.195H3.94927L3.94695 35.1948C2.69123 35.0701 2.06192 35.0063 1.56892 34.754C0.946998 34.4315 0.462834 33.8948 0.205903 33.2431C0 32.7298 0 32.0976 0 30.8332V27.1675C0 25.9031 0 25.2709 0.203002 24.7605C0.460778 24.1067 0.947194 23.5687 1.57182 23.2467C2.06192 22.9944 2.69123 22.9306 3.94985 22.8059L3.95459 22.8054L3.95464 22.8054C6.32947 22.5679 7.52022 22.4488 8.17229 21.9503C8.57929 21.6402 8.89697 21.2278 9.09306 20.7551C9.28916 20.2825 9.35669 19.7663 9.28881 19.2591C9.17964 18.4518 8.43297 17.5364 6.9473 15.715L6.94729 15.715L6.90498 15.6631L6.89426 15.65L6.89426 15.65C6.10099 14.6814 5.70361 14.1962 5.53616 13.6708C5.32254 13.0022 5.3586 12.2789 5.63766 11.6349C5.85807 11.1303 6.30467 10.6808 7.19788 9.78761L9.79051 7.19788L9.81679 7.17161L9.81679 7.1716C10.6925 6.29583 11.1353 5.85302 11.6378 5.63766C12.2818 5.3586 13.0051 5.32254 13.6737 5.53616C14.1986 5.70436 14.6887 6.10457 15.666 6.90498L15.6778 6.91465L15.6778 6.91465C17.523 8.42202 18.4459 9.17594 19.2562 9.28591C19.7643 9.35486 20.2817 9.28785 20.7554 9.09172C21.2292 8.89558 21.6425 8.57732 21.9532 8.16939C22.4463 7.51689 22.5681 6.32787 22.8059 3.94695C22.9306 2.69123 22.9944 2.06192 23.2467 1.56892C23.5686 0.945908 24.1054 0.460651 24.7576 0.203002C25.2709 0 25.9031 0 27.1675 0H30.8332C32.0976 0 32.7298 0 33.2402 0.203002C33.894 0.460778 34.4319 0.947194 34.754 1.57182Z" fill="white"/>
<path d="M22.7687 34.8128C23.9573 36.0038 25.4725 36.8157 27.1226 37.1457C28.7727 37.4757 30.4836 37.309 32.039 36.6667L47.4283 54.1333C49.2824 55.9872 52.2788 55.9872 54.1329 54.1333C55.987 52.2794 55.987 49.2832 54.1329 47.4481L36.6647 32.0413C37.9382 28.9515 37.3202 25.2812 34.8107 22.7719C32.4135 20.375 28.9676 19.7383 25.9711 20.7869L31.3835 26.1988L26.1022 31.4795L20.746 26.1052C19.7535 29.0639 20.4089 32.4533 22.7687 34.8128ZM52.129 52.1296C51.3799 52.8599 50.1813 52.8599 49.4509 52.1296C48.7018 51.3805 48.7018 50.1821 49.4509 49.4518C50.1813 48.7027 51.3799 48.7027 52.129 49.4518C52.4801 49.809 52.6769 50.2898 52.6769 50.7907C52.6769 51.2915 52.4801 51.7724 52.129 52.1296Z" fill="white"/>
</svg>
