<svg width="110" height="110" viewBox="0 0 110 110" fill="none" xmlns="http://www.w3.org/2000/svg">
<path d="M30.9648 10.1094L46.4716 37.1457" stroke="white" stroke-width="2"/>
<path d="M33.1322 3.60578C34.5704 6.09681 33.7158 9.29658 31.2251 10.7349C28.7239 12.1732 25.5349 11.3186 24.0968 8.82756C22.6586 6.32611 23.5132 3.13676 26.0039 1.69843C28.4946 0.260098 31.694 1.11476 33.1322 3.60578Z" fill="white" stroke="white" stroke-width="2"/>
<path d="M30.9648 99.2242L46.4719 72.8438" stroke="white" stroke-width="2"/>
<path d="M33.1322 106.393C34.5704 103.902 33.7158 100.702 31.2251 99.2639C28.7239 97.8255 25.5349 98.6802 24.0968 101.171C22.6586 103.673 23.5132 106.862 26.0039 108.3C28.4946 109.739 31.694 108.884 33.1322 106.393Z" stroke="white" stroke-width="2"/>
<path d="M78.9017 10.1094L63.2695 37.2084" stroke="white" stroke-width="2"/>
<path d="M76.8702 3.60578C75.4321 6.09681 76.2866 9.29658 78.7773 10.7349C81.2681 12.1732 84.4675 11.3186 85.9056 8.82756C87.3438 6.32611 86.4892 3.13676 83.9985 1.69843C81.5078 0.260098 78.3084 1.11476 76.8702 3.60578Z" stroke="white" stroke-width="2"/>
<path d="M81.9981 104.83L63.5312 72.8428" stroke="white" stroke-width="2"/>
<path d="M76.8741 106.392C75.436 103.901 76.2905 100.701 78.7813 99.2629C81.272 97.8246 84.4714 98.6792 85.9095 101.17C87.3477 103.672 86.4931 106.861 84.0024 108.299C81.5117 109.738 78.3123 108.883 76.8741 106.392Z" fill="white" stroke="white" stroke-width="2"/>
<path d="M58.7829 9.42969H52.3633" stroke="white" stroke-width="2" stroke-linejoin="round"/>
<path d="M58.7829 16.6641H52.3633" stroke="white" stroke-width="2" stroke-linejoin="round"/>
<path d="M58.7829 23.8857H52.3633" stroke="white" stroke-width="2" stroke-linejoin="round"/>
<path d="M58.7829 86.1104H52.3633" stroke="white" stroke-width="2" stroke-linejoin="round"/>
<path d="M58.7829 93.332H52.3633" stroke="white" stroke-width="2" stroke-linejoin="round"/>
<path d="M58.7829 100.557H52.3633" stroke="white" stroke-width="2" stroke-linejoin="round"/>
<path d="M104.835 27.998L72.8516 46.4566" stroke="white" stroke-width="2"/>
<path d="M106.397 33.1167C103.906 34.5551 100.707 33.7004 99.2687 31.2094C97.8305 28.7184 98.6851 25.5186 101.176 24.0803C103.677 22.6419 106.866 23.4966 108.304 25.9876C109.742 28.4891 108.888 31.6784 106.397 33.1167Z" fill="white" stroke="white" stroke-width="2"/>
<path d="M10.1211 30.9473L37.2169 46.5813" stroke="white" stroke-width="2"/>
<path d="M3.60938 33.1167C6.11053 34.5551 9.2995 33.7004 10.7377 31.2094C12.1758 28.7184 11.3213 25.5186 8.83053 24.0803C6.3398 22.6419 3.14042 23.4966 1.70225 25.9876C0.264092 28.4891 1.11865 31.6784 3.60938 33.1167Z" stroke="white" stroke-width="2"/>
<path d="M99.7499 78.8959L72.8516 63.5225" stroke="white" stroke-width="2"/>
<path d="M106.397 76.8635C103.906 75.4251 100.707 76.2798 99.2687 78.7708C97.8305 81.2618 98.6851 84.4616 101.176 85.8999C103.677 87.3383 106.866 86.4836 108.304 83.9926C109.742 81.5016 108.888 78.3018 106.397 76.8635Z" stroke="white" stroke-width="2"/>
<path d="M10.1211 78.8959L37.1539 63.5225" stroke="white" stroke-width="2"/>
<path d="M3.60938 76.8635C6.11053 75.4251 9.2995 76.2798 10.7377 78.7708C12.1758 81.2618 11.3213 84.4616 8.83053 85.8999C6.3398 87.3383 3.14041 86.4836 1.70225 83.9926C0.264092 81.5016 1.11865 78.3018 3.60938 76.8635Z" fill="white" stroke="white" stroke-width="2"/>
<path d="M100.559 58.771V52.3506" stroke="white" stroke-width="2" stroke-linejoin="round"/>
<path d="M93.3359 58.771V52.3506" stroke="white" stroke-width="2" stroke-linejoin="round"/>
<path d="M86.1133 58.771V52.3506" stroke="white" stroke-width="2" stroke-linejoin="round"/>
<path d="M23.8984 58.771V52.3506" stroke="white" stroke-width="2" stroke-linejoin="round"/>
<path d="M16.6797 58.771V52.3506" stroke="white" stroke-width="2" stroke-linejoin="round"/>
<path d="M9.44531 58.771V52.3506" stroke="white" stroke-width="2" stroke-linejoin="round"/>
<path fill-rule="evenodd" clip-rule="evenodd" d="M69.5814 40.4159C73.3104 44.144 75.6188 49.3022 75.6188 54.993C75.6188 60.6838 73.3104 65.8419 69.5814 69.5701C65.8524 73.308 60.693 75.6159 55.0008 75.6159C49.3087 75.6159 44.1492 73.2982 40.4202 69.5701C36.6912 65.8419 34.3828 60.6838 34.3828 54.993C34.3828 49.3022 36.6912 44.144 40.4202 40.4159C44.1492 36.6878 49.3087 34.3799 55.0008 34.3799C60.693 34.3799 65.8524 36.6878 69.5814 40.4159ZM64.5242 55.0653C64.5242 55.4868 64.4979 55.8827 64.4454 56.2659L67.0847 58.2839C67.3342 58.4627 67.3998 58.782 67.2423 59.063L64.7212 63.3034C64.5636 63.5844 64.2353 63.6866 63.9465 63.5844L60.8082 62.3583C60.1648 62.8436 59.4558 63.2523 58.6811 63.5589L58.2084 66.803C58.169 67.1096 57.9064 67.3267 57.5912 67.3267H52.5491C52.2339 67.3267 51.9844 67.1096 51.9188 66.803L51.4461 63.5589C50.6714 63.2523 49.9754 62.8436 49.3189 62.3583L46.1807 63.5844C45.8918 63.6738 45.5635 63.5844 45.406 63.3034L42.8849 59.063C42.7405 58.8076 42.8061 58.4627 43.0425 58.2839L45.708 56.2659C45.6423 55.8827 45.6161 55.4612 45.6161 55.0653C45.6161 54.6694 45.6686 54.2479 45.7342 53.8647L43.0687 51.8467C42.8061 51.6679 42.7536 51.3358 42.9112 51.0676L45.4191 46.8272C45.5767 46.5462 45.9049 46.444 46.1938 46.5462L49.332 47.7723C49.9754 47.2997 50.6845 46.8783 51.4592 46.5717L51.9319 43.3276C51.9844 43.021 52.2339 42.8039 52.5491 42.8039H57.5912C57.9064 42.8039 58.169 43.021 58.2215 43.3276L58.6942 46.5717C59.4689 46.8783 60.1648 47.287 60.8214 47.7723L63.9596 46.5462C64.2485 46.4568 64.5767 46.5462 64.7343 46.8272L67.2554 51.0676C67.3998 51.323 67.3342 51.6679 67.0978 51.8467L64.4323 53.8647C64.4979 54.2479 64.5242 54.6566 64.5242 55.0653ZM49.7592 55.0653C49.7592 57.5942 52.4703 60.2207 55.0701 60.2207C57.67 60.2207 60.3811 57.5942 60.3811 55.0653C60.3811 52.5364 57.67 49.9099 55.0701 49.9099C52.4703 49.9099 49.7592 52.5364 49.7592 55.0653Z" fill="white"/>
</svg>
