<svg width="145" height="136" viewBox="0 0 145 136" fill="none" xmlns="http://www.w3.org/2000/svg">
<path d="M90.4065 121.032C89.1112 124.264 86.9277 126.418 84.4482 126.418H53.1396C50.6231 126.418 48.4767 124.264 47.1814 121.032H0V127.316C0.189411 129.618 1.30469 131.756 3.10499 133.267C4.90529 134.779 7.24614 135.543 9.62202 135.394H128.188C130.564 135.543 132.905 134.779 134.705 133.267C136.505 131.756 137.62 129.618 137.81 127.316V121.032H90.4065Z" fill="white"/>
<path fill-rule="evenodd" clip-rule="evenodd" d="M35.5061 46.7344H16.123C14.6146 46.7733 13.1829 47.4075 12.1405 48.4985C11.0981 49.5895 10.5298 51.0487 10.5597 52.5573V113.494H15.9886V51.5198H32.4859L35.5061 46.7344ZM120.963 65.9079H126.392V113.494H120.963V65.9079Z" fill="white"/>
<path d="M92.4086 68.9598C92.5369 67.9861 92.6011 66.98 92.6011 65.909C92.6011 64.8704 92.5369 63.8318 92.3765 62.8582L98.8893 57.7303C99.4667 57.2759 99.6272 56.3996 99.2743 55.7505L93.1144 44.9754C92.7294 44.2613 91.9273 44.0341 91.2215 44.2613L83.5538 47.377C81.9497 46.1437 80.2493 45.1052 78.3564 44.3262L77.2015 36.0826C77.0731 35.3037 76.4315 34.752 75.6615 34.752H63.3418C62.5718 34.752 61.9622 35.3037 61.8339 36.0826L60.6789 44.3262C58.7861 45.1052 57.0536 46.1762 55.4816 47.377L47.8138 44.2613C47.108 44.0017 46.306 44.2613 45.921 44.9754L39.7932 55.7505C39.4082 56.432 39.5366 57.2759 40.1782 57.7303L46.691 62.8582C46.5305 63.8318 46.4022 64.9029 46.4022 65.909C46.4022 66.9151 46.4664 67.9861 46.6268 68.9598L40.114 74.0877C39.5366 74.5421 39.3761 75.4184 39.729 76.0675L45.8889 86.8426C46.2739 87.5566 47.0759 87.7838 47.7818 87.5566L55.4495 84.4409C57.0536 85.6742 58.754 86.7128 60.6469 87.4917L61.8018 95.7353C61.9622 96.5143 62.5718 97.066 63.3418 97.066H75.6615C76.4315 97.066 77.0731 96.5143 77.1694 95.7353L78.3243 87.4917C80.2172 86.7128 81.9497 85.6742 83.5217 84.4409L91.1894 87.5566C91.8953 87.8163 92.6973 87.5566 93.0823 86.8426L99.2422 76.0675C99.6272 75.3534 99.4667 74.5421 98.8572 74.0877L92.4086 68.9598ZM69.5016 79.0091C63.1493 79.0091 56.5253 72.3351 56.5253 65.909C56.5253 59.4828 63.1493 52.8089 69.5016 52.8089C75.854 52.8089 82.478 59.4828 82.478 65.909C82.478 72.3351 75.854 79.0091 69.5016 79.0091Z" fill="white"/>
<path d="M139.639 36.441C139.736 35.7108 139.785 34.9562 139.785 34.1529C139.785 33.374 139.736 32.5951 139.614 31.8648L144.564 28.0189C145.003 27.6781 145.125 27.0209 144.857 26.5341L140.175 18.4527C139.883 17.9172 139.273 17.7468 138.737 17.9172L132.909 20.254C131.69 19.329 130.398 18.5501 128.959 17.9659L128.081 11.7832C127.984 11.199 127.496 10.7852 126.911 10.7852H117.548C116.963 10.7852 116.5 11.199 116.402 11.7832L115.524 17.9659C114.086 18.5501 112.769 19.3533 111.574 20.254L105.747 17.9172C105.21 17.7225 104.601 17.9172 104.308 18.4527L99.6511 26.5341C99.3585 27.0452 99.4561 27.6781 99.9437 28.0189L104.893 31.8648C104.771 32.5951 104.674 33.3983 104.674 34.1529C104.674 34.9075 104.723 35.7108 104.845 36.441L99.895 40.287C99.4561 40.6277 99.3341 41.285 99.6024 41.7718L104.284 49.8531C104.576 50.3887 105.186 50.559 105.722 50.3887L111.55 48.0519C112.769 48.9769 114.061 49.7558 115.5 50.34L116.378 56.5227C116.5 57.1069 116.963 57.5207 117.548 57.5207H126.911C127.496 57.5207 127.984 57.1069 128.057 56.5227L128.935 50.34C130.373 49.7558 131.69 48.9769 132.885 48.0519L138.712 50.3887C139.249 50.5834 139.858 50.3887 140.151 49.8531L144.832 41.7718C145.125 41.2363 145.003 40.6277 144.54 40.287L139.639 36.441ZM122.23 44.3763C117.402 44.3763 112.029 38.9725 112.029 34.1529C112.029 29.3333 117.402 23.9295 122.23 23.9295C127.057 23.9295 132.43 29.3333 132.43 34.1529C132.43 38.9725 127.057 44.3763 122.23 44.3763Z" fill="white"/>
<path d="M92.3391 17.1039C92.4032 16.6171 92.4353 16.114 92.4353 15.5785C92.4353 15.0592 92.4032 14.5399 92.323 14.0531L95.5794 11.4892C95.8681 11.262 95.9483 10.8238 95.7719 10.4993L92.692 5.1117C92.4995 4.75469 92.0984 4.6411 91.7455 4.75469L87.9117 6.31254C87.1096 5.69589 86.2594 5.17661 85.313 4.78715L84.7355 0.665332C84.6713 0.275869 84.3505 0 83.9655 0H77.8057C77.4207 0 77.1159 0.275869 77.0517 0.665332L76.4742 4.78715C75.5278 5.17661 74.6616 5.71212 73.8756 6.31254L70.0417 4.75469C69.6888 4.62487 69.2878 4.75469 69.0953 5.1117L66.0314 10.4993C65.8389 10.84 65.903 11.262 66.2239 11.4892L69.4802 14.0531C69.4 14.5399 69.3359 15.0755 69.3359 15.5785C69.3359 16.0816 69.368 16.6171 69.4482 17.1039L66.1918 19.6679C65.903 19.8951 65.8228 20.3332 65.9993 20.6578L69.0792 26.0453C69.2717 26.4023 69.6727 26.5159 70.0256 26.4023L73.8595 24.8445C74.6616 25.4611 75.5118 25.9804 76.4582 26.3699L77.0357 30.4917C77.1159 30.8812 77.4207 31.157 77.8057 31.157H83.9655C84.3505 31.157 84.6713 30.8812 84.7195 30.4917L85.2969 26.3699C86.2434 25.9804 87.1096 25.4611 87.8956 24.8445L91.7295 26.4023C92.0824 26.5322 92.4834 26.4023 92.6759 26.0453L95.7558 20.6578C95.9483 20.3007 95.8681 19.8951 95.5634 19.6679L92.3391 17.1039ZM80.8856 22.7187C77.7094 22.7187 73.8082 18.7916 73.8082 15.5785C73.8082 12.3654 77.7094 8.43836 80.8856 8.43836C84.0618 8.43836 87.963 12.3654 87.963 15.5785C87.963 18.7916 84.0618 22.7187 80.8856 22.7187Z" fill="white"/>
</svg>
