<svg width="84" height="84" viewBox="0 0 84 84" fill="none" xmlns="http://www.w3.org/2000/svg">
<path d="M38.3716 72.1638H13.2841C11.9427 72.1638 10.8566 71.0819 10.8566 69.7457V63.2955C8.1738 63.2955 6 61.1317 6 58.4592C6 55.7866 8.17546 53.6211 10.8566 53.6211V44.7528H19.7591C19.7591 42.0803 21.9329 39.9148 24.6158 39.9148C27.2986 39.9148 29.4724 42.0819 29.4724 44.7528H38.3732V35.8845C41.0561 35.8845 43.2299 33.719 43.2299 31.0481C43.2299 28.3772 41.0561 26.2101 38.3732 26.2101V19.76C38.3732 18.4254 37.2871 17.3418 35.9457 17.3418H10.8583V26.2101C13.5395 26.2101 15.715 28.3756 15.715 31.0481C15.715 33.7207 13.5412 35.8845 10.8583 35.8845V44.7528M65.8898 44.7528V69.744C65.8898 71.0803 64.8021 72.1622 63.4623 72.1622H56.9873C56.9873 74.8331 54.8135 77.0002 52.1323 77.0002C49.4512 77.0002 47.2757 74.8347 47.2757 72.1622H38.3732V63.2939C35.692 63.2939 33.5182 61.1284 33.5182 58.4575C33.5182 55.7866 35.692 53.6195 38.3732 53.6195V44.7512H47.2757C47.2757 47.4221 49.4495 49.5892 52.1323 49.5892C54.8152 49.5892 56.9873 47.4237 56.9873 44.7512H65.8898V44.7528Z" stroke="white" stroke-width="2.5" stroke-linecap="round" stroke-linejoin="round"/>
<path d="M56.867 8.4584C58.8203 10.2869 58.9131 13.3509 57.0759 15.295C55.2371 17.2392 52.1645 17.3333 50.2113 15.5032L44.1094 21.9599L50.5926 28.0384C48.7538 29.9825 48.8483 33.0449 50.7999 34.8751C52.7532 36.7052 55.8257 36.6127 57.6629 34.6686L64.1445 40.7454L70.2464 34.287C72.1997 36.1188 75.2722 36.0247 77.1094 34.0806C78.9482 32.1348 78.8537 29.0724 76.9021 27.2423L81.3393 22.5479C82.2579 21.5751 82.2114 20.0439 81.2364 19.1288L62.9672 2L56.867 8.4584Z" stroke="white" stroke-width="2.5" stroke-linecap="round" stroke-linejoin="round"/>
</svg>
