<svg width="78" height="79" viewBox="0 0 78 79" fill="none" xmlns="http://www.w3.org/2000/svg">
<path d="M47.1029 30.7328H64.9328M24.1609 30.7328H41.9898M47.1029 74.6188H64.9328M24.1609 74.6188H41.9898M21.6039 50.1188V33.2898M21.6039 72.0617V55.2318M67.4898 50.1188V33.2898M67.4898 72.0617V55.2318M19.0469 33.2898H24.1609V28.1758H19.0469V33.2898ZM41.9898 33.2898H47.1039V28.1758H41.9898V33.2898ZM41.9898 77.1758H47.1039V72.0617H41.9898V77.1758ZM19.0469 77.1758H24.1609V72.0617H19.0469V77.1758ZM70.0469 28.1758H64.9328V33.2898H70.0469V28.1758ZM70.0469 50.1188H64.9328V55.2328H70.0469V50.1188ZM24.1609 50.1188H19.0469V55.2328H24.1609V50.1188ZM70.0469 72.0617H64.9328V77.1758H70.0469V72.0617Z" stroke="white" stroke-width="2.2" stroke-linecap="round" stroke-linejoin="round"/>
<path d="M9.06665 13V55H5.33354C4.04452 55 3 53.9555 3 52.6665V13H42.6665C43.9555 13 45 14.0445 45 15.3335V19.5332H3M15.1333 17.1996V19.5332M21.1999 17.1996V19.5332M27.2666 17.1996V19.5332M33.3332 17.1996V19.5332M39.3999 17.1996V19.5332M6.7331 43.7997H9.06665M6.7331 37.7331H9.06665M6.7331 49.8664H9.06665M6.7331 31.6665H9.06665M6.7331 25.5998H9.06665" stroke="white" stroke-width="2" stroke-linecap="round" stroke-linejoin="round"/>
<path d="M48.5535 64.7014L51.2398 58.3678H51.2409L57.2747 55.1744L43.0586 50.1855L48.5535 64.7014Z" stroke="white" stroke-width="2.5" stroke-linecap="round" stroke-linejoin="round"/>
</svg>
