<svg width="97" height="82" viewBox="0 0 97 82" fill="none" xmlns="http://www.w3.org/2000/svg">
<path d="M45.125 16.2529H36.7199V42.2915M27.2136 42.2915H36.7199M36.7199 42.2915V68.7846H45.125M36.7199 51.5836H45.125M36.7199 33.8963H45.125" stroke="white" stroke-width="2.5" stroke-linecap="round" stroke-linejoin="round"/>
<path d="M4.3608 39.6093H2.94479H2.93914C1.8696 39.6093 0.999655 40.4755 0.999655 41.547V43.4867C0.999655 44.5563 1.8696 45.4263 2.93914 45.4282H4.35515C4.5265 45.9743 4.7487 46.4978 5.01044 46.9968L4.00491 48.0024C3.24795 48.7613 3.24795 49.9891 4.00491 50.7462L5.37762 52.119C6.13458 52.8741 7.36418 52.8741 8.12114 52.119L9.12666 51.1134C9.62566 51.3751 10.1491 51.5992 10.6952 51.7706V53.1867C10.6971 54.2563 11.5651 55.1263 12.6347 55.1263H14.5761C15.6456 55.1263 16.5155 54.2563 16.5155 53.1867V51.7725C17.0635 51.6011 17.587 51.377 18.086 51.1152L19.0915 52.1208C19.8484 52.876 21.0762 52.8779 21.8331 52.1208L23.2058 50.748C23.9628 49.991 23.9628 48.7613 23.2058 48.0043L22.2022 47.0006C22.4639 46.4997 22.688 45.9762 22.8593 45.4282H24.2754C25.3449 45.4282 26.2148 44.5619 26.2148 43.4885V41.5489C26.2148 40.4793 25.3468 39.6093 24.2735 39.6093H22.8612C22.688 39.0632 22.4658 38.5397 22.2041 38.0387L23.2096 37.0332C23.9665 36.2761 23.9665 35.0464 23.2096 34.2894L21.8388 32.9185C21.0818 32.1615 19.8522 32.1615 19.0952 32.9185L18.0916 33.9222C17.5907 33.6605 17.0673 33.4364 16.5193 33.265V31.8508C16.5193 30.7793 15.6512 29.9111 14.5798 29.9111H12.6403C11.5689 29.9111 10.7009 30.7793 10.7009 31.8508V33.265C10.1548 33.4364 9.6313 33.6605 9.13042 33.9222L8.12491 32.9185C7.36794 32.1615 6.14023 32.1596 5.38327 32.9166L4.01056 34.2894C3.2536 35.0446 3.2536 36.2742 4.01056 37.0332L5.01609 38.0387C4.75623 38.5397 4.53215 39.0632 4.3608 39.6093Z" stroke="white" stroke-width="2" stroke-linecap="round" stroke-linejoin="round"/>
<path d="M79.5876 52H82.6063M55.3937 52H76.1386M52.0125 47H85.9875C87.0983 47 88 47.8961 88 49V55C88 56.1039 87.0983 57 85.9875 57H52.0125C50.9017 57 50 56.1039 50 55V49C50 47.8961 50.9017 47 52.0125 47Z" stroke="white" stroke-width="2" stroke-linecap="round" stroke-linejoin="round"/>
<path d="M79.5876 34H82.6063M55.3937 34H76.1386M52.0125 29H85.9875C87.0983 29 88 29.8961 88 31V37C88 38.1039 87.0983 39 85.9875 39H52.0125C50.9017 39 50 38.1039 50 37V31C50 29.8961 50.9017 29 52.0125 29Z" stroke="white" stroke-width="2" stroke-linecap="round" stroke-linejoin="round"/>
<path d="M79.5876 16.5H82.6063M55.3937 16.5H76.1386M52.0125 11H85.9875C87.0983 11 88 11.9857 88 13.2V19.8C88 21.0143 87.0983 22 85.9875 22H52.0125C50.9017 22 50 21.0143 50 19.8V13.2C50 11.9857 50.9017 11 52.0125 11Z" stroke="white" stroke-width="2" stroke-linecap="round" stroke-linejoin="round"/>
<path d="M79.5876 69H82.6063M55.3937 69H76.1386M52.0125 64H85.9875C87.0983 64 88 64.8961 88 66V72C88 73.1039 87.0983 74 85.9875 74H52.0125C50.9017 74 50 73.1039 50 72V66C50 64.8961 50.9017 64 52.0125 64Z" stroke="white" stroke-width="2" stroke-linecap="round" stroke-linejoin="round"/>
<path d="M13.6122 47.3681C10.9346 47.3681 8.76351 45.1968 8.76351 42.519C8.76351 39.8412 10.9346 37.6699 13.6122 37.6699C16.2898 37.6699 18.4609 39.8412 18.4609 42.519C18.4609 45.1968 16.2898 47.3681 13.6122 47.3681Z" stroke="white" stroke-width="2" stroke-linecap="round" stroke-linejoin="round"/>
</svg>
