<svg width="103" height="103" viewBox="0 0 103 103" fill="none" xmlns="http://www.w3.org/2000/svg">
<path d="M51.5 30.3999C39.8415 30.3999 30.388 39.8513 30.388 51.5119C30.388 63.1726 39.8415 72.624 51.5 72.624C63.1585 72.624 72.612 63.1726 72.612 51.5119C72.612 39.8513 63.1585 30.3999 51.5 30.3999ZM51.5 30.3999V14.8437M51.5 14.8437C47.8179 14.8437 44.833 11.8588 44.833 8.17672C44.833 4.49464 47.8179 1.50977 51.5 1.50977C55.1821 1.50977 58.167 4.49464 58.167 8.17672C58.167 11.8588 55.1821 14.8437 51.5 14.8437ZM25.5729 25.5827C22.9672 28.1863 18.7469 28.1863 16.1433 25.5827C13.5397 22.9791 13.5397 18.7567 16.1433 16.1531H16.1455C18.7469 13.5517 22.9693 13.5495 25.5729 16.1531C28.1765 18.7589 28.1765 22.9791 25.5729 25.5827ZM25.5729 25.5827L36.5734 36.581M51.5 88.178C55.1799 88.178 58.167 91.1629 58.167 94.845C58.167 98.5271 55.1821 101.51 51.5 101.51C47.8201 101.514 44.833 98.5271 44.833 94.845C44.833 91.1629 47.8179 88.178 51.5 88.178ZM51.5 88.178V72.6196M88.1683 51.5119C88.1683 47.832 91.1531 44.845 94.8352 44.845C98.5151 44.845 101.5 47.8299 101.5 51.5098C101.502 55.1918 98.5173 58.1789 94.8352 58.1789C91.1531 58.1789 88.1683 55.194 88.1683 51.5119ZM88.1683 51.5119H72.6099M77.4271 25.5827C74.8256 22.9791 74.8235 18.7567 77.4271 16.1531C80.0306 13.5495 84.2509 13.5517 86.8545 16.1531C89.4581 18.7545 89.4581 22.9791 86.8545 25.5827C84.2509 28.1863 80.0306 28.1863 77.4271 25.5827ZM77.4271 25.5827L66.4266 36.581M14.8339 51.5119H30.3923M25.5729 77.439L36.5734 66.4363M77.4271 77.439L66.4266 66.4363M1.5 51.5098C1.5 55.194 4.48488 58.1789 8.16478 58.1789C11.8469 58.1789 14.8317 55.194 14.8317 51.5119C14.8317 47.8299 11.8469 44.845 8.16478 44.845C4.4827 44.845 1.49782 47.832 1.5 51.5098ZM16.1433 86.8642C18.7469 89.4678 22.9672 89.47 25.5708 86.8664C28.1744 84.2628 28.1722 80.0404 25.5708 77.439C22.9672 74.8354 18.7469 74.8354 16.1412 77.439C13.5376 80.0426 13.5376 84.265 16.1412 86.8642H16.1433ZM86.8545 86.8642C89.4581 84.2628 89.4581 80.0404 86.8545 77.439C84.2509 74.8354 80.0285 74.8354 77.4249 77.439C74.8213 80.0426 74.8213 84.2628 77.4249 86.8664C80.0285 89.47 84.2509 89.47 86.8523 86.8642H86.8545Z" stroke="white" stroke-width="2.5" stroke-linecap="round" stroke-linejoin="round"/>
<path d="M60.3901 48.7268H61.7499H61.7554C62.7825 48.7268 63.618 49.5587 63.618 50.5877V52.4505C63.618 53.4777 62.7825 54.3132 61.7554 54.315H60.3955C60.2309 54.8395 60.0175 55.3422 59.7662 55.8215L60.7318 56.7872C61.4588 57.516 61.4588 58.6952 60.7318 59.4222L59.4135 60.7406C58.6866 61.4658 57.5057 61.4658 56.7788 60.7406L55.8131 59.7748C55.3339 60.0262 54.8312 60.2414 54.3068 60.406V61.766C54.305 62.7932 53.4713 63.6287 52.4442 63.6287H50.5798C49.5526 63.6287 48.7172 62.7932 48.7172 61.766V60.4078C48.1909 60.2432 47.6882 60.028 47.209 59.7766L46.2433 60.7424C45.5164 61.4676 44.3373 61.4694 43.6104 60.7424L42.2921 59.424C41.5651 58.697 41.5651 57.516 42.2921 56.789L43.2559 55.8251C43.0046 55.344 42.7894 54.8413 42.6248 54.315H41.2649C40.2378 54.315 39.4023 53.4831 39.4023 52.4523V50.5895C39.4023 49.5623 40.236 48.7268 41.2668 48.7268H42.623C42.7894 48.2023 43.0028 47.6996 43.2541 47.2185L42.2885 46.2528C41.5615 45.5258 41.5615 44.3448 42.2885 43.6178L43.6049 42.3012C44.3319 41.5742 45.5128 41.5742 46.2397 42.3012L47.2036 43.2652C47.6846 43.0138 48.1873 42.7986 48.7135 42.634V41.2758C48.7135 40.2468 49.5472 39.4131 50.5761 39.4131H52.4387C53.4677 39.4131 54.3013 40.2468 54.3013 41.2758V42.634C54.8258 42.7986 55.3285 43.0138 55.8095 43.2652L56.7752 42.3012C57.5021 41.5742 58.6812 41.5724 59.4081 42.2994L60.7264 43.6178C61.4534 44.343 61.4534 45.524 60.7264 46.2528L59.7607 47.2185C60.0103 47.6996 60.2255 48.2023 60.3901 48.7268Z" stroke="white" stroke-width="2" stroke-linecap="round" stroke-linejoin="round"/>
<path d="M51.5081 56.176C54.0795 56.176 56.1646 54.0908 56.1646 51.5192C56.1646 48.9475 54.0795 46.8623 51.5081 46.8623C48.9366 46.8623 46.8516 48.9475 46.8516 51.5192C46.8516 54.0908 48.9366 56.176 51.5081 56.176Z" stroke="white" stroke-width="2" stroke-linecap="round" stroke-linejoin="round"/>
</svg>
