<svg width="98" height="82" viewBox="0 0 98 82" fill="none" xmlns="http://www.w3.org/2000/svg">
<path d="M41.3193 50.868C41.3193 49.2611 42.6003 47.958 44.18 47.958C45.7598 47.958 47.0407 49.2611 47.0407 50.868C47.0407 52.475 45.7598 53.778 44.18 53.778C42.6003 53.778 41.3193 52.475 41.3193 50.868ZM41.3193 50.868L25.3804 50.868M44.1807 43.3847C45.3092 43.3847 46.2242 42.4539 46.2242 41.306M44.1807 43.3847C43.0522 43.3847 42.1372 42.4539 42.1372 41.306M44.1807 43.3847L44.1807 47.9573M46.2242 41.306C46.2242 40.1581 45.3092 39.2273 44.1807 39.2273M46.2242 41.306L52.3546 41.306M44.1807 39.2273C43.0522 39.2273 42.1372 40.1581 42.1372 41.306M44.1807 39.2273L44.1807 34.2387C44.1807 34.2387 43.3635 31.3287 40.5027 31.3287L36.4158 31.3287M42.1372 41.306L29.8764 41.306M44.1807 62.0927C45.3092 62.0927 46.2242 63.0234 46.2242 64.1713C46.2242 65.3193 45.3092 66.25 44.1807 66.25C43.0522 66.25 42.1372 65.3193 42.1372 64.1713C42.1372 63.0234 43.0522 62.0927 44.1807 62.0927ZM44.1807 62.0927L44.1807 53.778M52.3546 41.306C52.3546 40.1581 53.2696 39.2273 54.3981 39.2273C55.5266 39.2273 56.4416 40.1581 56.4416 41.306C56.4416 42.4539 55.5266 43.3847 54.3981 43.3847C53.2696 43.3847 52.3546 42.4539 52.3546 41.306ZM62.163 50.868C62.163 49.7201 63.078 48.7893 64.2065 48.7893C65.335 48.7893 66.25 49.7201 66.25 50.868C66.25 52.0159 65.335 52.9467 64.2065 52.9467C63.078 52.9467 62.163 52.0159 62.163 50.868ZM62.163 50.868L47.0414 50.868M25.3804 50.868C25.3804 52.0159 24.4654 52.9467 23.337 52.9467C22.2085 52.9467 21.2935 52.0159 21.2935 50.868C21.2935 49.7201 22.2085 48.7893 23.337 48.7893C24.4654 48.7893 25.3804 49.7201 25.3804 50.868ZM29.8764 41.306C29.8764 42.4539 28.9614 43.3847 27.8329 43.3847C26.7044 43.3847 25.7894 42.4539 25.7894 41.306C25.7894 40.1581 26.7044 39.2273 27.8329 39.2273C28.9614 39.2273 29.8764 40.1581 29.8764 41.306ZM22.5197 32.9913L26.6067 39.6433M56.0326 42.5533L62.572 49.6207M34.3716 33.4073C35.5001 33.4073 36.4151 32.4766 36.4151 31.3287C36.4151 30.1807 35.5001 29.25 34.3716 29.25C33.2431 29.25 32.3281 30.1807 32.3281 31.3287C32.3281 32.4766 33.2431 33.4073 34.3716 33.4073ZM21.2935 33.4073C22.422 33.4073 23.337 32.4766 23.337 31.3287C23.337 30.1807 22.422 29.25 21.2935 29.25C20.165 29.25 19.25 30.1807 19.25 31.3287C19.25 32.4766 20.165 33.4073 21.2935 33.4073Z" stroke="white" stroke-width="2" stroke-linecap="round" stroke-linejoin="round"/>
<g filter="url(#filter0_d_523_145)">
<path d="M16.25 14.25H39.7033ZM60.1234 14.25H63.0552ZM68.2208 14.25H71.1526ZM76.3182 14.25H79.25Z" fill="white"/>
<path d="M16.25 14.25H39.7033M60.1234 14.25H63.0552M68.2208 14.25H71.1526M76.3182 14.25H79.25" stroke="white" stroke-width="2" stroke-linecap="round" stroke-linejoin="round"/>
</g>
<path fill-rule="evenodd" clip-rule="evenodd" d="M12.5 10.4502C12.5 10.0704 12.9043 9.5 13.7502 9.5H81.7498C82.5957 9.5 83 10.0704 83 10.4502V19.4663H12.5V10.4502ZM85.5 10.4502V20.7163V44.9739L83 44.1828V21.9663H12.5V72.0498C12.5 72.4296 12.9043 73 13.7502 73H81.7498C82.5957 73 83 72.4296 83 72.0498V58.4938L83.5222 57.9715L85.5 59.9494V72.0498C85.5 74.1011 83.6665 75.5 81.7498 75.5H13.7502C11.8335 75.5 10 74.1011 10 72.0498V20.7163V10.4502C10 8.39893 11.8335 7 13.7502 7H81.7498C83.6665 7 85.5 8.39893 85.5 10.4502Z" fill="white"/>
<path d="M95.8731 61.2413L92.2405 64.874C91.7397 65.3753 90.9263 65.3753 90.4245 64.874L83.5222 57.9715L80.1175 61.3769C79.8003 61.694 79.3406 61.8223 78.9044 61.7161C78.4687 61.6099 78.1203 61.2835 77.9848 60.856L72.3099 42.9218C72.1652 42.4646 72.2873 41.9653 72.626 41.6261C72.9652 41.2869 73.4645 41.1653 73.9217 41.31L91.7419 46.9492C91.9764 46.999 92.1991 47.1155 92.3812 47.2971C92.8826 47.7985 92.8831 48.6119 92.3812 49.1132C92.3812 49.1132 92.3782 49.1158 92.3766 49.1178L88.9714 52.5232L95.8736 59.4257C96.3755 59.927 96.375 60.7399 95.8731 61.2413Z" stroke="white" stroke-width="2.5" stroke-linecap="round" stroke-linejoin="round"/>
<defs>
<filter id="filter0_d_523_145" x="15.25" y="13.25" width="65" height="3" filterUnits="userSpaceOnUse" color-interpolation-filters="sRGB">
<feFlood flood-opacity="0" result="BackgroundImageFix"/>
<feColorMatrix in="SourceAlpha" type="matrix" values="0 0 0 0 0 0 0 0 0 0 0 0 0 0 0 0 0 0 127 0" result="hardAlpha"/>
<feOffset dy="1"/>
<feColorMatrix type="matrix" values="0 0 0 0 0 0 0 0 0 0 0 0 0 0 0 0 0 0 0.15 0"/>
<feBlend mode="normal" in2="BackgroundImageFix" result="effect1_dropShadow_523_145"/>
<feBlend mode="normal" in="SourceGraphic" in2="effect1_dropShadow_523_145" result="shape"/>
</filter>
</defs>
</svg>
