<svg width="18" height="18" viewBox="0 0 18 18" fill="none" xmlns="http://www.w3.org/2000/svg">
<rect x="0.5" y="2.5" width="17" height="13" fill="#100551" stroke="#3A7BC2"/>
<path d="M6.393 12.117C5.985 12.117 5.604 12.042 5.25 11.892C4.902 11.736 4.599 11.511 4.341 11.217C4.083 10.923 3.882 10.566 3.738 10.146C3.594 9.72 3.522 9.24 3.522 8.706C3.522 8.172 3.594 7.695 3.738 7.275C3.888 6.849 4.095 6.489 4.359 6.195C4.623 5.901 4.932 5.676 5.286 5.52C5.64 5.364 6.027 5.286 6.447 5.286C6.849 5.286 7.203 5.37 7.509 5.538C7.815 5.7 8.064 5.886 8.256 6.096L7.806 6.636C7.632 6.45 7.434 6.3 7.212 6.186C6.99 6.072 6.738 6.015 6.456 6.015C6.042 6.015 5.679 6.123 5.367 6.339C5.055 6.555 4.812 6.864 4.638 7.266C4.464 7.662 4.377 8.133 4.377 8.679C4.377 9.237 4.461 9.72 4.629 10.128C4.797 10.53 5.034 10.842 5.34 11.064C5.646 11.28 6.009 11.388 6.429 11.388C6.741 11.388 7.02 11.322 7.266 11.19C7.518 11.058 7.749 10.875 7.959 10.641L8.418 11.172C8.16 11.472 7.866 11.706 7.536 11.874C7.206 12.036 6.825 12.117 6.393 12.117ZM9.64826 12V5.403H13.4463V6.105H10.4763V8.175H12.9783V8.886H10.4763V11.289H13.5453V12H9.64826Z" fill="#4F9FF4"/>
</svg>
