<?xml version="1.0" encoding="UTF-8" standalone="no"?>
<!-- Generator: Adobe Illustrator 25.4.1, SVG Export Plug-In . SVG Version: 6.00 Build 0)  -->

<svg
   version="1.1"
   id="레이어_1"
   x="0px"
   y="0px"
   viewBox="0 0 54 54"
   style="enable-background:new 0 0 54 54;"
   xml:space="preserve"
   xmlns:xlink="http://www.w3.org/1999/xlink"
   xmlns="http://www.w3.org/2000/svg"
   xmlns:svg="http://www.w3.org/2000/svg"><defs
   id="defs60" />
<style
   type="text/css"
   id="style2">
	.그림자_x0020_만들기{fill:none;}
	.모퉁이_x0020_둥글리기_x0020_2pt{fill:#FFFFFF;stroke:#231815;stroke-miterlimit:10;}
	.라이브_x0020_반사_x0020_X{fill:none;}
	.경사_x0020_부드럽게{fill:url(#SVGID_1_);}
	.황혼{fill:#FFFFFF;}
	.잎_GS{fill:#FFE100;}
	.퐁파두르_GS{fill-rule:evenodd;clip-rule:evenodd;fill:#4CACE2;}
	.st0{fill:#0C3A1A;}
	.st1{opacity:0.3;}
	.st2{fill:#247C4B;}
	.st3{opacity:0.3;clip-path:url(#SVGID_00000160165633928786662210000017930135525929585323_);}
	.st4{opacity:0.7;}
	.st5{fill:#9E9E9E;}
	.st6{fill:#E8E8E8;}
</style>
<linearGradient
   id="SVGID_1_"
   gradientUnits="userSpaceOnUse"
   x1="0"
   y1="0"
   x2="0.7071"
   y2="0.7071">
	<stop
   offset="0"
   style="stop-color:#E6E7EA"
   id="stop4" />
	<stop
   offset="0.1747"
   style="stop-color:#E2E3E6"
   id="stop6" />
	<stop
   offset="0.3538"
   style="stop-color:#D6D7DA"
   id="stop8" />
	<stop
   offset="0.5349"
   style="stop-color:#C1C4C5"
   id="stop10" />
	<stop
   offset="0.7174"
   style="stop-color:#A4A8A8"
   id="stop12" />
	<stop
   offset="0.8993"
   style="stop-color:#808584"
   id="stop14" />
	<stop
   offset="1"
   style="stop-color:#686E6C"
   id="stop16" />
</linearGradient>
<g
   id="g55">
	
	<g
   id="g43">
		<defs
   id="defs36">
			<circle
   id="SVGID_00000065763664588631240200000017657099779119934395_"
   cx="27"
   cy="27"
   r="25" />
		</defs>
		<clipPath
   id="SVGID_00000104696806702780864380000007157923795291266720_">
			<use
   xlink:href="#SVGID_00000065763664588631240200000017657099779119934395_"
   style="overflow:visible;"
   id="use38" />
		</clipPath>
		<polygon
   style="opacity:0.3;clip-path:url(#SVGID_00000104696806702780864380000007157923795291266720_);"
   points="66.29,41.7     44.15,64.03 18,41 21,19 35,13   "
   clip-path="url(#SVGID_00000104696806702780864380000007157923795291266720_)"
   id="polygon41" />
	</g>
	<path
   class="st4"
   d="M34.25,13.83h-1.29c0-1.43-1.16-2.59-2.59-2.59H25.2c-1.43,0-2.59,1.16-2.59,2.59h-1.29   c-1.43,0-2.59,1.16-2.59,2.59v23.27c0,1.43,1.16,2.59,2.59,2.59h12.93c1.43,0,2.59-1.16,2.59-2.59V16.41   C36.84,14.99,35.68,13.83,34.25,13.83z"
   id="path45" />
	<path
   class="st5"
   d="M33.28,12.86h-1.29c0-1.43-1.16-2.59-2.59-2.59h-5.17c-1.43,0-2.59,1.16-2.59,2.59h-1.29   c-1.43,0-2.59,1.16-2.59,2.59v23.27c0,1.43,1.16,2.59,2.59,2.59h12.93c1.43,0,2.59-1.16,2.59-2.59V15.45   C35.87,14.02,34.71,12.86,33.28,12.86z"
   id="path47" />
	<path
   class="st6"
   d="M31.89,21.91H21.74c-0.71,0-1.29-0.58-1.29-1.29v-2.59c0-0.71,0.58-1.29,1.29-1.29h10.16   c0.71,0,1.29,0.58,1.29,1.29v2.59C33.19,21.33,32.61,21.91,31.89,21.91z"
   id="path49" />
	<path
   class="st6"
   d="M31.89,29.67H21.74c-0.71,0-1.29-0.58-1.29-1.29v-2.59c0-0.71,0.58-1.29,1.29-1.29h10.16   c0.71,0,1.29,0.58,1.29,1.29v2.59C33.19,29.09,32.61,29.67,31.89,29.67z"
   id="path51" />
	<path
   class="st6"
   d="M31.89,37.42H21.74c-0.71,0-1.29-0.58-1.29-1.29v-2.56c0-0.71,0.58-1.29,1.29-1.29h10.16   c0.71,0,1.29,0.58,1.29,1.29v2.56C33.19,36.85,32.61,37.42,31.89,37.42z"
   id="path53" />
  <circle
      cx="27"
      cy="27"
      r="27"
      style="fill:#ffffff;fill-opacity:0"/>
</g>
</svg>
