<?xml version="1.0" encoding="utf-8"?>
<!-- Generator: Adobe Illustrator 25.4.1, SVG Export Plug-In . SVG Version: 6.00 Build 0)  -->
<svg version="1.1" id="레이어_1" xmlns="http://www.w3.org/2000/svg" xmlns:xlink="http://www.w3.org/1999/xlink" x="0px"
	 y="0px" viewBox="0 0 50 50" style="enable-background:new 0 0 50 50;" xml:space="preserve">
<style type="text/css">
	.그림자_x0020_만들기{fill:none;}
	.모퉁이_x0020_둥글리기_x0020_2pt{fill:#FFFFFF;stroke:#231815;stroke-miterlimit:10;}
	.라이브_x0020_반사_x0020_X{fill:none;}
	.경사_x0020_부드럽게{fill:url(#SVGID_1_);}
	.황혼{fill:#FFFFFF;}
	.잎_GS{fill:#FFE100;}
	.퐁파두르_GS{fill-rule:evenodd;clip-rule:evenodd;fill:#4CACE2;}
	.st0{opacity:0.3;clip-path:url(#SVGID_00000011025125115634750130000013458346907379050686_);}
	.st1{fill:#9E9E9E;}
	.st2{opacity:0.3;}
	.st3{fill:#E8E8E8;}
</style>
<linearGradient id="SVGID_1_" gradientUnits="userSpaceOnUse" x1="0" y1="0" x2="0.7071" y2="0.7071">
	<stop  offset="0" style="stop-color:#E6E7EA"/>
	<stop  offset="0.1747" style="stop-color:#E2E3E6"/>
	<stop  offset="0.3538" style="stop-color:#D6D7DA"/>
	<stop  offset="0.5349" style="stop-color:#C1C4C5"/>
	<stop  offset="0.7174" style="stop-color:#A4A8A8"/>
	<stop  offset="0.8993" style="stop-color:#808584"/>
	<stop  offset="1" style="stop-color:#686E6C"/>
</linearGradient>
<g>
	<g>
		<defs>
			<rect id="SVGID_00000145745976377715299360000005846092582378672524_" width="50" height="50"/>
		</defs>
		<clipPath id="SVGID_00000158027238651301330830000012292053217981312667_">
			<use xlink:href="#SVGID_00000145745976377715299360000005846092582378672524_"  style="overflow:visible;"/>
		</clipPath>
		<polygon style="opacity:0.3;clip-path:url(#SVGID_00000158027238651301330830000012292053217981312667_);" points="57.99,37.49 
			39.34,65.34 12.87,38.26 14.24,36.76 12.01,34.5 12.45,23.43 19.98,24.48 16.23,20.51 17,18.11 14.02,15.06 20,9.5 25.53,9.62 
			31.84,15.17 33.09,12.86 		"/>
	</g>
	<path class="st1" d="M37.5,22.69c-0.39-0.23-0.8-0.4-1.25-0.52C35.85,22.07,35.43,22,35,22h-1.25h-17.5H15
		c-0.43,0-0.85,0.07-1.25,0.18c-0.45,0.12-0.86,0.29-1.25,0.52C11.01,23.56,10,25.15,10,27v3.75c0,1.64,0.8,3.08,2.03,3.99
		c0.14-0.18,0.3-0.34,0.47-0.49c0.36-0.33,0.78-0.58,1.25-0.75c0.39-0.14,0.81-0.24,1.25-0.24c1.63,0,3,1.05,3.52,2.5h15.23v2.5
		c0,0.69,0.56,1.25,1.25,1.25s1.25-0.56,1.25-1.25v-2.5v-0.18c0.45-0.12,0.86-0.3,1.25-0.53c1.49-0.86,2.5-2.45,2.5-4.29V27
		C40,25.15,38.99,23.56,37.5,22.69z"/>
	<g class="st2">
		<g>
			<path d="M26,10.5h-1.25h-2.5v3.75v7.5h2.5v-5.62c0-0.35,0.28-0.62,0.62-0.62H26c0.69,0,1.25-0.56,1.25-1.25v-2.5
				C27.25,11.06,26.69,10.5,26,10.5z"/>
			<path d="M32.24,17.26c0.2,0.07,0.4,0.11,0.62,0.11c0.22,0,0.43-0.04,0.62-0.11c0.73-0.26,1.25-0.95,1.25-1.76
				c0-1.04-0.84-1.88-1.88-1.88c-1.04,0-1.88,0.84-1.88,1.88C30.99,16.32,31.51,17,32.24,17.26z"/>
			<circle cx="16" cy="38" r="2.5"/>
			<path d="M26,16.75v2.5v1.25c0.15,0,0.29-0.03,0.42-0.08c0.48-0.17,0.83-0.63,0.83-1.17V18C27.25,17.31,26.69,16.75,26,16.75z"/>
			<path d="M17.25,10.5H16c-0.69,0-1.25,0.56-1.25,1.25v3.74v0.01c0,0.69,0.56,1.25,1.25,1.25h0.01h0.62c0.35,0,0.62,0.28,0.62,0.62
				v4.38h2.5H21V15.5v-5h-1.25H17.25z"/>
			<path d="M36.62,20.5H33.5v-2.61C33.3,17.96,33.1,18,32.88,18s-0.43-0.04-0.62-0.11v2.61h-1.88c-0.35,0-0.62,0.28-0.62,0.62
				s0.28,0.62,0.62,0.62h6.25c0.35,0,0.62-0.28,0.62-0.62S36.97,20.5,36.62,20.5z"/>
		</g>
		<g>
			<path d="M26,10.5h-1.25h-2.5v3.75v7.5h2.5v-5.62c0-0.35,0.28-0.62,0.62-0.62H26c0.69,0,1.25-0.56,1.25-1.25v-2.5
				C27.25,11.06,26.69,10.5,26,10.5z"/>
			<path d="M32.24,17.26c0.2,0.07,0.4,0.11,0.62,0.11c0.22,0,0.43-0.04,0.62-0.11c0.73-0.26,1.25-0.95,1.25-1.76
				c0-1.04-0.84-1.88-1.88-1.88c-1.04,0-1.88,0.84-1.88,1.88C30.99,16.32,31.51,17,32.24,17.26z"/>
			<circle cx="16" cy="38" r="2.5"/>
			<path d="M26,16.75v2.5v1.25c0.15,0,0.29-0.03,0.42-0.08c0.48-0.17,0.83-0.63,0.83-1.17V18C27.25,17.31,26.69,16.75,26,16.75z"/>
			<path d="M17.25,10.5H16c-0.69,0-1.25,0.56-1.25,1.25v3.74v0.01c0,0.69,0.56,1.25,1.25,1.25h0.01h0.62c0.35,0,0.62,0.28,0.62,0.62
				v4.38h2.5H21V15.5v-5h-1.25H17.25z"/>
			<path d="M36.62,20.5H33.5v-2.61C33.3,17.96,33.1,18,32.88,18s-0.43-0.04-0.62-0.11v2.61h-1.88c-0.35,0-0.62,0.28-0.62,0.62
				s0.28,0.62,0.62,0.62h6.25c0.35,0,0.62-0.28,0.62-0.62S36.97,20.5,36.62,20.5z"/>
		</g>
	</g>
	<g>
		<path class="st3" d="M25,9.5h-1.25h-2.5v3.75v7.5h2.5v-5.62c0-0.35,0.28-0.62,0.62-0.62H25c0.69,0,1.25-0.56,1.25-1.25v-2.5
			C26.25,10.06,25.69,9.5,25,9.5z"/>
		<path class="st3" d="M31.24,16.26c0.2,0.07,0.4,0.11,0.62,0.11c0.22,0,0.43-0.04,0.62-0.11c0.73-0.26,1.25-0.95,1.25-1.76
			c0-1.04-0.84-1.88-1.88-1.88c-1.04,0-1.88,0.84-1.88,1.88C29.99,15.32,30.51,16,31.24,16.26z"/>
		<circle class="st3" cx="15" cy="37" r="2.5"/>
		<path class="st3" d="M25,15.75v2.5v1.25c0.15,0,0.29-0.03,0.42-0.08c0.48-0.17,0.83-0.63,0.83-1.17V17
			C26.25,16.31,25.69,15.75,25,15.75z"/>
		<path class="st3" d="M16.25,9.5H15c-0.69,0-1.25,0.56-1.25,1.25v3.74v0.01c0,0.69,0.56,1.25,1.25,1.25h0.01h0.62
			c0.35,0,0.62,0.28,0.62,0.62v4.38h2.5H20V14.5v-5h-1.25H16.25z"/>
		<path class="st3" d="M35.62,19.5H32.5v-2.61C32.3,16.96,32.1,17,31.88,17s-0.43-0.04-0.62-0.11v2.61h-1.88
			c-0.35,0-0.62,0.28-0.62,0.62s0.28,0.62,0.62,0.62h6.25c0.35,0,0.62-0.28,0.62-0.62S35.97,19.5,35.62,19.5z"/>
	</g>
  <rect
    width="50"
    height="50"
    x="0"
    y="0"
    style="fill:#ffffff;fill-opacity:0" />
</g>
</svg>
