<?xml version="1.0" encoding="utf-8"?>
<!-- Generator: Adobe Illustrator 25.4.1, SVG Export Plug-In . SVG Version: 6.00 Build 0)  -->
<svg version="1.1" id="레이어_1" xmlns="http://www.w3.org/2000/svg" xmlns:xlink="http://www.w3.org/1999/xlink" x="0px"
	 y="0px" viewBox="0 0 50 50" style="enable-background:new 0 0 50 50;" xml:space="preserve">
<style type="text/css">
	.그림자_x0020_만들기{fill:none;}
	.모퉁이_x0020_둥글리기_x0020_2pt{fill:#FFFFFF;stroke:#231815;stroke-miterlimit:10;}
	.라이브_x0020_반사_x0020_X{fill:none;}
	.경사_x0020_부드럽게{fill:url(#SVGID_1_);}
	.황혼{fill:#FFFFFF;}
	.잎_GS{fill:#FFE100;}
	.퐁파두르_GS{fill-rule:evenodd;clip-rule:evenodd;fill:#4CACE2;}
	.st0{opacity:0.3;clip-path:url(#SVGID_00000052788932411582762420000006548829493271130303_);}
	.st1{opacity:0.3;}
	.st2{fill:#D2D3D4;}
	.st3{fill:#9E9E9E;}
	.st4{fill:#6B6B6B;}
	.st5{fill:#E8E8E8;}
</style>
<linearGradient id="SVGID_1_" gradientUnits="userSpaceOnUse" x1="0" y1="0" x2="0.7071" y2="0.7071">
	<stop  offset="0" style="stop-color:#E6E7EA"/>
	<stop  offset="0.1747" style="stop-color:#E2E3E6"/>
	<stop  offset="0.3538" style="stop-color:#D6D7DA"/>
	<stop  offset="0.5349" style="stop-color:#C1C4C5"/>
	<stop  offset="0.7174" style="stop-color:#A4A8A8"/>
	<stop  offset="0.8993" style="stop-color:#808584"/>
	<stop  offset="1" style="stop-color:#686E6C"/>
</linearGradient>
<g>
	<g>
		<defs>
			<rect id="SVGID_00000070825480102390671620000001764146051089395865_" width="50" height="50"/>
		</defs>
		<clipPath id="SVGID_00000004523260828634901600000017798318143499818675_">
			<use xlink:href="#SVGID_00000070825480102390671620000001764146051089395865_"  style="overflow:visible;"/>
		</clipPath>
		<polygon style="opacity:0.3;clip-path:url(#SVGID_00000004523260828634901600000017798318143499818675_);" points="61.76,41 
			39.67,60.67 10.89,31.83 11.67,17.73 14.33,17.73 17.94,15.39 13.72,9.28 18.71,9.14 28.56,18 37,17.73 39.05,18 		"/>
	</g>
	<path class="st1" d="M33.56,41.75c-0.11,0.15-0.33,0.15-0.44,0l-1.25-1.66l-1.14-1.51c-0.14-0.18-0.01-0.44,0.22-0.44h2.38h2.38
		c0.23,0,0.36,0.26,0.22,0.44l-1.14,1.51L33.56,41.75z"/>
	<path class="st2" d="M32.56,40.75c-0.11,0.15-0.33,0.15-0.44,0l-1.25-1.66l-1.14-1.51c-0.14-0.18-0.01-0.44,0.22-0.44h2.38h2.38
		c0.23,0,0.36,0.26,0.22,0.44l-1.14,1.51L32.56,40.75z"/>
	<path class="st1" d="M17.55,13.75c-0.11,0.15-0.33,0.15-0.44,0l-1.24-1.66l-1.13-1.51c-0.14-0.18-0.01-0.44,0.22-0.44h2.38h2.38
		c0.23,0,0.36,0.26,0.22,0.44l-1.13,1.51L17.55,13.75z"/>
	<path class="st2" d="M16.55,12.75c-0.11,0.15-0.33,0.15-0.44,0l-1.24-1.66l-1.13-1.51c-0.14-0.18-0.01-0.44,0.22-0.44h2.38h2.38
		c0.23,0,0.36,0.26,0.22,0.44l-1.13,1.51L16.55,12.75z"/>
	<path class="st3" d="M11.67,32.4C10.19,32.4,9,29.11,9,25.06s1.19-7.33,2.67-7.33V32.4z"/>
	<g class="st1">
		<g>
			<g>
				<path d="M19.33,18.73v-2c0-0.37-0.3-0.67-0.66-0.67H16c-0.37,0-0.67,0.3-0.67,0.67v2H14V33.4h17.33v2c0,0.36,0.3,0.66,0.67,0.66
					h2.67c0.36,0,0.66-0.3,0.66-0.66v-2H38V18.73H19.33z M26.92,27.6c-0.15,0.28-0.42,0.47-0.73,0.49l-0.47,0.01
					c-0.16,0.46-0.39,0.89-0.67,1.28c-0.1,0.13-0.2,0.25-0.31,0.37c-0.96,1.07-2.32,1.68-3.74,1.68c-0.23,0-0.46-0.02-0.69-0.05
					c-2.48-0.33-4.34-2.54-4.34-5.14v-4.51c0-0.57,0.46-1.03,1.03-1.03h0.67c0.57,0,1.03,0.46,1.03,1.03v4.47
					c0,1.14,0.74,2.16,1.77,2.43c0.17,0.04,0.35,0.07,0.53,0.07c0.2,0,0.39-0.03,0.59-0.09c0.21-0.06,0.4-0.14,0.58-0.25
					c0.15-0.09,0.29-0.2,0.42-0.32c-0.23-0.08-0.41-0.23-0.51-0.44c-0.15-0.3-0.12-0.66,0.08-0.93l1.63-2.16
					c0.16-0.22,0.43-0.36,0.71-0.36s0.54,0.14,0.71,0.36l1.62,2.16C27.03,26.94,27.07,27.3,26.92,27.6z M35.63,28.78l-1.62,2.17
					c-0.17,0.22-0.43,0.35-0.71,0.35s-0.54-0.13-0.71-0.35l-1.62-2.17c-0.21-0.27-0.24-0.62-0.09-0.93c0.15-0.3,0.46-0.49,0.8-0.49
					h0.25v-1.51c0-1.22-0.85-2.25-1.99-2.4c-0.1-0.01-0.2-0.02-0.31-0.02c-0.71,0-1.37,0.33-1.81,0.9c-0.2,0.26-0.5,0.41-0.82,0.41
					s-0.63-0.16-0.82-0.42l-0.41-0.54c-0.15-0.25-0.21-0.43-0.21-0.62c0-0.21,0.06-0.4,0.18-0.59l0.03-0.03l0.12-0.15
					c0.95-1.08,2.32-1.69,3.74-1.69c0.15,0,0.31,0,0.46,0.02c2.57,0.22,4.58,2.5,4.58,5.19v1.45h0.25c0.34,0,0.65,0.19,0.8,0.49
					C35.87,28.16,35.84,28.51,35.63,28.78z"/>
			</g>
		</g>
		<g>
			<g>
				<path d="M19.33,18.73v-2c0-0.37-0.3-0.67-0.66-0.67H16c-0.37,0-0.67,0.3-0.67,0.67v2H14V33.4h17.33v2c0,0.36,0.3,0.66,0.67,0.66
					h2.67c0.36,0,0.66-0.3,0.66-0.66v-2H38V18.73H19.33z M26.92,27.6c-0.15,0.28-0.42,0.47-0.73,0.49l-0.47,0.01
					c-0.16,0.46-0.39,0.89-0.67,1.28c-0.1,0.13-0.2,0.25-0.31,0.37c-0.96,1.07-2.32,1.68-3.74,1.68c-0.23,0-0.46-0.02-0.69-0.05
					c-2.48-0.33-4.34-2.54-4.34-5.14v-4.51c0-0.57,0.46-1.03,1.03-1.03h0.67c0.57,0,1.03,0.46,1.03,1.03v4.47
					c0,1.14,0.74,2.16,1.77,2.43c0.17,0.04,0.35,0.07,0.53,0.07c0.2,0,0.39-0.03,0.59-0.09c0.21-0.06,0.4-0.14,0.58-0.25
					c0.15-0.09,0.29-0.2,0.42-0.32c-0.23-0.08-0.41-0.23-0.51-0.44c-0.15-0.3-0.12-0.66,0.08-0.93l1.63-2.16
					c0.16-0.22,0.43-0.36,0.71-0.36s0.54,0.14,0.71,0.36l1.62,2.16C27.03,26.94,27.07,27.3,26.92,27.6z M35.63,28.78l-1.62,2.17
					c-0.17,0.22-0.43,0.35-0.71,0.35s-0.54-0.13-0.71-0.35l-1.62-2.17c-0.21-0.27-0.24-0.62-0.09-0.93c0.15-0.3,0.46-0.49,0.8-0.49
					h0.25v-1.51c0-1.22-0.85-2.25-1.99-2.4c-0.1-0.01-0.2-0.02-0.31-0.02c-0.71,0-1.37,0.33-1.81,0.9c-0.2,0.26-0.5,0.41-0.82,0.41
					s-0.63-0.16-0.82-0.42l-0.41-0.54c-0.15-0.25-0.21-0.43-0.21-0.62c0-0.21,0.06-0.4,0.18-0.59l0.03-0.03l0.12-0.15
					c0.95-1.08,2.32-1.69,3.74-1.69c0.15,0,0.31,0,0.46,0.02c2.57,0.22,4.58,2.5,4.58,5.19v1.45h0.25c0.34,0,0.65,0.19,0.8,0.49
					C35.87,28.16,35.84,28.51,35.63,28.78z"/>
			</g>
		</g>
	</g>
	<g>
		<g>
			<g>
				<g>
					<path class="st4" d="M18.33,17.73v-2c0-0.37-0.3-0.67-0.66-0.67H15c-0.37,0-0.67,0.3-0.67,0.67v2H13V32.4h17.33v2
						c0,0.36,0.3,0.66,0.67,0.66h2.67c0.36,0,0.66-0.3,0.66-0.66v-2H37V17.73H18.33z M25.92,26.6c-0.15,0.28-0.42,0.47-0.73,0.49
						l-0.47,0.01c-0.16,0.46-0.39,0.89-0.67,1.28c-0.1,0.13-0.2,0.25-0.31,0.37c-0.96,1.07-2.32,1.68-3.74,1.68
						c-0.23,0-0.46-0.02-0.69-0.05c-2.48-0.33-4.34-2.54-4.34-5.14v-4.51c0-0.57,0.46-1.03,1.03-1.03h0.67
						c0.57,0,1.03,0.46,1.03,1.03v4.47c0,1.14,0.74,2.16,1.77,2.43c0.17,0.04,0.35,0.07,0.53,0.07c0.2,0,0.39-0.03,0.59-0.09
						c0.21-0.06,0.4-0.14,0.58-0.25c0.15-0.09,0.29-0.2,0.42-0.32c-0.23-0.08-0.59-0.22-0.69-0.43c-0.15-0.3-0.12-0.66,0.08-0.93
						l1.63-2.16c0.16-0.22,0.61-0.37,0.89-0.37s0.54,0.14,0.71,0.36l1.62,2.16C26.03,25.94,26.07,26.3,25.92,26.6z M34.63,27.78
						l-1.62,2.17c-0.17,0.22-0.43,0.35-0.71,0.35s-0.54-0.13-0.71-0.35l-1.62-2.17c-0.21-0.27-0.24-0.62-0.09-0.93
						c0.15-0.3,0.46-0.49,0.8-0.49h0.25v-1.51c0-1.22-0.85-2.25-1.99-2.4c-0.1-0.01-0.2-0.02-0.31-0.02c-0.71,0-1.37,0.33-1.81,0.9
						c-0.2,0.26-0.5,0.41-0.82,0.41s-0.63-0.16-0.82-0.42l-0.41-0.54c-0.15-0.25-0.21-0.43-0.21-0.62c0-0.21,0.06-0.4,0.18-0.59
						l0.03-0.03l0.12-0.15c0.95-1.08,2.32-1.69,3.74-1.69c0.15,0,0.31,0,0.46,0.02c2.57,0.22,4.58,2.5,4.58,5.19v1.45h0.25
						c0.34,0,0.65,0.19,0.8,0.49C34.87,27.16,34.84,27.51,34.63,27.78z"/>
				</g>
				<g>
					<path class="st4" d="M18.33,17.73v-2c0-0.37-0.3-0.67-0.66-0.67H15c-0.37,0-0.67,0.3-0.67,0.67v2H13V32.4h17.33v2
						c0,0.36,0.3,0.66,0.67,0.66h2.67c0.36,0,0.66-0.3,0.66-0.66v-2H37V17.73H18.33z M25.92,26.6c-0.15,0.28-0.42,0.47-0.73,0.49
						l-0.47,0.01c-0.16,0.46-0.39,0.89-0.67,1.28c-0.1,0.13-0.2,0.25-0.31,0.37c-0.96,1.07-2.32,1.68-3.74,1.68
						c-0.23,0-0.46-0.02-0.69-0.05c-2.48-0.33-4.34-2.54-4.34-5.14v-4.51c0-0.57,0.46-1.03,1.03-1.03h0.67
						c0.57,0,1.03,0.46,1.03,1.03v4.47c0,1.14,0.74,2.16,1.77,2.43c0.17,0.04,0.35,0.07,0.53,0.07c0.2,0,0.39-0.03,0.59-0.09
						c0.21-0.06,0.4-0.14,0.58-0.25c0.15-0.09,0.29-0.2,0.42-0.32c-0.23-0.08-0.59-0.22-0.69-0.43c-0.15-0.3-0.12-0.66,0.08-0.93
						l1.63-2.16c0.16-0.22,0.61-0.37,0.89-0.37s0.54,0.14,0.71,0.36l1.62,2.16C26.03,25.94,26.07,26.3,25.92,26.6z M34.63,27.78
						l-1.62,2.17c-0.17,0.22-0.43,0.35-0.71,0.35s-0.54-0.13-0.71-0.35l-1.62-2.17c-0.21-0.27-0.24-0.62-0.09-0.93
						c0.15-0.3,0.46-0.49,0.8-0.49h0.25v-1.51c0-1.22-0.85-2.25-1.99-2.4c-0.1-0.01-0.2-0.02-0.31-0.02c-0.71,0-1.37,0.33-1.81,0.9
						c-0.2,0.26-0.5,0.41-0.82,0.41s-0.63-0.16-0.82-0.42l-0.41-0.54c-0.15-0.25-0.21-0.43-0.21-0.62c0-0.21,0.06-0.4,0.18-0.59
						l0.03-0.03l0.12-0.15c0.95-1.08,2.32-1.69,3.74-1.69c0.15,0,0.31,0,0.46,0.02c2.57,0.22,4.58,2.5,4.58,5.19v1.45h0.25
						c0.34,0,0.65,0.19,0.8,0.49C34.87,27.16,34.84,27.51,34.63,27.78z"/>
				</g>
				<g>
					<path class="st4" d="M18.33,17.73v-2c0-0.37-0.3-0.67-0.66-0.67H15c-0.37,0-0.67,0.3-0.67,0.67v2H13V32.4h17.33v2
						c0,0.36,0.3,0.66,0.67,0.66h2.67c0.36,0,0.66-0.3,0.66-0.66v-2H37V17.73H18.33z M25.92,26.6c-0.15,0.28-0.42,0.47-0.73,0.49
						l-0.47,0.01c-0.16,0.46-0.39,0.89-0.67,1.28c-0.1,0.13-0.2,0.25-0.31,0.37c-0.96,1.07-2.32,1.68-3.74,1.68
						c-0.23,0-0.46-0.02-0.69-0.05c-2.48-0.33-4.34-2.54-4.34-5.14v-4.51c0-0.57,0.46-1.03,1.03-1.03h0.67
						c0.57,0,1.03,0.46,1.03,1.03v4.47c0,1.14,0.74,2.16,1.77,2.43c0.17,0.04,0.35,0.07,0.53,0.07c0.2,0,0.39-0.03,0.59-0.09
						c0.21-0.06,0.4-0.14,0.58-0.25c0.15-0.09,0.29-0.2,0.42-0.32c-0.23-0.08-0.59-0.22-0.69-0.43c-0.15-0.3-0.12-0.66,0.08-0.93
						l1.63-2.16c0.16-0.22,0.61-0.37,0.89-0.37s0.54,0.14,0.71,0.36l1.62,2.16C26.03,25.94,26.07,26.3,25.92,26.6z M34.63,27.78
						l-1.62,2.17c-0.17,0.22-0.43,0.35-0.71,0.35s-0.54-0.13-0.71-0.35l-1.62-2.17c-0.21-0.27-0.24-0.62-0.09-0.93
						c0.15-0.3,0.46-0.49,0.8-0.49h0.25v-1.51c0-1.22-0.85-2.25-1.99-2.4c-0.1-0.01-0.2-0.02-0.31-0.02c-0.71,0-1.37,0.33-1.81,0.9
						c-0.2,0.26-0.5,0.41-0.82,0.41s-0.63-0.16-0.82-0.42l-0.41-0.54c-0.15-0.25-0.21-0.43-0.21-0.62c0-0.21,0.06-0.4,0.18-0.59
						l0.03-0.03l0.12-0.15c0.95-1.08,2.32-1.69,3.74-1.69c0.15,0,0.31,0,0.46,0.02c2.57,0.22,4.58,2.5,4.58,5.19v1.45h0.25
						c0.34,0,0.65,0.19,0.8,0.49C34.87,27.16,34.84,27.51,34.63,27.78z"/>
				</g>
			</g>
		</g>
		<g>
			<g>
				<g>
					<path class="st4" d="M18.33,17.73v-2c0-0.37-0.3-0.67-0.66-0.67H15c-0.37,0-0.67,0.3-0.67,0.67v2H13V32.4h17.33v2
						c0,0.36,0.3,0.66,0.67,0.66h2.67c0.36,0,0.66-0.3,0.66-0.66v-2H37V17.73H18.33z M25.92,26.6c-0.15,0.28-0.42,0.47-0.73,0.49
						l-0.47,0.01c-0.16,0.46-0.39,0.89-0.67,1.28c-0.1,0.13-0.2,0.25-0.31,0.37c-0.96,1.07-2.32,1.68-3.74,1.68
						c-0.23,0-0.46-0.02-0.69-0.05c-2.48-0.33-4.34-2.54-4.34-5.14v-4.51c0-0.57,0.46-1.03,1.03-1.03h0.67
						c0.57,0,1.03,0.46,1.03,1.03v4.47c0,1.14,0.74,2.16,1.77,2.43c0.17,0.04,0.35,0.07,0.53,0.07c0.2,0,0.39-0.03,0.59-0.09
						c0.21-0.06,0.4-0.14,0.58-0.25c0.15-0.09,0.29-0.2,0.42-0.32c-0.23-0.08-0.59-0.22-0.69-0.43c-0.15-0.3-0.12-0.66,0.08-0.93
						l1.63-2.16c0.16-0.22,0.61-0.37,0.89-0.37s0.54,0.14,0.71,0.36l1.62,2.16C26.03,25.94,26.07,26.3,25.92,26.6z M34.63,27.78
						l-1.62,2.17c-0.17,0.22-0.43,0.35-0.71,0.35s-0.54-0.13-0.71-0.35l-1.62-2.17c-0.21-0.27-0.24-0.62-0.09-0.93
						c0.15-0.3,0.46-0.49,0.8-0.49h0.25v-1.51c0-1.22-0.85-2.25-1.99-2.4c-0.1-0.01-0.2-0.02-0.31-0.02c-0.71,0-1.37,0.33-1.81,0.9
						c-0.2,0.26-0.5,0.41-0.82,0.41s-0.63-0.16-0.82-0.42l-0.41-0.54c-0.15-0.25-0.21-0.43-0.21-0.62c0-0.21,0.06-0.4,0.18-0.59
						l0.03-0.03l0.12-0.15c0.95-1.08,2.32-1.69,3.74-1.69c0.15,0,0.31,0,0.46,0.02c2.57,0.22,4.58,2.5,4.58,5.19v1.45h0.25
						c0.34,0,0.65,0.19,0.8,0.49C34.87,27.16,34.84,27.51,34.63,27.78z"/>
				</g>
				<g>
					<path class="st5" d="M18.33,17.73v-2c0-0.37-0.3-0.67-0.66-0.67H15c-0.37,0-0.67,0.3-0.67,0.67v2H13V32.4h17.33v2
						c0,0.36,0.3,0.66,0.67,0.66h2.67c0.36,0,0.66-0.3,0.66-0.66v-2H37V17.73H18.33z M25.92,26.6c-0.15,0.28-0.42,0.47-0.73,0.49
						l-0.47,0.01c-0.16,0.46-0.39,0.89-0.67,1.28c-0.1,0.13-0.2,0.25-0.31,0.37c-0.96,1.07-2.32,1.68-3.74,1.68
						c-0.23,0-0.46-0.02-0.69-0.05c-2.48-0.33-4.34-2.54-4.34-5.14v-4.51c0-0.57,0.46-1.03,1.03-1.03h0.67
						c0.57,0,1.03,0.46,1.03,1.03v4.47c0,1.14,0.74,2.16,1.77,2.43c0.17,0.04,0.35,0.07,0.53,0.07c0.2,0,0.39-0.03,0.59-0.09
						c0.21-0.06,0.4-0.14,0.58-0.25c0.15-0.09,0.29-0.2,0.42-0.32c-0.23-0.08-0.59-0.22-0.69-0.43c-0.15-0.3-0.12-0.66,0.08-0.93
						l1.63-2.16c0.16-0.22,0.61-0.37,0.89-0.37s0.54,0.14,0.71,0.36l1.62,2.16C26.03,25.94,26.07,26.3,25.92,26.6z M34.63,27.78
						l-1.62,2.17c-0.17,0.22-0.43,0.35-0.71,0.35s-0.54-0.13-0.71-0.35l-1.62-2.17c-0.21-0.27-0.24-0.62-0.09-0.93
						c0.15-0.3,0.46-0.49,0.8-0.49h0.25v-1.51c0-1.22-0.85-2.25-1.99-2.4c-0.1-0.01-0.2-0.02-0.31-0.02c-0.71,0-1.37,0.33-1.81,0.9
						c-0.2,0.26-0.5,0.41-0.82,0.41s-0.63-0.16-0.82-0.42l-0.41-0.54c-0.15-0.25-0.21-0.43-0.21-0.62c0-0.21,0.06-0.4,0.18-0.59
						l0.03-0.03l0.12-0.15c0.95-1.08,2.32-1.69,3.74-1.69c0.15,0,0.31,0,0.46,0.02c2.57,0.22,4.58,2.5,4.58,5.19v1.45h0.25
						c0.34,0,0.65,0.19,0.8,0.49C34.87,27.16,34.84,27.51,34.63,27.78z"/>
				</g>
			</g>
		</g>
	</g>
	<path class="st3" d="M38.33,17.73c1.47,0,2.67,3.28,2.67,7.33s-1.19,7.33-2.67,7.33V17.73z"/>
  <rect
    width="50"
    height="50"
    x="0"
    y="0"
    style="fill:#ffffff;fill-opacity:0" />
</g>
</svg>
