<?xml version="1.0" encoding="utf-8"?>
<!-- Generator: Adobe Illustrator 25.4.1, SVG Export Plug-In . SVG Version: 6.00 Build 0)  -->
<svg version="1.1" id="레이어_1" xmlns="http://www.w3.org/2000/svg" xmlns:xlink="http://www.w3.org/1999/xlink" x="0px"
	 y="0px" viewBox="0 0 50 50" style="enable-background:new 0 0 50 50;" xml:space="preserve">
<style type="text/css">
	.그림자_x0020_만들기{fill:none;}
	.모퉁이_x0020_둥글리기_x0020_2pt{fill:#FFFFFF;stroke:#231815;stroke-miterlimit:10;}
	.라이브_x0020_반사_x0020_X{fill:none;}
	.경사_x0020_부드럽게{fill:url(#SVGID_1_);}
	.황혼{fill:#FFFFFF;}
	.잎_GS{fill:#FFE100;}
	.퐁파두르_GS{fill-rule:evenodd;clip-rule:evenodd;fill:#4CACE2;}
	.st0{opacity:0.3;clip-path:url(#SVGID_00000098940970118599499280000009000911521177406084_);}
	.st1{fill:#9E9E9E;}
	.st2{fill:#6B6B6B;}
	.st3{fill:#E8E8E8;}
	.st4{opacity:0.3;fill:#E8E8E8;}
	.st5{fill:none;}
</style>
<linearGradient id="SVGID_1_" gradientUnits="userSpaceOnUse" x1="0" y1="0" x2="0.7071" y2="0.7071">
	<stop  offset="0" style="stop-color:#E6E7EA"/>
	<stop  offset="0.1747" style="stop-color:#E2E3E6"/>
	<stop  offset="0.3538" style="stop-color:#D6D7DA"/>
	<stop  offset="0.5349" style="stop-color:#C1C4C5"/>
	<stop  offset="0.7174" style="stop-color:#A4A8A8"/>
	<stop  offset="0.8993" style="stop-color:#808584"/>
	<stop  offset="1" style="stop-color:#686E6C"/>
</linearGradient>
<g>
	<g>
		<defs>
			<rect id="SVGID_00000005976137699584580500000015802818229911067015_" width="50" height="50"/>
		</defs>
		<clipPath id="SVGID_00000182497544804564291520000016489260852127616939_">
			<use xlink:href="#SVGID_00000005976137699584580500000015802818229911067015_"  style="overflow:visible;"/>
		</clipPath>
		<polygon style="opacity:0.3;clip-path:url(#SVGID_00000182497544804564291520000016489260852127616939_);" points="65.08,38.03 
			35.15,61.49 12.8,39.67 14.42,11.01 36.33,9.31 		"/>
	</g>
	<g>
		<path class="st1" d="M36.08,10.99c-0.16-0.24-0.39-0.43-0.66-0.54c-0.17-0.07-0.37-0.12-0.58-0.12H15.16
			c-0.21,0-0.41,0.05-0.58,0.12c-0.09,0.04-0.18,0.08-0.26,0.14c-0.16,0.1-0.29,0.24-0.4,0.4c-0.16,0.24-0.25,0.52-0.25,0.83v26.36
			c0,0.25,0.07,0.48,0.18,0.69c0.04,0.09,0.09,0.17,0.15,0.24s0.13,0.14,0.2,0.2c0.12,0.1,0.24,0.18,0.38,0.24
			c0.17,0.07,0.37,0.12,0.58,0.12h19.68c0.21,0,0.41-0.05,0.58-0.12c0.18-0.08,0.34-0.18,0.48-0.32c0.1-0.1,0.18-0.23,0.25-0.36
			c0.11-0.21,0.18-0.44,0.18-0.69V11.82C36.33,11.51,36.24,11.23,36.08,10.99z M33,22c0,0.55-0.45,1-1,1H18c-0.55,0-1-0.45-1-1v-7
			c0-0.55,0.45-1,1-1h14c0.55,0,1,0.45,1,1V22z"/>
		<g>
			<path class="st2" d="M32,15v7H18v-7H32 M32,14H18c-0.55,0-1,0.45-1,1v7c0,0.55,0.45,1,1,1h14c0.55,0,1-0.45,1-1v-7
				C33,14.45,32.55,14,32,14L32,14z"/>
		</g>
	</g>
	<g>
		<path class="st2" d="M34.84,11.33c0.27,0,0.49,0.22,0.49,0.49v26.36c0,0.27-0.22,0.49-0.49,0.49H15.16
			c-0.27,0-0.49-0.22-0.49-0.49V11.82c0-0.27,0.22-0.49,0.49-0.49H34.84 M34.84,10.33H15.16c-0.82,0-1.49,0.67-1.49,1.49v26.36
			c0,0.82,0.67,1.49,1.49,1.49h19.69c0.82,0,1.49-0.67,1.49-1.49V11.82C36.33,11,35.67,10.33,34.84,10.33L34.84,10.33z"/>
	</g>
	<path class="st2" d="M16.67,29.67L16.67,29.67C16.3,29.67,16,29.37,16,29v-3.33C16,25.3,16.3,25,16.67,25h0
		c0.37,0,0.67,0.3,0.67,0.67V29C17.33,29.37,17.03,29.67,16.67,29.67z"/>
	<polygon class="st3" points="25.76,25.67 20.97,32.41 24.8,32.41 24.17,37.67 29.07,30.69 25.29,30.69 	"/>
	<path class="st4" d="M30.93,16L30.93,16h-0.01H19.31C19.14,16,19,16.1,19,16.21v4.63c0,0.08,0.09,0.15,0.21,0.15
		c0.02,0,0.04,0,0.05-0.01l0.1-0.04l11.61-4.86l0,0c0.01-0.01,0.02-0.02,0.02-0.04C31,16.03,30.97,16,30.93,16z"/>
	<g>
		<path class="st5" d="M34.84,10.33H15.16c-0.82,0-1.49,0.67-1.49,1.49v26.36c0,0.82,0.67,1.49,1.49,1.49h19.69
			c0.82,0,1.49-0.67,1.49-1.49V11.82C36.33,11,35.67,10.33,34.84,10.33z M33,22c0,0.55-0.45,1-1,1H18c-0.55,0-1-0.45-1-1v-7
			c0-0.55,0.45-1,1-1h14c0.55,0,1,0.45,1,1V22z"/>
		<path class="st1" d="M35,9H15c-1.47,0-2.67,1.19-2.67,2.67v26.67c0,1.47,1.19,2.67,2.67,2.67h20c1.47,0,2.67-1.19,2.67-2.67V11.67
			C37.67,10.19,36.47,9,35,9z M36.33,38.18c0,0.82-0.67,1.49-1.49,1.49H15.16c-0.82,0-1.49-0.67-1.49-1.49V11.82
			c0-0.82,0.67-1.49,1.49-1.49h19.69c0.82,0,1.49,0.67,1.49,1.49V38.18z"/>
		<g>
			<path class="st2" d="M32,15v7H18v-7H32 M32,14H18c-0.55,0-1,0.45-1,1v7c0,0.55,0.45,1,1,1h14c0.55,0,1-0.45,1-1v-7
				C33,14.45,32.55,14,32,14L32,14z"/>
		</g>
	</g>
  <rect
    width="50"
    height="50"
    x="0"
    y="0"
    style="fill:#ffffff;fill-opacity:0" />
</g>
</svg>
