<?xml version="1.0" encoding="utf-8"?>
<!-- Generator: Adobe Illustrator 25.4.1, SVG Export Plug-In . SVG Version: 6.00 Build 0)  -->
<svg version="1.1" id="레이어_1" xmlns="http://www.w3.org/2000/svg" xmlns:xlink="http://www.w3.org/1999/xlink" x="0px"
	 y="0px" viewBox="0 0 54 54" style="enable-background:new 0 0 54 54;" xml:space="preserve">
<style type="text/css">
	.그림자_x0020_만들기{fill:none;}
	.모퉁이_x0020_둥글리기_x0020_2pt{fill:#FFFFFF;stroke:#231815;stroke-miterlimit:10;}
	.라이브_x0020_반사_x0020_X{fill:none;}
	.경사_x0020_부드럽게{fill:url(#SVGID_1_);}
	.황혼{fill:#FFFFFF;}
	.잎_GS{fill:#FFE100;}
	.퐁파두르_GS{fill-rule:evenodd;clip-rule:evenodd;fill:#4CACE2;}
	.st0{opacity:0.3;clip-path:url(#SVGID_00000111910475788061384570000016404172641732596666_);}
	.st1{fill:#9E9E9E;}
	.st2{opacity:0.3;}
	.st3{fill:#E8E8E8;}
</style>
<linearGradient id="SVGID_1_" gradientUnits="userSpaceOnUse" x1="0" y1="0" x2="0.7071" y2="0.7071">
	<stop  offset="0" style="stop-color:#E6E7EA"/>
	<stop  offset="0.1747" style="stop-color:#E2E3E6"/>
	<stop  offset="0.3538" style="stop-color:#D6D7DA"/>
	<stop  offset="0.5349" style="stop-color:#C1C4C5"/>
	<stop  offset="0.7174" style="stop-color:#A4A8A8"/>
	<stop  offset="0.8993" style="stop-color:#808584"/>
	<stop  offset="1" style="stop-color:#686E6C"/>
</linearGradient>
<g>
	<g>
		<defs>
			<rect id="SVGID_00000000202152332954442390000007823698127770447775_" width="54" height="54"/>
		</defs>
		<clipPath id="SVGID_00000057867025011042725310000018081730154358853264_">
			<use xlink:href="#SVGID_00000000202152332954442390000007823698127770447775_"  style="overflow:visible;"/>
		</clipPath>
		<polygon style="opacity:0.3;clip-path:url(#SVGID_00000057867025011042725310000018081730154358853264_);" points="66.29,41.7 
			44.15,64.03 12,31 16,15 39,13 		"/>
	</g>
	<rect x="25.79" y="31.08" class="st1" width="2.45" height="8.17"/>
	<rect x="24.56" y="39.25" class="st1" width="4.9" height="2.45"/>
	<g class="st2">
		<g>
			<g>
				<g>
					<g>
						<g>
							<path d="M15.12,32.08h-0.98c-0.62,0-1.01-0.5-0.87-1.12l2.97-13.63h2.52l-2.33,13.63C16.33,31.58,15.74,32.08,15.12,32.08z"
								/>
						</g>
						<g>
							<path d="M15.12,32.08h-0.98c-0.62,0-1.01-0.5-0.87-1.12l2.97-13.63h2.52l-2.33,13.63C16.33,31.58,15.74,32.08,15.12,32.08z"
								/>
						</g>
						<g>
							<path d="M15.12,32.08h-0.98c-0.62,0-1.01-0.5-0.87-1.12l2.97-13.63h2.52l-2.33,13.63C16.33,31.58,15.74,32.08,15.12,32.08z"
								/>
						</g>
					</g>
					<g>
						<g>
							<path d="M20.48,32.08H19.5c-0.62,0-1.05-0.5-0.96-1.12l1.91-13.63h2.52L21.7,30.97C21.64,31.58,21.09,32.08,20.48,32.08z"/>
						</g>
						<g>
							<path d="M20.48,32.08H19.5c-0.62,0-1.05-0.5-0.96-1.12l1.91-13.63h2.52L21.7,30.97C21.64,31.58,21.09,32.08,20.48,32.08z"/>
						</g>
						<g>
							<path d="M20.48,32.08H19.5c-0.62,0-1.05-0.5-0.96-1.12l1.91-13.63h2.52L21.7,30.97C21.64,31.58,21.09,32.08,20.48,32.08z"/>
						</g>
					</g>
					<g>
						<g>
							<path d="M25.83,32.08h-0.98c-0.62,0-1.09-0.5-1.05-1.12l0.85-13.63h2.52l-0.21,13.63C26.95,31.58,26.44,32.08,25.83,32.08z"
								/>
						</g>
						<g>
							<path d="M25.83,32.08h-0.98c-0.62,0-1.09-0.5-1.05-1.12l0.85-13.63h2.52l-0.21,13.63C26.95,31.58,26.44,32.08,25.83,32.08z"
								/>
						</g>
						<g>
							<path d="M25.83,32.08h-0.98c-0.62,0-1.09-0.5-1.05-1.12l0.85-13.63h2.52l-0.21,13.63C26.95,31.58,26.44,32.08,25.83,32.08z"
								/>
						</g>
					</g>
					<g>
						<g>
							<path d="M31.18,32.08H30.2c-0.62,0-1.12-0.5-1.13-1.12l-0.21-13.63h2.52l0.85,13.63C32.26,31.58,31.8,32.08,31.18,32.08z"/>
						</g>
						<g>
							<path d="M31.18,32.08H30.2c-0.62,0-1.12-0.5-1.13-1.12l-0.21-13.63h2.52l0.85,13.63C32.26,31.58,31.8,32.08,31.18,32.08z"/>
						</g>
						<g>
							<path d="M31.18,32.08H30.2c-0.62,0-1.12-0.5-1.13-1.12l-0.21-13.63h2.52l0.85,13.63C32.26,31.58,31.8,32.08,31.18,32.08z"/>
						</g>
					</g>
					<g>
						<g>
							<path d="M36.53,32.08h-0.98c-0.62,0-1.16-0.5-1.22-1.12l-1.27-13.63h2.52l1.91,13.63C37.58,31.58,37.15,32.08,36.53,32.08z"
								/>
						</g>
						<g>
							<path d="M36.53,32.08h-0.98c-0.62,0-1.16-0.5-1.22-1.12l-1.27-13.63h2.52l1.91,13.63C37.58,31.58,37.15,32.08,36.53,32.08z"
								/>
						</g>
						<g>
							<path d="M36.53,32.08h-0.98c-0.62,0-1.16-0.5-1.22-1.12l-1.27-13.63h2.52l1.91,13.63C37.58,31.58,37.15,32.08,36.53,32.08z"
								/>
						</g>
					</g>
					<g>
						<g>
							<path d="M41.88,32.08H40.9c-0.62,0-1.2-0.5-1.31-1.12l-2.33-13.63h2.52l2.97,13.63C42.89,31.58,42.5,32.08,41.88,32.08z"/>
						</g>
						<g>
							<path d="M41.88,32.08H40.9c-0.62,0-1.2-0.5-1.31-1.12l-2.33-13.63h2.52l2.97,13.63C42.89,31.58,42.5,32.08,41.88,32.08z"/>
						</g>
						<g>
							<path d="M41.88,32.08H40.9c-0.62,0-1.2-0.5-1.31-1.12l-2.33-13.63h2.52l2.97,13.63C42.89,31.58,42.5,32.08,41.88,32.08z"/>
						</g>
					</g>
				</g>
				<g>
					<g>
						<g>
							<path d="M15.12,32.08h-0.98c-0.62,0-1.01-0.5-0.87-1.12l2.97-13.63h2.52l-2.33,13.63C16.33,31.58,15.74,32.08,15.12,32.08z"
								/>
						</g>
						<g>
							<path d="M15.12,32.08h-0.98c-0.62,0-1.01-0.5-0.87-1.12l2.97-13.63h2.52l-2.33,13.63C16.33,31.58,15.74,32.08,15.12,32.08z"
								/>
						</g>
						<g>
							<path d="M15.12,32.08h-0.98c-0.62,0-1.01-0.5-0.87-1.12l2.97-13.63h2.52l-2.33,13.63C16.33,31.58,15.74,32.08,15.12,32.08z"
								/>
						</g>
					</g>
					<g>
						<g>
							<path d="M20.48,32.08H19.5c-0.62,0-1.05-0.5-0.96-1.12l1.91-13.63h2.52L21.7,30.97C21.64,31.58,21.09,32.08,20.48,32.08z"/>
						</g>
						<g>
							<path d="M20.48,32.08H19.5c-0.62,0-1.05-0.5-0.96-1.12l1.91-13.63h2.52L21.7,30.97C21.64,31.58,21.09,32.08,20.48,32.08z"/>
						</g>
						<g>
							<path d="M20.48,32.08H19.5c-0.62,0-1.05-0.5-0.96-1.12l1.91-13.63h2.52L21.7,30.97C21.64,31.58,21.09,32.08,20.48,32.08z"/>
						</g>
					</g>
					<g>
						<g>
							<path d="M25.83,32.08h-0.98c-0.62,0-1.09-0.5-1.05-1.12l0.85-13.63h2.52l-0.21,13.63C26.95,31.58,26.44,32.08,25.83,32.08z"
								/>
						</g>
						<g>
							<path d="M25.83,32.08h-0.98c-0.62,0-1.09-0.5-1.05-1.12l0.85-13.63h2.52l-0.21,13.63C26.95,31.58,26.44,32.08,25.83,32.08z"
								/>
						</g>
						<g>
							<path d="M25.83,32.08h-0.98c-0.62,0-1.09-0.5-1.05-1.12l0.85-13.63h2.52l-0.21,13.63C26.95,31.58,26.44,32.08,25.83,32.08z"
								/>
						</g>
					</g>
					<g>
						<g>
							<path d="M31.18,32.08H30.2c-0.62,0-1.12-0.5-1.13-1.12l-0.21-13.63h2.52l0.85,13.63C32.26,31.58,31.8,32.08,31.18,32.08z"/>
						</g>
						<g>
							<path d="M31.18,32.08H30.2c-0.62,0-1.12-0.5-1.13-1.12l-0.21-13.63h2.52l0.85,13.63C32.26,31.58,31.8,32.08,31.18,32.08z"/>
						</g>
						<g>
							<path d="M31.18,32.08H30.2c-0.62,0-1.12-0.5-1.13-1.12l-0.21-13.63h2.52l0.85,13.63C32.26,31.58,31.8,32.08,31.18,32.08z"/>
						</g>
					</g>
					<g>
						<g>
							<path d="M36.53,32.08h-0.98c-0.62,0-1.16-0.5-1.22-1.12l-1.27-13.63h2.52l1.91,13.63C37.58,31.58,37.15,32.08,36.53,32.08z"
								/>
						</g>
						<g>
							<path d="M36.53,32.08h-0.98c-0.62,0-1.16-0.5-1.22-1.12l-1.27-13.63h2.52l1.91,13.63C37.58,31.58,37.15,32.08,36.53,32.08z"
								/>
						</g>
						<g>
							<path d="M36.53,32.08h-0.98c-0.62,0-1.16-0.5-1.22-1.12l-1.27-13.63h2.52l1.91,13.63C37.58,31.58,37.15,32.08,36.53,32.08z"
								/>
						</g>
					</g>
					<g>
						<g>
							<path d="M41.88,32.08H40.9c-0.62,0-1.2-0.5-1.31-1.12l-2.33-13.63h2.52l2.97,13.63C42.89,31.58,42.5,32.08,41.88,32.08z"/>
						</g>
						<g>
							<path d="M41.88,32.08H40.9c-0.62,0-1.2-0.5-1.31-1.12l-2.33-13.63h2.52l2.97,13.63C42.89,31.58,42.5,32.08,41.88,32.08z"/>
						</g>
						<g>
							<path d="M41.88,32.08H40.9c-0.62,0-1.2-0.5-1.31-1.12l-2.33-13.63h2.52l2.97,13.63C42.89,31.58,42.5,32.08,41.88,32.08z"/>
						</g>
					</g>
				</g>
				<g>
					<g>
						<g>
							<path d="M15.12,32.08h-0.98c-0.62,0-1.01-0.5-0.87-1.12l2.97-13.63h2.52l-2.33,13.63C16.33,31.58,15.74,32.08,15.12,32.08z"
								/>
						</g>
						<g>
							<path d="M15.12,32.08h-0.98c-0.62,0-1.01-0.5-0.87-1.12l2.97-13.63h2.52l-2.33,13.63C16.33,31.58,15.74,32.08,15.12,32.08z"
								/>
						</g>
						<g>
							<path d="M15.12,32.08h-0.98c-0.62,0-1.01-0.5-0.87-1.12l2.97-13.63h2.52l-2.33,13.63C16.33,31.58,15.74,32.08,15.12,32.08z"
								/>
						</g>
					</g>
					<g>
						<g>
							<path d="M20.48,32.08H19.5c-0.62,0-1.05-0.5-0.96-1.12l1.91-13.63h2.52L21.7,30.97C21.64,31.58,21.09,32.08,20.48,32.08z"/>
						</g>
						<g>
							<path d="M20.48,32.08H19.5c-0.62,0-1.05-0.5-0.96-1.12l1.91-13.63h2.52L21.7,30.97C21.64,31.58,21.09,32.08,20.48,32.08z"/>
						</g>
						<g>
							<path d="M20.48,32.08H19.5c-0.62,0-1.05-0.5-0.96-1.12l1.91-13.63h2.52L21.7,30.97C21.64,31.58,21.09,32.08,20.48,32.08z"/>
						</g>
					</g>
					<g>
						<g>
							<path d="M25.83,32.08h-0.98c-0.62,0-1.09-0.5-1.05-1.12l0.85-13.63h2.52l-0.21,13.63C26.95,31.58,26.44,32.08,25.83,32.08z"
								/>
						</g>
						<g>
							<path d="M25.83,32.08h-0.98c-0.62,0-1.09-0.5-1.05-1.12l0.85-13.63h2.52l-0.21,13.63C26.95,31.58,26.44,32.08,25.83,32.08z"
								/>
						</g>
						<g>
							<path d="M25.83,32.08h-0.98c-0.62,0-1.09-0.5-1.05-1.12l0.85-13.63h2.52l-0.21,13.63C26.95,31.58,26.44,32.08,25.83,32.08z"
								/>
						</g>
					</g>
					<g>
						<g>
							<path d="M31.18,32.08H30.2c-0.62,0-1.12-0.5-1.13-1.12l-0.21-13.63h2.52l0.85,13.63C32.26,31.58,31.8,32.08,31.18,32.08z"/>
						</g>
						<g>
							<path d="M31.18,32.08H30.2c-0.62,0-1.12-0.5-1.13-1.12l-0.21-13.63h2.52l0.85,13.63C32.26,31.58,31.8,32.08,31.18,32.08z"/>
						</g>
						<g>
							<path d="M31.18,32.08H30.2c-0.62,0-1.12-0.5-1.13-1.12l-0.21-13.63h2.52l0.85,13.63C32.26,31.58,31.8,32.08,31.18,32.08z"/>
						</g>
					</g>
					<g>
						<g>
							<path d="M36.53,32.08h-0.98c-0.62,0-1.16-0.5-1.22-1.12l-1.27-13.63h2.52l1.91,13.63C37.58,31.58,37.15,32.08,36.53,32.08z"
								/>
						</g>
						<g>
							<path d="M36.53,32.08h-0.98c-0.62,0-1.16-0.5-1.22-1.12l-1.27-13.63h2.52l1.91,13.63C37.58,31.58,37.15,32.08,36.53,32.08z"
								/>
						</g>
						<g>
							<path d="M36.53,32.08h-0.98c-0.62,0-1.16-0.5-1.22-1.12l-1.27-13.63h2.52l1.91,13.63C37.58,31.58,37.15,32.08,36.53,32.08z"
								/>
						</g>
					</g>
					<g>
						<g>
							<path d="M41.88,32.08H40.9c-0.62,0-1.2-0.5-1.31-1.12l-2.33-13.63h2.52l2.97,13.63C42.89,31.58,42.5,32.08,41.88,32.08z"/>
						</g>
						<g>
							<path d="M41.88,32.08H40.9c-0.62,0-1.2-0.5-1.31-1.12l-2.33-13.63h2.52l2.97,13.63C42.89,31.58,42.5,32.08,41.88,32.08z"/>
						</g>
						<g>
							<path d="M41.88,32.08H40.9c-0.62,0-1.2-0.5-1.31-1.12l-2.33-13.63h2.52l2.97,13.63C42.89,31.58,42.5,32.08,41.88,32.08z"/>
						</g>
					</g>
				</g>
			</g>
			<path d="M39,15.75H17.03c-0.55,0-1-0.45-1-1V14.3c0-0.55,0.45-1,1-1H39c0.55,0,1,0.45,1,1v0.45C40,15.3,39.55,15.75,39,15.75z"/>
		</g>
		<g>
			<g>
				<g>
					<path d="M15.12,32.08h-0.98c-0.62,0-1.01-0.5-0.87-1.12l2.97-13.63h2.52l-2.33,13.63C16.33,31.58,15.74,32.08,15.12,32.08z"/>
				</g>
				<g>
					<path d="M20.48,32.08H19.5c-0.62,0-1.05-0.5-0.96-1.12l1.91-13.63h2.52L21.7,30.97C21.64,31.58,21.09,32.08,20.48,32.08z"/>
				</g>
				<g>
					<path d="M25.83,32.08h-0.98c-0.62,0-1.09-0.5-1.05-1.12l0.85-13.63h2.52l-0.21,13.63C26.95,31.58,26.44,32.08,25.83,32.08z"/>
				</g>
				<g>
					<path d="M31.18,32.08H30.2c-0.62,0-1.12-0.5-1.13-1.12l-0.21-13.63h2.52l0.85,13.63C32.26,31.58,31.8,32.08,31.18,32.08z"/>
				</g>
				<g>
					<path d="M36.53,32.08h-0.98c-0.62,0-1.16-0.5-1.22-1.12l-1.27-13.63h2.52l1.91,13.63C37.58,31.58,37.15,32.08,36.53,32.08z"/>
				</g>
				<g>
					<path d="M41.88,32.08H40.9c-0.62,0-1.2-0.5-1.31-1.12l-2.33-13.63h2.52l2.97,13.63C42.89,31.58,42.5,32.08,41.88,32.08z"/>
				</g>
			</g>
			<path d="M39,15.75H17.03c-0.55,0-1-0.45-1-1V14.3c0-0.55,0.45-1,1-1H39c0.55,0,1,0.45,1,1v0.45C40,15.3,39.55,15.75,39,15.75z"/>
		</g>
	</g>
	<g>
		<g>
			<g>
				<path class="st3" d="M14.12,31.08h-0.98c-0.62,0-1.01-0.5-0.87-1.12l2.97-13.63h2.52l-2.33,13.63
					C15.33,30.58,14.74,31.08,14.12,31.08z"/>
			</g>
			<g>
				<path class="st3" d="M19.48,31.08H18.5c-0.62,0-1.05-0.5-0.96-1.12l1.91-13.63h2.52L20.7,29.97
					C20.64,30.58,20.09,31.08,19.48,31.08z"/>
			</g>
			<g>
				<path class="st3" d="M24.83,31.08h-0.98c-0.62,0-1.09-0.5-1.05-1.12l0.85-13.63h2.52l-0.21,13.63
					C25.95,30.58,25.44,31.08,24.83,31.08z"/>
			</g>
			<g>
				<path class="st3" d="M30.18,31.08H29.2c-0.62,0-1.12-0.5-1.13-1.12l-0.21-13.63h2.52l0.85,13.63
					C31.26,30.58,30.8,31.08,30.18,31.08z"/>
			</g>
			<g>
				<path class="st3" d="M35.53,31.08h-0.98c-0.62,0-1.16-0.5-1.22-1.12l-1.27-13.63h2.52l1.91,13.63
					C36.58,30.58,36.15,31.08,35.53,31.08z"/>
			</g>
			<g>
				<path class="st3" d="M40.88,31.08H39.9c-0.62,0-1.2-0.5-1.31-1.12l-2.33-13.63h2.52l2.97,13.63
					C41.89,30.58,41.5,31.08,40.88,31.08z"/>
			</g>
		</g>
		<path class="st3" d="M38,14.75H16.03c-0.55,0-1-0.45-1-1V13.3c0-0.55,0.45-1,1-1H38c0.55,0,1,0.45,1,1v0.45
			C39,14.3,38.55,14.75,38,14.75z"/>
	</g>
  <rect
    width="54"
    height="54"
    x="0"
    y="0"
    style="fill:#ffffff;fill-opacity:0" />
</g>
</svg>
