<?xml version="1.0" encoding="utf-8"?>
<!-- Generator: Adobe Illustrator 25.4.1, SVG Export Plug-In . SVG Version: 6.00 Build 0)  -->
<svg version="1.1" id="레이어_1" xmlns="http://www.w3.org/2000/svg" xmlns:xlink="http://www.w3.org/1999/xlink" x="0px"
	 y="0px" viewBox="0 0 50 50" style="enable-background:new 0 0 50 50;" xml:space="preserve">
<style type="text/css">
	.그림자_x0020_만들기{fill:none;}
	.모퉁이_x0020_둥글리기_x0020_2pt{fill:#FFFFFF;stroke:#231815;stroke-miterlimit:10;}
	.라이브_x0020_반사_x0020_X{fill:none;}
	.경사_x0020_부드럽게{fill:url(#SVGID_1_);}
	.황혼{fill:#FFFFFF;}
	.잎_GS{fill:#FFE100;}
	.퐁파두르_GS{fill-rule:evenodd;clip-rule:evenodd;fill:#4CACE2;}
	.st0{clip-path:url(#SVGID_00000101821958140702722330000018278365307775638710_);}
	.st1{opacity:0.3;}
	.st2{fill:#6B6B6B;}
	.st3{fill:#E8E8E8;}
	.st4{fill:#9E9E9E;}
</style>
<linearGradient id="SVGID_1_" gradientUnits="userSpaceOnUse" x1="0" y1="0" x2="0.7071" y2="0.7071">
	<stop  offset="0" style="stop-color:#E6E7EA"/>
	<stop  offset="0.1747" style="stop-color:#E2E3E6"/>
	<stop  offset="0.3538" style="stop-color:#D6D7DA"/>
	<stop  offset="0.5349" style="stop-color:#C1C4C5"/>
	<stop  offset="0.7174" style="stop-color:#A4A8A8"/>
	<stop  offset="0.8993" style="stop-color:#808584"/>
	<stop  offset="1" style="stop-color:#686E6C"/>
</linearGradient>
<g>
	<g>
		<defs>
			<rect id="SVGID_00000059997093432797155010000000122568516644162454_" width="50" height="50"/>
		</defs>
		<clipPath id="SVGID_00000176002036599083920610000013717873236184580528_">
			<use xlink:href="#SVGID_00000059997093432797155010000000122568516644162454_"  style="overflow:visible;"/>
		</clipPath>
		<g style="clip-path:url(#SVGID_00000176002036599083920610000013717873236184580528_);">
			<polygon class="st1" points="62.42,40.13 37.01,63.39 10.96,39 10.96,32.72 10.88,18.65 16.96,23 16.96,11 20.96,11 29.96,10 
				32.96,13 32.96,11 			"/>
		</g>
	</g>
	<path class="st2" d="M34.96,23.3v-6.08c0-0.4-0.32-0.72-0.72-0.72h-1.15v-4.95V11.5v-0.05c0-0.32-0.26-0.57-0.57-0.57h-1.36
		c-0.32,0-0.57,0.26-0.57,0.57v0.11c0,0.32,0.26,0.57,0.57,0.57h0.68v4.38h-1.15c-0.4,0-0.72,0.32-0.72,0.72v4.83
		C32.45,22.06,32.46,23.31,34.96,23.3C34.96,23.31,34.96,23.3,34.96,23.3z"/>
	<path class="st3" d="M30.68,29h3.56c0.4,0,0.72-0.32,0.72-0.72V23.3c0,0,0,0,0,0c-2.5,0-2.5-1.25-5-1.25v6.22
		C29.96,28.68,30.28,29,30.68,29z"/>
	<path class="st2" d="M19.96,22.06v-4.83c0-0.4-0.32-0.72-0.72-0.72h-1.15v-4.38h0.68c0.32,0,0.57-0.26,0.57-0.57v-0.11
		c0-0.32-0.26-0.57-0.57-0.57H17.4c-0.32,0-0.57,0.26-0.57,0.57v0.05v0.05v4.95h-1.15c-0.4,0-0.72,0.32-0.72,0.72v6.08
		C17.45,23.3,17.46,22.06,19.96,22.06C19.95,22.06,19.96,22.06,19.96,22.06z"/>
	<path class="st3" d="M15.68,29h3.56c0.4,0,0.72-0.32,0.72-0.72v-6.22c0,0,0,0,0,0c-2.5,0-2.5,1.25-5,1.25v4.97
		C14.96,28.68,15.28,29,15.68,29z"/>
	<path class="st4" d="M29.33,14h-5V9h5c0.35,0,0.62,0.28,0.62,0.62v3.75C29.96,13.72,29.68,14,29.33,14z"/>
	<path class="st3" d="M21.83,9c-0.35,0-0.63,0.28-0.63,0.62v0.63h-0.63c-0.35,0-0.62,0.28-0.62,0.62v1.25
		c0,0.35,0.28,0.62,0.62,0.62h0.63v0.62c0,0.35,0.28,0.63,0.63,0.63h2.5V9H21.83z"/>
	<g>
		<path class="st4" d="M39.33,18.38c-0.34,0-0.62,0.28-0.62,0.63v3.19c-1.35,0.32-1.76,1.12-3.75,1.12v4.97
			c0,0.4-0.33,0.72-0.72,0.72h-3.56c-0.39,0-0.72-0.32-0.72-0.72v-6.22c-1.25,0-1.88,0.31-2.5,0.63c-0.62,0.32-1.25,0.63-2.49,0.63
			c-2.5,0-2.5-1.25-5-1.26v6.22c0,0.4-0.33,0.72-0.72,0.72h-3.56c-0.39,0-0.72-0.32-0.72-0.72v-4.97c-0.99,0-1.59-0.2-2.11-0.44
			c-0.52-0.23-0.97-0.52-1.64-0.67V19c0-0.35-0.27-0.63-0.62-0.63S9.96,18.66,9.96,19v18.75c0,0.68,0.56,1.25,1.25,1.25h27.51
			c0.68,0,1.25-0.56,1.25-1.25V19C39.96,18.66,39.68,18.38,39.33,18.38z M12.68,27.4c-0.78,0-1.41-0.63-1.41-1.41
			c0-0.78,0.63-1.41,1.41-1.41s1.41,0.63,1.41,1.41C14.08,26.78,13.45,27.4,12.68,27.4z M19.82,34.9H18.3v1.52
			c0,0.46-0.42,0.83-0.94,0.83s-0.94-0.37-0.94-0.83V34.9h-1.52c-0.46,0-0.82-0.42-0.82-0.94s0.37-0.94,0.82-0.94h1.52v-1.52
			c0-0.46,0.42-0.83,0.94-0.83s0.94,0.37,0.94,0.83v1.52h1.52c0.46,0,0.82,0.42,0.82,0.94S20.28,34.9,19.82,34.9z M22.99,27.4
			c-0.78,0-1.41-0.63-1.41-1.41c0-0.78,0.63-1.41,1.41-1.41s1.41,0.63,1.41,1.41C24.39,26.78,23.77,27.4,22.99,27.4z M26.74,27.4
			c-0.78,0-1.41-0.63-1.41-1.41c0-0.78,0.63-1.41,1.41-1.41s1.41,0.63,1.41,1.41C28.14,26.78,27.52,27.4,26.74,27.4z M34.82,34.9
			h-4.91c-0.46,0-0.82-0.42-0.82-0.94s0.37-0.94,0.82-0.94h4.91c0.46,0,0.82,0.42,0.82,0.94S35.28,34.9,34.82,34.9z M37.33,27.4
			c-0.78,0-1.41-0.63-1.41-1.41c0-0.78,0.63-1.41,1.41-1.41c0.78,0,1.41,0.63,1.41,1.41C38.74,26.78,38.11,27.4,37.33,27.4z"/>
	</g>
	<path class="st2" d="M34.96,23.3v-6.08c0-0.4-0.32-0.72-0.72-0.72h-1.15v-4.95V11.5v-0.05c0-0.32-0.26-0.57-0.57-0.57h-1.36
		c-0.32,0-0.57,0.26-0.57,0.57v0.11c0,0.32,0.26,0.57,0.57,0.57h0.68v4.38h-1.15c-0.4,0-0.72,0.32-0.72,0.72v4.83
		C32.45,22.06,32.46,23.31,34.96,23.3C34.96,23.31,34.96,23.3,34.96,23.3z"/>
	<path class="st3" d="M30.68,29h3.56c0.4,0,0.72-0.32,0.72-0.72V23.3c0,0,0,0,0,0c-2.5,0-2.5-1.25-5-1.25v6.22
		C29.96,28.68,30.28,29,30.68,29z"/>
	<path class="st2" d="M19.96,22.06v-4.83c0-0.4-0.32-0.72-0.72-0.72h-1.15v-4.38h0.68c0.32,0,0.57-0.26,0.57-0.57v-0.11
		c0-0.32-0.26-0.57-0.57-0.57H17.4c-0.32,0-0.57,0.26-0.57,0.57v0.05v0.05v4.95h-1.15c-0.4,0-0.72,0.32-0.72,0.72v6.08
		C17.45,23.3,17.46,22.06,19.96,22.06C19.95,22.06,19.96,22.06,19.96,22.06z"/>
	<path class="st3" d="M15.68,29h3.56c0.4,0,0.72-0.32,0.72-0.72v-6.22c0,0,0,0,0,0c-2.5,0-2.5,1.25-5,1.25v4.97
		C14.96,28.68,15.28,29,15.68,29z"/>
	<path class="st4" d="M29.33,14h-5V9h5c0.35,0,0.62,0.28,0.62,0.62v3.75C29.96,13.72,29.68,14,29.33,14z"/>
	<path class="st3" d="M21.83,9c-0.35,0-0.63,0.28-0.63,0.62v0.63h-0.63c-0.35,0-0.62,0.28-0.62,0.62v1.25
		c0,0.35,0.28,0.62,0.62,0.62h0.63v0.62c0,0.35,0.28,0.63,0.63,0.63h2.5V9H21.83z"/>
	<g>
		<path class="st4" d="M39.33,18.38c-0.34,0-0.62,0.28-0.62,0.63v3.19c-1.35,0.32-1.76,1.12-3.75,1.12v4.97
			c0,0.4-0.33,0.72-0.72,0.72h-3.56c-0.39,0-0.72-0.32-0.72-0.72v-6.22c-1.25,0-1.88,0.31-2.5,0.63c-0.62,0.32-1.25,0.63-2.49,0.63
			c-2.5,0-2.5-1.25-5-1.26v6.22c0,0.4-0.33,0.72-0.72,0.72h-3.56c-0.39,0-0.72-0.32-0.72-0.72v-4.97c-0.99,0-1.59-0.2-2.11-0.44
			c-0.52-0.23-0.97-0.52-1.64-0.67V19c0-0.35-0.27-0.63-0.62-0.63S9.96,18.66,9.96,19v18.75c0,0.68,0.56,1.25,1.25,1.25h27.51
			c0.68,0,1.25-0.56,1.25-1.25V19C39.96,18.66,39.68,18.38,39.33,18.38z M12.68,27.4c-0.78,0-1.41-0.63-1.41-1.41
			c0-0.78,0.63-1.41,1.41-1.41s1.41,0.63,1.41,1.41C14.08,26.78,13.45,27.4,12.68,27.4z M19.82,34.9H18.3v1.52
			c0,0.46-0.42,0.83-0.94,0.83s-0.94-0.37-0.94-0.83V34.9h-1.52c-0.46,0-0.82-0.42-0.82-0.94s0.37-0.94,0.82-0.94h1.52v-1.52
			c0-0.46,0.42-0.83,0.94-0.83s0.94,0.37,0.94,0.83v1.52h1.52c0.46,0,0.82,0.42,0.82,0.94S20.28,34.9,19.82,34.9z M22.99,27.4
			c-0.78,0-1.41-0.63-1.41-1.41c0-0.78,0.63-1.41,1.41-1.41s1.41,0.63,1.41,1.41C24.39,26.78,23.77,27.4,22.99,27.4z M26.74,27.4
			c-0.78,0-1.41-0.63-1.41-1.41c0-0.78,0.63-1.41,1.41-1.41s1.41,0.63,1.41,1.41C28.14,26.78,27.52,27.4,26.74,27.4z M34.82,34.9
			h-4.91c-0.46,0-0.82-0.42-0.82-0.94s0.37-0.94,0.82-0.94h4.91c0.46,0,0.82,0.42,0.82,0.94S35.28,34.9,34.82,34.9z M37.33,27.4
			c-0.78,0-1.41-0.63-1.41-1.41c0-0.78,0.63-1.41,1.41-1.41c0.78,0,1.41,0.63,1.41,1.41C38.74,26.78,38.11,27.4,37.33,27.4z"/>
	</g>
  <rect
      width="50"
      height="50"
      x="0"
      y="0"
      style="fill:#ffffff;fill-opacity:0" />
</g>
</svg>
