<?xml version="1.0" encoding="utf-8"?>
<!-- Generator: Adobe Illustrator 25.4.1, SVG Export Plug-In . SVG Version: 6.00 Build 0)  -->
<svg version="1.1" id="레이어_1" xmlns="http://www.w3.org/2000/svg" xmlns:xlink="http://www.w3.org/1999/xlink" x="0px"
	 y="0px" viewBox="0 0 50 50" style="enable-background:new 0 0 50 50;" xml:space="preserve">
<style type="text/css">
	.그림자_x0020_만들기{fill:none;}
	.모퉁이_x0020_둥글리기_x0020_2pt{fill:#FFFFFF;stroke:#231815;stroke-miterlimit:10;}
	.라이브_x0020_반사_x0020_X{fill:none;}
	.경사_x0020_부드럽게{fill:url(#SVGID_1_);}
	.황혼{fill:#FFFFFF;}
	.잎_GS{fill:#FFE100;}
	.퐁파두르_GS{fill-rule:evenodd;clip-rule:evenodd;fill:#4CACE2;}
	.st0{opacity:0.3;clip-path:url(#SVGID_00000022544318365484666140000011351543873692437681_);}
	.st1{opacity:0.3;}
	.st2{fill:#E8E8E8;}
	.st3{fill:#D2D3D4;}
	.st4{fill:none;}
	.st5{fill:#9E9E9E;}
	.st6{fill:#6B6B6B;}
</style>
<linearGradient id="SVGID_1_" gradientUnits="userSpaceOnUse" x1="0" y1="0" x2="0.7071" y2="0.7071">
	<stop  offset="0" style="stop-color:#E6E7EA"/>
	<stop  offset="0.1747" style="stop-color:#E2E3E6"/>
	<stop  offset="0.3538" style="stop-color:#D6D7DA"/>
	<stop  offset="0.5349" style="stop-color:#C1C4C5"/>
	<stop  offset="0.7174" style="stop-color:#A4A8A8"/>
	<stop  offset="0.8993" style="stop-color:#808584"/>
	<stop  offset="1" style="stop-color:#686E6C"/>
</linearGradient>
<g>
	<g>
		<defs>
			<rect id="SVGID_00000012432567589594959870000005211335195719489668_" width="50" height="50"/>
		</defs>
		<clipPath id="SVGID_00000146472419227598485730000010324261966171413938_">
			<use xlink:href="#SVGID_00000012432567589594959870000005211335195719489668_"  style="overflow:visible;"/>
		</clipPath>
		<polygon style="opacity:0.3;clip-path:url(#SVGID_00000146472419227598485730000010324261966171413938_);" points="59.72,38.35 
			38.62,65.62 13.11,40 13.48,10.05 36.83,10.64 		"/>
	</g>
	<g class="st1">
		<g>
			<path d="M23.43,25.74c0.01-0.09,0.05-0.18,0.13-0.25c0.08-0.07,0.16-0.12,0.25-0.14c0.11-0.01,0.19,0.01,0.26,0.07
				c0.32,0.26,0.56,0.55,0.71,0.87c0.14,0.31,0.21,0.67,0.21,1.1c0,0.29-0.08,0.6-0.23,0.95c-0.09,0.2-0.26,0.48-0.5,0.86
				c-0.2,0.3-0.33,0.53-0.4,0.67c-0.12,0.24-0.18,0.45-0.18,0.63c0,0.31,0.04,0.58,0.13,0.81c0.09,0.26,0.23,0.49,0.42,0.68
				c0.07,0.06,0.09,0.14,0.07,0.24c-0.02,0.09-0.07,0.18-0.15,0.25c-0.08,0.08-0.18,0.13-0.28,0.15c-0.11,0.01-0.21-0.02-0.31-0.11
				c-0.27-0.27-0.47-0.59-0.59-0.96c-0.11-0.3-0.16-0.65-0.16-1.04c0-0.31,0.08-0.64,0.25-1c0.09-0.21,0.26-0.51,0.51-0.91
				c0.2-0.3,0.33-0.52,0.39-0.66c0.11-0.22,0.17-0.42,0.17-0.59c0-0.29-0.05-0.55-0.15-0.78c-0.1-0.21-0.25-0.41-0.45-0.6
				C23.45,25.93,23.42,25.84,23.43,25.74z"/>
		</g>
		<g>
			<path class="st1" d="M23.43,25.74c0.01-0.09,0.05-0.18,0.13-0.25c0.08-0.07,0.16-0.12,0.25-0.14c0.11-0.01,0.19,0.01,0.26,0.07
				c0.32,0.26,0.56,0.55,0.71,0.87c0.14,0.31,0.21,0.67,0.21,1.1c0,0.29-0.08,0.6-0.23,0.95c-0.09,0.2-0.26,0.48-0.5,0.86
				c-0.2,0.3-0.33,0.53-0.4,0.67c-0.12,0.24-0.18,0.45-0.18,0.63c0,0.31,0.04,0.58,0.13,0.81c0.09,0.26,0.23,0.49,0.42,0.68
				c0.07,0.06,0.09,0.14,0.07,0.24c-0.02,0.09-0.07,0.18-0.15,0.25c-0.08,0.08-0.18,0.13-0.28,0.15c-0.11,0.01-0.21-0.02-0.31-0.11
				c-0.27-0.27-0.47-0.59-0.59-0.96c-0.11-0.3-0.16-0.65-0.16-1.04c0-0.31,0.08-0.64,0.25-1c0.09-0.21,0.26-0.51,0.51-0.91
				c0.2-0.3,0.33-0.52,0.39-0.66c0.11-0.22,0.17-0.42,0.17-0.59c0-0.29-0.05-0.55-0.15-0.78c-0.1-0.21-0.25-0.41-0.45-0.6
				C23.45,25.93,23.42,25.84,23.43,25.74z"/>
		</g>
	</g>
	<g class="st1">
		<g>
			<path d="M27.55,25.74c0.01-0.09,0.05-0.18,0.13-0.25c0.08-0.07,0.16-0.12,0.25-0.14c0.11-0.01,0.19,0.01,0.26,0.07
				c0.32,0.26,0.56,0.55,0.71,0.87c0.14,0.31,0.21,0.67,0.21,1.1c0,0.29-0.08,0.6-0.23,0.95c-0.09,0.2-0.26,0.48-0.5,0.86
				c-0.2,0.3-0.33,0.53-0.4,0.67c-0.12,0.24-0.18,0.45-0.18,0.63c0,0.31,0.04,0.58,0.13,0.81c0.09,0.26,0.23,0.49,0.42,0.68
				c0.07,0.06,0.09,0.14,0.07,0.24c-0.02,0.09-0.07,0.18-0.15,0.25c-0.08,0.08-0.18,0.13-0.28,0.15c-0.11,0.01-0.21-0.02-0.31-0.11
				c-0.27-0.27-0.47-0.59-0.59-0.96c-0.11-0.3-0.16-0.65-0.16-1.04c0-0.31,0.08-0.64,0.25-1c0.09-0.21,0.26-0.51,0.51-0.91
				c0.2-0.3,0.33-0.52,0.39-0.66c0.11-0.22,0.17-0.42,0.17-0.59c0-0.29-0.05-0.55-0.15-0.78c-0.1-0.21-0.25-0.41-0.45-0.6
				C27.58,25.93,27.55,25.84,27.55,25.74z"/>
		</g>
		<g>
			<path class="st1" d="M27.55,25.74c0.01-0.09,0.05-0.18,0.13-0.25c0.08-0.07,0.16-0.12,0.25-0.14c0.11-0.01,0.19,0.01,0.26,0.07
				c0.32,0.26,0.56,0.55,0.71,0.87c0.14,0.31,0.21,0.67,0.21,1.1c0,0.29-0.08,0.6-0.23,0.95c-0.09,0.2-0.26,0.48-0.5,0.86
				c-0.2,0.3-0.33,0.53-0.4,0.67c-0.12,0.24-0.18,0.45-0.18,0.63c0,0.31,0.04,0.58,0.13,0.81c0.09,0.26,0.23,0.49,0.42,0.68
				c0.07,0.06,0.09,0.14,0.07,0.24c-0.02,0.09-0.07,0.18-0.15,0.25c-0.08,0.08-0.18,0.13-0.28,0.15c-0.11,0.01-0.21-0.02-0.31-0.11
				c-0.27-0.27-0.47-0.59-0.59-0.96c-0.11-0.3-0.16-0.65-0.16-1.04c0-0.31,0.08-0.64,0.25-1c0.09-0.21,0.26-0.51,0.51-0.91
				c0.2-0.3,0.33-0.52,0.39-0.66c0.11-0.22,0.17-0.42,0.17-0.59c0-0.29-0.05-0.55-0.15-0.78c-0.1-0.21-0.25-0.41-0.45-0.6
				C27.58,25.93,27.55,25.84,27.55,25.74z"/>
		</g>
	</g>
	<path class="st1" d="M14,16.25v24c0,0.41,0.34,0.75,0.75,0.75h22.5c0.41,0,0.75-0.34,0.75-0.75v-24H14z M26,37.25
		c-4.56,0-8.25-3.69-8.25-8.25s3.69-8.25,8.25-8.25s8.25,3.69,8.25,8.25S30.56,37.25,26,37.25z"/>
	<g class="st1">
		<g>
			<path d="M37.25,11h-22.5C14.34,11,14,11.34,14,11.75v4.5h24v-4.5C38,11.34,37.66,11,37.25,11z M22.81,14.79
				c0,0.29-0.23,0.52-0.53,0.52h-5.7c-0.29,0-0.53-0.23-0.53-0.52v-2.32c0-0.29,0.23-0.53,0.53-0.53h5.7c0.29,0,0.53,0.23,0.53,0.53
				V14.79z M29.94,15.31c-0.93,0-1.69-0.76-1.69-1.69s0.76-1.69,1.69-1.69s1.69,0.76,1.69,1.69S30.87,15.31,29.94,15.31z
				 M34.62,15.31c-0.93,0-1.69-0.76-1.69-1.69s0.76-1.69,1.69-1.69s1.69,0.76,1.69,1.69S35.55,15.31,34.62,15.31z"/>
		</g>
		<g>
			<path class="st1" d="M37.25,11h-22.5C14.34,11,14,11.34,14,11.75v4.5h24v-4.5C38,11.34,37.66,11,37.25,11z M22.81,14.79
				c0,0.29-0.23,0.52-0.53,0.52h-5.7c-0.29,0-0.53-0.23-0.53-0.52v-2.32c0-0.29,0.23-0.53,0.53-0.53h5.7c0.29,0,0.53,0.23,0.53,0.53
				V14.79z M29.94,15.31c-0.93,0-1.69-0.76-1.69-1.69s0.76-1.69,1.69-1.69s1.69,0.76,1.69,1.69S30.87,15.31,29.94,15.31z
				 M34.62,15.31c-0.93,0-1.69-0.76-1.69-1.69s0.76-1.69,1.69-1.69s1.69,0.76,1.69,1.69S35.55,15.31,34.62,15.31z"/>
		</g>
	</g>
	<g>
		<g>
			<path class="st2" d="M22.43,24.74c0.01-0.09,0.05-0.18,0.13-0.25c0.08-0.07,0.16-0.12,0.25-0.14c0.11-0.01,0.19,0.01,0.26,0.07
				c0.32,0.26,0.56,0.55,0.71,0.87c0.14,0.31,0.21,0.67,0.21,1.1c0,0.29-0.08,0.6-0.23,0.95c-0.09,0.2-0.26,0.48-0.5,0.86
				c-0.2,0.3-0.33,0.53-0.4,0.67c-0.12,0.24-0.18,0.45-0.18,0.63c0,0.31,0.04,0.58,0.13,0.81c0.09,0.26,0.23,0.49,0.42,0.68
				c0.07,0.06,0.09,0.14,0.07,0.24c-0.02,0.09-0.07,0.18-0.15,0.25c-0.08,0.08-0.18,0.13-0.28,0.15c-0.11,0.01-0.21-0.02-0.31-0.11
				c-0.27-0.27-0.47-0.59-0.59-0.96c-0.11-0.3-0.16-0.65-0.16-1.04c0-0.31,0.08-0.64,0.25-1c0.09-0.21,0.26-0.51,0.51-0.91
				c0.2-0.3,0.33-0.52,0.39-0.66c0.11-0.22,0.17-0.42,0.17-0.59c0-0.29-0.05-0.55-0.15-0.78c-0.1-0.21-0.25-0.41-0.45-0.6
				C22.45,24.93,22.42,24.84,22.43,24.74z"/>
		</g>
		<g>
			<path class="st3" d="M22.43,24.74c0.01-0.09,0.05-0.18,0.13-0.25c0.08-0.07,0.16-0.12,0.25-0.14c0.11-0.01,0.19,0.01,0.26,0.07
				c0.32,0.26,0.56,0.55,0.71,0.87c0.14,0.31,0.21,0.67,0.21,1.1c0,0.29-0.08,0.6-0.23,0.95c-0.09,0.2-0.26,0.48-0.5,0.86
				c-0.2,0.3-0.33,0.53-0.4,0.67c-0.12,0.24-0.18,0.45-0.18,0.63c0,0.31,0.04,0.58,0.13,0.81c0.09,0.26,0.23,0.49,0.42,0.68
				c0.07,0.06,0.09,0.14,0.07,0.24c-0.02,0.09-0.07,0.18-0.15,0.25c-0.08,0.08-0.18,0.13-0.28,0.15c-0.11,0.01-0.21-0.02-0.31-0.11
				c-0.27-0.27-0.47-0.59-0.59-0.96c-0.11-0.3-0.16-0.65-0.16-1.04c0-0.31,0.08-0.64,0.25-1c0.09-0.21,0.26-0.51,0.51-0.91
				c0.2-0.3,0.33-0.52,0.39-0.66c0.11-0.22,0.17-0.42,0.17-0.59c0-0.29-0.05-0.55-0.15-0.78c-0.1-0.21-0.25-0.41-0.45-0.6
				C22.45,24.93,22.42,24.84,22.43,24.74z"/>
		</g>
	</g>
	<g>
		<g>
			<path class="st2" d="M26.55,24.74c0.01-0.09,0.05-0.18,0.13-0.25c0.08-0.07,0.16-0.12,0.25-0.14c0.11-0.01,0.19,0.01,0.26,0.07
				c0.32,0.26,0.56,0.55,0.71,0.87c0.14,0.31,0.21,0.67,0.21,1.1c0,0.29-0.08,0.6-0.23,0.95c-0.09,0.2-0.26,0.48-0.5,0.86
				c-0.2,0.3-0.33,0.53-0.4,0.67c-0.12,0.24-0.18,0.45-0.18,0.63c0,0.31,0.04,0.58,0.13,0.81c0.09,0.26,0.23,0.49,0.42,0.68
				c0.07,0.06,0.09,0.14,0.07,0.24c-0.02,0.09-0.07,0.18-0.15,0.25c-0.08,0.08-0.18,0.13-0.28,0.15c-0.11,0.01-0.21-0.02-0.31-0.11
				c-0.27-0.27-0.47-0.59-0.59-0.96c-0.11-0.3-0.16-0.65-0.16-1.04c0-0.31,0.08-0.64,0.25-1c0.09-0.21,0.26-0.51,0.51-0.91
				c0.2-0.3,0.33-0.52,0.39-0.66c0.11-0.22,0.17-0.42,0.17-0.59c0-0.29-0.05-0.55-0.15-0.78c-0.1-0.21-0.25-0.41-0.45-0.6
				C26.58,24.93,26.55,24.84,26.55,24.74z"/>
		</g>
		<g>
			<path class="st3" d="M26.55,24.74c0.01-0.09,0.05-0.18,0.13-0.25c0.08-0.07,0.16-0.12,0.25-0.14c0.11-0.01,0.19,0.01,0.26,0.07
				c0.32,0.26,0.56,0.55,0.71,0.87c0.14,0.31,0.21,0.67,0.21,1.1c0,0.29-0.08,0.6-0.23,0.95c-0.09,0.2-0.26,0.48-0.5,0.86
				c-0.2,0.3-0.33,0.53-0.4,0.67c-0.12,0.24-0.18,0.45-0.18,0.63c0,0.31,0.04,0.58,0.13,0.81c0.09,0.26,0.23,0.49,0.42,0.68
				c0.07,0.06,0.09,0.14,0.07,0.24c-0.02,0.09-0.07,0.18-0.15,0.25c-0.08,0.08-0.18,0.13-0.28,0.15c-0.11,0.01-0.21-0.02-0.31-0.11
				c-0.27-0.27-0.47-0.59-0.59-0.96c-0.11-0.3-0.16-0.65-0.16-1.04c0-0.31,0.08-0.64,0.25-1c0.09-0.21,0.26-0.51,0.51-0.91
				c0.2-0.3,0.33-0.52,0.39-0.66c0.11-0.22,0.17-0.42,0.17-0.59c0-0.29-0.05-0.55-0.15-0.78c-0.1-0.21-0.25-0.41-0.45-0.6
				C26.58,24.93,26.55,24.84,26.55,24.74z"/>
		</g>
	</g>
	<circle class="st4" cx="25" cy="28" r="8.25"/>
	<path class="st2" d="M13,15.25v24c0,0.41,0.34,0.75,0.75,0.75h22.5c0.41,0,0.75-0.34,0.75-0.75v-24H13z M25,36.25
		c-4.56,0-8.25-3.69-8.25-8.25s3.69-8.25,8.25-8.25s8.25,3.69,8.25,8.25S29.56,36.25,25,36.25z"/>
	<g>
		<g>
			<path class="st5" d="M36.25,10h-22.5C13.34,10,13,10.34,13,10.75v4.5h24v-4.5C37,10.34,36.66,10,36.25,10z M21.81,13.79
				c0,0.29-0.23,0.52-0.53,0.52h-5.7c-0.29,0-0.53-0.23-0.53-0.52v-2.32c0-0.29,0.23-0.53,0.53-0.53h5.7c0.29,0,0.53,0.23,0.53,0.53
				V13.79z M28.94,14.31c-0.93,0-1.69-0.76-1.69-1.69s0.76-1.69,1.69-1.69s1.69,0.76,1.69,1.69S29.87,14.31,28.94,14.31z
				 M33.62,14.31c-0.93,0-1.69-0.76-1.69-1.69s0.76-1.69,1.69-1.69s1.69,0.76,1.69,1.69S34.55,14.31,33.62,14.31z"/>
		</g>
		<g>
			<path class="st5" d="M36.25,10h-22.5C13.34,10,13,10.34,13,10.75v4.5h24v-4.5C37,10.34,36.66,10,36.25,10z M21.81,13.79
				c0,0.29-0.23,0.52-0.53,0.52h-5.7c-0.29,0-0.53-0.23-0.53-0.52v-2.32c0-0.29,0.23-0.53,0.53-0.53h5.7c0.29,0,0.53,0.23,0.53,0.53
				V13.79z M28.94,14.31c-0.93,0-1.69-0.76-1.69-1.69s0.76-1.69,1.69-1.69s1.69,0.76,1.69,1.69S29.87,14.31,28.94,14.31z
				 M33.62,14.31c-0.93,0-1.69-0.76-1.69-1.69s0.76-1.69,1.69-1.69s1.69,0.76,1.69,1.69S34.55,14.31,33.62,14.31z"/>
		</g>
	</g>
	<g>
		<g>
			<path class="st5" d="M24.99,19.71c-4.56,0-8.26,3.7-8.26,8.26s3.7,8.26,8.26,8.26s8.26-3.7,8.26-8.26S29.55,19.71,24.99,19.71z
				 M24.99,34.45c-3.58,0-6.48-2.9-6.48-6.48c0-3.58,2.9-6.48,6.48-6.48s6.48,2.9,6.48,6.48C31.47,31.55,28.57,34.45,24.99,34.45z"
				/>
		</g>
		<g>
			<path class="st6" d="M24.99,19.71c-4.56,0-8.26,3.7-8.26,8.26s3.7,8.26,8.26,8.26s8.26-3.7,8.26-8.26S29.55,19.71,24.99,19.71z
				 M24.99,34.45c-3.58,0-6.48-2.9-6.48-6.48c0-3.58,2.9-6.48,6.48-6.48s6.48,2.9,6.48,6.48C31.47,31.55,28.57,34.45,24.99,34.45z"
				/>
		</g>
	</g>
  <rect
    width="50"
    height="50"
    x="0"
    y="0"
    style="fill:#ffffff;fill-opacity:0" />
</g>
</svg>
