<?xml version="1.0" encoding="utf-8"?>
<!-- Generator: Adobe Illustrator 25.4.1, SVG Export Plug-In . SVG Version: 6.00 Build 0)  -->
<svg version="1.1" id="레이어_1" xmlns="http://www.w3.org/2000/svg" xmlns:xlink="http://www.w3.org/1999/xlink" x="0px"
	 y="0px" viewBox="0 0 50 50" style="enable-background:new 0 0 50 50;" xml:space="preserve">
<style type="text/css">
	.그림자_x0020_만들기{fill:none;}
	.모퉁이_x0020_둥글리기_x0020_2pt{fill:#FFFFFF;stroke:#231815;stroke-miterlimit:10;}
	.라이브_x0020_반사_x0020_X{fill:none;}
	.경사_x0020_부드럽게{fill:url(#SVGID_1_);}
	.황혼{fill:#FFFFFF;}
	.잎_GS{fill:#FFE100;}
	.퐁파두르_GS{fill-rule:evenodd;clip-rule:evenodd;fill:#4CACE2;}
	.st0{opacity:0.3;clip-path:url(#SVGID_00000139274282022825699280000012414522363410735544_);}
	.st1{opacity:0.3;}
	.st2{fill:#E8E8E8;}
	.st3{fill:#9E9E9E;}
	.st4{fill:#FFFFFF;}
</style>
<linearGradient id="SVGID_1_" gradientUnits="userSpaceOnUse" x1="0" y1="0" x2="0.7071" y2="0.7071">
	<stop  offset="0" style="stop-color:#E6E7EA"/>
	<stop  offset="0.1747" style="stop-color:#E2E3E6"/>
	<stop  offset="0.3538" style="stop-color:#D6D7DA"/>
	<stop  offset="0.5349" style="stop-color:#C1C4C5"/>
	<stop  offset="0.7174" style="stop-color:#A4A8A8"/>
	<stop  offset="0.8993" style="stop-color:#808584"/>
	<stop  offset="1" style="stop-color:#686E6C"/>
</linearGradient>
<g>
	<g>
		<defs>
			<rect id="SVGID_00000000214176004769894430000009008617373603616687_" width="50" height="50"/>
		</defs>
		<clipPath id="SVGID_00000152264757073784184400000010840758127326473607_">
			<use xlink:href="#SVGID_00000000214176004769894430000009008617373603616687_"  style="overflow:visible;"/>
		</clipPath>
		<polygon style="opacity:0.3;clip-path:url(#SVGID_00000152264757073784184400000010840758127326473607_);" points="62.17,38.5 
			38.04,64.04 12.17,39.12 11.96,11.74 38.81,11.6 		"/>
	</g>
	<circle class="st1" cx="26" cy="26" r="1.25"/>
	<g class="st1">
		<g>
			<path d="M36,11H16c-2.76,0-5,2.24-5,5v20c0,2.76,2.24,5,5,5h20c2.76,0,5-2.24,5-5V16C41,13.24,38.76,11,36,11z M26,38.5
				c-6.9,0-12.5-5.6-12.5-12.5c0-6.9,5.6-12.5,12.5-12.5S38.5,19.1,38.5,26C38.5,32.9,32.9,38.5,26,38.5z"/>
		</g>
		<g>
			<path d="M36,11H16c-2.76,0-5,2.24-5,5v20c0,2.76,2.24,5,5,5h20c2.76,0,5-2.24,5-5V16C41,13.24,38.76,11,36,11z M26,38.5
				c-6.9,0-12.5-5.6-12.5-12.5c0-6.9,5.6-12.5,12.5-12.5S38.5,19.1,38.5,26C38.5,32.9,32.9,38.5,26,38.5z"/>
		</g>
	</g>
	<circle class="st2" cx="25" cy="25" r="1.25"/>
	<g>
		<g>
			<path class="st3" d="M24.63,27.47c0.02,0.65-0.15,1.53-0.9,2.54c-1.59,2.13-3.25,1.05-2.92,3.04c0.33,1.99,4.44,4.2,7.06,1.01
				c1.95-2.37,0.03-5.41-1.58-6.92c-0.38,0.23-0.82,0.37-1.29,0.37C24.87,27.5,24.75,27.48,24.63,27.47z"/>
			<path class="st3" d="M34.06,22.13c-2.37-1.95-5.41-0.03-6.92,1.58c0.23,0.38,0.37,0.82,0.37,1.29c0,0.13-0.02,0.25-0.04,0.37
				c0.65-0.02,1.53,0.15,2.54,0.9c2.13,1.59,1.05,3.25,3.04,2.92C35.03,28.86,37.24,24.75,34.06,22.13z"/>
			<path class="st3" d="M25.38,22.54c-0.02-0.65,0.15-1.53,0.9-2.54c1.59-2.13,3.25-1.05,2.92-3.04c-0.33-1.99-4.44-4.2-7.06-1.01
				c-1.95,2.37-0.03,5.41,1.58,6.92c0.38-0.23,0.82-0.37,1.29-0.37C25.13,22.5,25.25,22.52,25.38,22.54z"/>
			<path class="st3" d="M22.54,24.63c-0.65,0.02-1.53-0.15-2.54-0.9c-2.13-1.59-1.05-3.25-3.04-2.92c-1.99,0.33-4.2,4.44-1.01,7.06
				c2.37,1.95,5.41,0.03,6.92-1.58c-0.23-0.38-0.37-0.82-0.37-1.29C22.5,24.88,22.52,24.75,22.54,24.63z"/>
		</g>
		<g>
			<path class="st3" d="M24.63,27.47c0.02,0.65-0.15,1.53-0.9,2.54c-1.59,2.13-3.25,1.05-2.92,3.04c0.33,1.99,4.44,4.2,7.06,1.01
				c1.95-2.37,0.03-5.41-1.58-6.92c-0.38,0.23-0.82,0.37-1.29,0.37C24.87,27.5,24.75,27.48,24.63,27.47z"/>
			<path class="st3" d="M34.06,22.13c-2.37-1.95-5.41-0.03-6.92,1.58c0.23,0.38,0.37,0.82,0.37,1.29c0,0.13-0.02,0.25-0.04,0.37
				c0.65-0.02,1.53,0.15,2.54,0.9c2.13,1.59,1.05,3.25,3.04,2.92C35.03,28.86,37.24,24.75,34.06,22.13z"/>
			<path class="st3" d="M25.38,22.54c-0.02-0.65,0.15-1.53,0.9-2.54c1.59-2.13,3.25-1.05,2.92-3.04c-0.33-1.99-4.44-4.2-7.06-1.01
				c-1.95,2.37-0.03,5.41,1.58,6.92c0.38-0.23,0.82-0.37,1.29-0.37C25.13,22.5,25.25,22.52,25.38,22.54z"/>
			<path class="st3" d="M22.54,24.63c-0.65,0.02-1.53-0.15-2.54-0.9c-2.13-1.59-1.05-3.25-3.04-2.92c-1.99,0.33-4.2,4.44-1.01,7.06
				c2.37,1.95,5.41,0.03,6.92-1.58c-0.23-0.38-0.37-0.82-0.37-1.29C22.5,24.88,22.52,24.75,22.54,24.63z"/>
		</g>
	</g>
	<g>
		<g>
			<path class="st2" d="M35,10H15c-2.76,0-5,2.24-5,5v20c0,2.76,2.24,5,5,5h20c2.76,0,5-2.24,5-5V15C40,12.24,37.76,10,35,10z
				 M25,37.5c-6.9,0-12.5-5.6-12.5-12.5c0-6.9,5.6-12.5,12.5-12.5S37.5,18.1,37.5,25C37.5,31.9,31.9,37.5,25,37.5z"/>
		</g>
		<g>
			<path class="st4" d="M35,10H15c-2.76,0-5,2.24-5,5v20c0,2.76,2.24,5,5,5h20c2.76,0,5-2.24,5-5V15C40,12.24,37.76,10,35,10z
				 M25,37.5c-6.9,0-12.5-5.6-12.5-12.5c0-6.9,5.6-12.5,12.5-12.5S37.5,18.1,37.5,25C37.5,31.9,31.9,37.5,25,37.5z"/>
		</g>
	</g>
  <rect
    width="50"
    height="50"
    x="0"
    y="0"
    style="fill:#ffffff;fill-opacity:0" />
</g>
</svg>
