<?xml version="1.0" encoding="UTF-8" standalone="no"?>
<!-- Generator: Adobe Illustrator 25.4.1, SVG Export Plug-In . SVG Version: 6.00 Build 0)  -->

<svg
   version="1.1"
   id="레이어_1"
   x="0px"
   y="0px"
   viewBox="0 0 54 54"
   style="enable-background:new 0 0 54 54;"
   xml:space="preserve"
   xmlns:xlink="http://www.w3.org/1999/xlink"
   xmlns="http://www.w3.org/2000/svg"
   xmlns:svg="http://www.w3.org/2000/svg"><defs
   id="defs92" />
<style
   type="text/css"
   id="style2">
	.그림자_x0020_만들기{fill:none;}
	.모퉁이_x0020_둥글리기_x0020_2pt{fill:#FFFFFF;stroke:#231815;stroke-miterlimit:10;}
	.라이브_x0020_반사_x0020_X{fill:none;}
	.경사_x0020_부드럽게{fill:url(#SVGID_1_);}
	.황혼{fill:#FFFFFF;}
	.잎_GS{fill:#FFE100;}
	.퐁파두르_GS{fill-rule:evenodd;clip-rule:evenodd;fill:#4CACE2;}
	.st0{fill:#0C3A1A;}
	.st1{opacity:0.3;}
	.st2{fill:#247C4B;}
	.st3{opacity:0.3;clip-path:url(#SVGID_00000123412787702704583570000016708202026587347099_);}
	.st4{fill:#9E9E9E;}
	.st5{opacity:0.7;}
	.st6{fill:#E8E8E8;}
</style>
<linearGradient
   id="SVGID_1_"
   gradientUnits="userSpaceOnUse"
   x1="0"
   y1="0"
   x2="0.7071"
   y2="0.7071">
	<stop
   offset="0"
   style="stop-color:#E6E7EA"
   id="stop4" />
	<stop
   offset="0.1747"
   style="stop-color:#E2E3E6"
   id="stop6" />
	<stop
   offset="0.3538"
   style="stop-color:#D6D7DA"
   id="stop8" />
	<stop
   offset="0.5349"
   style="stop-color:#C1C4C5"
   id="stop10" />
	<stop
   offset="0.7174"
   style="stop-color:#A4A8A8"
   id="stop12" />
	<stop
   offset="0.8993"
   style="stop-color:#808584"
   id="stop14" />
	<stop
   offset="1"
   style="stop-color:#686E6C"
   id="stop16" />
</linearGradient>
<g
   id="g87">
	
	<g
   id="g43">
		<defs
   id="defs36">
			<circle
   id="SVGID_00000111900342289006769650000017281106867705189534_"
   cx="27"
   cy="27"
   r="25" />
		</defs>
		<clipPath
   id="SVGID_00000016763777534228947730000010633615876772190619_">
			<use
   xlink:href="#SVGID_00000111900342289006769650000017281106867705189534_"
   style="overflow:visible;"
   id="use38" />
		</clipPath>
		<polygon
   style="opacity:0.3;clip-path:url(#SVGID_00000016763777534228947730000010633615876772190619_);"
   points="66.29,41.7     44.15,64.03 11.6,30.59 15.42,13.01 38.54,12.98   "
   clip-path="url(#SVGID_00000016763777534228947730000010633615876772190619_)"
   id="polygon41" />
	</g>
	<polygon
   class="st4"
   points="28.19,38.87 28.19,30.96 25.82,30.96 25.82,38.87 24.63,38.87 24.63,41.24 29.38,41.24 29.38,38.87     "
   id="polygon45" />
	<g
   class="st5"
   id="g65">
		<path
   d="M22.16,26.41l-0.5,5.54h-7.91c-0.87,0-1.42-0.71-1.23-1.58l0.88-3.96H22.16z"
   id="path47" />
		<polygon
   points="22.73,20.08 22.3,24.82 13.77,24.82 14.83,20.08   "
   id="polygon49" />
		<path
   d="M23.29,13.75l-0.42,4.75h-7.69l0.71-3.16c0.19-0.87,0.88-1.58,1.53-1.58H23.29z"
   id="path51" />
		<polygon
   points="31.52,13.75 31.84,18.5 24.15,18.5 24.47,13.75   "
   id="polygon53" />
		<polygon
   points="31.94,20.08 32.26,24.82 23.73,24.82 24.04,20.08   "
   id="polygon55" />
		<path
   d="M40.1,15.33l0.71,3.16h-7.69l-0.42-4.75h5.88C39.22,13.75,39.91,14.46,40.1,15.33z"
   id="path57" />
		<polygon
   points="41.16,20.08 42.22,24.82 33.69,24.82 33.26,20.08   "
   id="polygon59" />
		<path
   d="M42.58,26.41l0.88,3.96c0.19,0.87-0.36,1.58-1.23,1.58h-7.91l-0.5-5.54H42.58z"
   id="path61" />
		<polygon
   points="32.37,26.41 32.74,31.94 23.25,31.94 23.62,26.41   "
   id="polygon63" />
	</g>
	<g
   id="g85">
		<path
   class="st6"
   d="M21.17,25.42l-0.5,5.54h-7.91c-0.87,0-1.42-0.71-1.23-1.58l0.88-3.96H21.17z"
   id="path67" />
		<polygon
   class="st6"
   points="21.74,19.09 21.31,23.84 12.78,23.84 13.84,19.09   "
   id="polygon69" />
		<path
   class="st6"
   d="M22.3,12.76l-0.42,4.75h-7.69l0.71-3.16c0.19-0.87,0.88-1.58,1.53-1.58H22.3z"
   id="path71" />
		<polygon
   class="st6"
   points="30.53,12.76 30.85,17.51 23.16,17.51 23.48,12.76   "
   id="polygon73" />
		<polygon
   class="st6"
   points="30.96,19.09 31.27,23.84 22.74,23.84 23.06,19.09   "
   id="polygon75" />
		<path
   class="st6"
   d="M39.11,14.34l0.71,3.16h-7.69l-0.42-4.75h5.88C38.23,12.76,38.92,13.47,39.11,14.34z"
   id="path77" />
		<polygon
   class="st6"
   points="40.17,19.09 41.23,23.84 32.7,23.84 32.27,19.09   "
   id="polygon79" />
		<path
   class="st6"
   d="M41.59,25.42l0.88,3.96c0.19,0.87-0.36,1.58-1.23,1.58h-7.91l-0.5-5.54H41.59z"
   id="path81" />
		<polygon
   class="st6"
   points="31.38,25.42 31.75,30.96 22.26,30.96 22.63,25.42   "
   id="polygon83" />
	</g>
  <circle
    cx="27"
    cy="27"
    r="27"
    style="fill:#ffffff;fill-opacity:0"/>
</g>
</svg>
