<?xml version="1.0" encoding="utf-8"?>
<!-- Generator: Adobe Illustrator 25.4.1, SVG Export Plug-In . SVG Version: 6.00 Build 0)  -->
<svg version="1.1" id="레이어_1" xmlns="http://www.w3.org/2000/svg" xmlns:xlink="http://www.w3.org/1999/xlink" x="0px"
	 y="0px" viewBox="0 0 50 50" style="enable-background:new 0 0 50 50;" xml:space="preserve">
<style type="text/css">
	.그림자_x0020_만들기{fill:none;}
	.모퉁이_x0020_둥글리기_x0020_2pt{fill:#FFFFFF;stroke:#231815;stroke-miterlimit:10;}
	.라이브_x0020_반사_x0020_X{fill:none;}
	.경사_x0020_부드럽게{fill:url(#SVGID_1_);}
	.황혼{fill:#FFFFFF;}
	.잎_GS{fill:#FFE100;}
	.퐁파두르_GS{fill-rule:evenodd;clip-rule:evenodd;fill:#4CACE2;}
	.st0{opacity:0.3;clip-path:url(#SVGID_00000108301707696072323210000015219023241947591557_);}
	.st1{fill:#6B6B6B;}
	.st2{fill:#E8E8E8;}
	.st3{fill:#9E9E9E;}
	.st4{opacity:0.3;}
</style>
<linearGradient id="SVGID_1_" gradientUnits="userSpaceOnUse" x1="0" y1="0" x2="0.7071" y2="0.7071">
	<stop  offset="0" style="stop-color:#E6E7EA"/>
	<stop  offset="0.1747" style="stop-color:#E2E3E6"/>
	<stop  offset="0.3538" style="stop-color:#D6D7DA"/>
	<stop  offset="0.5349" style="stop-color:#C1C4C5"/>
	<stop  offset="0.7174" style="stop-color:#A4A8A8"/>
	<stop  offset="0.8993" style="stop-color:#808584"/>
	<stop  offset="1" style="stop-color:#686E6C"/>
</linearGradient>
<g>
	<g>
		<defs>
			<rect id="SVGID_00000102545167063946931380000013635615329903678397_" width="50" height="50"/>
		</defs>
		<clipPath id="SVGID_00000032606254999073437600000007093346345859856573_">
			<use xlink:href="#SVGID_00000102545167063946931380000013635615329903678397_"  style="overflow:visible;"/>
		</clipPath>
		<polygon style="opacity:0.3;clip-path:url(#SVGID_00000032606254999073437600000007093346345859856573_);" points="62.46,41.09 
			37.06,64.35 10.45,39.71 11,33.68 10.93,19.61 17,23.96 17,11.96 19,11.96 21,13.96 25.49,7.46 30.56,13.29 32.93,11.99 		"/>
	</g>
	<path class="st1" d="M35,24.3v-6.08c0-0.4-0.32-0.72-0.72-0.72h-1.15v-4.95V12.5v-0.05c0-0.32-0.26-0.57-0.57-0.57H31.2
		c-0.32,0-0.57,0.26-0.57,0.57v0.11c0,0.32,0.26,0.57,0.57,0.57h0.68v4.38h-1.15c-0.4,0-0.72,0.32-0.72,0.72v4.83
		C32.5,23.06,32.5,24.31,35,24.3C35,24.31,35,24.3,35,24.3z"/>
	<path class="st2" d="M30.72,30h3.56c0.4,0,0.72-0.32,0.72-0.72V24.3c0,0,0,0,0,0c-2.5,0-2.5-1.25-5-1.25v6.22
		C30,29.68,30.32,30,30.72,30z"/>
	<path class="st1" d="M20,23.06v-4.83c0-0.4-0.32-0.72-0.72-0.72h-1.15v-4.38h0.68c0.32,0,0.57-0.26,0.57-0.57v-0.11
		c0-0.32-0.26-0.57-0.57-0.57h-1.36c-0.32,0-0.57,0.26-0.57,0.57v0.05v0.05v4.95h-1.15c-0.4,0-0.72,0.32-0.72,0.72v6.08
		C17.5,24.3,17.5,23.06,20,23.06C20,23.06,20,23.06,20,23.06z"/>
	<path class="st2" d="M15.72,30h3.56c0.4,0,0.72-0.32,0.72-0.72v-6.22c0,0,0,0,0,0c-2.5,0-2.5,1.25-5,1.25v4.97
		C15,29.68,15.32,30,15.72,30z"/>
	<path class="st3" d="M10,20v18.75c0,0.68,0.56,1.25,1.25,1.25h27.51c0.68,0,1.25-0.56,1.25-1.25V20c0-0.35-0.28-0.63-0.63-0.63
		s-0.62,0.28-0.62,0.63v3.19c-0.67,0.16-1.12,0.44-1.64,0.68C36.6,24.11,36,24.31,35,24.31V25h0v4h0v0.28c0,0.4-0.33,0.72-0.72,0.72
		h-3.56C30.33,30,30,29.68,30,29.28v-6.22c-2.49,0.01-2.49,1.26-5,1.26c-1.25,0-1.88-0.31-2.49-0.63c-0.63-0.32-1.26-0.63-2.5-0.63
		v6.22c0,0.4-0.33,0.72-0.72,0.72h-3.56C15.33,30,15,29.68,15,29.28V29h0v-4h0v-0.69c-1.99,0-2.4-0.8-3.75-1.12V20
		c0-0.35-0.28-0.63-0.62-0.63C10.28,19.38,10,19.66,10,20z M29.31,34.97c0-0.52,0.37-0.94,0.82-0.94h1.52v-1.52
		c0-0.46,0.42-0.82,0.94-0.82c0.52,0,0.94,0.37,0.94,0.82v1.52h1.52c0.46,0,0.82,0.42,0.82,0.94c0,0.52-0.37,0.94-0.82,0.94h-1.52
		v1.52c0,0.46-0.42,0.83-0.94,0.83c-0.52,0-0.94-0.37-0.94-0.83V35.9h-1.52C29.68,35.9,29.31,35.48,29.31,34.97z M14.31,34.97
		c0-0.52,0.37-0.94,0.82-0.94h4.91c0.46,0,0.82,0.42,0.82,0.94c0,0.52-0.37,0.94-0.82,0.94h-4.91
		C14.68,35.9,14.31,35.48,14.31,34.97z"/>
	<polygon class="st4" points="26.49,8.5 22.41,14.22 25.67,14.22 25.13,18.69 29.3,12.76 26.09,12.76 	"/>
	<polygon class="st2" points="25.49,7.5 21.41,13.22 24.67,13.22 24.13,17.69 28.3,11.76 25.09,11.76 	"/>
  <rect
    width="50"
    height="50"
    x="0"
    y="0"
    style="fill:#ffffff;fill-opacity:0" />
</g>
</svg>
