<?xml version="1.0" encoding="utf-8"?>
<!-- Generator: Adobe Illustrator 25.4.1, SVG Export Plug-In . SVG Version: 6.00 Build 0)  -->
<svg version="1.1" id="레이어_1" xmlns="http://www.w3.org/2000/svg" xmlns:xlink="http://www.w3.org/1999/xlink" x="0px"
	 y="0px" viewBox="0 0 50 50" style="enable-background:new 0 0 50 50;" xml:space="preserve">
<style type="text/css">
	.그림자_x0020_만들기{fill:none;}
	.모퉁이_x0020_둥글리기_x0020_2pt{fill:#FFFFFF;stroke:#231815;stroke-miterlimit:10;}
	.라이브_x0020_반사_x0020_X{fill:none;}
	.경사_x0020_부드럽게{fill:url(#SVGID_1_);}
	.황혼{fill:#FFFFFF;}
	.잎_GS{fill:#FFE100;}
	.퐁파두르_GS{fill-rule:evenodd;clip-rule:evenodd;fill:#4CACE2;}
	.st0{clip-path:url(#SVGID_00000183971366498491465360000002656227508819721872_);}
	.st1{opacity:0.3;}
	.st2{fill:#E8E8E8;}
	.st3{opacity:0.75;fill:#E8E8E8;}
	.st4{opacity:0.5;fill:#E8E8E8;}
	.st5{fill:#9E9E9E;}
	.st6{opacity:0.2;}
	.st7{fill:#6B6B6B;}
</style>
<linearGradient id="SVGID_1_" gradientUnits="userSpaceOnUse" x1="0" y1="0" x2="0.7071" y2="0.7071">
	<stop  offset="0" style="stop-color:#E6E7EA"/>
	<stop  offset="0.1747" style="stop-color:#E2E3E6"/>
	<stop  offset="0.3538" style="stop-color:#D6D7DA"/>
	<stop  offset="0.5349" style="stop-color:#C1C4C5"/>
	<stop  offset="0.7174" style="stop-color:#A4A8A8"/>
	<stop  offset="0.8993" style="stop-color:#808584"/>
	<stop  offset="1" style="stop-color:#686E6C"/>
</linearGradient>
<g>
	<g>
		<defs>
			<rect id="SVGID_00000062192760755677004360000013505108974727492522_" width="50" height="50"/>
		</defs>
		<clipPath id="SVGID_00000161609678342734296220000001390250938611601587_">
			<use xlink:href="#SVGID_00000062192760755677004360000013505108974727492522_"  style="overflow:visible;"/>
		</clipPath>
		<g style="clip-path:url(#SVGID_00000161609678342734296220000001390250938611601587_);">
			<polygon class="st1" points="64.08,39.03 37.67,65.57 10.34,38.54 10.31,31 30.15,30.57 30.38,24.29 26.03,20.69 24.26,14.67 
				26.95,10.05 32,14 36.44,10.02 			"/>
		</g>
	</g>
	<path class="st2" d="M26.3,20.76c-0.15,0-0.31-0.06-0.42-0.18c-1.32-1.4-2.05-3.22-2.05-5.12c0-2,0.78-3.87,2.2-5.29
		c0.23-0.23,0.59-0.23,0.82,0c0.23,0.23,0.23,0.59,0,0.82c-1.2,1.2-1.85,2.78-1.85,4.47c0,1.61,0.61,3.15,1.73,4.33
		c0.22,0.23,0.21,0.6-0.02,0.82C26.59,20.71,26.45,20.76,26.3,20.76z"/>
	<path class="st3" d="M27.93,19.14c-0.16,0-0.31-0.06-0.43-0.19c-0.88-0.96-1.36-2.2-1.36-3.49c0-1.38,0.54-2.68,1.52-3.66
		c0.23-0.23,0.59-0.23,0.82,0c0.23,0.23,0.23,0.59,0,0.82c-0.76,0.76-1.18,1.77-1.18,2.84c0,1,0.38,1.96,1.06,2.71
		c0.22,0.24,0.2,0.6-0.04,0.82C28.21,19.09,28.07,19.14,27.93,19.14z"/>
	<path class="st3" d="M34.57,19.29c-0.15,0-0.3-0.06-0.41-0.17c-0.23-0.23-0.23-0.59,0-0.82c0.76-0.76,1.18-1.77,1.18-2.84
		c0-1.12-0.48-2.2-1.31-2.96c-0.24-0.22-0.26-0.58-0.04-0.82c0.22-0.24,0.58-0.25,0.82-0.04c1.08,0.98,1.69,2.37,1.69,3.82
		c0,1.38-0.54,2.68-1.52,3.66C34.87,19.23,34.72,19.29,34.57,19.29z"/>
	<path class="st2" d="M36.2,20.92c-0.15,0-0.3-0.06-0.41-0.17c-0.23-0.23-0.23-0.59,0-0.82c1.2-1.2,1.86-2.78,1.86-4.47
		c0-1.75-0.71-3.38-2-4.59c-0.23-0.22-0.24-0.59-0.02-0.82c0.22-0.23,0.59-0.24,0.82-0.02c1.52,1.43,2.36,3.37,2.36,5.44
		c0,2-0.78,3.87-2.2,5.29C36.5,20.86,36.35,20.92,36.2,20.92z"/>
	<path class="st2" d="M26.3,20.76c-0.15,0-0.31-0.06-0.42-0.18c-1.32-1.4-2.05-3.22-2.05-5.12c0-2,0.78-3.87,2.2-5.29
		c0.23-0.23,0.59-0.23,0.82,0c0.23,0.23,0.23,0.59,0,0.82c-1.2,1.2-1.85,2.78-1.85,4.47c0,1.61,0.61,3.15,1.73,4.33
		c0.22,0.23,0.21,0.6-0.02,0.82C26.59,20.71,26.45,20.76,26.3,20.76z"/>
	<path class="st2" d="M36.2,20.92c-0.15,0-0.3-0.06-0.41-0.17c-0.23-0.23-0.23-0.59,0-0.82c1.2-1.2,1.86-2.78,1.86-4.47
		c0-1.75-0.71-3.38-2-4.59c-0.23-0.22-0.24-0.59-0.02-0.82c0.22-0.23,0.59-0.24,0.82-0.02c1.52,1.43,2.36,3.37,2.36,5.44
		c0,2-0.78,3.87-2.2,5.29C36.5,20.86,36.35,20.92,36.2,20.92z"/>
	<path class="st4" d="M32.95,17.66c-0.15,0-0.3-0.06-0.41-0.17c-0.23-0.23-0.23-0.59,0-0.82c0.33-0.33,0.51-0.76,0.51-1.22
		c0-0.51-0.22-0.97-0.63-1.31c-0.25-0.21-0.28-0.57-0.07-0.82c0.2-0.25,0.57-0.28,0.82-0.07c0.66,0.55,1.05,1.36,1.05,2.2
		c0,0.77-0.3,1.49-0.85,2.04C33.24,17.61,33.09,17.66,32.95,17.66z"/>
	<path class="st4" d="M29.56,17.5c-0.17,0-0.33-0.07-0.44-0.21c-0.45-0.53-0.68-1.16-0.68-1.84c0-0.77,0.3-1.49,0.85-2.04
		c0.23-0.23,0.59-0.23,0.82,0c0.23,0.23,0.23,0.59,0,0.82c-0.33,0.33-0.51,0.76-0.51,1.22c0,0.4,0.14,0.78,0.41,1.09
		c0.21,0.25,0.18,0.61-0.07,0.82C29.83,17.46,29.7,17.5,29.56,17.5z"/>
	<path class="st5" d="M30.15,29.63l0.62-14.08c0-0.26,0.21-0.46,0.46-0.46c0.26,0,0.46,0.21,0.46,0.46l0.62,14.08"/>
	<g class="st6">
		<g>
			<path d="M39.9,31.5H12.03c-0.51,0-0.93,0.42-0.93,0.93v6.51c0,0.51,0.42,0.93,0.93,0.93H39.9c0.51,0,0.93-0.42,0.93-0.93v-6.51
				C40.83,31.91,40.42,31.5,39.9,31.5z M14.81,35.68c-0.77,0-1.39-0.62-1.39-1.39c0-0.77,0.62-1.39,1.39-1.39
				c0.77,0,1.39,0.62,1.39,1.39C16.21,35.05,15.58,35.68,14.81,35.68z M19.46,35.68c-0.77,0-1.39-0.62-1.39-1.39
				c0-0.77,0.62-1.39,1.39-1.39s1.39,0.62,1.39,1.39C20.85,35.05,20.23,35.68,19.46,35.68z M27.82,35.68
				c-0.77,0-1.39-0.62-1.39-1.39c0-0.77,0.62-1.39,1.39-1.39s1.39,0.62,1.39,1.39C29.22,35.05,28.59,35.68,27.82,35.68z
				 M32.47,35.68c-0.77,0-1.39-0.62-1.39-1.39c0-0.77,0.62-1.39,1.39-1.39c0.77,0,1.39,0.62,1.39,1.39
				C33.86,35.05,33.24,35.68,32.47,35.68z M37.12,35.68c-0.77,0-1.39-0.62-1.39-1.39c0-0.77,0.62-1.39,1.39-1.39
				c0.77,0,1.39,0.62,1.39,1.39C38.51,35.05,37.89,35.68,37.12,35.68z"/>
		</g>
		<g>
			<path d="M39.9,31.5H12.03c-0.51,0-0.93,0.42-0.93,0.93v6.51c0,0.51,0.42,0.93,0.93,0.93H39.9c0.51,0,0.93-0.42,0.93-0.93v-6.51
				C40.83,31.91,40.42,31.5,39.9,31.5z M14.81,35.68c-0.77,0-1.39-0.62-1.39-1.39c0-0.77,0.62-1.39,1.39-1.39
				c0.77,0,1.39,0.62,1.39,1.39C16.21,35.05,15.58,35.68,14.81,35.68z M19.46,35.68c-0.77,0-1.39-0.62-1.39-1.39
				c0-0.77,0.62-1.39,1.39-1.39s1.39,0.62,1.39,1.39C20.85,35.05,20.23,35.68,19.46,35.68z M27.82,35.68
				c-0.77,0-1.39-0.62-1.39-1.39c0-0.77,0.62-1.39,1.39-1.39s1.39,0.62,1.39,1.39C29.22,35.05,28.59,35.68,27.82,35.68z
				 M32.47,35.68c-0.77,0-1.39-0.62-1.39-1.39c0-0.77,0.62-1.39,1.39-1.39c0.77,0,1.39,0.62,1.39,1.39
				C33.86,35.05,33.24,35.68,32.47,35.68z M37.12,35.68c-0.77,0-1.39-0.62-1.39-1.39c0-0.77,0.62-1.39,1.39-1.39
				c0.77,0,1.39,0.62,1.39,1.39C38.51,35.05,37.89,35.68,37.12,35.68z"/>
		</g>
	</g>
	<g>
		<g>
			<path class="st5" d="M38.97,30.57H11.1c-0.51,0-0.93,0.42-0.93,0.93V38c0,0.51,0.42,0.93,0.93,0.93h27.88
				c0.51,0,0.93-0.42,0.93-0.93V31.5C39.9,30.98,39.49,30.57,38.97,30.57z M13.88,34.75c-0.77,0-1.39-0.62-1.39-1.39
				c0-0.77,0.62-1.39,1.39-1.39c0.77,0,1.39,0.62,1.39,1.39C15.28,34.12,14.66,34.75,13.88,34.75z M18.53,34.75
				c-0.77,0-1.39-0.62-1.39-1.39c0-0.77,0.62-1.39,1.39-1.39s1.39,0.62,1.39,1.39C19.92,34.12,19.3,34.75,18.53,34.75z M26.89,34.75
				c-0.77,0-1.39-0.62-1.39-1.39c0-0.77,0.62-1.39,1.39-1.39s1.39,0.62,1.39,1.39C28.29,34.12,27.67,34.75,26.89,34.75z
				 M31.54,34.75c-0.77,0-1.39-0.62-1.39-1.39c0-0.77,0.62-1.39,1.39-1.39c0.77,0,1.39,0.62,1.39,1.39
				C32.93,34.12,32.31,34.75,31.54,34.75z M36.19,34.75c-0.77,0-1.39-0.62-1.39-1.39c0-0.77,0.62-1.39,1.39-1.39
				c0.77,0,1.39,0.62,1.39,1.39C37.58,34.12,36.96,34.75,36.19,34.75z"/>
		</g>
		<g>
			<path class="st2" d="M38.97,30.57H11.1c-0.51,0-0.93,0.42-0.93,0.93V38c0,0.51,0.42,0.93,0.93,0.93h27.88
				c0.51,0,0.93-0.42,0.93-0.93V31.5C39.9,30.98,39.49,30.57,38.97,30.57z M13.88,34.75c-0.77,0-1.39-0.62-1.39-1.39
				c0-0.77,0.62-1.39,1.39-1.39c0.77,0,1.39,0.62,1.39,1.39C15.28,34.12,14.66,34.75,13.88,34.75z M18.53,34.75
				c-0.77,0-1.39-0.62-1.39-1.39c0-0.77,0.62-1.39,1.39-1.39s1.39,0.62,1.39,1.39C19.92,34.12,19.3,34.75,18.53,34.75z M26.89,34.75
				c-0.77,0-1.39-0.62-1.39-1.39c0-0.77,0.62-1.39,1.39-1.39s1.39,0.62,1.39,1.39C28.29,34.12,27.67,34.75,26.89,34.75z
				 M31.54,34.75c-0.77,0-1.39-0.62-1.39-1.39c0-0.77,0.62-1.39,1.39-1.39c0.77,0,1.39,0.62,1.39,1.39
				C32.93,34.12,32.31,34.75,31.54,34.75z M36.19,34.75c-0.77,0-1.39-0.62-1.39-1.39c0-0.77,0.62-1.39,1.39-1.39
				c0.77,0,1.39,0.62,1.39,1.39C37.58,34.12,36.96,34.75,36.19,34.75z"/>
		</g>
	</g>
	<rect x="10.17" y="36.14" class="st7" width="29.74" height="0.93"/>
  <rect
    width="50"
    height="50"
    x="0"
    y="0"
    style="fill:#ffffff;fill-opacity:0" />
</g>
</svg>
