<svg width="27" height="22" viewBox="0 0 27 22" fill="none" xmlns="http://www.w3.org/2000/svg">
<path fill-rule="evenodd" clip-rule="evenodd" d="M11.7453 20H14V17H12.9291C12.9758 16.6734 13 16.3395 13 16C13 14.0696 12.2186 12.3217 10.9549 11.0554L12.928 9L16.128 12.3333L21.168 7.09167L23 9V4H18.2L20.032 5.90833L16.128 9.975L12.928 6.64167L9.67117 10.0388C8.60385 9.38007 7.34631 9 6 9C4.9264 9 3.90926 9.24169 3 9.67363V0H27V17H16V20H20V21H10.899C11.2111 20.6942 11.4946 20.3594 11.7453 20Z" fill="#626262"/>
<path fill-rule="evenodd" clip-rule="evenodd" d="M6 22C9.31371 22 12 19.3137 12 16C12 12.6863 9.31371 10 6 10C2.68629 10 0 12.6863 0 16C0 19.3137 2.68629 22 6 22ZM7.00649 15.2177H8.93027C8.99314 15.2177 9.0237 15.2918 8.9783 15.3331L3.92828 19.9807C3.87764 20.0279 3.79555 19.9816 3.81214 19.9159L4.59283 16.9039H3.06988C3.01574 16.9039 2.98255 16.8475 3.00962 16.8029L5.27222 13.0337C5.28444 13.0126 5.30802 13 5.33247 13H8.68139C8.7399 13 8.77221 13.0649 8.73641 13.1095L7.00649 15.2177Z" fill="#626262"/>
</svg>
