<svg width="24" height="24" viewBox="0 0 24 24" fill="none" xmlns="http://www.w3.org/2000/svg">
<mask id="path-1-inside-1_89_1930" fill="#459450">
<path fill-rule="evenodd" clip-rule="evenodd" d="M0 0V24H12H24V0H0ZM18 5H16V19H18V5ZM13 14H11L11.0007 19H13.0007L13 14ZM6 15H8V19H6V15ZM13 8H11L11.0007 12H13.0007L13 8Z"/>
</mask>
<path fill-rule="evenodd" clip-rule="evenodd" d="M0 0V24H12H24V0H0ZM18 5H16V19H18V5ZM13 14H11L11.0007 19H13.0007L13 14ZM6 15H8V19H6V15ZM13 8H11L11.0007 12H13.0007L13 8Z" fill="#459450"/>
<path d="M0 24H-1V25H0V24ZM0 0V-1H-1V0H0ZM24 24V25H25V24H24ZM24 0H25V-1H24V0ZM16 5V4H15V5H16ZM18 5H19V4H18V5ZM16 19H15V20H16V19ZM18 19V20H19V19H18ZM11 14V13H9.99986L10 14.0001L11 14ZM13 14L14 13.9999L13.9999 13H13V14ZM11.0007 19L10.0007 19.0001L10.0009 20H11.0007V19ZM13.0007 19V20H14.0009L14.0007 18.9999L13.0007 19ZM8 15H9V14H8V15ZM6 15V14H5V15H6ZM8 19V20H9V19H8ZM6 19H5V20H6V19ZM11 8V7H9.99982L10 8.00018L11 8ZM13 8L14 7.99982L13.9998 7H13V8ZM11.0007 12L10.0007 12.0002L10.0009 13H11.0007V12ZM13.0007 12V13H14.0009L14.0007 11.9998L13.0007 12ZM1 24V0H-1V24H1ZM12 23H0V25H12V23ZM24 23H12V25H24V23ZM23 0V24H25V0H23ZM0 1H24V-1H0V1ZM16 6H18V4H16V6ZM17 19V5H15V19H17ZM18 18H16V20H18V18ZM17 5V19H19V5H17ZM11 15H13V13H11V15ZM12.0007 18.9999L12 13.9999L10 14.0001L10.0007 19.0001L12.0007 18.9999ZM13.0007 18H11.0007V20H13.0007V18ZM12 14.0001L12.0007 19.0001L14.0007 18.9999L14 13.9999L12 14.0001ZM8 14H6V16H8V14ZM9 19V15H7V19H9ZM6 20H8V18H6V20ZM5 15V19H7V15H5ZM11 9H13V7H11V9ZM12.0007 11.9998L12 7.99982L10 8.00018L10.0007 12.0002L12.0007 11.9998ZM13.0007 11H11.0007V13H13.0007V11ZM12 8.00018L12.0007 12.0002L14.0007 11.9998L14 7.99982L12 8.00018Z" fill="#459450" mask="url(#path-1-inside-1_89_1930)"/>
</svg>
