<svg width="24" height="22" viewBox="0 0 24 22" fill="none" xmlns="http://www.w3.org/2000/svg">
<path fill-rule="evenodd" clip-rule="evenodd" d="M9 0H3V2H7L11 6H22V19H24V4H13L9 0Z" fill="#626262"/>
<path fill-rule="evenodd" clip-rule="evenodd" d="M6 3H0V22H21V7H10L6 3ZM11.6953 15.2893H12.1469L15 18.1481L14.1481 19L11.2893 16.1469V15.6953L11.1349 15.5352C10.4831 16.0955 9.63694 16.4328 8.71641 16.4328C6.66381 16.4328 5 14.769 5 12.7164C5 10.6638 6.66381 9 8.71641 9C10.769 9 12.4328 10.6638 12.4328 12.7164C12.4328 13.6369 12.0955 14.4831 11.5352 15.1349L11.6953 15.2893ZM6.14351 12.7164C6.14351 14.1401 7.29274 15.2893 8.71641 15.2893C10.1401 15.2893 11.2893 14.1401 11.2893 12.7164C11.2893 11.2927 10.1401 10.1435 8.71641 10.1435C7.29274 10.1435 6.14351 11.2927 6.14351 12.7164Z" fill="#626262"/>
</svg>
