<svg width="24" height="22" viewBox="0 0 24 22" fill="none" xmlns="http://www.w3.org/2000/svg">
<path fill-rule="evenodd" clip-rule="evenodd" d="M2 16V1H0V18H11V21H7V22H17V21H13V18H24V1H14V16H8H2ZM22 12V16H19H16V12H22ZM22 11V7H16V11H19H22Z" fill="#626262"/>
<path d="M21 10V8H17V10H19H21Z" fill="#626262"/>
<path d="M21 15V13H17V15H19H20H21Z" fill="#626262"/>
<path fill-rule="evenodd" clip-rule="evenodd" d="M3 0V15H8H13V0H3ZM11 4H5V3H11V4ZM5 6H11V5H5V6ZM9.2 12H5V11H9.2V12ZM11 10H5V9H11V10ZM11 8H5V7H11V8Z" fill="#626262"/>
</svg>
