<svg width="78" height="82" viewBox="0 0 78 82" fill="none" xmlns="http://www.w3.org/2000/svg">
<path d="M11.3281 59.415H22.7971M17.0626 63.3249H34.2661" stroke="white" stroke-width="1.5" stroke-linecap="round" stroke-linejoin="round"/>
<g filter="url(#filter0_d_525_171)">
<path d="M61.1541 17.6902C59.8351 16.3697 59.8351 14.2264 61.1541 12.9043C62.4765 11.5838 64.6157 11.5838 65.9364 12.9043C67.2554 14.2264 67.257 16.3697 65.9364 17.6902L65.9347 17.6902C64.614 19.0107 62.4732 19.0107 61.1541 17.6902ZM61.1541 17.6902L56.9552 21.8408C52.5574 17.6471 46.1944 14.6909 39.6425 14.6909C33.0906 14.6909 26.6911 17.4265 22.2453 21.9453L18.1292 17.6902M39.6425 8.77031C37.775 8.77031 36.2605 7.25573 36.2605 5.38615C36.2621 3.51657 37.775 2.00033 39.6425 2.00033C41.51 2.00198 43.0245 3.51657 43.0228 5.38615C43.0228 7.25573 41.51 8.77031 39.6425 8.77031ZM39.6425 8.77031L39.6425 14.6926M18.1308 12.9043C16.8118 11.5821 14.6693 11.5838 13.3486 12.9043C12.0296 14.2264 12.0296 16.3697 13.3486 17.6919C14.6693 19.0124 16.8102 19.0124 18.1308 17.6919C19.4498 16.3697 19.4498 14.2264 18.1308 12.9043Z" stroke="white" stroke-width="2.5" stroke-linecap="round" stroke-linejoin="round"/>
</g>
<g filter="url(#filter1_d_525_171)">
<path d="M19.8813 32.4472H9.08618C7.88231 32.4472 6.90639 33.4231 6.90639 34.627V68.8808M72.0925 68.8808V34.627C72.0925 33.4231 71.1166 32.4472 69.9127 32.4472H59.1176M35.8665 73.2404H43.1324M46.0388 41.1663C46.0388 44.778 43.1111 47.7057 39.4995 47.7057C35.8878 47.7057 32.9601 44.778 32.9601 41.1663C32.9601 37.5547 35.8878 34.627 39.4995 34.627C43.1111 34.627 46.0388 37.5547 46.0388 41.1663ZM55.4846 36.8068H51.8188C51.665 36.3722 51.4897 35.9505 51.2931 35.5388L53.8861 32.9458C54.738 32.0939 54.738 30.7148 53.8861 29.8628L50.8045 26.7797C49.9525 25.9278 48.5734 25.9278 47.7214 26.7797L45.127 29.3727C44.7153 29.1761 44.2936 29.0008 43.859 28.8455V25.1798C43.859 23.9759 42.8831 23 41.6792 23H37.3197C36.1158 23 35.1399 23.9759 35.1399 25.1798V28.8455C34.7068 28.9994 34.2851 29.1747 33.8733 29.3713L31.2804 26.7783C30.4284 25.9263 29.0493 25.9263 28.1973 26.7783L25.1143 29.8614C24.2623 30.7133 24.2623 32.0924 25.1143 32.9444L27.7072 35.5374C27.5106 35.9491 27.3354 36.3708 27.1815 36.8039H23.5157C22.3119 36.8039 21.336 37.7798 21.336 38.9837V43.3433C21.336 44.5472 22.3119 45.5231 23.5157 45.5231H27.1815C27.3354 45.9576 27.5106 46.3793 27.7072 46.7896L25.1143 49.384C24.2623 50.236 24.2623 51.6151 25.1143 52.4656L28.1973 55.5487C29.0493 56.4007 30.4284 56.4007 31.2804 55.5487L33.8747 52.9557C34.2865 53.1523 34.7082 53.3276 35.1413 53.4815V57.1486C35.1413 58.3539 36.1186 59.3284 37.3211 59.3284H41.6807C42.8845 59.3284 43.8605 58.3539 43.8605 57.1486V53.4815C44.295 53.3276 44.7167 53.1523 45.1284 52.9557L47.7228 55.5487C48.5748 56.4007 49.9539 56.4007 50.8059 55.5487L53.8875 52.4656C54.7395 51.6137 54.7395 50.2346 53.8875 49.384L51.2945 46.7896C51.4912 46.3793 51.6664 45.9562 51.8203 45.5231H55.4874C56.6927 45.5231 57.6672 44.5472 57.6672 43.3433V38.9851C57.6672 37.7813 56.6927 36.8053 55.4874 36.8053L55.4846 36.8068ZM4 73.967C4 76.7765 6.27667 79.0532 9.08618 79.0532H69.9127C72.7208 79.0532 74.9989 76.7765 74.9989 73.967V71.0606C74.9989 69.8568 74.023 68.8808 72.8191 68.8808H6.17979C4.97592 68.8808 4 69.8568 4 71.0606V73.967Z" stroke="white" stroke-width="2.5" stroke-linecap="round" stroke-linejoin="round"/>
</g>
<g filter="url(#filter2_d_525_171)">
<path d="M11 46.4458V44.266M13.1798 37C11.9759 37 11 37.9759 11 39.1798V41.3596" stroke="white" stroke-width="1.5" stroke-linecap="round" stroke-linejoin="round"/>
</g>
<g filter="url(#filter3_d_525_171)">
<path d="M67.1797 54.9996L67.1797 57.1793M64.9999 64.4453C66.2038 64.4453 67.1797 63.4694 67.1797 62.2655L67.1797 60.0857" stroke="white" stroke-width="1.5" stroke-linecap="round" stroke-linejoin="round"/>
</g>
<defs>
<filter id="filter0_d_525_171" x="11.1094" y="0.75" width="57.0664" height="23.4453" filterUnits="userSpaceOnUse" color-interpolation-filters="sRGB">
<feFlood flood-opacity="0" result="BackgroundImageFix"/>
<feColorMatrix in="SourceAlpha" type="matrix" values="0 0 0 0 0 0 0 0 0 0 0 0 0 0 0 0 0 0 127 0" result="hardAlpha"/>
<feOffset dy="1"/>
<feColorMatrix type="matrix" values="0 0 0 0 0 0 0 0 0 0 0 0 0 0 0 0 0 0 0.05 0"/>
<feBlend mode="normal" in2="BackgroundImageFix" result="effect1_dropShadow_525_171"/>
<feBlend mode="normal" in="SourceGraphic" in2="effect1_dropShadow_525_171" result="shape"/>
</filter>
<filter id="filter1_d_525_171" x="2.75" y="21.75" width="73.5" height="59.5527" filterUnits="userSpaceOnUse" color-interpolation-filters="sRGB">
<feFlood flood-opacity="0" result="BackgroundImageFix"/>
<feColorMatrix in="SourceAlpha" type="matrix" values="0 0 0 0 0 0 0 0 0 0 0 0 0 0 0 0 0 0 127 0" result="hardAlpha"/>
<feOffset dy="1"/>
<feColorMatrix type="matrix" values="0 0 0 0 0 0 0 0 0 0 0 0 0 0 0 0 0 0 0.05 0"/>
<feBlend mode="normal" in2="BackgroundImageFix" result="effect1_dropShadow_525_171"/>
<feBlend mode="normal" in="SourceGraphic" in2="effect1_dropShadow_525_171" result="shape"/>
</filter>
<filter id="filter2_d_525_171" x="10.25" y="36.25" width="3.67969" height="11.9453" filterUnits="userSpaceOnUse" color-interpolation-filters="sRGB">
<feFlood flood-opacity="0" result="BackgroundImageFix"/>
<feColorMatrix in="SourceAlpha" type="matrix" values="0 0 0 0 0 0 0 0 0 0 0 0 0 0 0 0 0 0 127 0" result="hardAlpha"/>
<feOffset dy="1"/>
<feColorMatrix type="matrix" values="0 0 0 0 0 0 0 0 0 0 0 0 0 0 0 0 0 0 0.05 0"/>
<feBlend mode="normal" in2="BackgroundImageFix" result="effect1_dropShadow_525_171"/>
<feBlend mode="normal" in="SourceGraphic" in2="effect1_dropShadow_525_171" result="shape"/>
</filter>
<filter id="filter3_d_525_171" x="64.25" y="54.25" width="3.67969" height="11.9453" filterUnits="userSpaceOnUse" color-interpolation-filters="sRGB">
<feFlood flood-opacity="0" result="BackgroundImageFix"/>
<feColorMatrix in="SourceAlpha" type="matrix" values="0 0 0 0 0 0 0 0 0 0 0 0 0 0 0 0 0 0 127 0" result="hardAlpha"/>
<feOffset dy="1"/>
<feColorMatrix type="matrix" values="0 0 0 0 0 0 0 0 0 0 0 0 0 0 0 0 0 0 0.05 0"/>
<feBlend mode="normal" in2="BackgroundImageFix" result="effect1_dropShadow_525_171"/>
<feBlend mode="normal" in="SourceGraphic" in2="effect1_dropShadow_525_171" result="shape"/>
</filter>
</defs>
</svg>
