<svg width="149" height="16" viewBox="0 0 149 16" fill="none" xmlns="http://www.w3.org/2000/svg">
<path d="M7.78 2.59162L6.6 1.41162L0 8.01162L6.6 14.6116L7.78 13.4316L2.36 8.01162L7.78 2.59162Z" fill="#777777"/>
<path d="M12.3515 2.59162L11.1715 1.41162L4.57153 8.01162L11.1715 14.6116L12.3515 13.4316L6.93153 8.01162L12.3515 2.59162Z" fill="#777777"/>
<g clip-path="url(#clip0_49_29)">
<path d="M141.381 13.4318L142.561 14.6118L149.161 8.01182L142.561 1.41182L141.381 2.59182L146.801 8.01182L141.381 13.4318Z" fill="#777777"/>
<path d="M136.809 13.4318L137.989 14.6118L144.589 8.01182L137.989 1.41182L136.809 2.59182L142.229 8.01182L136.809 13.4318Z" fill="#777777"/>
</g>
<path d="M54.78 2.70393L53.6 1.52393L47 8.12392L53.6 14.7239L54.78 13.5439L49.36 8.12392L54.78 2.70393Z" fill="#777777"/>
<g clip-path="url(#clip1_49_29)">
<path d="M92.3809 13.5441L93.5609 14.7241L100.161 8.12412L93.5609 1.52412L92.3809 2.70412L97.8009 8.12412L92.3809 13.5441Z" fill="#777777"/>
</g>
<defs>
<clipPath id="clip0_49_29">
<rect width="16" height="16" fill="white" transform="translate(133)"/>
</clipPath>
<clipPath id="clip1_49_29">
<rect width="16" height="16" fill="white" transform="translate(84)"/>
</clipPath>
</defs>
</svg>
