<?xml version="1.0" encoding="UTF-8" standalone="no"?>
<!-- Generator: Adobe Illustrator 25.4.1, SVG Export Plug-In . SVG Version: 6.00 Build 0)  -->

<svg
   version="1.1"
   id="레이어_1"
   x="0px"
   y="0px"
   viewBox="0 0 54 54"
   style="enable-background:new 0 0 54 54;"
   xml:space="preserve"
   xmlns:xlink="http://www.w3.org/1999/xlink"
   xmlns="http://www.w3.org/2000/svg"
   xmlns:svg="http://www.w3.org/2000/svg"><defs
   id="defs120" />
<style
   type="text/css"
   id="style2">
	.그림자_x0020_만들기{fill:none;}
	.모퉁이_x0020_둥글리기_x0020_2pt{fill:#FFFFFF;stroke:#231815;stroke-miterlimit:10;}
	.라이브_x0020_반사_x0020_X{fill:none;}
	.경사_x0020_부드럽게{fill:url(#SVGID_1_);}
	.황혼{fill:#FFFFFF;}
	.잎_GS{fill:#FFE100;}
	.퐁파두르_GS{fill-rule:evenodd;clip-rule:evenodd;fill:#4CACE2;}
	.st0{fill:#0C3A1A;}
	.st1{opacity:0.3;}
	.st2{fill:#247C4B;}
	.st3{opacity:0.3;clip-path:url(#SVGID_00000061453453071174644880000017643708531318293944_);}
	.st4{fill:#9E9E9E;}
	.st5{fill:#D2D3D4;}
	.st6{fill:#E8E8E8;}
</style>
<linearGradient
   id="SVGID_1_"
   gradientUnits="userSpaceOnUse"
   x1="0"
   y1="0"
   x2="0.7071"
   y2="0.7071">
	<stop
   offset="0"
   style="stop-color:#E6E7EA"
   id="stop4" />
	<stop
   offset="0.1747"
   style="stop-color:#E2E3E6"
   id="stop6" />
	<stop
   offset="0.3538"
   style="stop-color:#D6D7DA"
   id="stop8" />
	<stop
   offset="0.5349"
   style="stop-color:#C1C4C5"
   id="stop10" />
	<stop
   offset="0.7174"
   style="stop-color:#A4A8A8"
   id="stop12" />
	<stop
   offset="0.8993"
   style="stop-color:#808584"
   id="stop14" />
	<stop
   offset="1"
   style="stop-color:#686E6C"
   id="stop16" />
</linearGradient>
<g
   id="g115">
	
	<g
   id="g43">
		<defs
   id="defs36">
			<circle
   id="SVGID_00000000201118922959178710000015242880930512097411_"
   cx="27"
   cy="27"
   r="25" />
		</defs>
		<clipPath
   id="SVGID_00000160883879043057124730000011189888839433566366_">
			<use
   xlink:href="#SVGID_00000000201118922959178710000015242880930512097411_"
   style="overflow:visible;"
   id="use38" />
		</clipPath>
		<polygon
   style="opacity:0.3;clip-path:url(#SVGID_00000160883879043057124730000011189888839433566366_);"
   points="66.29,41.7     44.15,64.03 13,35 26,26 27,9   "
   clip-path="url(#SVGID_00000160883879043057124730000011189888839433566366_)"
   id="polygon41" />
	</g>
	<circle
   class="st1"
   cx="27.77"
   cy="26.96"
   r="1.54"
   id="circle45" />
	<g
   class="st1"
   id="g55">
		<g
   id="g49">
			<path
   d="M25.1,28.5l-11.75,6.78c-0.29,0.17-0.14,0.61,0.19,0.57l10.68-1.75c1.16-0.14,2.06-0.97,2.35-2.18l0.48-1.97     C26.25,29.75,25.54,29.26,25.1,28.5z"
   id="path47" />
		</g>
		<g
   id="g53">
			<path
   d="M25.1,28.5l-11.75,6.78c-0.29,0.17-0.14,0.61,0.19,0.57l10.68-1.75c1.16-0.14,2.06-0.97,2.35-2.18l0.48-1.97     C26.25,29.75,25.54,29.26,25.1,28.5z"
   id="path51" />
		</g>
	</g>
	<circle
   class="st4"
   cx="26.77"
   cy="25.96"
   r="1.54"
   id="circle57" />
	<g
   id="g61">
		<path
   class="st5"
   d="M29.44,27.5l11.75,6.78c0.29,0.17,0.59-0.18,0.4-0.45l-6.85-8.37c-0.7-0.93-1.88-1.3-3.06-0.95l-1.95,0.57    C29.95,25.87,29.88,26.74,29.44,27.5z"
   id="path59" />
	</g>
	<path
   class="st4"
   d="M28.31,28.63l-0.01-0.01c-0.24,0.14-0.49,0.24-0.76,0.31l-0.45,2.3c-0.25,1.29-0.92,2.29-1.86,2.88   l-1.32,10.14c-0.12,0.92,0.6,1.74,1.53,1.74h2.73c0.91,0,1.62-0.78,1.54-1.68L28.31,28.63z"
   id="path63" />
	<g
   class="st1"
   id="g73">
		<g
   id="g67">
			<path
   d="M27.77,23.87V10.3c0-0.33-0.45-0.42-0.58-0.12l-3.82,10.12c-0.46,1.07-0.19,2.27,0.71,3.13l1.47,1.4     C26.1,24.25,26.89,23.87,27.77,23.87z"
   id="path65" />
		</g>
		<g
   id="g71">
			<path
   d="M27.77,23.87V10.3c0-0.33-0.45-0.42-0.58-0.12l-3.82,10.12c-0.46,1.07-0.19,2.27,0.71,3.13l1.47,1.4     C26.1,24.25,26.89,23.87,27.77,23.87z"
   id="path69" />
		</g>
	</g>
	<g
   class="st1"
   id="g83">
		<g
   id="g77">
			<path
   d="M30.44,29.5l11.75,6.78c0.29,0.17,0.59-0.18,0.4-0.45l-6.85-8.37c-0.7-0.93-1.88-1.3-3.06-0.95l-1.95,0.57     C30.95,27.87,30.88,28.74,30.44,29.5z"
   id="path75" />
		</g>
		<g
   id="g81">
			<path
   d="M30.44,29.5l11.75,6.78c0.29,0.17,0.59-0.18,0.4-0.45l-6.85-8.37c-0.7-0.93-1.88-1.3-3.06-0.95l-1.95,0.57     C30.95,27.87,30.88,28.74,30.44,29.5z"
   id="path79" />
		</g>
	</g>
	<g
   id="g93">
		<g
   id="g87">
			<path
   class="st6"
   d="M29.44,27.5l11.75,6.78c0.29,0.17,0.59-0.18,0.4-0.45l-6.85-8.37c-0.7-0.93-1.88-1.3-3.06-0.95l-1.95,0.57     C29.95,25.87,29.88,26.74,29.44,27.5z"
   id="path85" />
		</g>
		<g
   id="g91">
			<path
   class="st5"
   d="M29.44,27.5l11.75,6.78c0.29,0.17,0.59-0.18,0.4-0.45l-6.85-8.37c-0.7-0.93-1.88-1.3-3.06-0.95l-1.95,0.57     C29.95,25.87,29.88,26.74,29.44,27.5z"
   id="path89" />
		</g>
	</g>
	<g
   id="g103">
		<g
   id="g97">
			<path
   class="st6"
   d="M26.77,22.87V9.3c0-0.33-0.45-0.42-0.58-0.12l-3.82,10.12c-0.46,1.07-0.19,2.27,0.71,3.13l1.47,1.4     C25.1,23.25,25.89,22.87,26.77,22.87z"
   id="path95" />
		</g>
		<g
   id="g101">
			<path
   class="st5"
   d="M26.77,22.87V9.3c0-0.33-0.45-0.42-0.58-0.12l-3.82,10.12c-0.46,1.07-0.19,2.27,0.71,3.13l1.47,1.4     C25.1,23.25,25.89,22.87,26.77,22.87z"
   id="path99" />
		</g>
	</g>
	<g
   id="g113">
		<g
   id="g107">
			<path
   class="st6"
   d="M24.1,27.5l-11.75,6.78c-0.29,0.17-0.14,0.61,0.19,0.57l10.68-1.75c1.16-0.14,2.06-0.97,2.35-2.18l0.48-1.97     C25.25,28.75,24.54,28.26,24.1,27.5z"
   id="path105" />
		</g>
		<g
   id="g111">
			<path
   class="st5"
   d="M24.1,27.5l-11.75,6.78c-0.29,0.17-0.14,0.61,0.19,0.57l10.68-1.75c1.16-0.14,2.06-0.97,2.35-2.18l0.48-1.97     C25.25,28.75,24.54,28.26,24.1,27.5z"
   id="path109" />
		</g>
	</g>
  <circle
    cx="27"
    cy="27"
    r="27"
    style="fill:#ffffff;fill-opacity:0"/>
</g>
</svg>
