<svg width="18" height="17" viewBox="0 0 18 17" fill="none" xmlns="http://www.w3.org/2000/svg">
<path d="M8.16663 11H9.83329V12.6666H8.16663V11ZM8.16663 4.33329H9.83329V9.33329H8.16663V4.33329ZM8.99163 0.166626C4.39163 0.166626 0.666626 3.89996 0.666626 8.49996C0.666626 13.1 4.39163 16.8333 8.99163 16.8333C13.6 16.8333 17.3333 13.1 17.3333 8.49996C17.3333 3.89996 13.6 0.166626 8.99163 0.166626ZM8.99996 15.1666C5.31663 15.1666 2.33329 12.1833 2.33329 8.49996C2.33329 4.81663 5.31663 1.83329 8.99996 1.83329C12.6833 1.83329 15.6666 4.81663 15.6666 8.49996C15.6666 12.1833 12.6833 15.1666 8.99996 15.1666Z" fill="#999999"/>
</svg>
