<svg width="22" height="22" viewBox="0 0 22 22" fill="none" xmlns="http://www.w3.org/2000/svg">
<path d="M18.612 6.85H19.0467L18.8281 6.47428C17.7425 4.60838 16.012 3.16036 13.93 2.44748L13.325 2.24034L13.6291 2.80288C14.2787 4.00467 14.7775 5.3054 15.1248 6.662L15.1729 6.85H15.367H18.612ZM11.2056 2.10179L11 1.80452L10.7944 2.10179C9.86693 3.4427 9.14032 4.9293 8.65959 6.52801L8.56277 6.85H8.899H13.101H13.4372L13.3404 6.52801C12.8597 4.9293 12.1331 3.4427 11.2056 2.10179ZM2.24346 13.2606L2.29081 13.45H2.486H6.204H6.48613L6.45218 13.1699C6.36473 12.4484 6.3 11.7336 6.3 11C6.3 10.2664 6.36473 9.55158 6.45218 8.83008L6.48613 8.55H6.204H2.486H2.29081L2.24346 8.73937C2.06349 9.45926 1.95 10.2169 1.95 11C1.95 11.7831 2.06349 12.5407 2.24346 13.2606ZM3.388 15.15H2.95463L3.17158 15.5252C4.2576 17.4031 5.98852 18.8398 8.07002 19.5525L8.675 19.7597L8.37093 19.1971C7.72131 17.9953 7.22248 16.6946 6.87519 15.338L6.82706 15.15H6.633H3.388ZM6.633 6.85H6.82706L6.87519 6.662C7.22248 5.3054 7.72131 4.00467 8.37093 2.80288L8.675 2.24034L8.07002 2.44748C5.98852 3.16017 4.2576 4.59695 3.17158 6.47484L2.95463 6.85H3.388H6.633ZM10.7944 19.8982L11 20.1955L11.2056 19.8982C12.1331 18.5573 12.8597 17.0707 13.3404 15.472L13.4372 15.15H13.101H8.899H8.56277L8.65959 15.472C9.14032 17.0707 9.86693 18.5573 10.7944 19.8982ZM13.574 13.45H13.7922L13.8217 13.2338C13.9213 12.5035 14 11.7646 14 11C14 10.2355 13.9213 9.4857 13.8216 8.76571L13.7918 8.55H13.574H8.426H8.20823L8.17836 8.76571C8.07867 9.4857 8 10.2355 8 11C8 11.7646 8.07871 12.5035 8.17829 13.2338L8.20778 13.45H8.426H13.574ZM13.6291 19.1971L13.325 19.7597L13.93 19.5525C16.012 18.8396 17.7425 17.3916 18.8281 15.5257L19.0467 15.15H18.612H15.367H15.1729L15.1248 15.338C14.7775 16.6946 14.2787 17.9953 13.6291 19.1971ZM15.5478 13.1699L15.5139 13.45H15.796H19.514H19.7092L19.7565 13.2606C19.9365 12.5407 20.05 11.7831 20.05 11C20.05 10.2169 19.9365 9.45926 19.7565 8.73937L19.7092 8.55H19.514H15.796H15.5139L15.5478 8.83008C15.6353 9.55158 15.7 10.2664 15.7 11C15.7 11.7336 15.6353 12.4484 15.5478 13.1699ZM0.25 11C0.25 5.06575 5.0554 0.25 10.989 0.25C16.9341 0.25 21.75 5.06623 21.75 11C21.75 16.9338 16.9341 21.75 10.989 21.75C5.0554 21.75 0.25 16.9343 0.25 11Z" fill="#333333" stroke="white" stroke-width="0.5"/>
</svg>
