<svg width="21" height="20" viewBox="0 0 21 20" fill="none" xmlns="http://www.w3.org/2000/svg">
<path d="M1.39453 17.8125C1.39453 18.0611 1.4933 18.2996 1.66912 18.4754C1.84493 18.6512 2.08339 18.75 2.33203 18.75H17.957C18.2057 18.75 18.4441 18.6512 18.6199 18.4754C18.7958 18.2996 18.8945 18.0611 18.8945 17.8125V6.875H1.39453V17.8125ZM13.8945 8.28125C13.8945 8.23981 13.911 8.20007 13.9403 8.17076C13.9696 8.14146 14.0093 8.125 14.0508 8.125H15.6133C15.6547 8.125 15.6945 8.14146 15.7238 8.17076C15.7531 8.20007 15.7695 8.23981 15.7695 8.28125V9.84375C15.7695 9.88519 15.7531 9.92493 15.7238 9.95424C15.6945 9.98354 15.6547 10 15.6133 10H14.0508C14.0093 10 13.9696 9.98354 13.9403 9.95424C13.911 9.92493 13.8945 9.88519 13.8945 9.84375V8.28125ZM13.8945 11.4062C13.8945 11.3648 13.911 11.3251 13.9403 11.2958C13.9696 11.2665 14.0093 11.25 14.0508 11.25H15.6133C15.6547 11.25 15.6945 11.2665 15.7238 11.2958C15.7531 11.3251 15.7695 11.3648 15.7695 11.4062V12.9688C15.7695 13.0102 15.7531 13.0499 15.7238 13.0792C15.6945 13.1085 15.6547 13.125 15.6133 13.125H14.0508C14.0093 13.125 13.9696 13.1085 13.9403 13.0792C13.911 13.0499 13.8945 13.0102 13.8945 12.9688V11.4062ZM10.7695 8.28125C10.7695 8.23981 10.786 8.20007 10.8153 8.17076C10.8446 8.14146 10.8843 8.125 10.9258 8.125H12.4883C12.5297 8.125 12.5695 8.14146 12.5988 8.17076C12.6281 8.20007 12.6445 8.23981 12.6445 8.28125V9.84375C12.6445 9.88519 12.6281 9.92493 12.5988 9.95424C12.5695 9.98354 12.5297 10 12.4883 10H10.9258C10.8843 10 10.8446 9.98354 10.8153 9.95424C10.786 9.92493 10.7695 9.88519 10.7695 9.84375V8.28125ZM10.7695 11.4062C10.7695 11.3648 10.786 11.3251 10.8153 11.2958C10.8446 11.2665 10.8843 11.25 10.9258 11.25H12.4883C12.5297 11.25 12.5695 11.2665 12.5988 11.2958C12.6281 11.3251 12.6445 11.3648 12.6445 11.4062V12.9688C12.6445 13.0102 12.6281 13.0499 12.5988 13.0792C12.5695 13.1085 12.5297 13.125 12.4883 13.125H10.9258C10.8843 13.125 10.8446 13.1085 10.8153 13.0792C10.786 13.0499 10.7695 13.0102 10.7695 12.9688V11.4062ZM10.7695 14.5312C10.7695 14.4898 10.786 14.4501 10.8153 14.4208C10.8446 14.3915 10.8843 14.375 10.9258 14.375H12.4883C12.5297 14.375 12.5695 14.3915 12.5988 14.4208C12.6281 14.4501 12.6445 14.4898 12.6445 14.5312V16.0938C12.6445 16.1352 12.6281 16.1749 12.5988 16.2042C12.5695 16.2335 12.5297 16.25 12.4883 16.25H10.9258C10.8843 16.25 10.8446 16.2335 10.8153 16.2042C10.786 16.1749 10.7695 16.1352 10.7695 16.0938V14.5312ZM7.64453 11.4062C7.64453 11.3648 7.66099 11.3251 7.6903 11.2958C7.7196 11.2665 7.75934 11.25 7.80078 11.25H9.36328C9.40472 11.25 9.44446 11.2665 9.47377 11.2958C9.50307 11.3251 9.51953 11.3648 9.51953 11.4062V12.9688C9.51953 13.0102 9.50307 13.0499 9.47377 13.0792C9.44446 13.1085 9.40472 13.125 9.36328 13.125H7.80078C7.75934 13.125 7.7196 13.1085 7.6903 13.0792C7.66099 13.0499 7.64453 13.0102 7.64453 12.9688V11.4062ZM7.64453 14.5312C7.64453 14.4898 7.66099 14.4501 7.6903 14.4208C7.7196 14.3915 7.75934 14.375 7.80078 14.375H9.36328C9.40472 14.375 9.44446 14.3915 9.47377 14.4208C9.50307 14.4501 9.51953 14.4898 9.51953 14.5312V16.0938C9.51953 16.1352 9.50307 16.1749 9.47377 16.2042C9.44446 16.2335 9.40472 16.25 9.36328 16.25H7.80078C7.75934 16.25 7.7196 16.2335 7.6903 16.2042C7.66099 16.1749 7.64453 16.1352 7.64453 16.0938V14.5312ZM4.51953 11.4062C4.51953 11.3648 4.53599 11.3251 4.5653 11.2958C4.5946 11.2665 4.63434 11.25 4.67578 11.25H6.23828C6.27972 11.25 6.31946 11.2665 6.34877 11.2958C6.37807 11.3251 6.39453 11.3648 6.39453 11.4062V12.9688C6.39453 13.0102 6.37807 13.0499 6.34877 13.0792C6.31946 13.1085 6.27972 13.125 6.23828 13.125H4.67578C4.63434 13.125 4.5946 13.1085 4.5653 13.0792C4.53599 13.0499 4.51953 13.0102 4.51953 12.9688V11.4062ZM4.51953 14.5312C4.51953 14.4898 4.53599 14.4501 4.5653 14.4208C4.5946 14.3915 4.63434 14.375 4.67578 14.375H6.23828C6.27972 14.375 6.31946 14.3915 6.34877 14.4208C6.37807 14.4501 6.39453 14.4898 6.39453 14.5312V16.0938C6.39453 16.1352 6.37807 16.1749 6.34877 16.2042C6.31946 16.2335 6.27972 16.25 6.23828 16.25H4.67578C4.63434 16.25 4.5946 16.2335 4.5653 16.2042C4.53599 16.1749 4.51953 16.1352 4.51953 16.0938V14.5312Z" fill="#aaaaaa"/>
<path d="M17.957 2.5H15.7727V1.25H13.8977V2.5H6.39141V1.25H4.51641V2.5H2.33203C2.20939 2.49897 2.08775 2.52222 1.97413 2.5684C1.86051 2.61459 1.75715 2.6828 1.67 2.76911C1.58286 2.85542 1.51366 2.95811 1.46638 3.07129C1.4191 3.18446 1.39468 3.30587 1.39453 3.42852V5.625H18.8945V3.42852C18.8944 3.30587 18.87 3.18446 18.8227 3.07129C18.7754 2.95811 18.7062 2.85542 18.6191 2.76911C18.5319 2.6828 18.4286 2.61459 18.3149 2.5684C18.2013 2.52222 18.0797 2.49897 17.957 2.5Z" fill="#aaaaaa"/>
</svg>
