<svg width="22" height="22" viewBox="0 0 22 22" fill="none" xmlns="http://www.w3.org/2000/svg">
<path d="M19.5556 0H2.43222C1.07556 0 0.0122222 1.08778 0.0122222 2.44444L0 19.5556C0 20.9 1.07556 22 2.43222 22H19.5556C20.9 22 22 20.9 22 19.5556V2.44444C22 1.08778 20.9 0 19.5556 0ZM19.5556 14.6667H15.73C15.1556 14.6667 14.6911 15.0822 14.5322 15.6444C14.1044 17.1967 12.6744 18.3333 11 18.3333C9.32556 18.3333 7.89556 17.1967 7.46778 15.6444C7.30889 15.0822 6.84444 14.6667 6.27 14.6667H2.44444V3.66667C2.44444 2.99444 2.99444 2.44444 3.66667 2.44444H18.3333C19.0056 2.44444 19.5556 2.99444 19.5556 3.66667V14.6667Z" fill="#9A9EA4"/>
</svg>
