<svg width="62" height="59" viewBox="0 0 62 59" fill="none" xmlns="http://www.w3.org/2000/svg">
<g clip-path="url(#clip0_89_2288)">
<path d="M61.3385 13.9821L47.1751 0L41.4638 5.63791C41.2794 5.8199 41.005 5.87919 40.7606 5.79076C40.5829 5.72635 40.4426 5.6236 40.3432 5.48507C40.2717 5.38641 40.1889 5.26014 40.0843 5.10065C39.5032 4.21527 38.1424 2.14189 36.5645 2.14189C35.9307 2.14189 35.2689 2.47825 34.5967 3.14177C33.8474 3.88146 33.5196 4.57924 33.5942 5.27599C33.7516 6.74873 35.6629 7.97149 36.5816 8.55885C36.7432 8.66211 36.8711 8.7439 36.9726 8.81547C37.1119 8.91311 37.2165 9.05266 37.2812 9.22851C37.3697 9.46928 37.3092 9.73919 37.1253 9.92066L31.4141 15.5586L36.5795 20.6577C37.3842 19.4431 38.9098 17.3135 41.079 17.3135C42.0805 17.3135 43.0608 17.7802 43.9929 18.7003C45.0312 19.7253 45.4978 20.8044 45.3797 21.907C45.1689 23.8741 43.1608 25.2748 42.0096 26.018L47.1751 31.1171L61.3406 17.133C62.2194 16.264 62.2188 14.8501 61.3385 13.981V13.9821Z" fill="white"/>
<path d="M7.86703 30.4162C8.57337 29.5538 9.67637 29.1168 11.145 29.1168C12.6136 29.1168 13.7166 29.5538 14.4229 30.4162C15.6833 31.9544 15.2659 34.3462 14.9847 35.6753H22.2739V28.4466C20.9275 28.7242 18.504 29.1362 16.9463 27.892C16.0727 27.1947 15.63 26.1059 15.63 24.6561C15.63 23.2064 16.0727 22.1176 16.9463 21.4203C18.5045 20.1761 20.9275 20.5881 22.2739 20.8657V13.6543H2.2583C1.0129 13.6543 0 14.6547 0 15.8846V35.6753H7.30518C7.02399 34.3462 6.60661 31.9539 7.86703 30.4162Z" fill="white"/>
<path d="M16.9448 51.2158C16.0712 50.5186 15.6284 49.4297 15.6284 47.98C15.6284 46.5303 16.0712 45.4414 16.9448 44.7442C18.503 43.4999 20.9259 43.912 22.2723 44.1895V36.9961H14.2126C13.9527 36.9961 13.716 36.8473 13.6063 36.6147C13.5265 36.445 13.5001 36.2743 13.5291 36.1061C13.5493 35.9865 13.5809 35.8392 13.6213 35.6537C13.8502 34.5971 14.3261 32.3984 13.382 31.2467C12.9357 30.7023 12.2039 30.4375 11.1444 30.4375C10.0849 30.4375 9.35272 30.7023 8.90685 31.2467C7.96335 32.3984 8.43925 34.5971 8.66761 35.6532C8.708 35.8392 8.73959 35.986 8.76031 36.1076C8.78879 36.2738 8.76289 36.445 8.68315 36.6147C8.57337 36.8473 8.33671 36.9961 8.07676 36.9961H0V56.7694C0 57.9993 1.0129 58.9997 2.2583 58.9997L22.2723 58.9823V51.7705C20.9259 52.0481 18.5024 52.4601 16.9448 51.2158Z" fill="white"/>
<path d="M37.2194 36.5971C37.1397 36.4274 37.1138 36.2561 37.1428 36.0885C37.163 35.9694 37.1946 35.8221 37.235 35.6366C37.4638 34.5799 37.9397 32.3818 36.9962 31.2301C36.5499 30.6857 35.8181 30.4209 34.7586 30.4209C33.6991 30.4209 32.9669 30.6857 32.5211 31.2301C31.5775 32.3818 32.0534 34.5799 32.2818 35.6366C32.3222 35.8226 32.3538 35.9699 32.3745 36.0915C32.403 36.2561 32.3776 36.4274 32.2979 36.5971C32.1881 36.8307 31.9514 36.98 31.691 36.98H23.6126V44.9525C23.6126 45.2096 23.4614 45.4432 23.2258 45.5511C23.0544 45.6298 22.8815 45.6554 22.7116 45.6273C22.5899 45.6073 22.4408 45.5756 22.2523 45.5363C21.1819 45.3103 18.9552 44.8405 17.7885 45.7724C17.237 46.2131 16.9688 46.9354 16.9688 47.9813C16.9688 49.0272 17.237 49.75 17.7885 50.1901C18.9547 51.1215 21.1819 50.6518 22.2523 50.4263C22.4408 50.3864 22.5899 50.3553 22.7132 50.3348C22.8799 50.3067 23.0534 50.3317 23.2253 50.4105C23.4614 50.5188 23.6126 50.7525 23.6126 51.0096V58.9831H30.9178C30.6361 57.654 30.2193 55.2622 31.4797 53.724C32.186 52.8616 33.289 52.4246 34.7576 52.4246C36.2262 52.4246 37.3292 52.8616 38.0355 53.724C39.296 55.2622 38.8786 57.654 38.5974 58.9836H43.927C45.0373 58.8477 45.8829 57.9193 45.9026 56.8106V36.981H37.8268C37.5664 36.981 37.3297 36.8317 37.2205 36.5991L37.2194 36.5971Z" fill="white"/>
</g>
<defs>
<clipPath id="clip0_89_2288">
<rect width="62" height="59" fill="white"/>
</clipPath>
</defs>
</svg>
