<svg width="160" height="46" viewBox="0 0 160 46" fill="none" xmlns="http://www.w3.org/2000/svg">
<rect x="0.5" y="0.5" width="159" height="45" rx="22.5" stroke="white"/>
<path d="M41.288 26.359C41.64 26.983 42.024 27.527 42.44 27.991C42.872 28.455 43.344 28.815 43.856 29.071C44.368 29.327 44.92 29.455 45.512 29.455C46.2 29.455 46.76 29.279 47.192 28.927C47.624 28.575 47.84 28.095 47.84 27.487C47.84 26.959 47.704 26.535 47.432 26.215C47.176 25.895 46.784 25.615 46.256 25.375C45.744 25.119 45.112 24.847 44.36 24.559C43.96 24.415 43.496 24.223 42.968 23.983C42.456 23.727 41.968 23.407 41.504 23.023C41.04 22.623 40.656 22.143 40.352 21.583C40.048 21.007 39.896 20.319 39.896 19.519C39.896 18.559 40.136 17.735 40.616 17.047C41.112 16.343 41.776 15.807 42.608 15.439C43.456 15.055 44.4 14.863 45.44 14.863C46.512 14.863 47.432 15.047 48.2 15.415C48.984 15.767 49.632 16.223 50.144 16.783C50.672 17.327 51.08 17.895 51.368 18.487L48.68 19.975C48.456 19.575 48.184 19.215 47.864 18.895C47.56 18.559 47.208 18.295 46.808 18.103C46.408 17.895 45.952 17.791 45.44 17.791C44.768 17.791 44.264 17.951 43.928 18.271C43.592 18.575 43.424 18.935 43.424 19.351C43.424 19.767 43.56 20.135 43.832 20.455C44.104 20.759 44.52 21.055 45.08 21.343C45.64 21.615 46.344 21.895 47.192 22.183C47.736 22.375 48.256 22.615 48.752 22.903C49.264 23.191 49.72 23.543 50.12 23.959C50.536 24.359 50.856 24.839 51.08 25.399C51.32 25.943 51.44 26.575 51.44 27.295C51.44 28.111 51.28 28.839 50.96 29.479C50.64 30.119 50.2 30.663 49.64 31.111C49.08 31.543 48.448 31.871 47.744 32.095C47.056 32.335 46.328 32.455 45.56 32.455C44.536 32.455 43.576 32.263 42.68 31.879C41.8 31.479 41.032 30.943 40.376 30.271C39.72 29.599 39.208 28.871 38.84 28.087L41.288 26.359ZM56.5181 23.599C56.5181 24.703 56.7661 25.671 57.2621 26.503C57.7741 27.319 58.4381 27.951 59.2541 28.399C60.0701 28.831 60.9581 29.047 61.9181 29.047C62.7181 29.047 63.4301 28.943 64.0541 28.735C64.6781 28.527 65.2381 28.247 65.7341 27.895C66.2461 27.543 66.6861 27.159 67.0541 26.743V30.607C66.3661 31.151 65.6141 31.575 64.7981 31.879C63.9981 32.183 62.9821 32.335 61.7501 32.335C60.4701 32.335 59.2781 32.127 58.1741 31.711C57.0861 31.295 56.1341 30.695 55.3181 29.911C54.5181 29.127 53.8941 28.207 53.4461 27.151C53.0141 26.079 52.7981 24.895 52.7981 23.599C52.7981 22.303 53.0141 21.127 53.4461 20.071C53.8941 18.999 54.5181 18.071 55.3181 17.287C56.1341 16.503 57.0861 15.903 58.1741 15.487C59.2781 15.071 60.4701 14.863 61.7501 14.863C62.9821 14.863 63.9981 15.015 64.7981 15.319C65.6141 15.623 66.3661 16.047 67.0541 16.591V20.455C66.6861 20.039 66.2461 19.655 65.7341 19.303C65.2381 18.951 64.6781 18.671 64.0541 18.463C63.4301 18.255 62.7181 18.151 61.9181 18.151C60.9581 18.151 60.0701 18.375 59.2541 18.823C58.4381 19.255 57.7741 19.879 57.2621 20.695C56.7661 21.511 56.5181 22.479 56.5181 23.599ZM71.9654 28.183L72.3734 25.471H80.4374L80.8454 28.183H71.9654ZM76.3574 20.647L73.8374 26.431L73.9094 27.199L71.7014 31.999H67.8374L76.3574 14.215L84.8774 31.999H80.9894L78.8294 27.343L78.8774 26.479L76.3574 20.647ZM86.2199 15.199H89.7239V31.999H86.2199V15.199ZM91.9319 31.999H88.4279V28.879H91.8119C92.5479 28.879 93.2439 28.783 93.8999 28.591C94.5559 28.383 95.1319 28.063 95.6279 27.631C96.1239 27.199 96.5079 26.655 96.7799 25.999C97.0679 25.327 97.2119 24.527 97.2119 23.599C97.2119 22.671 97.0679 21.879 96.7799 21.223C96.5079 20.551 96.1239 19.999 95.6279 19.567C95.1319 19.135 94.5559 18.823 93.8999 18.631C93.2439 18.423 92.5479 18.319 91.8119 18.319H88.4279V15.199H91.9319C93.6919 15.199 95.2279 15.543 96.5399 16.231C97.8679 16.919 98.8999 17.895 99.6359 19.159C100.372 20.407 100.74 21.887 100.74 23.599C100.74 25.311 100.372 26.799 99.6359 28.063C98.8999 29.311 97.8679 30.279 96.5399 30.967C95.2279 31.655 93.6919 31.999 91.9319 31.999ZM104.521 28.183L104.929 25.471H112.993L113.401 28.183H104.521ZM108.913 20.647L106.393 26.431L106.465 27.199L104.257 31.999H100.393L108.913 14.215L117.433 31.999H113.545L111.385 27.343L111.433 26.479L108.913 20.647Z" fill="white"/>
<path fill-rule="evenodd" clip-rule="evenodd" d="M118.63 29H121.851C122.082 29 122.275 28.8406 122.304 28.6156L122.651 26.2344C123.22 26.0094 123.74 25.7094 124.212 25.3531L126.516 26.2531C126.728 26.3281 126.969 26.2531 127.085 26.0469L128.935 22.9344C129.051 22.7281 129.003 22.4937 128.819 22.3625L126.882 20.8812C126.921 20.6 126.94 20.3094 126.94 20C126.94 19.7 126.921 19.4 126.872 19.1187L128.829 17.6375C129.003 17.5062 129.051 17.2531 128.945 17.0656L127.094 13.9531C126.979 13.7469 126.738 13.6812 126.526 13.7469L124.222 14.6469C123.74 14.2906 123.229 13.9906 122.661 13.7656L122.314 11.3844C122.275 11.1594 122.082 11 121.851 11H118.15C117.919 11 117.736 11.1594 117.697 11.3844L117.35 13.7656C116.781 13.9906 116.261 14.3 115.789 14.6469L113.485 13.7469C113.273 13.6719 113.032 13.7469 112.917 13.9531L112.066 15.3907L117.286 26.2125C117.304 26.2199 117.322 26.2272 117.34 26.2344L117.36 26.3651L118.63 29ZM116.102 20C116.102 21.8562 118.092 23.7841 120.001 23.7841C121.909 23.7841 123.899 21.8562 123.899 20C123.899 18.1437 121.909 16.2159 120.001 16.2159C118.092 16.2159 116.102 18.1437 116.102 20Z" fill="white"/>
</svg>
