<svg width="160" height="46" viewBox="0 0 160 46" fill="none" xmlns="http://www.w3.org/2000/svg">
<rect x="0.5" y="0.5" width="159" height="45" rx="22.5" stroke="white"/>
<path d="M49.288 26.36C49.64 26.984 50.024 27.528 50.44 27.992C50.872 28.456 51.344 28.816 51.856 29.072C52.368 29.328 52.92 29.456 53.512 29.456C54.2 29.456 54.76 29.28 55.192 28.928C55.624 28.576 55.84 28.096 55.84 27.488C55.84 26.96 55.704 26.536 55.432 26.216C55.176 25.896 54.784 25.616 54.256 25.376C53.744 25.12 53.112 24.848 52.36 24.56C51.96 24.416 51.496 24.224 50.968 23.984C50.456 23.728 49.968 23.408 49.504 23.024C49.04 22.624 48.656 22.144 48.352 21.584C48.048 21.008 47.896 20.32 47.896 19.52C47.896 18.56 48.136 17.736 48.616 17.048C49.112 16.344 49.776 15.808 50.608 15.44C51.456 15.056 52.4 14.864 53.44 14.864C54.512 14.864 55.432 15.048 56.2 15.416C56.984 15.768 57.632 16.224 58.144 16.784C58.672 17.328 59.08 17.896 59.368 18.488L56.68 19.976C56.456 19.576 56.184 19.216 55.864 18.896C55.56 18.56 55.208 18.296 54.808 18.104C54.408 17.896 53.952 17.792 53.44 17.792C52.768 17.792 52.264 17.952 51.928 18.272C51.592 18.576 51.424 18.936 51.424 19.352C51.424 19.768 51.56 20.136 51.832 20.456C52.104 20.76 52.52 21.056 53.08 21.344C53.64 21.616 54.344 21.896 55.192 22.184C55.736 22.376 56.256 22.616 56.752 22.904C57.264 23.192 57.72 23.544 58.12 23.96C58.536 24.36 58.856 24.84 59.08 25.4C59.32 25.944 59.44 26.576 59.44 27.296C59.44 28.112 59.28 28.84 58.96 29.48C58.64 30.12 58.2 30.664 57.64 31.112C57.08 31.544 56.448 31.872 55.744 32.096C55.056 32.336 54.328 32.456 53.56 32.456C52.536 32.456 51.576 32.264 50.68 31.88C49.8 31.48 49.032 30.944 48.376 30.272C47.72 29.6 47.208 28.872 46.84 28.088L49.288 26.36ZM64.5181 23.6C64.5181 24.704 64.7661 25.672 65.2621 26.504C65.7741 27.32 66.4381 27.952 67.2541 28.4C68.0701 28.832 68.9581 29.048 69.9181 29.048C70.7181 29.048 71.4301 28.944 72.0541 28.736C72.6781 28.528 73.2381 28.248 73.7341 27.896C74.2461 27.544 74.6861 27.16 75.0541 26.744V30.608C74.3661 31.152 73.6141 31.576 72.7981 31.88C71.9981 32.184 70.9821 32.336 69.7501 32.336C68.4701 32.336 67.2781 32.128 66.1741 31.712C65.0861 31.296 64.1341 30.696 63.3181 29.912C62.5181 29.128 61.8941 28.208 61.4461 27.152C61.0141 26.08 60.7981 24.896 60.7981 23.6C60.7981 22.304 61.0141 21.128 61.4461 20.072C61.8941 19 62.5181 18.072 63.3181 17.288C64.1341 16.504 65.0861 15.904 66.1741 15.488C67.2781 15.072 68.4701 14.864 69.7501 14.864C70.9821 14.864 71.9981 15.016 72.7981 15.32C73.6141 15.624 74.3661 16.048 75.0541 16.592V20.456C74.6861 20.04 74.2461 19.656 73.7341 19.304C73.2381 18.952 72.6781 18.672 72.0541 18.464C71.4301 18.256 70.7181 18.152 69.9181 18.152C68.9581 18.152 68.0701 18.376 67.2541 18.824C66.4381 19.256 65.7741 19.88 65.2621 20.696C64.7661 21.512 64.5181 22.48 64.5181 23.6ZM77.989 15.2H81.421V29H88.117V32H77.989V15.2Z" fill="white"/>
<path d="M113.882 23.8812C113.92 23.6 113.939 23.3094 113.939 23C113.939 22.7 113.92 22.4 113.872 22.1187L115.828 20.6375C116.002 20.5062 116.05 20.2531 115.944 20.0656L114.094 16.9531C113.978 16.7469 113.737 16.6812 113.525 16.7469L111.221 17.6469C110.74 17.2906 110.229 16.9906 109.66 16.7656L109.313 14.3844C109.275 14.1594 109.082 14 108.851 14H105.149C104.918 14 104.735 14.1594 104.697 14.3844L104.35 16.7656C103.781 16.9906 103.26 17.3 102.788 17.6469L100.485 16.7469C100.273 16.6719 100.032 16.7469 99.916 16.9531L98.0752 20.0656C97.9595 20.2625 97.9981 20.5062 98.1908 20.6375L100.147 22.1187C100.099 22.4 100.061 22.7094 100.061 23C100.061 23.2906 100.08 23.6 100.128 23.8812L98.1716 25.3625C97.9981 25.4937 97.9499 25.7469 98.0559 25.9344L99.9064 29.0469C100.022 29.2531 100.263 29.3187 100.475 29.2531L102.779 28.3531C103.26 28.7094 103.771 29.0094 104.34 29.2344L104.687 31.6156C104.735 31.8406 104.918 32 105.149 32H108.851C109.082 32 109.275 31.8406 109.303 31.6156L109.65 29.2344C110.219 29.0094 110.74 28.7094 111.212 28.3531L113.515 29.2531C113.727 29.3281 113.968 29.2531 114.084 29.0469L115.934 25.9344C116.05 25.7281 116.002 25.4937 115.819 25.3625L113.882 23.8812ZM107 26.7841C105.092 26.7841 103.102 24.8562 103.102 23C103.102 21.1437 105.092 19.2159 107 19.2159C108.908 19.2159 110.898 21.1437 110.898 23C110.898 24.8562 108.908 26.7841 107 26.7841Z" fill="white"/>
</svg>
