<svg width="23" height="19" viewBox="0 0 23 19" fill="none" xmlns="http://www.w3.org/2000/svg">
<path d="M14.84 16L17 13.84L19.16 16L20 15.16L17.84 13L20 10.84L19.16 10L17 12.16L14.84 10L14 10.84L16.16 13L14 15.16L14.84 16Z" fill="white"/>
<path fill-rule="evenodd" clip-rule="evenodd" d="M0 0H7.5L8.5 1H20V4H21V8.52779C22.2275 9.62643 23 11.223 23 13C23 16.3137 20.3137 19 17 19C15.223 19 13.6264 18.2275 12.5278 17H0V0ZM19 4H11.5L9.5 2H19V4ZM3.0029 13L5.6539 4.871H7.3479L9.9879 13H8.4589L7.83193 10.8H5.10947L4.4769 13H3.0029ZM7.2269 8.677L7.50904 9.667H5.43525L5.7199 8.677C5.84457 8.24433 5.96924 7.80433 6.0939 7.357C6.21857 6.90233 6.3359 6.45133 6.4459 6.004H6.4899C6.61457 6.444 6.73557 6.89133 6.8529 7.346C6.97024 7.80067 7.0949 8.24433 7.2269 8.677ZM22 13C22 15.7614 19.7614 18 17 18C14.2386 18 12 15.7614 12 13C12 10.2386 14.2386 8 17 8C19.7614 8 22 10.2386 22 13Z" fill="white"/>
</svg>
