<svg width="194" height="56" viewBox="0 0 194 56" fill="none" xmlns="http://www.w3.org/2000/svg">
<g filter="url(#filter0_d_360_19)">
<path d="M4.9 1.57H20.44L31.64 34.05L42.7 1.57H57.33V47H47.46V13.4H47.25L35.77 47H27.02L15.19 13.4H14.91V47H4.9V1.57ZM59.407 1.57H70.467L82.647 37.9H82.927L95.107 1.57H105.887L89.087 47H75.717L59.407 1.57ZM107.991 1.57H127.311C132.631 1.57 136.831 1.99 139.911 2.83C142.991 3.62333 145.255 5.02333 146.701 7.03C148.148 9.03667 148.871 11.8133 148.871 15.36V33.84C148.871 37.2933 148.195 39.9767 146.841 41.89C145.488 43.7567 143.271 45.0867 140.191 45.88C137.111 46.6267 132.841 47 127.381 47H107.991V1.57ZM126.891 39.23C129.878 39.23 132.118 39.1133 133.611 38.88C135.151 38.6 136.248 38.0867 136.901 37.34C137.601 36.5933 137.951 35.4267 137.951 33.84V15.15C137.951 13.0033 137.088 11.51 135.361 10.67C133.681 9.78333 130.975 9.34 127.241 9.34H118.911V39.23H126.891ZM174.979 47.7C172.925 47.7 171.082 47.6067 169.449 47.42C167.862 47.2333 166.112 46.8833 164.199 46.37C162.052 45.81 160.279 45.0867 158.879 44.2C157.479 43.2667 156.312 41.9833 155.379 40.35C154.399 38.7167 153.909 36.78 153.909 34.54V14.59C153.909 5.44333 160.932 0.869997 174.979 0.869997C178.572 0.869997 183.379 1.38333 189.399 2.41V10.6C183.985 9.29333 179.225 8.64 175.119 8.64C173.392 8.64 172.039 8.68666 171.059 8.78C170.125 8.87333 169.145 9.10666 168.119 9.48C165.925 10.2267 164.829 11.8833 164.829 14.45V33.77C164.829 37.8767 168.585 39.93 176.099 39.93C179.319 39.93 183.845 39.2533 189.679 37.9V46.16C184.685 47.1867 179.785 47.7 174.979 47.7Z" fill="#324CD0"/>
<path d="M4.9 1.57H20.44L31.64 34.05L42.7 1.57H57.33V47H47.46V13.4H47.25L35.77 47H27.02L15.19 13.4H14.91V47H4.9V1.57ZM59.407 1.57H70.467L82.647 37.9H82.927L95.107 1.57H105.887L89.087 47H75.717L59.407 1.57ZM107.991 1.57H127.311C132.631 1.57 136.831 1.99 139.911 2.83C142.991 3.62333 145.255 5.02333 146.701 7.03C148.148 9.03667 148.871 11.8133 148.871 15.36V33.84C148.871 37.2933 148.195 39.9767 146.841 41.89C145.488 43.7567 143.271 45.0867 140.191 45.88C137.111 46.6267 132.841 47 127.381 47H107.991V1.57ZM126.891 39.23C129.878 39.23 132.118 39.1133 133.611 38.88C135.151 38.6 136.248 38.0867 136.901 37.34C137.601 36.5933 137.951 35.4267 137.951 33.84V15.15C137.951 13.0033 137.088 11.51 135.361 10.67C133.681 9.78333 130.975 9.34 127.241 9.34H118.911V39.23H126.891ZM174.979 47.7C172.925 47.7 171.082 47.6067 169.449 47.42C167.862 47.2333 166.112 46.8833 164.199 46.37C162.052 45.81 160.279 45.0867 158.879 44.2C157.479 43.2667 156.312 41.9833 155.379 40.35C154.399 38.7167 153.909 36.78 153.909 34.54V14.59C153.909 5.44333 160.932 0.869997 174.979 0.869997C178.572 0.869997 183.379 1.38333 189.399 2.41V10.6C183.985 9.29333 179.225 8.64 175.119 8.64C173.392 8.64 172.039 8.68666 171.059 8.78C170.125 8.87333 169.145 9.10666 168.119 9.48C165.925 10.2267 164.829 11.8833 164.829 14.45V33.77C164.829 37.8767 168.585 39.93 176.099 39.93C179.319 39.93 183.845 39.2533 189.679 37.9V46.16C184.685 47.1867 179.785 47.7 174.979 47.7Z" fill="url(#paint0_linear_360_19)" fill-opacity="0.5"/>
</g>
<defs>
<filter id="filter0_d_360_19" x="0.900391" y="0.870117" width="192.779" height="54.8301" filterUnits="userSpaceOnUse" color-interpolation-filters="sRGB">
<feFlood flood-opacity="0" result="BackgroundImageFix"/>
<feColorMatrix in="SourceAlpha" type="matrix" values="0 0 0 0 0 0 0 0 0 0 0 0 0 0 0 0 0 0 127 0" result="hardAlpha"/>
<feOffset dy="4"/>
<feGaussianBlur stdDeviation="2"/>
<feComposite in2="hardAlpha" operator="out"/>
<feColorMatrix type="matrix" values="0 0 0 0 0 0 0 0 0 0 0 0 0 0 0 0 0 0 0.1 0"/>
<feBlend mode="normal" in2="BackgroundImageFix" result="effect1_dropShadow_360_19"/>
<feBlend mode="normal" in="SourceGraphic" in2="effect1_dropShadow_360_19" result="shape"/>
</filter>
<linearGradient id="paint0_linear_360_19" x1="1.05494" y1="-60.3617" x2="232.556" y2="10.4925" gradientUnits="userSpaceOnUse">
<stop stop-color="#0D31D1"/>
<stop offset="0.415" stop-color="#2164DF"/>
<stop offset="1" stop-color="#86C6FF"/>
</linearGradient>
</defs>
</svg>
