<?xml version="1.0" encoding="utf-8"?>
<!-- Generator: Adobe Illustrator 25.4.1, SVG Export Plug-In . SVG Version: 6.00 Build 0)  -->
<svg version="1.1" id="레이어_1" xmlns="http://www.w3.org/2000/svg" xmlns:xlink="http://www.w3.org/1999/xlink" x="0px"
	 y="0px" viewBox="0 0 50 50" style="enable-background:new 0 0 50 50;" xml:space="preserve">
<style type="text/css">
	.그림자_x0020_만들기{fill:none;}
	.모퉁이_x0020_둥글리기_x0020_2pt{fill:#FFFFFF;stroke:#231815;stroke-miterlimit:10;}
	.라이브_x0020_반사_x0020_X{fill:none;}
	.경사_x0020_부드럽게{fill:url(#SVGID_1_);}
	.황혼{fill:#FFFFFF;}
	.잎_GS{fill:#FFE100;}
	.퐁파두르_GS{fill-rule:evenodd;clip-rule:evenodd;fill:#4CACE2;}
	.st0{opacity:0.3;clip-path:url(#SVGID_00000004507609969992919000000010397162806681440935_);}
	.st1{fill:#6B6B6B;}
	.st2{fill:#9E9E9E;}
	.st3{opacity:0.3;}
	.st4{fill:#E8E8E8;}
</style>
<linearGradient id="SVGID_1_" gradientUnits="userSpaceOnUse" x1="0" y1="0" x2="0.7071" y2="0.7071">
	<stop  offset="0" style="stop-color:#E6E7EA"/>
	<stop  offset="0.1747" style="stop-color:#E2E3E6"/>
	<stop  offset="0.3538" style="stop-color:#D6D7DA"/>
	<stop  offset="0.5349" style="stop-color:#C1C4C5"/>
	<stop  offset="0.7174" style="stop-color:#A4A8A8"/>
	<stop  offset="0.8993" style="stop-color:#808584"/>
	<stop  offset="1" style="stop-color:#686E6C"/>
</linearGradient>
<g>
	<g>
		<defs>
			<rect id="SVGID_00000008846448733756622320000016653539507857277372_" width="50" height="50"/>
		</defs>
		<clipPath id="SVGID_00000001644342018060106710000011620101882259784347_">
			<use xlink:href="#SVGID_00000008846448733756622320000016653539507857277372_"  style="overflow:visible;"/>
		</clipPath>
		<polygon style="opacity:0.3;clip-path:url(#SVGID_00000001644342018060106710000011620101882259784347_);" points="60.83,38.93 
			38.84,64.84 18.55,42 18.82,40.86 13.53,34.39 13.55,11.75 15.55,11.18 18.55,10.67 20.49,10.59 30.65,13.4 32.33,13.67 
			34.93,9.63 		"/>
	</g>
	<path class="st1" d="M30.5,38.67h-12c-1.1,0-2-0.9-2-2l0,0h16l0,0C32.5,37.77,31.6,38.67,30.5,38.67z"/>
	<path class="st2" d="M20.17,42h-1.33c-0.18,0-0.33-0.15-0.33-0.33v-3h2v3C20.5,41.85,20.35,42,20.17,42z"/>
	<path class="st2" d="M30.17,42h-1.33c-0.18,0-0.33-0.15-0.33-0.33v-3h2v3C30.5,41.85,30.35,42,30.17,42z"/>
	<path class="st3" d="M34.17,10H16.83c-1.47,0-2.67,1.19-2.67,2.67v13.45V34c0,1.47,1.19,2.67,2.67,2.67h17.33
		c1.47,0,2.67-1.19,2.67-2.67v-8.12V12.67C36.83,11.19,35.64,10,34.17,10z"/>
	<path class="st4" d="M33.17,9H15.83c-1.47,0-2.67,1.19-2.67,2.67v13.45V33c0,1.47,1.19,2.67,2.67,2.67h17.33
		c1.47,0,2.67-1.19,2.67-2.67v-8.12V11.67C35.83,10.19,34.64,9,33.17,9z"/>
	<circle class="st2" cx="24.5" cy="30.33" r="2.67"/>
	<path class="st1" d="M28.61,27.5c0-0.01,0-0.01-0.01-0.02c-0.04-0.05-0.08-0.09-0.11-0.14c-0.06-0.08-0.13-0.16-0.19-0.24
		c-0.06-0.07-0.12-0.13-0.18-0.19c-0.07-0.07-0.14-0.14-0.21-0.21c-0.06-0.06-0.12-0.12-0.19-0.17c-0.09-0.08-0.19-0.15-0.28-0.22
		c-0.05-0.04-0.09-0.07-0.14-0.11c-0.15-0.1-0.3-0.19-0.46-0.28c-0.04-0.02-0.09-0.04-0.13-0.06c-0.12-0.06-0.25-0.12-0.38-0.17
		c-0.05-0.02-0.11-0.04-0.16-0.06c-0.12-0.04-0.25-0.08-0.38-0.12c-0.06-0.02-0.11-0.03-0.17-0.04c-0.13-0.03-0.27-0.05-0.4-0.07
		c-0.05-0.01-0.1-0.02-0.15-0.02c-0.19-0.02-0.38-0.03-0.57-0.03s-0.38,0.01-0.57,0.03c-0.05,0.01-0.1,0.02-0.15,0.02
		c-0.14,0.02-0.27,0.04-0.4,0.07c-0.06,0.01-0.11,0.03-0.17,0.04c-0.13,0.03-0.25,0.07-0.38,0.12c-0.05,0.02-0.11,0.04-0.16,0.06
		c-0.13,0.05-0.25,0.11-0.38,0.17c-0.04,0.02-0.09,0.04-0.13,0.06C22,26,21.85,26.09,21.7,26.19c-0.05,0.03-0.1,0.07-0.14,0.11
		c-0.1,0.07-0.19,0.14-0.28,0.22c-0.06,0.05-0.12,0.11-0.19,0.17c-0.07,0.07-0.14,0.13-0.21,0.21c-0.06,0.06-0.12,0.13-0.18,0.19
		c-0.07,0.08-0.13,0.16-0.19,0.24c-0.04,0.05-0.08,0.09-0.11,0.14c0,0.01,0,0.01-0.01,0.02c-0.56,0.81-0.89,1.78-0.89,2.84
		c0,0.18,0.15,0.33,0.33,0.33c0.18,0,0.33-0.15,0.33-0.33c0-0.98,0.33-1.88,0.88-2.6c0.05-0.07,0.11-0.14,0.17-0.21
		c0.05-0.06,0.1-0.11,0.15-0.17c0.06-0.06,0.12-0.12,0.18-0.18c0.05-0.05,0.11-0.1,0.16-0.15c0.08-0.07,0.16-0.13,0.24-0.19
		c0.04-0.03,0.08-0.07,0.13-0.1c0.13-0.09,0.26-0.17,0.4-0.24c0.04-0.02,0.08-0.04,0.12-0.06c0.11-0.05,0.21-0.1,0.32-0.14
		c0.05-0.02,0.09-0.04,0.14-0.05c0.11-0.04,0.22-0.07,0.32-0.1c0.05-0.01,0.1-0.03,0.15-0.04c0.12-0.03,0.23-0.05,0.35-0.06
		c0.04-0.01,0.09-0.02,0.13-0.02C24.17,26.01,24.33,26,24.5,26s0.33,0.01,0.49,0.03c0.05,0.01,0.09,0.01,0.13,0.02
		c0.12,0.02,0.23,0.04,0.35,0.06c0.05,0.01,0.1,0.02,0.15,0.04c0.11,0.03,0.22,0.06,0.32,0.1c0.05,0.02,0.1,0.03,0.14,0.05
		c0.11,0.04,0.22,0.09,0.32,0.14c0.04,0.02,0.08,0.04,0.12,0.06c0.14,0.07,0.27,0.15,0.4,0.24c0.04,0.03,0.09,0.06,0.13,0.1
		c0.08,0.06,0.16,0.12,0.24,0.19c0.06,0.05,0.11,0.1,0.16,0.15c0.06,0.06,0.12,0.11,0.18,0.18c0.05,0.06,0.1,0.11,0.15,0.17
		c0.06,0.07,0.11,0.14,0.17,0.21c0.55,0.73,0.88,1.62,0.88,2.6c0,0.18,0.15,0.33,0.33,0.33c0.18,0,0.33-0.15,0.33-0.33
		C29.5,29.28,29.17,28.3,28.61,27.5z"/>
	<path class="st1" d="M24.26,29.77c-0.06-0.06-0.1-0.14-0.1-0.24l0-1.53c0-0.18,0.15-0.33,0.33-0.33c0.18,0,0.33,0.15,0.33,0.33
		l0,1.53c0,0.18-0.15,0.33-0.33,0.33C24.41,29.86,24.32,29.83,24.26,29.77z"/>
	<path class="st1" d="M27.17,15h-5.33c-0.37,0-0.67-0.3-0.67-0.67l0,0c0-0.37,0.3-0.67,0.67-0.67h5.33c0.37,0,0.67,0.3,0.67,0.67
		l0,0C27.83,14.7,27.53,15,27.17,15z"/>
  <rect
      width="50"
      height="50"
      x="0"
      y="0"
      style="fill:#ffffff;fill-opacity:0" />
</g>
</svg>
