<svg width="16" height="16" viewBox="0 0 16 16" fill="none" xmlns="http://www.w3.org/2000/svg">
<path fill-rule="evenodd" clip-rule="evenodd" d="M2 0H3H10V1H3V14H14V15H3H2V14V0ZM14 4H13V5H14V4Z" fill="#848484"/>
<path d="M14 5H13V15H14V5Z" fill="#848484"/>
<path fill-rule="evenodd" clip-rule="evenodd" d="M14 5H9V0L10 1V0L12 2L14 4H13L14 5Z" fill="#848484"/>
<path fill-rule="evenodd" clip-rule="evenodd" d="M6 1H5V3H4V4H5H6H7V3H6V1ZM5 14H6V12H7V11H6H5H4V12H5V14ZM10 14H9V12V11H10H12V12H10V14ZM9 9H10V8H12V7H10V6H9V7V8V9ZM6 9H5V8H4V7H5V6H6V7H7V8H6V9Z" fill="#848484"/>
</svg>
