<svg width="16" height="16" viewBox="0 0 16 16" fill="none" xmlns="http://www.w3.org/2000/svg">
<path fill-rule="evenodd" clip-rule="evenodd" d="M0 0H1H8V1H1V14H12V15H1H0V14V0ZM12 4H11V5H12V4Z" fill="#848484"/>
<path fill-rule="evenodd" clip-rule="evenodd" d="M12 5H7V0L8 1V0L10 2L12 4H11L12 5Z" fill="#848484"/>
<path d="M7.99844 10.9081H7.89844V11.0081V12.5V12.6H7.99844H9.70353H9.80353V12.5V11.0081V10.9081H9.70353H7.99844ZM7.99844 6.43262H7.89844V6.53262V8.02448V8.12448H7.99844H9.70353H9.80353V8.02448V6.53262V6.43262H9.70353H7.99844Z" fill="#0391FF" stroke="#0391FF" stroke-width="0.2"/>
<path d="M9.99844 10.9081H9.89844V11.0081V12.5V12.6H9.99844H12.1272C12.9166 12.6 13.6729 12.2741 14.2299 11.6954C14.7867 11.1169 15.0989 10.3329 15.0989 9.51633C15.0989 8.69969 14.7867 7.91576 14.2299 7.33718C13.6729 6.75848 12.9166 6.43262 12.1272 6.43262H9.99844H9.89844V6.53262V8.02448V8.12448H9.99844H12.1272C12.4802 8.12448 12.8196 8.27015 13.0705 8.53078C13.3214 8.79153 13.4631 9.14598 13.4631 9.51633C13.4631 9.88669 13.3214 10.2411 13.0705 10.5018C12.8196 10.7625 12.4802 10.9081 12.1272 10.9081H9.99844Z" fill="#D93813" stroke="#D93813" stroke-width="0.2"/>
<path fill-rule="evenodd" clip-rule="evenodd" d="M4 1H3V3H2V4H3H4H5V3H4V1ZM3 14H4V12H5V11H4H3H2V12H3V14ZM4 9H3V8H2V7H3V6H4V7H5V8H4V9Z" fill="#848484"/>
</svg>
