<svg width="16" height="16" viewBox="0 0 16 16" fill="none" xmlns="http://www.w3.org/2000/svg">
<g clip-path="url(#clip0_529_252)">
<mask id="mask0_529_252" style="mask-type:luminance" maskUnits="userSpaceOnUse" x="0" y="0" width="16" height="16">
<path d="M16 0H0V16H16V0Z" fill="white"/>
</mask>
<g mask="url(#mask0_529_252)">
<path d="M2 9L14 9V7L2 7V9Z" fill="#FAD200"/>
<path d="M4 12H2V8H4V12Z" fill="#FAD200"/>
<path d="M5 12H1V10H5V12Z" fill="#FAD200"/>
<path d="M12 8H14V4H12V8Z" fill="#FAD200"/>
<path d="M11 6L15 6V4L11 4V6Z" fill="#FAD200"/>
<path d="M4.5 12.5H1.5V15.5H4.5V12.5Z" stroke="#848484"/>
<path d="M3 12H2V13H3V12Z" fill="#00FFF9"/>
<path d="M11.5 3.5L14.5 3.5V0.5L11.5 0.5V3.5Z" stroke="#848484"/>
<path d="M13 4H14V3H13V4Z" fill="#00FFF9"/>
<path d="M11.8019 15.9845C11.4019 15.9845 11.0399 15.8965 10.7159 15.7205C10.3959 15.5445 10.1419 15.2865 9.95388 14.9465C9.76588 14.6065 9.67188 14.1905 9.67188 13.6985C9.67188 13.3305 9.72588 13.0045 9.83388 12.7205C9.94588 12.4325 10.0999 12.1885 10.2959 11.9885C10.4919 11.7885 10.7179 11.6365 10.9739 11.5325C11.2299 11.4285 11.5059 11.3765 11.8019 11.3765C12.1219 11.3765 12.3939 11.4365 12.6179 11.5565C12.8459 11.6725 13.0319 11.8025 13.1759 11.9465L12.7019 12.5105C12.5899 12.4065 12.4659 12.3185 12.3299 12.2465C12.1979 12.1745 12.0319 12.1385 11.8319 12.1385C11.5839 12.1385 11.3659 12.2005 11.1779 12.3245C10.9899 12.4445 10.8439 12.6185 10.7399 12.8465C10.6359 13.0745 10.5839 13.3485 10.5839 13.6685C10.5839 13.9925 10.6319 14.2705 10.7279 14.5025C10.8279 14.7305 10.9759 14.9065 11.1719 15.0305C11.3679 15.1545 11.6099 15.2165 11.8979 15.2165C12.0059 15.2165 12.1099 15.2025 12.2099 15.1745C12.3099 15.1425 12.3899 15.1005 12.4499 15.0485V14.1725H11.6639V13.4465H13.2479V15.4505C13.0959 15.5985 12.8939 15.7245 12.6419 15.8285C12.3899 15.9325 12.1099 15.9845 11.8019 15.9845Z" fill="#6C7182"/>
</g>
</g>
<defs>
<clipPath id="clip0_529_252">
<rect width="16" height="16" fill="white"/>
</clipPath>
</defs>
</svg>
