<svg width="16" height="17" viewBox="0 0 16 17" fill="none" xmlns="http://www.w3.org/2000/svg">
<mask id="mask0_529_353" style="mask-type:luminance" maskUnits="userSpaceOnUse" x="0" y="0" width="16" height="17">
<path d="M16 0.5H0V16.5H16V0.5Z" fill="white"/>
</mask>
<g mask="url(#mask0_529_353)">
<path d="M2.81064 2.07876L13.1922 6.28704C13.2811 6.32363 13.3573 6.38369 13.4122 6.46046C13.4671 6.53722 13.4987 6.62763 13.5032 6.72151C13.5077 6.81538 13.4851 6.909 13.4379 6.9918C13.3906 7.0746 13.3207 7.1433 13.2358 7.19015L9.96893 8.54698C9.91241 8.5769 9.8634 8.61872 9.82559 8.66931C9.78778 8.7199 9.76214 8.77795 9.75058 8.83914C9.73902 8.90032 9.74185 8.96304 9.75884 9.02263C9.77584 9.08221 9.80657 9.13711 9.84873 9.18322L13.7464 13.5002C13.797 13.5474 13.837 13.6043 13.8639 13.6673C13.8908 13.7303 13.9041 13.7982 13.903 13.8667C13.902 13.9353 13.8865 14.0031 13.8576 14.066C13.8287 14.129 13.7869 14.1857 13.7349 14.2329L12.6433 15.1127C12.5368 15.1992 12.3999 15.2417 12.2626 15.231C12.1252 15.2203 11.9986 15.1572 11.9106 15.0555L8.01134 10.7314C7.97356 10.6811 7.92455 10.6398 7.86789 10.6105C7.81123 10.5812 7.74835 10.5647 7.68384 10.562C7.61933 10.5594 7.55483 10.5707 7.49503 10.5952C7.43523 10.6198 7.38165 10.6569 7.3382 10.7038L5.34681 13.5572C5.28592 13.6389 5.20157 13.7015 5.10449 13.7371C5.00741 13.7727 4.902 13.7797 4.80169 13.7571C4.70138 13.7345 4.61072 13.6833 4.54124 13.6102C4.47175 13.5371 4.42661 13.4452 4.41155 13.3464L2.11022 2.66811C2.08955 2.57882 2.09446 2.48542 2.12444 2.39794C2.15441 2.31046 2.20831 2.23221 2.28033 2.17161C2.35235 2.11101 2.43978 2.07034 2.53322 2.05398C2.62666 2.03762 2.72256 2.04619 2.81064 2.07876Z" stroke="#848484" stroke-linecap="round" stroke-linejoin="round"/>
</g>
</svg>
