<svg width="16" height="16" viewBox="0 0 16 16" fill="none" xmlns="http://www.w3.org/2000/svg">
<g clip-path="url(#clip0_529_282)">
<mask id="mask0_529_282" style="mask-type:luminance" maskUnits="userSpaceOnUse" x="0" y="0" width="16" height="16">
<path d="M16 0H0V16H16V0Z" fill="white"/>
</mask>
<g mask="url(#mask0_529_282)">
<path d="M2 9L14 9V7L2 7V9Z" fill="#90BDE4"/>
<path d="M4 12H2V8H4V12Z" fill="#90BDE4"/>
<path d="M5 12H1V10H5V12Z" fill="#90BDE4"/>
<path d="M12 8H14V4H12V8Z" fill="#90BDE4"/>
<path d="M11 6L15 6V4L11 4V6Z" fill="#90BDE4"/>
<path d="M4.5 12.5H1.5V15.5H4.5V12.5Z" stroke="#848484"/>
<path d="M3 12H2V13H3V12Z" fill="#00FFF9"/>
<path d="M11.5 3.5L14.5 3.5V0.5L11.5 0.5V3.5Z" stroke="#848484"/>
<path d="M13 4H14V3H13V4Z" fill="#00FFF9"/>
<path d="M9.71919 15.9006L8.86719 11.4546H9.77319L10.1152 13.6266C10.1552 13.8586 10.1912 14.0926 10.2232 14.3286C10.2592 14.5646 10.2932 14.8026 10.3252 15.0426H10.3492C10.3972 14.8026 10.4452 14.5646 10.4932 14.3286C10.5412 14.0926 10.5872 13.8586 10.6312 13.6266L11.1412 11.4546H11.9032L12.4192 13.6266C12.4672 13.8546 12.5132 14.0886 12.5572 14.3286C12.6052 14.5646 12.6532 14.8026 12.7012 15.0426H12.7312C12.7632 14.8026 12.7952 14.5646 12.8272 14.3286C12.8632 14.0926 12.8972 13.8586 12.9292 13.6266L13.2832 11.4546H14.1232L13.3012 15.9006H12.1972L11.6992 13.6986C11.6632 13.5266 11.6292 13.3566 11.5972 13.1886C11.5652 13.0166 11.5372 12.8466 11.5132 12.6786H11.4892C11.4572 12.8466 11.4232 13.0166 11.3872 13.1886C11.3552 13.3566 11.3232 13.5266 11.2912 13.6986L10.8052 15.9006H9.71919Z" fill="#6C7182"/>
</g>
</g>
<defs>
<clipPath id="clip0_529_282">
<rect width="16" height="16" fill="white"/>
</clipPath>
</defs>
</svg>
