<svg width="16" height="16" viewBox="0 0 16 16" fill="none" xmlns="http://www.w3.org/2000/svg">
<g clip-path="url(#clip0_529_297)">
<mask id="mask0_529_297" style="mask-type:luminance" maskUnits="userSpaceOnUse" x="0" y="0" width="16" height="16">
<path d="M16 0H0V16H16V0Z" fill="white"/>
</mask>
<g mask="url(#mask0_529_297)">
<path d="M2 9L14 9V7L2 7V9Z" fill="#0391FF"/>
<path d="M2 12H4L4 7H2L2 12Z" fill="#0391FF"/>
<path d="M12 8H14V4H12V8Z" fill="#0391FF"/>
<path d="M4.5 12.5H1.5V15.5H4.5V12.5Z" stroke="#848484"/>
<path d="M3 12H2V13H3V12Z" fill="#00FFF9"/>
<path d="M11.5 3.5L14.5 3.5V0.5L11.5 0.5V3.5Z" stroke="#848484"/>
<path d="M13 4H14V3H13V4Z" fill="#00FFF9"/>
<path d="M5.97656 15.9005L7.39856 11.4545H8.44856L9.87056 15.9005H8.93456L8.30456 13.5845C8.23656 13.3525 8.17056 13.1125 8.10656 12.8645C8.04656 12.6125 7.98256 12.3685 7.91456 12.1325H7.89056C7.83456 12.3725 7.77256 12.6165 7.70456 12.8645C7.64056 13.1125 7.57656 13.3525 7.51256 13.5845L6.87656 15.9005H5.97656ZM6.85856 14.7605V14.0705H8.97056V14.7605H6.85856ZM12.0967 15.9845C11.8167 15.9845 11.5547 15.9365 11.3107 15.8405C11.0667 15.7405 10.8507 15.5925 10.6627 15.3965C10.4787 15.2005 10.3327 14.9605 10.2247 14.6765C10.1207 14.3925 10.0687 14.0665 10.0687 13.6985C10.0687 13.3305 10.1227 13.0045 10.2307 12.7205C10.3387 12.4325 10.4867 12.1885 10.6747 11.9885C10.8667 11.7885 11.0867 11.6365 11.3347 11.5325C11.5867 11.4285 11.8527 11.3765 12.1327 11.3765C12.4167 11.3765 12.6687 11.4345 12.8887 11.5505C13.1127 11.6625 13.2947 11.7945 13.4347 11.9465L12.9727 12.5105C12.8607 12.3985 12.7367 12.3085 12.6007 12.2405C12.4687 12.1725 12.3187 12.1385 12.1507 12.1385C11.9267 12.1385 11.7247 12.2005 11.5447 12.3245C11.3687 12.4445 11.2307 12.6185 11.1307 12.8465C11.0307 13.0745 10.9807 13.3485 10.9807 13.6685C10.9807 13.9925 11.0267 14.2705 11.1187 14.5025C11.2147 14.7305 11.3487 14.9065 11.5207 15.0305C11.6967 15.1545 11.9007 15.2165 12.1327 15.2165C12.3247 15.2165 12.4947 15.1765 12.6427 15.0965C12.7947 15.0125 12.9287 14.9065 13.0447 14.7785L13.5187 15.3305C13.3347 15.5465 13.1247 15.7105 12.8887 15.8225C12.6527 15.9305 12.3887 15.9845 12.0967 15.9845Z" fill="#6C7182"/>
</g>
</g>
<defs>
<clipPath id="clip0_529_297">
<rect width="16" height="16" fill="white"/>
</clipPath>
</defs>
</svg>
