<svg width="18" height="14" viewBox="0 0 18 14" fill="none" xmlns="http://www.w3.org/2000/svg">
<g clip-path="url(#clip0_433_7718)">
<path d="M17.5 0.5H0.5V13.5H17.5V0.5Z" fill="#100551" stroke="#4394EC"/>
<path d="M10.0841 9.3357C10.0254 9.3357 9.99609 9.30637 9.99609 9.2477V4.1837C9.99609 4.12504 10.0254 4.0957 10.0841 4.0957H13.0281C13.0814 4.0957 13.1081 4.12504 13.1081 4.1837V4.7277C13.1081 4.78637 13.0814 4.8157 13.0281 4.8157H10.8041V6.3357H12.8361C12.8894 6.3357 12.9161 6.36237 12.9161 6.4157V6.9357C12.9161 6.99437 12.8894 7.0237 12.8361 7.0237H10.8041V8.6157H13.0281C13.0814 8.6157 13.1081 8.64504 13.1081 8.7037V9.2477C13.1081 9.30637 13.0814 9.3357 13.0281 9.3357H10.0841Z" fill="#98CAFF"/>
<path d="M6.83083 9.432C6.16949 9.432 5.66549 9.26933 5.31883 8.944C4.97216 8.61333 4.79883 8.136 4.79883 7.512V5.928C4.79883 5.29867 4.97216 4.82133 5.31883 4.496C5.67083 4.16533 6.17749 4 6.83883 4C7.27083 4 7.64683 4.072 7.96683 4.216C8.28683 4.36 8.52416 4.568 8.67883 4.84C8.83883 5.10667 8.89216 5.42667 8.83883 5.8C8.83349 5.832 8.82549 5.85867 8.81483 5.88C8.80416 5.90133 8.78283 5.912 8.75083 5.912H8.11083C8.05216 5.912 8.02549 5.88267 8.03083 5.824C8.04683 5.472 7.9535 5.19733 7.75083 5C7.54816 4.80267 7.24683 4.704 6.84683 4.704C6.44683 4.704 6.14016 4.808 5.92683 5.016C5.71349 5.224 5.60683 5.528 5.60683 5.928V7.504C5.60683 7.904 5.71349 8.208 5.92683 8.416C6.14016 8.624 6.44683 8.728 6.84683 8.728C7.25216 8.728 7.55883 8.62933 7.76683 8.432C7.98016 8.22933 8.06816 7.95467 8.03083 7.608C8.02549 7.54933 8.05216 7.52 8.11083 7.52H8.74283C8.79616 7.52 8.82816 7.55733 8.83883 7.632C8.87083 7.99467 8.80683 8.312 8.64683 8.584C8.49216 8.85067 8.25749 9.05867 7.94283 9.208C7.62816 9.35733 7.25749 9.432 6.83083 9.432Z" fill="#98CAFF"/>
</g>
<defs>
<clipPath id="clip0_433_7718">
<rect width="18" height="14" fill="white"/>
</clipPath>
</defs>
</svg>
