<svg width="18" height="18" viewBox="0 0 18 18" fill="none" xmlns="http://www.w3.org/2000/svg">
<path fill-rule="evenodd" clip-rule="evenodd" d="M5.78042 14.4622C6.78736 14.8105 7.87093 15 9 15C13.0909 15 16.5845 12.512 18 9C17.3869 7.4787 16.3838 6.14954 15.1111 5.13152L12.7782 7.4644C12.9797 7.9373 13.0909 8.45603 13.0909 9C13.0909 11.208 11.2582 13 9 13C8.47617 13 7.97523 12.9036 7.51475 12.7279L5.78042 14.4622ZM8.84719 11.3955C8.89772 11.3985 8.94867 11.4 9 11.4C10.3582 11.4 11.4545 10.328 11.4545 9C11.4545 8.93152 11.4516 8.86373 11.4459 8.79673L8.84719 11.3955ZM9.37266 6.62734L6.5823 9.4177C6.55808 9.28208 6.54545 9.14252 6.54545 9C6.54545 7.672 7.64182 6.6 9 6.6C9.12673 6.6 9.25117 6.60933 9.37266 6.62734ZM10.6576 5.34238C10.1508 5.1223 9.58994 5 9 5C6.74182 5 4.90909 6.792 4.90909 9C4.90909 9.60873 5.04839 10.1858 5.2975 10.7025L3.02478 12.9752C1.68759 11.9441 0.634799 10.5751 0 9C1.41545 5.488 4.90909 3 9 3C10.1962 3 11.3414 3.21273 12.3984 3.60159L10.6576 5.34238Z" fill="#9FA6B6"/>
<line x1="16.6704" y1="1.53283" x2="1.75108" y2="16.3117" stroke="#9FA6B6" stroke-width="1.5"/>
</svg>
