<svg width="18" height="14" viewBox="0 0 18 14" fill="none" xmlns="http://www.w3.org/2000/svg">
<g clip-path="url(#clip0_433_7739)">
<path d="M17.5 0.5H0.5V13.5H17.5V0.5Z" fill="#100551" stroke="#4394EC"/>
<path d="M13.4082 9.24C13.3496 9.24 13.3202 9.21067 13.3202 9.152V4.72H11.9122C11.8536 4.72 11.8242 4.69067 11.8242 4.632V4.088C11.8242 4.02933 11.8536 4 11.9122 4H15.5442C15.6029 4 15.6322 4.02933 15.6322 4.088V4.632C15.6322 4.69067 15.6029 4.72 15.5442 4.72H14.1282V9.152C14.1282 9.21067 14.0989 9.24 14.0402 9.24H13.4082Z" fill="#98CAFF"/>
<path d="M6.97667 9.24C6.91801 9.24 6.88867 9.21067 6.88867 9.152V4.088C6.88867 4.02933 6.91801 4 6.97667 4H7.99267C8.04601 4 8.08067 4.02133 8.09667 4.064L9.50467 6.904C9.60067 7.096 9.68601 7.272 9.76067 7.432C9.84067 7.592 9.91001 7.744 9.96867 7.888C10.0327 8.032 10.0913 8.17067 10.1447 8.304H10.1607C10.1607 8.19733 10.158 8.08267 10.1527 7.96C10.1527 7.83733 10.15 7.71467 10.1447 7.592C10.1447 7.464 10.1447 7.34133 10.1447 7.224C10.1447 7.10133 10.1447 6.984 10.1447 6.872V4.088C10.1447 4.02933 10.1713 4 10.2247 4H10.8487C10.9073 4 10.9367 4.02933 10.9367 4.088V9.152C10.9367 9.21067 10.9073 9.24 10.8487 9.24H9.84067C9.79267 9.24 9.76067 9.21867 9.74467 9.176L8.36867 6.416C8.28334 6.24533 8.20067 6.07733 8.12067 5.912C8.04601 5.74667 7.97134 5.584 7.89667 5.424C7.82201 5.25867 7.75001 5.09867 7.68067 4.944H7.66467C7.66467 5.07733 7.66467 5.208 7.66467 5.336C7.67001 5.45867 7.67267 5.584 7.67267 5.712C7.67801 5.83467 7.68067 5.96 7.68067 6.088C7.68067 6.216 7.68067 6.34667 7.68067 6.48V9.152C7.68067 9.21067 7.65134 9.24 7.59267 9.24H6.97667Z" fill="#98CAFF"/>
<path d="M2.68761 9.24C2.62894 9.24 2.59961 9.21067 2.59961 9.152V4.088C2.59961 4.02933 2.62894 4 2.68761 4H5.63161C5.68494 4 5.71161 4.02933 5.71161 4.088V4.632C5.71161 4.69067 5.68494 4.72 5.63161 4.72H3.40761V6.24H5.43961C5.49294 6.24 5.51961 6.26667 5.51961 6.32V6.84C5.51961 6.89867 5.49294 6.928 5.43961 6.928H3.40761V8.52H5.63161C5.68494 8.52 5.71161 8.54933 5.71161 8.608V9.152C5.71161 9.21067 5.68494 9.24 5.63161 9.24H2.68761Z" fill="#98CAFF"/>
</g>
<defs>
<clipPath id="clip0_433_7739">
<rect width="18" height="14" fill="white"/>
</clipPath>
</defs>
</svg>
