<svg width="18" height="14" viewBox="0 0 18 14" fill="none" xmlns="http://www.w3.org/2000/svg">
<g clip-path="url(#clip0_433_7765)">
<path d="M17.5 0.5H0.5V13.5H17.5V0.5Z" fill="#100551" stroke="#4394EC"/>
<path d="M10.463 9.24C10.4043 9.24 10.375 9.21067 10.375 9.152V4.088C10.375 4.02933 10.4043 4 10.463 4H11.959C12.7803 4 13.3937 4.192 13.799 4.576C14.2043 4.95467 14.407 5.53067 14.407 6.304V6.736C14.407 7.57867 14.2043 8.208 13.799 8.624C13.399 9.03467 12.7857 9.24 11.959 9.24H10.463ZM11.183 8.552H11.903C12.4843 8.552 12.911 8.408 13.183 8.12C13.4603 7.82667 13.599 7.376 13.599 6.768V6.272C13.599 5.73333 13.4603 5.336 13.183 5.08C12.911 4.81867 12.4843 4.688 11.903 4.688H11.183V8.552Z" fill="#98CAFF"/>
<path d="M6.17394 9.24C6.11527 9.24 6.08594 9.21067 6.08594 9.152V4.088C6.08594 4.02933 6.11527 4 6.17394 4H9.11794C9.17127 4 9.19794 4.02933 9.19794 4.088V4.632C9.19794 4.69067 9.17127 4.72 9.11794 4.72H6.89394V6.24H8.92594C8.97927 6.24 9.00594 6.26667 9.00594 6.32V6.84C9.00594 6.89867 8.97927 6.928 8.92594 6.928H6.89394V8.52H9.11794C9.17127 8.52 9.19794 8.54933 9.19794 8.608V9.152C9.19794 9.21067 9.17127 9.24 9.11794 9.24H6.17394Z" fill="#98CAFF"/>
<path d="M4.088 9.24C4.02933 9.24 4 9.21067 4 9.152V4.088C4 4.02933 4.02933 4 4.088 4H4.72C4.77867 4 4.808 4.02933 4.808 4.088V9.152C4.808 9.21067 4.77867 9.24 4.72 9.24H4.088Z" fill="#98CAFF"/>
</g>
<defs>
<clipPath id="clip0_433_7765">
<rect width="18" height="14" fill="white"/>
</clipPath>
</defs>
</svg>
