<svg width="18" height="14" viewBox="0 0 18 14" fill="none" xmlns="http://www.w3.org/2000/svg">
<g clip-path="url(#clip0_433_7685)">
<path d="M17.5 0.5H0.5V13.5H17.5V0.5Z" fill="#100551" stroke="#4394EC"/>
<path d="M9.38735 9.24C9.32335 9.24 9.29935 9.208 9.31535 9.144L11.0673 4.072C11.0833 4.024 11.1153 4 11.1633 4H12.0193C12.0727 4 12.1073 4.024 12.1233 4.072L13.8913 9.144C13.902 9.17067 13.8993 9.19467 13.8833 9.216C13.8727 9.232 13.8513 9.24 13.8193 9.24H13.1313C13.078 9.24 13.0433 9.216 13.0273 9.168L11.9073 5.712C11.854 5.54667 11.8007 5.38133 11.7473 5.216C11.694 5.04533 11.6407 4.87733 11.5873 4.712H11.5713C11.5233 4.87733 11.4727 5.04267 11.4193 5.208C11.366 5.368 11.3127 5.53067 11.2593 5.696L10.1553 9.168C10.1393 9.216 10.1047 9.24 10.0513 9.24H9.38735ZM10.3713 8.072L10.5473 7.392H12.6193L12.8033 8.072H10.3713Z" fill="#98CAFF"/>
<path d="M6.8048 9.24C6.7568 9.24 6.72213 9.216 6.7008 9.168L5.0048 4.096C4.9888 4.032 5.0128 4 5.0768 4H5.7648C5.81813 4 5.8528 4.024 5.8688 4.072L6.9088 7.368C6.96747 7.54933 7.02347 7.736 7.0768 7.928C7.13547 8.11467 7.19147 8.30133 7.2448 8.488H7.2608C7.31413 8.30667 7.37013 8.12267 7.4288 7.936C7.48747 7.74933 7.54613 7.56533 7.6048 7.384L8.6768 4.072C8.6928 4.024 8.72747 4 8.7808 4H9.4608C9.5248 4 9.5488 4.032 9.5328 4.096L7.8048 9.168C7.7888 9.216 7.75413 9.24 7.7008 9.24H6.8048Z" fill="#98CAFF"/>
</g>
<defs>
<clipPath id="clip0_433_7685">
<rect width="18" height="14" fill="white"/>
</clipPath>
</defs>
</svg>
