<svg width="18" height="14" viewBox="0 0 18 14" fill="none" xmlns="http://www.w3.org/2000/svg">
<g clip-path="url(#clip0_433_7722)">
<path d="M17.5 0.5H0.5V13.5H17.5V0.5Z" fill="#100551" stroke="#4394EC"/>
<path d="M9.28526 9.3357C9.22659 9.3357 9.19727 9.30637 9.19727 9.2477V4.1837C9.19727 4.12504 9.22659 4.0957 9.28526 4.0957H10.3013C10.3546 4.0957 10.3893 4.11704 10.4053 4.1597L11.8133 6.9997C11.9093 7.1917 11.9946 7.3677 12.0693 7.5277C12.1493 7.6877 12.2186 7.8397 12.2773 7.9837C12.3413 8.1277 12.3999 8.26637 12.4533 8.3997H12.4693C12.4693 8.29304 12.4666 8.17837 12.4613 8.0557C12.4613 7.93304 12.4586 7.81037 12.4533 7.6877C12.4533 7.5597 12.4533 7.43704 12.4533 7.3197C12.4533 7.19704 12.4533 7.0797 12.4533 6.9677V4.1837C12.4533 4.12504 12.4799 4.0957 12.5333 4.0957H13.1573C13.2159 4.0957 13.2453 4.12504 13.2453 4.1837V9.2477C13.2453 9.30637 13.2159 9.3357 13.1573 9.3357H12.1493C12.1013 9.3357 12.0693 9.31437 12.0533 9.2717L10.6773 6.5117C10.5919 6.34104 10.5093 6.17304 10.4293 6.0077C10.3546 5.84237 10.2799 5.6797 10.2053 5.5197C10.1306 5.35437 10.0586 5.19437 9.98927 5.0397H9.97327C9.97327 5.17304 9.97327 5.3037 9.97327 5.4317C9.9786 5.55437 9.98127 5.6797 9.98127 5.8077C9.9866 5.93037 9.98927 6.0557 9.98927 6.1837C9.98927 6.3117 9.98927 6.44237 9.98927 6.5757V9.2477C9.98927 9.30637 9.95993 9.3357 9.90127 9.3357H9.28526Z" fill="#98CAFF"/>
<path d="M6.032 9.432C5.37067 9.432 4.86667 9.26933 4.52 8.944C4.17333 8.61333 4 8.136 4 7.512V5.928C4 5.29867 4.17333 4.82133 4.52 4.496C4.872 4.16533 5.37867 4 6.04 4C6.472 4 6.848 4.072 7.168 4.216C7.488 4.36 7.72533 4.568 7.88 4.84C8.04 5.10667 8.09333 5.42667 8.04 5.8C8.03467 5.832 8.02667 5.85867 8.016 5.88C8.00533 5.90133 7.984 5.912 7.952 5.912H7.312C7.25333 5.912 7.22667 5.88267 7.232 5.824C7.248 5.472 7.15467 5.19733 6.952 5C6.74933 4.80267 6.448 4.704 6.048 4.704C5.648 4.704 5.34133 4.808 5.128 5.016C4.91467 5.224 4.808 5.528 4.808 5.928V7.504C4.808 7.904 4.91467 8.208 5.128 8.416C5.34133 8.624 5.648 8.728 6.048 8.728C6.45333 8.728 6.76 8.62933 6.968 8.432C7.18133 8.22933 7.26933 7.95467 7.232 7.608C7.22667 7.54933 7.25333 7.52 7.312 7.52H7.944C7.99733 7.52 8.02933 7.55733 8.04 7.632C8.072 7.99467 8.008 8.312 7.848 8.584C7.69333 8.85067 7.45867 9.05867 7.144 9.208C6.82933 9.35733 6.45867 9.432 6.032 9.432Z" fill="#98CAFF"/>
</g>
<defs>
<clipPath id="clip0_433_7722">
<rect width="18" height="14" fill="white"/>
</clipPath>
</defs>
</svg>
