<svg width="18" height="14" viewBox="0 0 18 14" fill="none" xmlns="http://www.w3.org/2000/svg">
<g clip-path="url(#clip0_433_7815)">
<path d="M0 0H18V14H0V0Z" fill="#100551"/>
<mask id="mask0_433_7815" style="mask-type:luminance" maskUnits="userSpaceOnUse" x="0" y="0" width="18" height="14">
<path d="M0 0H18V14H0V0Z" fill="white"/>
</mask>
<g mask="url(#mask0_433_7815)">
<path d="M0 1H18V-1H0V1ZM18 13H0V15H18V13Z" fill="#4394EC"/>
</g>
<path d="M13.8068 9.32789C13.7588 9.32789 13.7241 9.30389 13.7028 9.25589L12.0068 4.18389C11.9908 4.11989 12.0148 4.08789 12.0788 4.08789H12.7668C12.8201 4.08789 12.8548 4.11189 12.8708 4.15989L13.9108 7.45589C13.9694 7.63722 14.0254 7.82389 14.0788 8.01589C14.1374 8.20256 14.1934 8.38922 14.2468 8.57589H14.2628C14.3161 8.39456 14.3721 8.21056 14.4308 8.02389C14.4894 7.83722 14.5481 7.65322 14.6068 7.47189L15.6788 4.15989C15.6948 4.11189 15.7294 4.08789 15.7828 4.08789H16.4628C16.5268 4.08789 16.5508 4.11989 16.5348 4.18389L14.8068 9.25589C14.7908 9.30389 14.7561 9.32789 14.7028 9.32789H13.8068Z" fill="#98CAFF"/>
<path d="M6.29112 9.32789C6.26979 9.32789 6.24846 9.31989 6.22713 9.30389C6.21113 9.28789 6.20312 9.26656 6.20312 9.23989L6.31512 4.17589C6.31512 4.11722 6.34446 4.08789 6.40313 4.08789H7.33113C7.37379 4.08789 7.40579 4.10922 7.42712 4.15189L8.79513 7.19189L10.1471 4.15189C10.1685 4.10922 10.2005 4.08789 10.2431 4.08789H11.1791C11.2325 4.08789 11.2591 4.11722 11.2591 4.17589L11.3711 9.23989C11.3711 9.26656 11.3631 9.28789 11.3471 9.30389C11.3365 9.31989 11.3178 9.32789 11.2911 9.32789H10.6671C10.6138 9.32789 10.5871 9.29856 10.5871 9.23989L10.5071 6.31189C10.5018 6.10922 10.5045 5.90656 10.5151 5.70389C10.5258 5.50122 10.5338 5.29856 10.5391 5.09589H10.5151C10.4351 5.29322 10.3498 5.49322 10.2591 5.69589C10.1738 5.89856 10.0831 6.09856 9.98713 6.29589L8.89114 8.63989C8.87514 8.67722 8.84313 8.69589 8.79513 8.69589H8.77113C8.72846 8.69589 8.69646 8.67722 8.67513 8.63989L7.57113 6.26389C7.48046 6.07189 7.39246 5.87722 7.30713 5.67989C7.22713 5.48256 7.14712 5.28789 7.06712 5.09589H7.05113C7.06179 5.28789 7.06712 5.48522 7.06712 5.68789C7.07246 5.89056 7.07246 6.09056 7.06712 6.28789L6.99513 9.23989C6.99513 9.29856 6.96579 9.32789 6.90712 9.32789H6.29112Z" fill="#98CAFF"/>
<path d="M3.34474 9.424C2.90741 9.424 2.54741 9.36267 2.26474 9.24C1.98741 9.112 1.78474 8.936 1.65674 8.712C1.53407 8.48267 1.48341 8.21333 1.50474 7.904C1.51007 7.81333 1.54474 7.768 1.60874 7.768H2.22474C2.28874 7.768 2.32074 7.808 2.32074 7.888C2.32074 8.18133 2.40874 8.39467 2.58474 8.528C2.76074 8.66133 3.03274 8.728 3.40074 8.728C3.75274 8.728 4.01674 8.66667 4.19274 8.544C4.37407 8.42133 4.46474 8.23467 4.46474 7.984C4.46474 7.86133 4.44341 7.75733 4.40074 7.672C4.36341 7.58133 4.29407 7.50133 4.19274 7.432C4.09141 7.36267 3.95807 7.29333 3.79274 7.224L2.61674 6.736C2.36607 6.62933 2.16341 6.512 2.00874 6.384C1.85941 6.256 1.75007 6.10933 1.68074 5.944C1.61674 5.77867 1.58474 5.58933 1.58474 5.376C1.59007 4.928 1.73941 4.58667 2.03274 4.352C2.33141 4.11733 2.76607 4 3.33674 4C3.73141 4 4.07007 4.056 4.35274 4.168C4.64074 4.28 4.85407 4.44533 4.99274 4.664C5.13674 4.88267 5.19541 5.152 5.16874 5.472C5.15807 5.568 5.12607 5.616 5.07274 5.616H4.44874C4.42207 5.616 4.40074 5.60533 4.38474 5.584C4.37407 5.56267 4.37141 5.52533 4.37674 5.472C4.39274 5.22667 4.30741 5.03467 4.12074 4.896C3.93407 4.75733 3.66741 4.688 3.32074 4.688C3.01674 4.688 2.78741 4.744 2.63274 4.856C2.47807 4.96267 2.39807 5.12533 2.39274 5.344C2.39274 5.46133 2.41407 5.56267 2.45674 5.648C2.49941 5.73333 2.57141 5.81333 2.67274 5.888C2.77407 5.96267 2.91274 6.03733 3.08874 6.112L4.24874 6.6C4.49941 6.70133 4.69941 6.816 4.84874 6.944C5.00341 7.072 5.11274 7.21867 5.17674 7.384C5.24074 7.54933 5.27274 7.74933 5.27274 7.984C5.27274 8.43733 5.11807 8.792 4.80874 9.048C4.49941 9.29867 4.01141 9.424 3.34474 9.424Z" fill="#98CAFF"/>
</g>
<defs>
<clipPath id="clip0_433_7815">
<rect width="18" height="14" fill="white"/>
</clipPath>
</defs>
</svg>
