<svg width="18" height="14" viewBox="0 0 18 14" fill="none" xmlns="http://www.w3.org/2000/svg">
<g clip-path="url(#clip0_433_7748)">
<path d="M17.5 0.5H0.5V13.5H17.5V0.5Z" fill="#100551" stroke="#4394EC"/>
<path d="M12.5254 9.74C12.4667 9.74 12.4374 9.71067 12.4374 9.652V5.22H11.0294C10.9707 5.22 10.9414 5.19067 10.9414 5.132V4.588C10.9414 4.52933 10.9707 4.5 11.0294 4.5H14.6614C14.7201 4.5 14.7494 4.52933 14.7494 4.588V5.132C14.7494 5.19067 14.7201 5.22 14.6614 5.22H13.2454V9.652C13.2454 9.71067 13.2161 9.74 13.1574 9.74H12.5254Z" fill="#98CAFF"/>
<path d="M7.11 9.74C7.046 9.74 7.022 9.708 7.038 9.644L8.79 4.572C8.806 4.524 8.838 4.5 8.886 4.5H9.742C9.79534 4.5 9.83 4.524 9.846 4.572L11.614 9.644C11.6247 9.67067 11.622 9.69467 11.606 9.716C11.5953 9.732 11.574 9.74 11.542 9.74H10.854C10.8007 9.74 10.766 9.716 10.75 9.668L9.63 6.212C9.57667 6.04667 9.52334 5.88133 9.47 5.716C9.41667 5.54533 9.36334 5.37733 9.31 5.212H9.294C9.246 5.37733 9.19534 5.54267 9.142 5.708C9.08867 5.868 9.03534 6.03067 8.982 6.196L7.878 9.668C7.862 9.716 7.82734 9.74 7.774 9.74H7.11ZM8.094 8.572L8.27 7.892H10.342L10.526 8.572H8.094Z" fill="#98CAFF"/>
<path d="M3.28917 9.74C3.23051 9.74 3.20117 9.71067 3.20117 9.652V4.588C3.20117 4.52933 3.23051 4.5 3.28917 4.5H4.78517C5.60651 4.5 6.21984 4.692 6.62517 5.076C7.03051 5.45467 7.23317 6.03067 7.23317 6.804V7.236C7.23317 8.07867 7.03051 8.708 6.62517 9.124C6.22517 9.53467 5.61184 9.74 4.78517 9.74H3.28917ZM4.00917 9.052H4.72917C5.31051 9.052 5.73717 8.908 6.00917 8.62C6.28651 8.32667 6.42517 7.876 6.42517 7.268V6.772C6.42517 6.23333 6.28651 5.836 6.00917 5.58C5.73717 5.31867 5.31051 5.188 4.72917 5.188H4.00917V9.052Z" fill="#98CAFF"/>
</g>
<defs>
<clipPath id="clip0_433_7748">
<rect width="18" height="14" fill="white"/>
</clipPath>
</defs>
</svg>
