<svg width="14" height="14" viewBox="0 0 14 14" fill="none" xmlns="http://www.w3.org/2000/svg">
<rect x="0.5" y="0.5" width="13" height="13" fill="#4071CA" stroke="#243D6B"/>
<path d="M4.099 9.895C4.069 9.895 4.045 9.886 4.027 9.868C4.009 9.844 4 9.817 4 9.787L4.117 4.108C4.117 4.036 4.153 4 4.225 4H5.386C5.44 4 5.479 4.027 5.503 4.081L7.006 7.357L8.482 4.081C8.512 4.027 8.554 4 8.608 4H9.769C9.835 4 9.868 4.036 9.868 4.108L9.994 9.787C9.994 9.817 9.985 9.844 9.967 9.868C9.949 9.886 9.922 9.895 9.886 9.895H9.04C8.968 9.895 8.932 9.859 8.932 9.787L8.86 6.88C8.854 6.64 8.857 6.4 8.869 6.16C8.881 5.914 8.89 5.674 8.896 5.44H8.869C8.773 5.674 8.671 5.911 8.563 6.151C8.461 6.385 8.353 6.616 8.239 6.844L7.132 9.175C7.108 9.223 7.066 9.247 7.006 9.247H6.97C6.916 9.247 6.877 9.223 6.853 9.175L5.737 6.817C5.623 6.595 5.515 6.367 5.413 6.133C5.311 5.893 5.215 5.662 5.125 5.44H5.098C5.11 5.668 5.119 5.905 5.125 6.151C5.131 6.391 5.131 6.628 5.125 6.862L5.053 9.787C5.053 9.859 5.02 9.895 4.954 9.895H4.099Z" fill="white"/>
</svg>
