<svg width="18" height="14" viewBox="0 0 18 14" fill="none" xmlns="http://www.w3.org/2000/svg">
<g clip-path="url(#clip0_433_7753)">
<path d="M17.5 0.5H0.5V13.5H17.5V0.5Z" fill="#100551" stroke="#4394EC"/>
<path d="M10.2325 9.3357C10.1739 9.3357 10.1445 9.30637 10.1445 9.2477V4.1837C10.1445 4.12504 10.1739 4.0957 10.2325 4.0957H13.1765C13.2299 4.0957 13.2565 4.12504 13.2565 4.1837V4.7277C13.2565 4.78637 13.2299 4.8157 13.1765 4.8157H10.9525V6.3357H12.9845C13.0379 6.3357 13.0645 6.36237 13.0645 6.4157V6.9357C13.0645 6.99437 13.0379 7.0237 12.9845 7.0237H10.9525V8.6157H13.1765C13.2299 8.6157 13.2565 8.64504 13.2565 8.7037V9.2477C13.2565 9.30637 13.2299 9.3357 13.1765 9.3357H10.2325Z" fill="#98CAFF"/>
<path d="M6.70283 9.432C6.30816 9.432 5.96949 9.35733 5.68683 9.208C5.40416 9.05867 5.18549 8.84 5.03083 8.552C4.87616 8.264 4.79883 7.91733 4.79883 7.512V5.92C4.79883 5.312 4.98016 4.84 5.34283 4.504C5.71083 4.168 6.21483 4 6.85483 4C7.2975 4 7.67616 4.072 7.99083 4.216C8.30549 4.36 8.53749 4.56267 8.68683 4.824C8.84149 5.08533 8.89216 5.38933 8.83883 5.736C8.83349 5.79467 8.80416 5.824 8.75083 5.824L8.11083 5.816C8.05216 5.816 8.02549 5.78667 8.03083 5.728C8.04683 5.50933 8.01216 5.32533 7.92683 5.176C7.8415 5.02133 7.71083 4.904 7.53483 4.824C7.36416 4.744 7.14283 4.704 6.87083 4.704C6.45483 4.704 6.14016 4.80533 5.92683 5.008C5.71349 5.21067 5.60683 5.51733 5.60683 5.928V7.504C5.60683 7.91467 5.70816 8.22133 5.91083 8.424C6.11883 8.62667 6.42816 8.728 6.83883 8.728C7.24949 8.728 7.56149 8.62933 7.77483 8.432C7.9935 8.22933 8.10283 7.94133 8.10283 7.568V7.28H6.92683C6.86816 7.28 6.83883 7.25333 6.83883 7.2V6.72C6.83883 6.66133 6.86816 6.632 6.92683 6.632H8.77483C8.80149 6.632 8.82283 6.64 8.83883 6.656C8.85483 6.672 8.86283 6.69333 8.86283 6.72V8.248C8.86283 8.41867 8.86549 8.58933 8.87083 8.76C8.88149 8.92533 8.89749 9.08533 8.91883 9.24C8.92949 9.272 8.92683 9.296 8.91083 9.312C8.89483 9.328 8.87349 9.336 8.84683 9.336H8.32683C8.30549 9.336 8.28683 9.33067 8.27083 9.32C8.25483 9.30933 8.24416 9.29067 8.23883 9.264C8.22283 9.19467 8.20949 9.11733 8.19883 9.032C8.19349 8.94667 8.18816 8.856 8.18283 8.76H8.17483C8.07883 8.90933 7.95616 9.03467 7.80683 9.136C7.66283 9.232 7.49749 9.304 7.31083 9.352C7.12416 9.40533 6.92149 9.432 6.70283 9.432Z" fill="#98CAFF"/>
</g>
<defs>
<clipPath id="clip0_433_7753">
<rect width="18" height="14" fill="white"/>
</clipPath>
</defs>
</svg>
