<svg width="18" height="18" viewBox="0 0 18 18" fill="none" xmlns="http://www.w3.org/2000/svg">
<g clip-path="url(#clip0_413_48)">
<path d="M11.3748 11.3744C9.45565 13.2935 7.42266 14.7029 5.70298 15.4399C4.84176 15.809 4.08352 15.999 3.47155 16.016C2.86104 16.0331 2.44441 15.879 2.18242 15.617C1.92044 15.355 1.76637 14.9384 1.7834 14.3279C1.80048 13.7159 1.99042 12.9577 2.35951 12.0965C3.09652 10.3768 4.50591 8.34378 6.42506 6.42462C8.34422 4.50546 10.3772 3.09608 12.0969 2.35907C12.9581 1.98997 13.7164 1.80004 14.3283 1.78296C14.9388 1.76592 15.3555 1.92 15.6175 2.18198C15.8794 2.44396 16.0335 2.8606 16.0165 3.47111C15.9994 4.08308 15.8095 4.84132 15.4404 5.70254C14.7034 7.42222 13.294 9.45521 11.3748 11.3744Z" stroke="#A7A9BB"/>
<path d="M11.3748 11.3744C9.45565 13.2935 7.42266 14.7029 5.70298 15.4399C4.84176 15.809 4.08352 15.999 3.47155 16.016C2.86104 16.0331 2.44441 15.879 2.18242 15.617C1.92044 15.355 1.76637 14.9384 1.7834 14.3279C1.80048 13.7159 1.99042 12.9577 2.35951 12.0965C3.09652 10.3768 4.50591 8.34378 6.42506 6.42462C8.34422 4.50546 10.3772 3.09608 12.0969 2.35907C12.9581 1.98997 13.7164 1.80004 14.3283 1.78296C14.9388 1.76592 15.3555 1.92 15.6175 2.18198C15.8794 2.44396 16.0335 2.8606 16.0165 3.47111C15.9994 4.08308 15.8095 4.84132 15.4404 5.70254C14.7034 7.42222 13.294 9.45521 11.3748 11.3744Z" stroke="#9FA6B6"/>
<path d="M6.42597 11.3744C8.34513 13.2935 10.3781 14.7029 12.0978 15.4399C12.959 15.809 13.7173 15.999 14.3292 16.016C14.9397 16.0331 15.3564 15.879 15.6184 15.617C15.8803 15.355 16.0344 14.9384 16.0174 14.3279C16.0003 13.7159 15.8104 12.9577 15.4413 12.0965C14.7043 10.3768 13.2949 8.34378 11.3757 6.42462C9.45656 4.50546 7.42357 3.09608 5.70388 2.35907C4.84267 1.98997 4.08442 1.80004 3.47246 1.78296C2.86195 1.76592 2.44531 1.92 2.18333 2.18198C1.92135 2.44396 1.76727 2.8606 1.78431 3.47111C1.80139 4.08308 1.99132 4.84132 2.36042 5.70254C3.09742 7.42222 4.50681 9.45521 6.42597 11.3744Z" stroke="#A7A9BB"/>
<path d="M6.42597 11.3744C8.34513 13.2935 10.3781 14.7029 12.0978 15.4399C12.959 15.809 13.7173 15.999 14.3292 16.016C14.9397 16.0331 15.3564 15.879 15.6184 15.617C15.8803 15.355 16.0344 14.9384 16.0174 14.3279C16.0003 13.7159 15.8104 12.9577 15.4413 12.0965C14.7043 10.3768 13.2949 8.34378 11.3757 6.42462C9.45656 4.50546 7.42357 3.09608 5.70388 2.35907C4.84267 1.98997 4.08442 1.80004 3.47246 1.78296C2.86195 1.76592 2.44531 1.92 2.18333 2.18198C1.92135 2.44396 1.76727 2.8606 1.78431 3.47111C1.80139 4.08308 1.99132 4.84132 2.36042 5.70254C3.09742 7.42222 4.50681 9.45521 6.42597 11.3744Z" stroke="#9FA6B6"/>
<circle cx="2" cy="2" r="1.5" fill="#FFC90D"/>
<circle cx="12.5" cy="15.5" r="1.5" fill="#FFC90D"/>
<circle cx="9" cy="9" r="2" fill="#0290FF"/>
</g>
<defs>
<clipPath id="clip0_413_48">
<rect width="18" height="18" fill="white"/>
</clipPath>
</defs>
</svg>
