<svg width="18" height="14" viewBox="0 0 18 14" fill="none" xmlns="http://www.w3.org/2000/svg">
<g clip-path="url(#clip0_433_7693)">
<path d="M0 0H18V14H0V0Z" fill="#100551"/>
<mask id="mask0_433_7693" style="mask-type:luminance" maskUnits="userSpaceOnUse" x="0" y="0" width="18" height="14">
<path d="M0 0H18V14H0V0Z" fill="white"/>
</mask>
<g mask="url(#mask0_433_7693)">
<path d="M0 1H18V-1H0V1ZM18 13H0V15H18V13Z" fill="#4394EC"/>
</g>
<path d="M13.8783 9.24C13.8227 9.24 13.7949 9.21067 13.7949 9.152V4.088C13.7949 4.02933 13.8227 4 13.8783 4H15.394C16.0204 4 16.4802 4.12533 16.7732 4.376C17.0662 4.62667 17.2128 4.99733 17.2128 5.488C17.2128 5.86667 17.1294 6.184 16.9627 6.44C16.796 6.69067 16.5534 6.864 16.2352 6.96V6.968L17.4856 9.136C17.5007 9.16267 17.5033 9.18667 17.4932 9.208C17.4831 9.22933 17.4603 9.24 17.425 9.24H16.7277C16.6823 9.24 16.6494 9.22133 16.6292 9.184L15.4318 7.072H14.5603V9.152C14.5603 9.21067 14.5325 9.24 14.477 9.24H13.8783ZM14.5603 6.432H15.3409C15.7299 6.432 16.0103 6.36 16.1821 6.216C16.3589 6.072 16.4473 5.84267 16.4473 5.528C16.4473 5.224 16.3665 5.008 16.2048 4.88C16.0432 4.752 15.7703 4.688 15.3864 4.688H14.5603V6.432Z" fill="#98CAFF"/>
<path d="M9.46813 9.24C9.41255 9.24 9.38477 9.21067 9.38477 9.152V4.088C9.38477 4.02933 9.41255 4 9.46813 4H10.8853C11.6633 4 12.2443 4.192 12.6283 4.576C13.0123 4.95467 13.2043 5.53067 13.2043 6.304V6.736C13.2043 7.57867 13.0123 8.208 12.6283 8.624C12.2494 9.03467 11.6684 9.24 10.8853 9.24H9.46813ZM10.1502 8.552H10.8322C11.3829 8.552 11.7871 8.408 12.0448 8.12C12.3075 7.82667 12.4388 7.376 12.4388 6.768V6.272C12.4388 5.73333 12.3075 5.336 12.0448 5.08C11.7871 4.81867 11.3829 4.688 10.8322 4.688H10.1502V8.552Z" fill="#98CAFF"/>
<path d="M5.05797 9.24C5.0024 9.24 4.97461 9.21067 4.97461 9.152V4.088C4.97461 4.02933 5.0024 4 5.05797 4H6.47513C7.25317 4 7.83418 4.192 8.21815 4.576C8.60212 4.95467 8.79411 5.53067 8.79411 6.304V6.736C8.79411 7.57867 8.60212 8.208 8.21815 8.624C7.83923 9.03467 7.25822 9.24 6.47513 9.24H5.05797ZM5.74002 8.552H6.42208C6.97277 8.552 7.37695 8.408 7.63462 8.12C7.89733 7.82667 8.02869 7.376 8.02869 6.768V6.272C8.02869 5.73333 7.89733 5.336 7.63462 5.08C7.37695 4.81867 6.97277 4.688 6.42208 4.688H5.74002V8.552Z" fill="#98CAFF"/>
<path d="M0.572752 9.24C0.512125 9.24 0.48939 9.208 0.504547 9.144L2.16421 4.072C2.17937 4.024 2.20968 4 2.25515 4H3.06603C3.11656 4 3.1494 4.024 3.16455 4.072L4.83937 9.144C4.84948 9.17067 4.84695 9.19467 4.83179 9.216C4.82169 9.232 4.80148 9.24 4.77117 9.24H4.11943C4.0689 9.24 4.03606 9.216 4.02091 9.168L2.95994 5.712C2.90941 5.54667 2.85889 5.38133 2.80837 5.216C2.75785 5.04533 2.70733 4.87733 2.6568 4.712H2.64165C2.59618 4.87733 2.54818 5.04267 2.49766 5.208C2.44713 5.368 2.39661 5.53067 2.34609 5.696L1.30028 9.168C1.28512 9.216 1.25228 9.24 1.20176 9.24H0.572752ZM1.50489 8.072L1.67162 7.392H3.63441L3.80871 8.072H1.50489Z" fill="#98CAFF"/>
</g>
<defs>
<clipPath id="clip0_433_7693">
<rect width="18" height="14" fill="white"/>
</clipPath>
</defs>
</svg>
