<svg width="18" height="14" viewBox="0 0 18 14" fill="none" xmlns="http://www.w3.org/2000/svg">
<g clip-path="url(#clip0_433_7892)">
<path d="M17.5 0.5H0.5V13.5H17.5V0.5Z" fill="#100551" stroke="#4394EC"/>
<path d="M11.4754 9.432C10.814 9.432 10.31 9.26933 9.96336 8.944C9.61669 8.61333 9.44336 8.136 9.44336 7.512V5.928C9.44336 5.29867 9.61669 4.82133 9.96336 4.496C10.3154 4.16533 10.822 4 11.4834 4C11.9154 4 12.2914 4.072 12.6114 4.216C12.9314 4.36 13.1687 4.568 13.3234 4.84C13.4834 5.10667 13.5367 5.42667 13.4834 5.8C13.478 5.832 13.47 5.85867 13.4594 5.88C13.4487 5.90133 13.4274 5.912 13.3954 5.912H12.7554C12.6967 5.912 12.67 5.88267 12.6754 5.824C12.6914 5.472 12.598 5.19733 12.3954 5C12.1927 4.80267 11.8914 4.704 11.4914 4.704C11.0914 4.704 10.7847 4.808 10.5714 5.016C10.358 5.224 10.2514 5.528 10.2514 5.928V7.504C10.2514 7.904 10.358 8.208 10.5714 8.416C10.7847 8.624 11.0914 8.728 11.4914 8.728C11.8967 8.728 12.2034 8.62933 12.4114 8.432C12.6247 8.22933 12.7127 7.95467 12.6754 7.608C12.67 7.54933 12.6967 7.52 12.7554 7.52H13.3874C13.4407 7.52 13.4727 7.55733 13.4834 7.632C13.5154 7.99467 13.4514 8.312 13.2914 8.584C13.1367 8.85067 12.902 9.05867 12.5874 9.208C12.2727 9.35733 11.902 9.432 11.4754 9.432Z" fill="#98CAFF"/>
<path d="M6.584 9.3357C6.52533 9.3357 6.496 9.30637 6.496 9.2477V4.8157H5.088C5.02933 4.8157 5 4.78637 5 4.7277V4.1837C5 4.12504 5.02933 4.0957 5.088 4.0957H8.72C8.77867 4.0957 8.808 4.12504 8.808 4.1837V4.7277C8.808 4.78637 8.77867 4.8157 8.72 4.8157H7.304V9.2477C7.304 9.30637 7.27467 9.3357 7.216 9.3357H6.584Z" fill="#98CAFF"/>
</g>
<defs>
<clipPath id="clip0_433_7892">
<rect width="18" height="14" fill="white"/>
</clipPath>
</defs>
</svg>
