<svg width="18" height="14" viewBox="0 0 18 14" fill="none" xmlns="http://www.w3.org/2000/svg">
<g clip-path="url(#clip0_433_7778)">
<path d="M17.5 0.5H0.5V13.5H17.5V0.5Z" fill="#100551" stroke="#4394EC"/>
<path d="M13.3711 9.24C13.3124 9.24 13.2831 9.21067 13.2831 9.152V4.72H11.8751C11.8164 4.72 11.7871 4.69067 11.7871 4.632V4.088C11.7871 4.02933 11.8164 4 11.8751 4H15.5071C15.5658 4 15.5951 4.02933 15.5951 4.088V4.632C15.5951 4.69067 15.5658 4.72 15.5071 4.72H14.0911V9.152C14.0911 9.21067 14.0618 9.24 14.0031 9.24H13.3711Z" fill="#98CAFF"/>
<path d="M6.93956 9.24C6.8809 9.24 6.85156 9.21067 6.85156 9.152V4.088C6.85156 4.02933 6.8809 4 6.93956 4H7.95556C8.0089 4 8.04356 4.02133 8.05956 4.064L9.46756 6.904C9.56356 7.096 9.6489 7.272 9.72356 7.432C9.80356 7.592 9.8729 7.744 9.93156 7.888C9.99556 8.032 10.0542 8.17067 10.1076 8.304H10.1236C10.1236 8.19733 10.1209 8.08267 10.1156 7.96C10.1156 7.83733 10.1129 7.71467 10.1076 7.592C10.1076 7.464 10.1076 7.34133 10.1076 7.224C10.1076 7.10133 10.1076 6.984 10.1076 6.872V4.088C10.1076 4.02933 10.1342 4 10.1876 4H10.8116C10.8702 4 10.8996 4.02933 10.8996 4.088V9.152C10.8996 9.21067 10.8702 9.24 10.8116 9.24H9.80356C9.75556 9.24 9.72356 9.21867 9.70756 9.176L8.33156 6.416C8.24623 6.24533 8.16356 6.07733 8.08356 5.912C8.0089 5.74667 7.93423 5.584 7.85956 5.424C7.7849 5.25867 7.7129 5.09867 7.64356 4.944H7.62756C7.62756 5.07733 7.62756 5.208 7.62756 5.336C7.6329 5.45867 7.63556 5.584 7.63556 5.712C7.6409 5.83467 7.64356 5.96 7.64356 6.088C7.64356 6.216 7.64356 6.34667 7.64356 6.48V9.152C7.64356 9.21067 7.61423 9.24 7.55556 9.24H6.93956Z" fill="#98CAFF"/>
<path d="M3.088 9.24C3.02933 9.24 3 9.21067 3 9.152V4.088C3 4.02933 3.02933 4 3.088 4H3.728C3.78133 4 3.808 4.02933 3.808 4.088V8.52H5.968C6.02667 8.52 6.056 8.54933 6.056 8.608V9.152C6.056 9.21067 6.02667 9.24 5.968 9.24H3.088Z" fill="#98CAFF"/>
</g>
<defs>
<clipPath id="clip0_433_7778">
<rect width="18" height="14" fill="white"/>
</clipPath>
</defs>
</svg>
