<svg width="18" height="14" viewBox="0 0 18 14" fill="none" xmlns="http://www.w3.org/2000/svg">
<rect x="0.5" y="0.5" width="17" height="13" fill="#70AD47" stroke="#507E32"/>
<path d="M9.17825 9.5359C9.10892 9.5359 9.08225 9.50123 9.09825 9.4319L10.8263 4.3679C10.8423 4.3199 10.8769 4.2959 10.9303 4.2959H11.9542C12.0129 4.2959 12.0502 4.3199 12.0662 4.3679L13.8022 9.4319C13.8129 9.4639 13.8102 9.49057 13.7942 9.5119C13.7836 9.5279 13.7623 9.5359 13.7303 9.5359H12.8822C12.8289 9.5359 12.7942 9.5119 12.7782 9.4639L11.7463 6.1759C11.6929 5.9999 11.6396 5.82657 11.5862 5.6559C11.5382 5.4799 11.4903 5.3039 11.4423 5.1279H11.4262C11.3782 5.29857 11.3276 5.4719 11.2743 5.6479C11.2263 5.81857 11.1756 5.98923 11.1222 6.1599L10.1142 9.4559C10.0982 9.50923 10.0609 9.5359 10.0022 9.5359H9.17825ZM10.2743 8.4399L10.4583 7.6559H12.4023L12.5942 8.4399H10.2743Z" fill="white"/>
<path d="M6.596 9.6322C5.91867 9.6322 5.39867 9.46686 5.036 9.1362C4.67867 8.8002 4.5 8.30686 4.5 7.6562V6.1842C4.5 5.5282 4.68133 5.03486 5.044 4.7042C5.40667 4.3682 5.924 4.2002 6.596 4.2002C7.05467 4.2002 7.44933 4.27486 7.78 4.4242C8.11067 4.57353 8.356 4.78686 8.516 5.0642C8.676 5.34153 8.72933 5.66953 8.676 6.0482C8.67067 6.07486 8.66 6.10153 8.644 6.1282C8.63333 6.14953 8.612 6.1602 8.58 6.1602H7.804C7.74 6.1602 7.71067 6.1282 7.716 6.0642C7.72667 5.73886 7.63867 5.4882 7.452 5.3122C7.27067 5.13086 6.99067 5.0402 6.612 5.0402C6.244 5.0402 5.95867 5.1362 5.756 5.3282C5.55867 5.5202 5.46 5.81086 5.46 6.2002V7.6322C5.46 8.02153 5.55867 8.3122 5.756 8.5042C5.95867 8.6962 6.244 8.7922 6.612 8.7922C7.00133 8.7922 7.28933 8.70153 7.476 8.5202C7.66267 8.33353 7.74267 8.08286 7.716 7.7682C7.71067 7.7042 7.74 7.6722 7.804 7.6722H8.572C8.63067 7.6722 8.66533 7.70953 8.676 7.7842C8.71333 8.15753 8.64933 8.48286 8.484 8.7602C8.324 9.03753 8.08133 9.25353 7.756 9.4082C7.436 9.55753 7.04933 9.6322 6.596 9.6322Z" fill="white"/>
</svg>
