<svg width="18" height="14" viewBox="0 0 18 14" fill="none" xmlns="http://www.w3.org/2000/svg">
<rect x="0.5" y="0.5" width="17" height="13" fill="#100551" stroke="#3A7BC2"/>
<path d="M5.277 10V4.105H3.279V3.403H8.112V4.105H6.114V10H5.277ZM8.2967 10V3.403H9.2957L10.5557 6.931C10.6397 7.153 10.7207 7.381 10.7987 7.615C10.8767 7.849 10.9547 8.08 11.0327 8.308H11.0687C11.1527 8.08 11.2307 7.849 11.3027 7.615C11.3807 7.381 11.4557 7.153 11.5277 6.931L12.7877 3.403H13.7867V10H13.0127V6.346C13.0127 6.154 13.0187 5.947 13.0307 5.725C13.0427 5.497 13.0577 5.269 13.0757 5.041C13.0937 4.807 13.1087 4.594 13.1207 4.402H13.0847L12.5537 5.905L11.3117 9.334H10.7537L9.5027 5.905L8.9717 4.402H8.9357C8.9597 4.594 8.9777 4.807 8.9897 5.041C9.0077 5.269 9.0197 5.497 9.0257 5.725C9.0377 5.947 9.0437 6.154 9.0437 6.346V10H8.2967Z" fill="#4F9FF4"/>
</svg>
