<svg width="18" height="14" viewBox="0 0 18 14" fill="none" xmlns="http://www.w3.org/2000/svg">
<rect x="0.5" y="0.5" width="17" height="13" fill="#100551" stroke="#3A7BC2"/>
<path d="M5.277 10V4.105H3.279V3.403H8.112V4.105H6.114V10H5.277ZM9.2967 10V3.403H11.3577C11.8077 3.403 12.2037 3.463 12.5457 3.583C12.8937 3.697 13.1667 3.889 13.3647 4.159C13.5627 4.429 13.6617 4.792 13.6617 5.248C13.6617 5.686 13.5627 6.052 13.3647 6.346C13.1667 6.634 12.8937 6.85 12.5457 6.994C12.2037 7.132 11.8077 7.201 11.3577 7.201H10.1247V10H9.2967ZM10.1247 6.535H11.2317C11.7477 6.535 12.1437 6.43 12.4197 6.22C12.6957 6.004 12.8337 5.68 12.8337 5.248C12.8337 4.816 12.6957 4.513 12.4197 4.339C12.1437 4.165 11.7477 4.078 11.2317 4.078H10.1247V6.535ZM12.9147 10L11.1867 6.985L11.8437 6.544L13.8507 10H12.9147Z" fill="#4F9FF4"/>
</svg>
