<svg width="16" height="16" viewBox="0 0 16 16" fill="none" xmlns="http://www.w3.org/2000/svg">
<g clip-path="url(#clip0_431_1234)">
<path fill-rule="evenodd" clip-rule="evenodd" d="M3.51836 2.21476C3.40112 2.04372 3.31799 1.85075 3.27373 1.64687C3.22947 1.44299 3.22495 1.23219 3.26041 1.02652C3.29588 0.820851 3.37064 0.624337 3.48042 0.448204C3.59021 0.272071 3.73287 0.11977 3.90026 0L8 5.98447L12.0997 0C12.2671 0.11977 12.4098 0.272071 12.5196 0.448204C12.6294 0.624337 12.7041 0.820851 12.7396 1.02652C12.7751 1.23219 12.7705 1.44299 12.7263 1.64687C12.682 1.85075 12.5989 2.04372 12.4816 2.21476L8.94968 7.37088L10.6764 9.89091C11.3737 9.58933 12.1546 9.55799 12.8729 9.80278C13.5912 10.0476 14.1975 10.5517 14.5782 11.2206C14.9589 11.8896 15.0878 12.6774 14.9408 13.4366C14.7938 14.1958 14.381 14.8741 13.7798 15.3444C13.1785 15.8148 12.4301 16.0449 11.6747 15.9917C10.9194 15.9384 10.2089 15.6055 9.67657 15.0552C9.14419 14.5049 8.82643 13.7751 8.78282 13.0025C8.73921 12.2299 8.97276 11.4676 9.43969 10.8584L8.00078 8.7565L6.56031 10.8592C7.02724 11.4684 7.26078 12.2307 7.21718 13.0033C7.17357 13.7759 6.85581 14.5057 6.32343 15.056C5.79106 15.6062 5.08062 15.9392 4.32525 15.9925C3.56989 16.0457 2.82145 15.8156 2.2202 15.3452C1.61895 14.8749 1.20616 14.1966 1.05918 13.4374C0.912212 12.6782 1.04114 11.8904 1.42182 11.2214C1.8025 10.5525 2.40879 10.0484 3.12707 9.80357C3.84535 9.55879 4.62632 9.59012 5.32362 9.89171L7.05032 7.37088L3.51836 2.21476ZM4.11104 11.2304C3.69847 11.2304 3.30281 11.3979 3.01108 11.6961C2.71935 11.9943 2.55546 12.3987 2.55546 12.8203C2.55546 13.242 2.71935 13.6464 3.01108 13.9446C3.30281 14.2428 3.69847 14.4103 4.11104 14.4103C4.52361 14.4103 4.91928 14.2428 5.211 13.9446C5.50273 13.6464 5.66662 13.242 5.66662 12.8203C5.66662 12.3987 5.50273 11.9943 5.211 11.6961C4.91928 11.3979 4.52361 11.2304 4.11104 11.2304ZM11.889 11.2304C11.4764 11.2304 11.0807 11.3979 10.789 11.6961C10.4973 11.9943 10.3334 12.3987 10.3334 12.8203C10.3334 13.242 10.4973 13.6464 10.789 13.9446C11.0807 14.2428 11.4764 14.4103 11.889 14.4103C12.3015 14.4103 12.6972 14.2428 12.9889 13.9446C13.2807 13.6464 13.4445 13.242 13.4445 12.8203C13.4445 12.3987 13.2807 11.9943 12.9889 11.6961C12.6972 11.3979 12.3015 11.2304 11.889 11.2304Z" fill="#BEC4DA"/>
</g>
<defs>
<clipPath id="clip0_431_1234">
<rect width="16" height="16" fill="white"/>
</clipPath>
</defs>
</svg>
