<svg width="16" height="16" viewBox="0 0 16 16" fill="none" xmlns="http://www.w3.org/2000/svg">
<path d="M3 4H13V15.3C13 15.4857 12.9263 15.6637 12.795 15.795C12.6637 15.9263 12.4857 16 12.3 16H3.7C3.51435 16 3.3363 15.9263 3.20503 15.795C3.07375 15.6637 3 15.4857 3 15.3V4ZM4 5V15H12V5H4ZM6 7H7V13H6V7ZM9 7H10V13H9V7ZM4.5 2V0.7C4.5 0.514348 4.57375 0.336301 4.70503 0.205025C4.8363 0.0737498 5.01435 0 5.2 0H10.8C10.9857 0 11.1637 0.0737498 11.295 0.205025C11.4263 0.336301 11.5 0.514348 11.5 0.7V2H15V3H1V2H4.5ZM5.5 1V2H10.5V1H5.5Z" fill="#BEC4DA"/>
<path d="M15 4H1V5H15V4Z" fill="#BEC4DA"/>
<path d="M2 3H1V4H2V3Z" fill="#BEC4DA"/>
<path d="M15 3H14V4H15V3Z" fill="#BEC4DA"/>
</svg>
