<svg width="16" height="16" viewBox="0 0 16 16" fill="none" xmlns="http://www.w3.org/2000/svg">
<g clip-path="url(#clip0_431_1294)">
<mask id="mask0_431_1294" style="mask-type:luminance" maskUnits="userSpaceOnUse" x="0" y="0" width="16" height="16">
<path d="M16 0H0V16H16V0Z" fill="white"/>
</mask>
<g mask="url(#mask0_431_1294)">
<path d="M13 3H3V13H13V3Z" fill="#FFD071"/>
<path d="M16 10H14V11H16V10Z" fill="#BEC4DA"/>
<path d="M16 15H10V16H16V15Z" fill="#BEC4DA"/>
<path d="M16 10H15V15H16V10Z" fill="#BEC4DA"/>
<path d="M11 14H10V15H11V14Z" fill="#BEC4DA"/>
<path d="M0 6H2V5H0L0 6Z" fill="#BEC4DA"/>
<path d="M0 1L6 1V0L0 0V1Z" fill="#BEC4DA"/>
<path d="M0 6H1L1 1H0L0 6Z" fill="#BEC4DA"/>
<path d="M5 2L6 2V1L5 1V2Z" fill="#BEC4DA"/>
</g>
</g>
<defs>
<clipPath id="clip0_431_1294">
<rect width="16" height="16" fill="white"/>
</clipPath>
</defs>
</svg>
