<svg width="16" height="16" viewBox="0 0 16 16" fill="none" xmlns="http://www.w3.org/2000/svg">
<path fill-rule="evenodd" clip-rule="evenodd" d="M0 0H1H8V1H1V14H12V15H1H0V14V0ZM12 4H11V5H12V4Z" fill="#BEC4DA"/>
<path fill-rule="evenodd" clip-rule="evenodd" d="M12 5H7V0L8 1V0L10 2L12 4H11L12 5Z" fill="#BEC4DA"/>
<path d="M8.00039 10.9081H7.90039V11.0081V12.5V12.6H8.00039H9.70548H9.80548V12.5V11.0081V10.9081H9.70548H8.00039ZM8.00039 6.43262H7.90039V6.53262V8.02448V8.12448H8.00039H9.70548H9.80548V8.02448V6.53262V6.43262H9.70548H8.00039Z" fill="#43ADFF" stroke="#43ADFF" stroke-width="0.2"/>
<path d="M10.0004 10.9081H9.90039V11.0081V12.5V12.6H10.0004H12.1292C12.9186 12.6 13.6749 12.2741 14.2319 11.6954C14.7887 11.1169 15.1009 10.3329 15.1009 9.51633C15.1009 8.69969 14.7887 7.91576 14.2319 7.33718C13.6749 6.75848 12.9186 6.43262 12.1292 6.43262H10.0004H9.90039V6.53262V8.02448V8.12448H10.0004H12.1292C12.4822 8.12448 12.8216 8.27015 13.0725 8.53078C13.3234 8.79153 13.4651 9.14598 13.4651 9.51633C13.4651 9.88669 13.3234 10.2411 13.0725 10.5018C12.8216 10.7625 12.4822 10.9081 12.1292 10.9081H10.0004Z" fill="#D93813" stroke="#D93813" stroke-width="0.2"/>
<path fill-rule="evenodd" clip-rule="evenodd" d="M4 1H3V3H2V4H3H4H5V3H4V1ZM3 14H4V12H5V11H4H3H2V12H3V14ZM4 9H3V8H2V7H3V6H4V7H5V8H4V9Z" fill="#BEC4DA"/>
</svg>
