<svg width="16" height="16" viewBox="0 0 16 16" fill="none" xmlns="http://www.w3.org/2000/svg">
<path fill-rule="evenodd" clip-rule="evenodd" d="M1 0H2H9V1H2V14H7V15H2H1V14V0ZM13 4H12V5H13V4Z" fill="#BEC4DA"/>
<path d="M13 5H12V6H13V5Z" fill="#BEC4DA"/>
<path fill-rule="evenodd" clip-rule="evenodd" d="M13 5H8V0L9 1V0L11 2L13 4H12L13 5Z" fill="#BEC4DA"/>
<path fill-rule="evenodd" clip-rule="evenodd" d="M5 14H4V12H2V11H4V8H2V7H4V4H2V3H4V1H5V3H8V4H5V7H7V8H5V11H6V12H5V14ZM8 7H9V5H8V7Z" fill="#BEC4DA"/>
<path d="M7.94153 10.6083C7.92439 10.7333 7.91583 10.8625 7.91583 11C7.91583 11.1333 7.92439 11.2667 7.94581 11.3917L7.07625 12.05C6.99914 12.1083 6.97772 12.2208 7.02484 12.3042L7.84729 13.6875C7.89869 13.7792 8.00578 13.8083 8.10002 13.7792L9.1238 13.3792C9.33797 13.5375 9.565 13.6708 9.81773 13.7708L9.97194 14.8292C9.98908 14.9292 10.0747 15 10.1776 15H11.8224C11.9253 15 12.0066 14.9292 12.0238 14.8292L12.178 13.7708C12.4307 13.6708 12.662 13.5333 12.8719 13.3792L13.8957 13.7792C13.9899 13.8125 14.097 13.7792 14.1484 13.6875L14.9666 12.3042C15.018 12.2167 15.0009 12.1083 14.9152 12.05L14.0456 11.3917C14.067 11.2667 14.0842 11.1292 14.0842 11C14.0842 10.8708 14.0756 10.7333 14.0542 10.6083L14.9238 9.95C15.0009 9.89167 15.0223 9.77917 14.9752 9.69583L14.1527 8.3125C14.1013 8.22083 13.9942 8.19167 13.9 8.22083L12.8762 8.62083C12.662 8.4625 12.435 8.32917 12.1823 8.22917L12.0281 7.17083C12.0066 7.07083 11.9253 7 11.8224 7H10.1776C10.0747 7 9.98908 7.07083 9.97623 7.17083L9.82202 8.22917C9.56929 8.32917 9.33797 8.4625 9.12808 8.62083L8.1043 8.22083C8.01007 8.1875 7.90298 8.22083 7.85157 8.3125L7.02913 9.69583C6.97772 9.7875 6.99914 9.89167 7.08053 9.95L7.94153 10.6083ZM11 9.5C11.8481 9.5 12.5421 10.175 12.5421 11C12.5421 11.825 11.8481 12.5 11 12.5C10.1519 12.5 9.45791 11.825 9.45791 11C9.45791 10.175 10.1519 9.5 11 9.5Z" fill="#BEC4DA"/>
</svg>
