<svg width="16" height="16" viewBox="0 0 16 16" fill="none" xmlns="http://www.w3.org/2000/svg">
<g clip-path="url(#clip0_431_1506)">
<mask id="mask0_431_1506" style="mask-type:luminance" maskUnits="userSpaceOnUse" x="0" y="0" width="16" height="16">
<path d="M16 0H0V16H16V0Z" fill="white"/>
</mask>
<g mask="url(#mask0_431_1506)">
<path d="M2 9L14 9V7L2 7V9Z" fill="#FAE700"/>
<path d="M4 12H2V8H4V12Z" fill="#FAE700"/>
<path d="M5 12H1V10H5V12Z" fill="#FAE700"/>
<path d="M12 8H14V4H12V8Z" fill="#FAE700"/>
<path d="M11 6L15 6V4L11 4V6Z" fill="#FAE700"/>
<path d="M4.5 12.5H1.5V15.5H4.5V12.5Z" stroke="#BEC4DA"/>
<path d="M3 12H2V13H3V12Z" fill="#00FFF9"/>
<path d="M11.5 3.5L14.5 3.5V0.5L11.5 0.5V3.5Z" stroke="#BEC4DA"/>
<path d="M13 4H14V3H13V4Z" fill="#00FFF9"/>
<path d="M11.8038 15.984C11.4038 15.984 11.0418 15.896 10.7178 15.72C10.3978 15.544 10.1438 15.286 9.95583 14.946C9.76783 14.606 9.67383 14.19 9.67383 13.698C9.67383 13.33 9.72783 13.004 9.83583 12.72C9.94783 12.432 10.1018 12.188 10.2978 11.988C10.4938 11.788 10.7198 11.636 10.9758 11.532C11.2318 11.428 11.5078 11.376 11.8038 11.376C12.1238 11.376 12.3958 11.436 12.6198 11.556C12.8478 11.672 13.0338 11.802 13.1778 11.946L12.7038 12.51C12.5918 12.406 12.4678 12.318 12.3318 12.246C12.1998 12.174 12.0338 12.138 11.8338 12.138C11.5858 12.138 11.3678 12.2 11.1798 12.324C10.9918 12.444 10.8458 12.618 10.7418 12.846C10.6378 13.074 10.5858 13.348 10.5858 13.668C10.5858 13.992 10.6338 14.27 10.7298 14.502C10.8298 14.73 10.9778 14.906 11.1738 15.03C11.3698 15.154 11.6118 15.216 11.8998 15.216C12.0078 15.216 12.1118 15.202 12.2118 15.174C12.3118 15.142 12.3918 15.1 12.4518 15.048V14.172H11.6658V13.446H13.2498V15.45C13.0978 15.598 12.8958 15.724 12.6438 15.828C12.3918 15.932 12.1118 15.984 11.8038 15.984Z" fill="#CDD3E8"/>
</g>
</g>
<defs>
<clipPath id="clip0_431_1506">
<rect width="16" height="16" fill="white"/>
</clipPath>
</defs>
</svg>
