<svg width="16" height="16" viewBox="0 0 16 16" fill="none" xmlns="http://www.w3.org/2000/svg">
<g clip-path="url(#clip0_431_1536)">
<mask id="mask0_431_1536" style="mask-type:luminance" maskUnits="userSpaceOnUse" x="0" y="0" width="16" height="16">
<path d="M16 0H0V16H16V0Z" fill="white"/>
</mask>
<g mask="url(#mask0_431_1536)">
<path d="M2 9L14 9V7L2 7V9Z" fill="#90BDE4"/>
<path d="M4 12H2V8H4V12Z" fill="#90BDE4"/>
<path d="M5 12H1V10H5V12Z" fill="#90BDE4"/>
<path d="M12 8H14V4H12V8Z" fill="#90BDE4"/>
<path d="M11 6L15 6V4L11 4V6Z" fill="#90BDE4"/>
<path d="M4.5 12.5H1.5V15.5H4.5V12.5Z" stroke="#BEC4DA"/>
<path d="M3 12H2V13H3V12Z" fill="#00FFF9"/>
<path d="M11.5 3.5L14.5 3.5V0.5L11.5 0.5V3.5Z" stroke="#BEC4DA"/>
<path d="M13 4H14V3H13V4Z" fill="#00FFF9"/>
<path d="M9.72114 15.9001L8.86914 11.4541H9.77514L10.1172 13.6261C10.1572 13.8581 10.1932 14.0921 10.2252 14.3281C10.2612 14.5641 10.2952 14.8021 10.3272 15.0421H10.3512C10.3992 14.8021 10.4472 14.5641 10.4952 14.3281C10.5432 14.0921 10.5892 13.8581 10.6332 13.6261L11.1432 11.4541H11.9052L12.4212 13.6261C12.4692 13.8541 12.5152 14.0881 12.5592 14.3281C12.6072 14.5641 12.6552 14.8021 12.7032 15.0421H12.7332C12.7652 14.8021 12.7972 14.5641 12.8292 14.3281C12.8652 14.0921 12.8992 13.8581 12.9312 13.6261L13.2852 11.4541H14.1252L13.3032 15.9001H12.1992L11.7012 13.6981C11.6652 13.5261 11.6312 13.3561 11.5992 13.1881C11.5672 13.0161 11.5392 12.8461 11.5152 12.6781H11.4912C11.4592 12.8461 11.4252 13.0161 11.3892 13.1881C11.3572 13.3561 11.3252 13.5261 11.2932 13.6981L10.8072 15.9001H9.72114Z" fill="#CDD3E8"/>
</g>
</g>
<defs>
<clipPath id="clip0_431_1536">
<rect width="16" height="16" fill="white"/>
</clipPath>
</defs>
</svg>
