<svg width="16" height="17" viewBox="0 0 16 17" fill="none" xmlns="http://www.w3.org/2000/svg">
<mask id="mask0_431_1607" style="mask-type:luminance" maskUnits="userSpaceOnUse" x="0" y="0" width="16" height="17">
<path d="M16 0.5H0V16.5H16V0.5Z" fill="white"/>
</mask>
<g mask="url(#mask0_431_1607)">
<path d="M2.80868 2.07876L13.1903 6.28704C13.2792 6.32363 13.3554 6.38369 13.4103 6.46046C13.4652 6.53722 13.4968 6.62763 13.5013 6.72151C13.5058 6.81538 13.4832 6.909 13.436 6.9918C13.3887 7.0746 13.3188 7.1433 13.2339 7.19015L9.96697 8.54698C9.91045 8.5769 9.86144 8.61872 9.82363 8.66931C9.78582 8.7199 9.76018 8.77795 9.74862 8.83914C9.73706 8.90032 9.73989 8.96304 9.75688 9.02263C9.77388 9.08221 9.80461 9.13711 9.84677 9.18322L13.7445 13.5002C13.7951 13.5474 13.8351 13.6043 13.862 13.6673C13.8889 13.7303 13.9022 13.7982 13.9011 13.8667C13.9001 13.9353 13.8846 14.0031 13.8557 14.066C13.8268 14.129 13.785 14.1857 13.733 14.2329L12.6414 15.1127C12.5349 15.1992 12.398 15.2417 12.2607 15.231C12.1233 15.2203 11.9967 15.1572 11.9087 15.0555L8.00938 10.7314C7.9716 10.6811 7.92259 10.6398 7.86593 10.6105C7.80927 10.5812 7.74639 10.5647 7.68188 10.562C7.61737 10.5594 7.55287 10.5707 7.49307 10.5952C7.43327 10.6198 7.37969 10.6569 7.33624 10.7038L5.34485 13.5572C5.28396 13.6389 5.19961 13.7015 5.10253 13.7371C5.00545 13.7727 4.90004 13.7797 4.79973 13.7571C4.69942 13.7345 4.60876 13.6833 4.53928 13.6102C4.46979 13.5371 4.42465 13.4452 4.40959 13.3464L2.10826 2.66811C2.08759 2.57882 2.0925 2.48542 2.12248 2.39794C2.15245 2.31046 2.20635 2.23221 2.27837 2.17161C2.35039 2.11101 2.43782 2.07034 2.53126 2.05398C2.6247 2.03762 2.7206 2.04619 2.80868 2.07876Z" stroke="#BEC4DA" stroke-linecap="round" stroke-linejoin="round"/>
</g>
</svg>
