<svg width="16" height="16" viewBox="0 0 16 16" fill="none" xmlns="http://www.w3.org/2000/svg">
<g clip-path="url(#clip0_431_1493)">
<mask id="mask0_431_1493" style="mask-type:luminance" maskUnits="userSpaceOnUse" x="0" y="0" width="16" height="16">
<path d="M16 0H0V16H16V0Z" fill="white"/>
</mask>
<g mask="url(#mask0_431_1493)">
<path d="M2 8L13 8V7L2 7V8Z" fill="#1CC95D"/>
<path d="M2 12H3L3 7H2L2 12Z" fill="#1CC95D"/>
<path d="M13 8H14V4H13V8Z" fill="#1CC95D"/>
<path d="M4.5 12.5H1.5V15.5H4.5V12.5Z" stroke="#BEC4DA"/>
<path d="M3 12H2V13H3V12Z" fill="#00FFF9"/>
<path d="M11.5 3.5L14.5 3.5V0.5L11.5 0.5V3.5Z" stroke="#BEC4DA"/>
<path d="M13 4H14V3H13V4Z" fill="#00FFF9"/>
<path d="M6.54688 15.9V11.454H7.76487C8.22087 11.454 8.61088 11.534 8.93488 11.694C9.26288 11.854 9.51487 12.096 9.69087 12.42C9.87087 12.744 9.96088 13.156 9.96088 13.656C9.96088 14.156 9.87288 14.572 9.69688 14.904C9.52088 15.236 9.27287 15.486 8.95287 15.654C8.63287 15.818 8.25287 15.9 7.81287 15.9H6.54688ZM7.43488 15.18H7.70487C7.98487 15.18 8.22487 15.13 8.42487 15.03C8.62887 14.926 8.78488 14.762 8.89288 14.538C9.00088 14.31 9.05487 14.016 9.05487 13.656C9.05487 13.296 9.00088 13.008 8.89288 12.792C8.78488 12.572 8.62887 12.414 8.42487 12.318C8.22487 12.218 7.98487 12.168 7.70487 12.168H7.43488V15.18ZM12.6361 15.984C12.3561 15.984 12.0941 15.936 11.8501 15.84C11.6061 15.74 11.3901 15.592 11.2021 15.396C11.0181 15.2 10.8721 14.96 10.7641 14.676C10.6601 14.392 10.6081 14.066 10.6081 13.698C10.6081 13.33 10.6621 13.004 10.7701 12.72C10.8781 12.432 11.0261 12.188 11.2141 11.988C11.4061 11.788 11.6261 11.636 11.8741 11.532C12.1261 11.428 12.3921 11.376 12.6721 11.376C12.9561 11.376 13.2081 11.434 13.4281 11.55C13.6521 11.662 13.8341 11.794 13.9741 11.946L13.5121 12.51C13.4001 12.398 13.2761 12.308 13.1401 12.24C13.0081 12.172 12.8581 12.138 12.6901 12.138C12.4661 12.138 12.2641 12.2 12.0841 12.324C11.9081 12.444 11.7701 12.618 11.6701 12.846C11.5701 13.074 11.5201 13.348 11.5201 13.668C11.5201 13.992 11.5661 14.27 11.6581 14.502C11.7541 14.73 11.8881 14.906 12.0601 15.03C12.2361 15.154 12.4401 15.216 12.6721 15.216C12.8641 15.216 13.0341 15.176 13.1821 15.096C13.3341 15.012 13.4681 14.906 13.5841 14.778L14.0581 15.33C13.8741 15.546 13.6641 15.71 13.4281 15.822C13.1921 15.93 12.9281 15.984 12.6361 15.984Z" fill="#CDD3E8"/>
</g>
</g>
<defs>
<clipPath id="clip0_431_1493">
<rect width="16" height="16" fill="white"/>
</clipPath>
</defs>
</svg>
