<svg width="16" height="16" viewBox="0 0 16 16" fill="none" xmlns="http://www.w3.org/2000/svg">
<g clip-path="url(#clip0_431_1465)">
<mask id="mask0_431_1465" style="mask-type:luminance" maskUnits="userSpaceOnUse" x="0" y="0" width="16" height="16">
<path d="M16 0H0V16H16V0Z" fill="white"/>
</mask>
<g mask="url(#mask0_431_1465)">
<path fill-rule="evenodd" clip-rule="evenodd" d="M0 15V2V1H1H13H14V2V8H13V2H1V14H8V15H1H0Z" fill="#BEC4DA"/>
<path d="M10.5 3.5C10.7652 3.5 11.0196 3.60536 11.2071 3.79289C11.3946 3.98043 11.5 4.23478 11.5 4.5C11.5 4.76522 11.3946 5.01957 11.2071 5.20711C11.0196 5.39464 10.7652 5.5 10.5 5.5C10.2348 5.5 9.98043 5.39464 9.79289 5.20711C9.60536 5.01957 9.5 4.76522 9.5 4.5C9.5 4.23478 9.60536 3.98043 9.79289 3.79289C9.98043 3.60536 10.2348 3.5 10.5 3.5Z" stroke="#BEC4DA"/>
<path d="M0 10L3.5 6L7 9.5L9 7.5L10.5 9" stroke="#BEC4DA"/>
<path fill-rule="evenodd" clip-rule="evenodd" d="M14.9749 10.0251C14.3185 9.36875 13.4283 9 12.5 9C11.5717 9 10.6815 9.36875 10.0251 10.0251C9.36875 10.6815 9 11.5717 9 12.5C9 13.4283 9.36875 14.3185 10.0251 14.9749C10.6815 15.6313 11.5717 16 12.5 16C13.4283 16 14.3185 15.6313 14.9749 14.9749C15.6313 14.3185 16 13.4283 16 12.5C16 11.5717 15.6313 10.6815 14.9749 10.0251ZM12 12V10H13V12H15V13H13V15H12V13H10V12H12Z" fill="#1CC95D"/>
</g>
</g>
<defs>
<clipPath id="clip0_431_1465">
<rect width="16" height="16" fill="white"/>
</clipPath>
</defs>
</svg>
