<svg width="16" height="16" viewBox="0 0 16 16" fill="none" xmlns="http://www.w3.org/2000/svg">
<g clip-path="url(#clip0_431_1583)">
<mask id="mask0_431_1583" style="mask-type:luminance" maskUnits="userSpaceOnUse" x="0" y="0" width="16" height="16">
<path d="M16 0H0V16H16V0Z" fill="white"/>
</mask>
<g mask="url(#mask0_431_1583)">
<mask id="mask1_431_1583" style="mask-type:luminance" maskUnits="userSpaceOnUse" x="0" y="0" width="16" height="16">
<path d="M16 0H0V16H16V0Z" fill="white"/>
<path d="M11.2428 11.2428C11.7999 10.6856 12.2419 10.0242 12.5434 9.29622C12.845 8.56826 13.0002 7.78803 13.0002 7.00009C13.0002 6.21214 12.845 5.43192 12.5434 4.70395C12.2419 3.97599 11.7999 3.31454 11.2428 2.75738C10.6856 2.20023 10.0242 1.75826 9.29622 1.45673C8.56826 1.1552 7.78803 1 7.00009 1C6.21214 1 5.43192 1.1552 4.70395 1.45673C3.97599 1.75826 3.31454 2.20023 2.75738 2.75738C1.63215 3.88262 1 5.40876 1 7.00009C1 8.59141 1.63215 10.1176 2.75738 11.2428C3.88262 12.368 5.40876 13.0002 7.00009 13.0002C8.59141 13.0002 10.1176 12.368 11.2428 11.2428Z" fill="black"/>
</mask>
<g mask="url(#mask1_431_1583)">
<path d="M14.2929 15.7071C14.6834 16.0976 15.3166 16.0976 15.7071 15.7071C16.0976 15.3166 16.0976 14.6834 15.7071 14.2929L14.2929 15.7071ZM15.7071 14.2929L11.9499 10.5357L10.5357 11.9499L14.2929 15.7071L15.7071 14.2929ZM11.9499 11.9499C12.5999 11.2999 13.1155 10.5282 13.4673 9.6789L11.6196 8.91354C11.3683 9.52018 11 10.0714 10.5357 10.5357L11.9499 11.9499ZM13.4673 9.6789C13.8191 8.82961 14.0002 7.91935 14.0002 7.00009H12.0002C12.0002 7.65671 11.8708 8.3069 11.6196 8.91354L13.4673 9.6789ZM14.0002 7.00009C14.0002 6.08082 13.8191 5.17056 13.4673 4.32127L11.6196 5.08664C11.8708 5.69327 12.0002 6.34347 12.0002 7.00009H14.0002ZM13.4673 4.32127C13.1155 3.47198 12.5999 2.7003 11.9499 2.05028L10.5357 3.46449C11 3.92879 11.3683 4.48 11.6196 5.08664L13.4673 4.32127ZM11.9499 2.05028C11.2999 1.40026 10.5282 0.884637 9.6789 0.53285L8.91354 2.38061C9.52017 2.63189 10.0714 3.00019 10.5357 3.46449L11.9499 2.05028ZM9.6789 0.53285C8.82961 0.181063 7.91935 -6.84905e-09 7.00009 0V2C7.65671 2 8.3069 2.12933 8.91354 2.38061L9.6789 0.53285ZM7.00009 0C6.08082 6.84906e-09 5.17056 0.181063 4.32127 0.53285L5.08664 2.38061C5.69327 2.12933 6.34347 2 7.00009 2V0ZM4.32127 0.53285C3.47198 0.884637 2.7003 1.40026 2.05028 2.05028L3.46449 3.46449C3.92879 3.00019 4.48 2.63189 5.08664 2.38061L4.32127 0.53285ZM2.05028 2.05028C0.737507 3.36305 -1.38323e-08 5.14355 0 7.00009H2C2 5.67398 2.52679 4.40219 3.46449 3.46449L2.05028 2.05028ZM0 7.00009C1.38323e-08 8.85662 0.737507 10.6371 2.05028 11.9499L3.46449 10.5357C2.52679 9.59798 2 8.32619 2 7.00009H0ZM2.05028 11.9499C3.36305 13.2627 5.14355 14.0002 7.00009 14.0002V12.0002C5.67398 12.0002 4.40219 11.4734 3.46449 10.5357L2.05028 11.9499ZM7.00009 14.0002C8.85663 14.0002 10.6371 13.2627 11.9499 11.9499L10.5357 10.5357C9.59798 11.4734 8.32619 12.0002 7.00009 12.0002V14.0002Z" fill="#BEC4DA"/>
</g>
<path d="M6.46701 8.17224L6.22335 4.53213L6.17259 3H7.82741L7.77665 4.53213L7.54315 8.17224H6.46701ZM6.99492 11C6.71066 11 6.47377 10.8972 6.28426 10.6915C6.09475 10.4859 6 10.2322 6 9.93059C6 9.62896 6.09475 9.37875 6.28426 9.17995C6.47377 8.98115 6.71066 8.88175 6.99492 8.88175C7.29272 8.88175 7.533 8.98115 7.71574 9.17995C7.90525 9.37875 8 9.62896 8 9.93059C8 10.2322 7.90525 10.4859 7.71574 10.6915C7.533 10.8972 7.29272 11 6.99492 11Z" fill="#FFD071"/>
</g>
</g>
<defs>
<clipPath id="clip0_431_1583">
<rect width="16" height="16" fill="white"/>
</clipPath>
</defs>
</svg>
