<svg width="16" height="16" viewBox="0 0 16 16" fill="none" xmlns="http://www.w3.org/2000/svg">
<g clip-path="url(#clip0_431_1480)">
<mask id="mask0_431_1480" style="mask-type:luminance" maskUnits="userSpaceOnUse" x="0" y="0" width="16" height="16">
<path d="M16 0H0V16H16V0Z" fill="white"/>
</mask>
<g mask="url(#mask0_431_1480)">
<path d="M2 8L13 8V7L2 7V8Z" fill="#0391FF"/>
<path d="M2 12H3L3 7H2L2 12Z" fill="#0391FF"/>
<path d="M13 8H14V4H13V8Z" fill="#0391FF"/>
<path d="M4.5 12.5H1.5V15.5H4.5V12.5Z" stroke="#BEC4DA"/>
<path d="M3 12H2V13H3V12Z" fill="#00FFF9"/>
<path d="M11.5 3.5L14.5 3.5V0.5L11.5 0.5V3.5Z" stroke="#BEC4DA"/>
<path d="M13 4H14V3H13V4Z" fill="#00FFF9"/>
<path d="M5.97656 15.9L7.39856 11.454H8.44856L9.87056 15.9H8.93456L8.30456 13.584C8.23656 13.352 8.17056 13.112 8.10656 12.864C8.04656 12.612 7.98256 12.368 7.91456 12.132H7.89056C7.83456 12.372 7.77256 12.616 7.70456 12.864C7.64056 13.112 7.57656 13.352 7.51256 13.584L6.87656 15.9H5.97656ZM6.85856 14.76V14.07H8.97056V14.76H6.85856ZM12.0967 15.984C11.8167 15.984 11.5547 15.936 11.3107 15.84C11.0667 15.74 10.8507 15.592 10.6627 15.396C10.4787 15.2 10.3327 14.96 10.2247 14.676C10.1207 14.392 10.0687 14.066 10.0687 13.698C10.0687 13.33 10.1227 13.004 10.2307 12.72C10.3387 12.432 10.4867 12.188 10.6747 11.988C10.8667 11.788 11.0867 11.636 11.3347 11.532C11.5867 11.428 11.8527 11.376 12.1327 11.376C12.4167 11.376 12.6687 11.434 12.8887 11.55C13.1127 11.662 13.2947 11.794 13.4347 11.946L12.9727 12.51C12.8607 12.398 12.7367 12.308 12.6007 12.24C12.4687 12.172 12.3187 12.138 12.1507 12.138C11.9267 12.138 11.7247 12.2 11.5447 12.324C11.3687 12.444 11.2307 12.618 11.1307 12.846C11.0307 13.074 10.9807 13.348 10.9807 13.668C10.9807 13.992 11.0267 14.27 11.1187 14.502C11.2147 14.73 11.3487 14.906 11.5207 15.03C11.6967 15.154 11.9007 15.216 12.1327 15.216C12.3247 15.216 12.4947 15.176 12.6427 15.096C12.7947 15.012 12.9287 14.906 13.0447 14.778L13.5187 15.33C13.3347 15.546 13.1247 15.71 12.8887 15.822C12.6527 15.93 12.3887 15.984 12.0967 15.984Z" fill="#CDD3E8"/>
</g>
</g>
<defs>
<clipPath id="clip0_431_1480">
<rect width="16" height="16" fill="white"/>
</clipPath>
</defs>
</svg>
