<?xml version="1.0" encoding="utf-8"?>
<!-- Generator: Adobe Illustrator 25.4.1, SVG Export Plug-In . SVG Version: 6.00 Build 0)  -->
<svg version="1.1" id="레이어_1" xmlns="http://www.w3.org/2000/svg" xmlns:xlink="http://www.w3.org/1999/xlink" x="0px"
	 y="0px" viewBox="0 0 50 50" style="enable-background:new 0 0 50 50;" xml:space="preserve">
<style type="text/css">
	.그림자_x0020_만들기{fill:none;}
	.모퉁이_x0020_둥글리기_x0020_2pt{fill:#FFFFFF;stroke:#231815;stroke-miterlimit:10;}
	.라이브_x0020_반사_x0020_X{fill:none;}
	.경사_x0020_부드럽게{fill:url(#SVGID_1_);}
	.황혼{fill:#FFFFFF;}
	.잎_GS{fill:#FFE100;}
	.퐁파두르_GS{fill-rule:evenodd;clip-rule:evenodd;fill:#4CACE2;}
	.st0{opacity:0.3;clip-path:url(#SVGID_00000025432825148355170690000010706983951753916584_);}
	.st1{fill:#9E9E9E;}
	.st2{fill:#6B6B6B;}
	.st3{fill:#E8E8E8;}
</style>
<linearGradient id="SVGID_1_" gradientUnits="userSpaceOnUse" x1="0" y1="0" x2="0.7071" y2="0.7071">
	<stop  offset="0" style="stop-color:#E6E7EA"/>
	<stop  offset="0.1747" style="stop-color:#E2E3E6"/>
	<stop  offset="0.3538" style="stop-color:#D6D7DA"/>
	<stop  offset="0.5349" style="stop-color:#C1C4C5"/>
	<stop  offset="0.7174" style="stop-color:#A4A8A8"/>
	<stop  offset="0.8993" style="stop-color:#808584"/>
	<stop  offset="1" style="stop-color:#686E6C"/>
</linearGradient>
<g>
	<g>
		<defs>
			<rect id="SVGID_00000090267429279786760020000007137093901498176151_" width="50" height="50"/>
		</defs>
		<clipPath id="SVGID_00000108269554894190307460000014703401143173339555_">
			<use xlink:href="#SVGID_00000090267429279786760020000007137093901498176151_"  style="overflow:visible;"/>
		</clipPath>
		<polygon style="opacity:0.3;clip-path:url(#SVGID_00000108269554894190307460000014703401143173339555_);" points="65.08,38.03 
			36.5,62.68 12.8,39.67 14.42,11.01 36.33,9.31 		"/>
	</g>
	<path class="st1" d="M35,9H15c-1.47,0-2.67,1.19-2.67,2.67v26.67c0,1.47,1.19,2.67,2.67,2.67h20c1.47,0,2.67-1.19,2.67-2.67V11.67
		C37.67,10.19,36.47,9,35,9z M36.33,38.18c0,0.82-0.67,1.49-1.49,1.49H15.16c-0.82,0-1.49-0.67-1.49-1.49V11.82
		c0-0.82,0.67-1.49,1.49-1.49h19.69c0.82,0,1.49,0.67,1.49,1.49V38.18z"/>
	<path class="st1" d="M34.84,9.33H15.16c-0.82,0-1.49,0.67-1.49,1.49v26.36c0,0.82,0.67,1.49,1.49,1.49h19.69
		c0.82,0,1.49-0.67,1.49-1.49V10.82C36.33,10,35.67,9.33,34.84,9.33z"/>
	<g>
		<path class="st2" d="M34.84,11.33c0.27,0,0.49,0.22,0.49,0.49v26.36c0,0.27-0.22,0.49-0.49,0.49H15.16
			c-0.27,0-0.49-0.22-0.49-0.49V11.82c0-0.27,0.22-0.49,0.49-0.49H34.84 M34.84,10.33H15.16c-0.82,0-1.49,0.67-1.49,1.49v26.36
			c0,0.82,0.67,1.49,1.49,1.49h19.69c0.82,0,1.49-0.67,1.49-1.49V11.82C36.33,11,35.67,10.33,34.84,10.33L34.84,10.33z"/>
	</g>
	<path class="st2" d="M16.67,29.67L16.67,29.67C16.3,29.67,16,29.37,16,29v-3.33C16,25.3,16.3,25,16.67,25h0
		c0.37,0,0.67,0.3,0.67,0.67V29C17.33,29.37,17.03,29.67,16.67,29.67z"/>
	<polygon class="st3" points="25.76,15.01 20.97,21.75 24.8,21.75 24.17,27 29.07,20.03 25.29,20.03 	"/>
	<path class="st2" d="M33.67,34.33H16.33c-0.37,0-0.67-0.3-0.67-0.67v0c0-0.37,0.3-0.67,0.67-0.67h17.33c0.37,0,0.67,0.3,0.67,0.67
		v0C34.33,34.03,34.03,34.33,33.67,34.33z"/>
	<path class="st2" d="M33.67,37H16.33c-0.37,0-0.67-0.3-0.67-0.67v0c0-0.37,0.3-0.67,0.67-0.67h17.33c0.37,0,0.67,0.3,0.67,0.67v0
		C34.33,36.7,34.03,37,33.67,37z"/>
  <rect
    width="50"
    height="50"
    x="0"
    y="0"
    style="fill:#ffffff;fill-opacity:0" />
</g>
</svg>
