<?xml version="1.0" encoding="utf-8"?>
<!-- Generator: Adobe Illustrator 26.0.1, SVG Export Plug-In . SVG Version: 6.00 Build 0)  -->
<svg version="1.1" id="레이어_1" xmlns="http://www.w3.org/2000/svg" xmlns:xlink="http://www.w3.org/1999/xlink" x="0px"
	 y="0px" viewBox="0 0 50 50" style="enable-background:new 0 0 50 50;" xml:space="preserve">
<style type="text/css">
	.st0{opacity:0.3;}
	.st1{fill:#E8E8E8;}
</style>
<g>
	<path class="st0" d="M35.5,10.4l4.1,1.8l11.2,12.3l-0.1,25.8H24.5L13.7,38.1c0,0-1.4-2.4-1.7-5.7c0,0,0,0,0,0
		c0,0,0.3-16.7,0.2-16.9c0,0,1.2-3.1,3.5-4.2c2.5-1.2,6.3-0.3,6.3-0.4c0,0,6,4.1,6,4.1C30.1,10.4,35.6,10.4,35.5,10.4z"/>
	<g class="st0">
		<path d="M35.4,10.7H35c-3.8,0-6.9,3.1-6.9,6.9v16.1c0,3.8,3.1,6.9,6.9,6.9h0.4c3.8,0,6.9-3.1,6.9-6.9V17.7
			C42.3,13.8,39.2,10.7,35.4,10.7z M35,11.5h0.4c3.4,0,6.1,2.7,6.2,6H28.8C28.9,14.2,31.6,11.5,35,11.5z M28.8,18.2h1.5v15h-1.5
			V18.2z M35.4,40H35c-3.4,0-6.1-2.7-6.2-6h12.7C41.5,37.3,38.7,40,35.4,40z M41.6,33.2h-1.5v-5.4c-0.2,0.2-0.5,0.4-0.8,0.5v4.9
			h-1.5v-4.8c-0.3-0.1-0.5-0.2-0.8-0.4v5.2h-1.5v-3.3c0,0.7-0.3,1.3-0.8,1.7v1.6h-1.5v-1c0,0-0.1,0-0.1,0c-0.2,0-0.4,0-0.6-0.1v1.1
			h-1.5v-2.4c-0.1-0.3-0.2-0.6-0.2-1c0-0.3,0.1-0.6,0.2-0.8v-5.7c-0.1-0.3-0.2-0.6-0.2-1c0-0.3,0.1-0.6,0.2-0.8v-3.3h1.5v1.2
			c0,0,0.1-0.1,0.1-0.1l0.5-0.6l0.1,0.1v-0.7h1.5v2.4c0.4,0.6,0.8,1.2,0.8,1.8v-4.2h1.5v5.9c0.3-0.4,0.6-0.7,0.8-0.9v-5h1.5v5.2
			c0.2,0.2,0.5,0.6,0.8,0.9v-6.2h1.5V33.2z"/>
		<path d="M34.8,24.1v4c0.4,0.6,0.8,1.2,0.8,1.8v-7.5C35.6,23.1,35.3,23.7,34.8,24.1z"/>
		<path d="M33.3,26.4v-1.7c0,0-0.1,0-0.1,0c-0.2,0-0.4,0-0.6-0.1V27c0,0,0.1-0.1,0.1-0.1l0.5-0.6L33.3,26.4z"/>
		<path d="M32,22.3c0,0.6,0.5,1.2,1.2,1.2c0.6,0,1.2-0.5,1.2-1.2c0-0.6-1.2-1.8-1.2-1.8S32,21.7,32,22.3z"/>
		<path d="M37.3,26.1c0,0.6,0.5,1.2,1.2,1.2c0.6,0,1.2-0.5,1.2-1.2c0-0.6-1.2-1.8-1.2-1.8S37.3,25.4,37.3,26.1z"/>
		<path d="M32,29.8c0,0.6,0.5,1.2,1.2,1.2c0.6,0,1.2-0.5,1.2-1.2c0-0.6-1.2-1.8-1.2-1.8S32,29.2,32,29.8z"/>
		<path d="M19.6,10.7h-0.4c-3.8,0-6.9,3.1-6.9,6.9v16.1c0,3.8,3.1,6.9,6.9,6.9h0.4c3.8,0,6.9-3.1,6.9-6.9V17.7
			C26.6,13.8,23.5,10.7,19.6,10.7z M19.6,40h-0.4c-3.4,0-6.1-2.7-6.2-6h12.7C25.7,37.3,23,40,19.6,40z M16.1,28.7
			c0.8,0,1.5,0.7,1.5,1.5c0,0.8-0.7,1.5-1.5,1.5c-0.8,0-1.5-0.7-1.5-1.5C14.6,29.4,15.2,28.7,16.1,28.7z M14.6,21.2
			c0-0.8,0.7-1.5,1.5-1.5c0.8,0,1.5,0.7,1.5,1.5c0,0.8-0.7,1.5-1.5,1.5C15.2,22.7,14.6,22.1,14.6,21.2z M17.9,25.7
			c0-0.8,0.7-1.5,1.5-1.5s1.5,0.7,1.5,1.5c0,0.8-0.7,1.5-1.5,1.5S17.9,26.6,17.9,25.7z M22.8,28.7c0.8,0,1.5,0.7,1.5,1.5
			c0,0.8-0.7,1.5-1.5,1.5s-1.5-0.7-1.5-1.5C21.3,29.4,22,28.7,22.8,28.7z M21.3,21.2c0-0.8,0.7-1.5,1.5-1.5s1.5,0.7,1.5,1.5
			c0,0.8-0.7,1.5-1.5,1.5S21.3,22.1,21.3,21.2z M13.1,17.5c0.1-3.3,2.8-6,6.2-6h0.4c3.4,0,6.1,2.7,6.2,6H13.1z"/>
	</g>
	<g>
		<path class="st1" d="M32.7,31.8v1H32v-1.1c0.2,0.1,0.4,0.1,0.6,0.1C32.6,31.8,32.7,31.8,32.7,31.8z"/>
		<path class="st1" d="M34.8,10.2h-0.4c-3.8,0-6.9,3.1-6.9,6.9v16.1c0,3.8,3.1,6.9,6.9,6.9h0.4c3.8,0,6.9-3.1,6.9-6.9V17.2
			C41.7,13.3,38.6,10.2,34.8,10.2z M34.4,11h0.4c3.4,0,6.1,2.7,6.2,6H28.2C28.3,13.7,31.1,11,34.4,11z M28.2,17.7h1.5v15h-1.5V17.7z
			 M34.8,39.5h-0.4c-3.4,0-6.1-2.7-6.2-6H41C40.9,36.8,38.1,39.5,34.8,39.5z M41,32.7H30.5v-2.4c-0.1-0.3-0.2-0.6-0.2-1
			c0-0.3,0.1-0.6,0.2-0.8v-5.7c-0.1-0.3-0.2-0.6-0.2-1c0-0.3,0.1-0.6,0.2-0.8v-3.3H32V19c0,0,0.1-0.1,0.1-0.1l0.5-0.6l0.1,0.1v-0.7
			h1.5v2.4c0.4,0.6,0.8,1.2,0.8,1.8v-4.2h1.5v5.9c0.3-0.4,0.6-0.7,0.8-0.9v-5h1.5v5.2c0.2,0.2,0.5,0.6,0.8,0.9v-6.1H41V32.7z"/>
		<path class="st1" d="M35,21.9v7.5c0-0.6-0.3-1.2-0.8-1.8v-4C34.7,23.2,35,22.6,35,21.9z"/>
		<path class="st1" d="M32.7,24.3v1.6l-0.1-0.1l-0.5,0.6c0,0-0.1,0.1-0.1,0.1v-2.3c0.2,0.1,0.4,0.1,0.6,0.1
			C32.6,24.3,32.7,24.3,32.7,24.3z"/>
		<path class="st1" d="M37.2,27.9v4.8h-0.8v-5.2C36.7,27.7,36.9,27.8,37.2,27.9z"/>
		<path class="st1" d="M35,29.4v3.3h-0.8v-1.6C34.7,30.7,35,30.1,35,29.4z"/>
		<path class="st1" d="M39.5,27.4v5.4h-0.8v-4.9C39,27.7,39.2,27.6,39.5,27.4z"/>
		<path class="st1" d="M32.6,19.9c0,0-1.2,1.2-1.2,1.8c0,0.6,0.5,1.2,1.2,1.2c0.6,0,1.2-0.5,1.2-1.2C33.8,21.1,32.6,19.9,32.6,19.9z
			"/>
		<path class="st1" d="M37.9,23.7c0,0-1.2,1.2-1.2,1.8c0,0.6,0.5,1.2,1.2,1.2s1.2-0.5,1.2-1.2C39,24.9,37.9,23.7,37.9,23.7z"/>
		<path class="st1" d="M32.6,27.4c0,0-1.2,1.2-1.2,1.8c0,0.6,0.5,1.2,1.2,1.2c0.6,0,1.2-0.5,1.2-1.2C33.8,28.6,32.6,27.4,32.6,27.4z
			"/>
	</g>
	<g>
		<path class="st1" d="M19,10.2h-0.4c-3.8,0-6.9,3.1-6.9,6.9v16.1c0,3.8,3.1,6.9,6.9,6.9H19c3.8,0,6.9-3.1,6.9-6.9V17.2
			C26,13.3,22.9,10.2,19,10.2z M19,39.5h-0.4c-3.4,0-6.1-2.7-6.2-6h12.7C25.1,36.8,22.4,39.5,19,39.5z M15.5,28.2
			c0.8,0,1.5,0.7,1.5,1.5s-0.7,1.5-1.5,1.5S14,30.6,14,29.7S14.6,28.2,15.5,28.2z M14,20.7c0-0.8,0.7-1.5,1.5-1.5s1.5,0.7,1.5,1.5
			s-0.7,1.5-1.5,1.5S14,21.6,14,20.7z M17.3,25.2c0-0.8,0.7-1.5,1.5-1.5s1.5,0.7,1.5,1.5s-0.7,1.5-1.5,1.5S17.3,26.1,17.3,25.2z
			 M22.2,28.2c0.8,0,1.5,0.7,1.5,1.5s-0.7,1.5-1.5,1.5s-1.5-0.7-1.5-1.5S21.4,28.2,22.2,28.2z M20.7,20.7c0-0.8,0.7-1.5,1.5-1.5
			s1.5,0.7,1.5,1.5s-0.7,1.5-1.5,1.5S20.7,21.6,20.7,20.7z M12.5,17c0.1-3.3,2.8-6,6.2-6H19c3.4,0,6.1,2.7,6.2,6H12.5z"/>
	</g>
   <rect
   width="50"
   height="50"
   x="0"
   y="0"
   style="fill:#ffffff;fill-opacity:0" />
</g>
</svg>
