<?xml version="1.0" encoding="utf-8"?>
<!-- Generator: Adobe Illustrator 25.4.1, SVG Export Plug-In . SVG Version: 6.00 Build 0)  -->
<svg version="1.1" id="레이어_1" xmlns="http://www.w3.org/2000/svg" xmlns:xlink="http://www.w3.org/1999/xlink" x="0px"
	 y="0px" viewBox="0 0 50 50" style="enable-background:new 0 0 50 50;" xml:space="preserve">
<style type="text/css">
	.그림자_x0020_만들기{fill:none;}
	.모퉁이_x0020_둥글리기_x0020_2pt{fill:#FFFFFF;stroke:#231815;stroke-miterlimit:10;}
	.라이브_x0020_반사_x0020_X{fill:none;}
	.경사_x0020_부드럽게{fill:url(#SVGID_1_);}
	.황혼{fill:#FFFFFF;}
	.잎_GS{fill:#FFE100;}
	.퐁파두르_GS{fill-rule:evenodd;clip-rule:evenodd;fill:#4CACE2;}
	.st0{opacity:0.3;clip-path:url(#SVGID_00000027600261970339577010000002342050738385989508_);}
	.st1{fill:#9E9E9E;}
	.st2{opacity:0.3;}
	.st3{fill:#E8E8E8;}
</style>
<linearGradient id="SVGID_1_" gradientUnits="userSpaceOnUse" x1="0" y1="0" x2="0.7071" y2="0.7071">
	<stop  offset="0" style="stop-color:#E6E7EA"/>
	<stop  offset="0.1747" style="stop-color:#E2E3E6"/>
	<stop  offset="0.3538" style="stop-color:#D6D7DA"/>
	<stop  offset="0.5349" style="stop-color:#C1C4C5"/>
	<stop  offset="0.7174" style="stop-color:#A4A8A8"/>
	<stop  offset="0.8993" style="stop-color:#808584"/>
	<stop  offset="1" style="stop-color:#686E6C"/>
</linearGradient>
<g>
	<g>
		<defs>
			<rect id="SVGID_00000020365902051546555020000017311112721878656910_" width="50" height="50"/>
		</defs>
		<clipPath id="SVGID_00000101089111533555830860000012253058169054768041_">
			<use xlink:href="#SVGID_00000020365902051546555020000017311112721878656910_"  style="overflow:visible;"/>
		</clipPath>
		<polygon style="opacity:0.3;clip-path:url(#SVGID_00000101089111533555830860000012253058169054768041_);" points="54.5,41 
			44.3,62.86 21.41,39.48 21.19,31 30.53,17.74 		"/>
	</g>
	<rect x="21.19" y="34.9" class="st1" width="7.62" height="1.52"/>
	<path class="st1" d="M21.19,37.95v0.76C21.19,39.56,22.9,41,25,41s3.81-1.44,3.81-2.29v-0.76H21.19z"/>
	<g class="st2">
		<g>
			<path d="M26,16.86c-4.63,0-8.38,3.75-8.38,8.38c0,3.26,1.86,6.07,4.57,7.46v1.68h7.62V32.7c2.71-1.39,4.57-4.2,4.57-7.46
				C34.38,20.61,30.63,16.86,26,16.86z"/>
			<path d="M13.81,24.48h-2.29c-0.42,0-0.76,0.34-0.76,0.76c0,0.42,0.34,0.76,0.76,0.76h2.29c0.42,0,0.76-0.34,0.76-0.76
				C14.57,24.82,14.23,24.48,13.81,24.48z"/>
			<path d="M17.92,16.08l-1.62-1.62c-0.3-0.3-0.78-0.3-1.08,0c-0.3,0.3-0.3,0.78,0,1.08l1.62,1.62c0.3,0.3,0.78,0.3,1.08,0
				S18.22,16.38,17.92,16.08z"/>
			<path d="M26,13.81c0.42,0,0.76-0.34,0.76-0.76v-2.29c0-0.42-0.34-0.76-0.76-0.76s-0.76,0.34-0.76,0.76v2.29
				C25.24,13.47,25.58,13.81,26,13.81z"/>
			<path d="M35.7,14.46l-1.62,1.62c-0.3,0.3-0.3,0.78,0,1.08s0.78,0.3,1.08,0l1.62-1.62c0.3-0.3,0.3-0.78,0-1.08
				C36.48,14.17,36,14.17,35.7,14.46z"/>
			<path d="M40.48,24.48h-2.29c-0.42,0-0.76,0.34-0.76,0.76c0,0.42,0.34,0.76,0.76,0.76h2.29c0.42,0,0.76-0.34,0.76-0.76
				C41.24,24.82,40.9,24.48,40.48,24.48z"/>
		</g>
		<g>
			<path d="M26,16.86c-4.63,0-8.38,3.75-8.38,8.38c0,3.26,1.86,6.07,4.57,7.46v1.68h7.62V32.7c2.71-1.39,4.57-4.2,4.57-7.46
				C34.38,20.61,30.63,16.86,26,16.86z"/>
			<path d="M13.81,24.48h-2.29c-0.42,0-0.76,0.34-0.76,0.76c0,0.42,0.34,0.76,0.76,0.76h2.29c0.42,0,0.76-0.34,0.76-0.76
				C14.57,24.82,14.23,24.48,13.81,24.48z"/>
			<path d="M17.92,16.08l-1.62-1.62c-0.3-0.3-0.78-0.3-1.08,0c-0.3,0.3-0.3,0.78,0,1.08l1.62,1.62c0.3,0.3,0.78,0.3,1.08,0
				S18.22,16.38,17.92,16.08z"/>
			<path d="M26,13.81c0.42,0,0.76-0.34,0.76-0.76v-2.29c0-0.42-0.34-0.76-0.76-0.76s-0.76,0.34-0.76,0.76v2.29
				C25.24,13.47,25.58,13.81,26,13.81z"/>
			<path d="M35.7,14.46l-1.62,1.62c-0.3,0.3-0.3,0.78,0,1.08s0.78,0.3,1.08,0l1.62-1.62c0.3-0.3,0.3-0.78,0-1.08
				C36.48,14.17,36,14.17,35.7,14.46z"/>
			<path d="M40.48,24.48h-2.29c-0.42,0-0.76,0.34-0.76,0.76c0,0.42,0.34,0.76,0.76,0.76h2.29c0.42,0,0.76-0.34,0.76-0.76
				C41.24,24.82,40.9,24.48,40.48,24.48z"/>
		</g>
	</g>
	<g>
		<path class="st3" d="M25,15.86c-4.63,0-8.38,3.75-8.38,8.38c0,3.26,1.86,6.07,4.57,7.46v1.68h7.62V31.7
			c2.71-1.39,4.57-4.2,4.57-7.46C33.38,19.61,29.63,15.86,25,15.86z"/>
		<path class="st3" d="M12.81,23.48h-2.29c-0.42,0-0.76,0.34-0.76,0.76c0,0.42,0.34,0.76,0.76,0.76h2.29c0.42,0,0.76-0.34,0.76-0.76
			C13.57,23.82,13.23,23.48,12.81,23.48z"/>
		<path class="st3" d="M16.92,15.08l-1.62-1.62c-0.3-0.3-0.78-0.3-1.08,0c-0.3,0.3-0.3,0.78,0,1.08l1.62,1.62
			c0.3,0.3,0.78,0.3,1.08,0S17.22,15.38,16.92,15.08z"/>
		<path class="st3" d="M25,12.81c0.42,0,0.76-0.34,0.76-0.76V9.76C25.76,9.34,25.42,9,25,9s-0.76,0.34-0.76,0.76v2.29
			C24.24,12.47,24.58,12.81,25,12.81z"/>
		<path class="st3" d="M34.7,13.46l-1.62,1.62c-0.3,0.3-0.3,0.78,0,1.08s0.78,0.3,1.08,0l1.62-1.62c0.3-0.3,0.3-0.78,0-1.08
			C35.48,13.17,35,13.17,34.7,13.46z"/>
		<path class="st3" d="M39.48,23.48h-2.29c-0.42,0-0.76,0.34-0.76,0.76c0,0.42,0.34,0.76,0.76,0.76h2.29c0.42,0,0.76-0.34,0.76-0.76
			C40.24,23.82,39.9,23.48,39.48,23.48z"/>
	</g>
  <rect
    width="50"
    height="50"
    x="0"
    y="0"
    style="fill:#ffffff;fill-opacity:0" />
</g>
</svg>
