<?xml version="1.0" encoding="utf-8"?>
<!-- Generator: Adobe Illustrator 25.4.1, SVG Export Plug-In . SVG Version: 6.00 Build 0)  -->
<svg version="1.1" id="레이어_1" xmlns="http://www.w3.org/2000/svg" xmlns:xlink="http://www.w3.org/1999/xlink" x="0px"
	 y="0px" viewBox="0 0 128 128" style="enable-background:new 0 0 128 128;" xml:space="preserve">
<style type="text/css">
	.그림자_x0020_만들기{fill:none;}
	.모퉁이_x0020_둥글리기_x0020_2pt{fill:#FFFFFF;stroke:#231815;stroke-miterlimit:10;}
	.라이브_x0020_반사_x0020_X{fill:none;}
	.경사_x0020_부드럽게{fill:url(#SVGID_1_);}
	.황혼{fill:#FFFFFF;}
	.잎_GS{fill:#FFE100;}
	.퐁파두르_GS{fill-rule:evenodd;clip-rule:evenodd;fill:#4CACE2;}
	.st0{fill:url(#SVGID_00000142167975451748438000000008144722526998866071_);}
	.st1{fill:url(#SVGID_00000177481148766690545840000007035193273076584894_);}
	.st2{fill:url(#SVGID_00000122711924160426705190000007219264496096246660_);}
	.st3{fill:url(#SVGID_00000073714581622626775230000006735887601289773706_);}
	.st4{fill:url(#SVGID_00000067922491204230848490000014399554917189994668_);}
	.st5{fill:url(#SVGID_00000055707387952222916330000016048692645341802404_);}
	.st6{fill:url(#SVGID_00000176747723908941214260000002889303289753371524_);}
	.st7{fill:url(#SVGID_00000142150400696495852380000010356905296681760169_);}
	.st8{opacity:0.2;}
</style>
<linearGradient id="SVGID_1_" gradientUnits="userSpaceOnUse" x1="0" y1="0" x2="0.7071" y2="0.7071">
	<stop  offset="0" style="stop-color:#E6E7EA"/>
	<stop  offset="0.1747" style="stop-color:#E2E3E6"/>
	<stop  offset="0.3538" style="stop-color:#D6D7DA"/>
	<stop  offset="0.5349" style="stop-color:#C1C4C5"/>
	<stop  offset="0.7174" style="stop-color:#A4A8A8"/>
	<stop  offset="0.8993" style="stop-color:#808584"/>
	<stop  offset="1" style="stop-color:#686E6C"/>
</linearGradient>
<g>
	
		<linearGradient id="SVGID_00000052062532411704044460000006566190571286882741_" gradientUnits="userSpaceOnUse" x1="32" y1="48.3386" x2="32" y2="80.1855">
		<stop  offset="0" style="stop-color:#A2A7B6"/>
		<stop  offset="0.3591" style="stop-color:#D8DCE8"/>
		<stop  offset="0.8814" style="stop-color:#808492"/>
	</linearGradient>
	<polygon style="fill:url(#SVGID_00000052062532411704044460000006566190571286882741_);" points="48,48 0,48 0,80 48,80 64,64 	"/>
	
		<linearGradient id="SVGID_00000015345056320800466650000014357042055062890642_" gradientUnits="userSpaceOnUse" x1="96" y1="48.3386" x2="96" y2="80.1855">
		<stop  offset="0" style="stop-color:#A2A7B6"/>
		<stop  offset="0.3591" style="stop-color:#D8DCE8"/>
		<stop  offset="0.8814" style="stop-color:#808492"/>
	</linearGradient>
	<polygon style="fill:url(#SVGID_00000015345056320800466650000014357042055062890642_);" points="80,48 64,64 80,80 128,80 128,48 
			"/>
	
		<linearGradient id="SVGID_00000088831346365517887180000000450942549034761095_" gradientUnits="userSpaceOnUse" x1="48" y1="32" x2="80" y2="32">
		<stop  offset="0" style="stop-color:#A2A7B6"/>
		<stop  offset="0.3591" style="stop-color:#D8DCE8"/>
		<stop  offset="0.8814" style="stop-color:#808492"/>
	</linearGradient>
	<polygon style="fill:url(#SVGID_00000088831346365517887180000000450942549034761095_);" points="48,0 48,48 64,64 80,48 80,0 	"/>
	
		<linearGradient id="SVGID_00000064345116078012267190000002275848560813644949_" gradientUnits="userSpaceOnUse" x1="48" y1="-528" x2="80" y2="-528" gradientTransform="matrix(1 0 0 -1 0 -432)">
		<stop  offset="0" style="stop-color:#A2A7B6"/>
		<stop  offset="0.3591" style="stop-color:#D8DCE8"/>
		<stop  offset="0.8814" style="stop-color:#808492"/>
	</linearGradient>
	<polygon style="fill:url(#SVGID_00000064345116078012267190000002275848560813644949_);" points="48,128 48,80 64,64 80,80 80,128 
			"/>
	
		<linearGradient id="SVGID_00000078044208216894802340000006872243660002694549_" gradientUnits="userSpaceOnUse" x1="-715.5" y1="233.9234" x2="-715.5" y2="273.732" gradientTransform="matrix(0 -1 1 0 -189.5001 -592.5)">
		<stop  offset="0" style="stop-color:#747886"/>
		<stop  offset="0.3182" style="stop-color:#BCC0CD"/>
		<stop  offset="0.8814" style="stop-color:#747886"/>
	</linearGradient>
	<path style="fill:url(#SVGID_00000078044208216894802340000006872243660002694549_);" d="M44,127l0-8c0-0.55,0.45-1,1-1l38,0
		c0.55,0,1,0.45,1,1v8c0,0.55-0.45,1-1,1l-38,0C44.45,128,44,127.55,44,127z"/>
	
		<linearGradient id="SVGID_00000135683828008377665740000003130125303593465531_" gradientUnits="userSpaceOnUse" x1="-597.5" y1="233.9234" x2="-597.5" y2="273.732" gradientTransform="matrix(0 -1 1 0 -189.5001 -592.5)">
		<stop  offset="0" style="stop-color:#747886"/>
		<stop  offset="0.3182" style="stop-color:#BCC0CD"/>
		<stop  offset="0.8814" style="stop-color:#747886"/>
	</linearGradient>
	<path style="fill:url(#SVGID_00000135683828008377665740000003130125303593465531_);" d="M44,9l0-8c0-0.55,0.45-1,1-1l38,0
		c0.55,0,1,0.45,1,1v8c0,0.55-0.45,1-1,1l-38,0C44.45,10,44,9.55,44,9z"/>
	
		<linearGradient id="SVGID_00000041278958749371759280000011087041457613234365_" gradientUnits="userSpaceOnUse" x1="123" y1="44.4233" x2="123" y2="84.2319">
		<stop  offset="0" style="stop-color:#747886"/>
		<stop  offset="0.3182" style="stop-color:#BCC0CD"/>
		<stop  offset="0.8814" style="stop-color:#747886"/>
	</linearGradient>
	<path style="fill:url(#SVGID_00000041278958749371759280000011087041457613234365_);" d="M119,44h8c0.55,0,1,0.45,1,1v38
		c0,0.55-0.45,1-1,1h-8c-0.55,0-1-0.45-1-1V45C118,44.45,118.45,44,119,44z"/>
	
		<linearGradient id="SVGID_00000140694901990180276350000016150165901014603955_" gradientUnits="userSpaceOnUse" x1="5" y1="44.4233" x2="5" y2="84.2319">
		<stop  offset="0" style="stop-color:#747886"/>
		<stop  offset="0.3182" style="stop-color:#BCC0CD"/>
		<stop  offset="0.8814" style="stop-color:#747886"/>
	</linearGradient>
	<path style="fill:url(#SVGID_00000140694901990180276350000016150165901014603955_);" d="M1,44h8c0.55,0,1,0.45,1,1v38
		c0,0.55-0.45,1-1,1H1c-0.55,0-1-0.45-1-1V45C0,44.45,0.45,44,1,44z"/>
	<g class="st8">
		<path d="M45,118v1l38,0v8l-38,0l0-8l0,0V118 M45,118c-0.55,0-1,0.45-1,1v8c0,0.55,0.45,1,1,1l38,0c0.55,0,1-0.45,1-1v-8
			c0-0.55-0.45-1-1-1L45,118L45,118z"/>
	</g>
	<g class="st8">
		<path d="M45,0v1l38,0v8L45,9l0-8l0,0V0 M45,0c-0.55,0-1,0.45-1,1v8c0,0.55,0.45,1,1,1l38,0c0.55,0,1-0.45,1-1V1c0-0.55-0.45-1-1-1
			L45,0L45,0z"/>
	</g>
	<g class="st8">
		<path d="M127,45v38h-8V45H127 M127,44h-8c-0.55,0-1,0.45-1,1v38c0,0.55,0.45,1,1,1h8c0.55,0,1-0.45,1-1V45
			C128,44.45,127.55,44,127,44L127,44z"/>
	</g>
	<g class="st8">
		<path d="M9,45v38H1V45H9 M9,44H1c-0.55,0-1,0.45-1,1v38c0,0.55,0.45,1,1,1h8c0.55,0,1-0.45,1-1V45C10,44.45,9.55,44,9,44L9,44z"/>
	</g>
  <rect
    width="128"
    height="128"
    x="0"
    y="0"
    style="fill:#ffffff;fill-opacity:0" />
</g>
</svg>
