<svg width="28" height="28" viewBox="0 0 28 28" fill="none" xmlns="http://www.w3.org/2000/svg">
<path d="M14 3C11.0084 3 8.6 5.26431 8.6 8.07692V11.4615C6.62 11.4615 5 12.9846 5 14.8462V21.6154C5 23.4769 6.62 25 8.6 25H19.4C21.38 25 23 23.4769 23 21.6154V14.8462C23 12.9846 21.38 11.4615 19.4 11.4615H10.4V8.07692C10.4 6.15108 11.9516 4.69231 14 4.69231C16.0484 4.69231 17.6 6.15108 17.6 8.07692V11.5H19.4V8.07692C19.4 5.26431 16.9916 3 14 3ZM14 15.6923C14.99 15.6923 15.8 16.4538 15.8 17.3846C15.8 17.9769 15.44 18.5582 14.9 18.8129V20.7692C14.9 21.2769 14.54 21.6154 14 21.6154C13.46 21.6154 13.1 21.2769 13.1 20.7692V18.8121C12.56 18.5582 12.2 17.9769 12.2 17.3846C12.2 16.4538 13.01 15.6923 14 15.6923Z" fill="#CFCFCF"/>
</svg>
