<?xml version="1.0" encoding="utf-8"?>
<!-- Generator: Adobe Illustrator 25.4.1, SVG Export Plug-In . SVG Version: 6.00 Build 0)  -->
<svg version="1.1" id="레이어_1" xmlns="http://www.w3.org/2000/svg" xmlns:xlink="http://www.w3.org/1999/xlink" x="0px"
	 y="0px" viewBox="0 0 50 50" style="enable-background:new 0 0 50 50;" xml:space="preserve">
<style type="text/css">
	.그림자_x0020_만들기{fill:none;}
	.모퉁이_x0020_둥글리기_x0020_2pt{fill:#FFFFFF;stroke:#231815;stroke-miterlimit:10;}
	.라이브_x0020_반사_x0020_X{fill:none;}
	.경사_x0020_부드럽게{fill:url(#SVGID_1_);}
	.황혼{fill:#FFFFFF;}
	.잎_GS{fill:#FFE100;}
	.퐁파두르_GS{fill-rule:evenodd;clip-rule:evenodd;fill:#4CACE2;}
	.st0{opacity:0.3;clip-path:url(#SVGID_00000056426411476597606090000005957691721454682768_);}
	.st1{fill:none;}
	.st2{opacity:0.3;}
	.st3{fill:#E8E8E8;}
	.st4{fill:#9E9E9E;}
</style>
<linearGradient id="SVGID_1_" gradientUnits="userSpaceOnUse" x1="0" y1="0" x2="0.7071" y2="0.7071">
	<stop  offset="0" style="stop-color:#E6E7EA"/>
	<stop  offset="0.1747" style="stop-color:#E2E3E6"/>
	<stop  offset="0.3538" style="stop-color:#D6D7DA"/>
	<stop  offset="0.5349" style="stop-color:#C1C4C5"/>
	<stop  offset="0.7174" style="stop-color:#A4A8A8"/>
	<stop  offset="0.8993" style="stop-color:#808584"/>
	<stop  offset="1" style="stop-color:#686E6C"/>
</linearGradient>
<g>
	<g>
		<defs>
			<rect id="SVGID_00000012471962408326145710000007463417488776918434_" width="50" height="50"/>
		</defs>
		<clipPath id="SVGID_00000174564410463689176630000000634544086421351099_">
			<use xlink:href="#SVGID_00000012471962408326145710000007463417488776918434_"  style="overflow:visible;"/>
		</clipPath>
		<polygon style="opacity:0.3;clip-path:url(#SVGID_00000174564410463689176630000000634544086421351099_);" points="63.21,39.55 
			35.31,62.04 11,35.75 11.88,12.85 39.49,12.25 		"/>
	</g>
	<g>
		<circle class="st1" cx="21.99" cy="23.81" r="9.68"/>
	</g>
	<g class="st2">
		<g>
			<path d="M38.08,12.68H13.89c-1.22,0-2.23,0.91-2.39,2.09c-0.01,0.09-0.02,0.18-0.03,0.28v19.4c0,1.34,1.08,2.42,2.42,2.42h1.21
				v1.21c0,0.67,0.54,1.21,1.21,1.21h2.42c0.67,0,1.21-0.54,1.21-1.21v-1.21h12.1v1.21c0,0.67,0.54,1.21,1.21,1.21h2.42
				c0.67,0,1.21-0.54,1.21-1.21v-1.21h1.21c1.34,0,2.42-1.08,2.42-2.42V15.1C40.5,13.76,39.42,12.68,38.08,12.68z M22.96,34.45
				c-5.35,0-9.68-4.34-9.68-9.68s4.33-9.68,9.68-9.68c5.34,0,9.68,4.34,9.68,9.68S28.31,34.45,22.96,34.45z M38.56,33.73h-3.87v-2.9
				h3.87V33.73z M38.56,28.89h-3.87v-2.9h3.87V28.89z M38.56,24.05h-3.87v-2.9h3.87V24.05z M38.56,19.21h-3.87v-2.9h3.87V19.21z"/>
		</g>
		<g>
			<path d="M38.08,12.68H13.89c-1.22,0-2.23,0.91-2.39,2.09c-0.01,0.09-0.02,0.18-0.03,0.28v19.4c0,1.34,1.08,2.42,2.42,2.42h1.21
				v1.21c0,0.67,0.54,1.21,1.21,1.21h2.42c0.67,0,1.21-0.54,1.21-1.21v-1.21h12.1v1.21c0,0.67,0.54,1.21,1.21,1.21h2.42
				c0.67,0,1.21-0.54,1.21-1.21v-1.21h1.21c1.34,0,2.42-1.08,2.42-2.42V15.1C40.5,13.76,39.42,12.68,38.08,12.68z M22.96,34.45
				c-5.35,0-9.68-4.34-9.68-9.68s4.33-9.68,9.68-9.68c5.34,0,9.68,4.34,9.68,9.68S28.31,34.45,22.96,34.45z M38.56,33.73h-3.87v-2.9
				h3.87V33.73z M38.56,28.89h-3.87v-2.9h3.87V28.89z M38.56,24.05h-3.87v-2.9h3.87V24.05z M38.56,19.21h-3.87v-2.9h3.87V19.21z"/>
		</g>
	</g>
	<g>
		<circle class="st1" cx="21.99" cy="23.81" r="9.68"/>
		<path class="st3" d="M37.11,11.71H12.92c-1.22,0-2.23,0.91-2.39,2.09c-0.01,0.09-0.02,0.18-0.03,0.28v19.4
			c0,1.34,1.08,2.42,2.42,2.42h1.21v1.21c0,0.67,0.54,1.21,1.21,1.21h2.42c0.67,0,1.21-0.54,1.21-1.21V35.9h12.1v1.21
			c0,0.67,0.54,1.21,1.21,1.21h2.42c0.67,0,1.21-0.54,1.21-1.21V35.9h1.21c1.34,0,2.42-1.08,2.42-2.42V14.13
			C39.53,12.79,38.45,11.71,37.11,11.71z M22,33.48c-5.35,0-9.68-4.34-9.68-9.68s4.33-9.68,9.68-9.68c5.34,0,9.68,4.34,9.68,9.68
			S27.34,33.48,22,33.48z M37.6,32.76h-3.87v-2.9h3.87V32.76z M37.6,27.92h-3.87v-2.9h3.87V27.92z M37.6,23.08h-3.87v-2.9h3.87
			V23.08z M37.6,18.24h-3.87v-2.9h3.87V18.24z"/>
	</g>
	<circle class="st2" cx="22.93" cy="24.81" r="2.42"/>
	<circle class="st3" cx="21.93" cy="23.81" r="2.42"/>
	<g>
		<circle class="st1" cx="21.93" cy="23.81" r="9.68"/>
	</g>
	<g>
		<path class="st4" d="M13.93,21.11c-0.07-0.33,0.13-0.65,0.46-0.72c0.33-0.07,0.65,0.13,0.72,0.46c0.06,0.27,0.67,2.57,3.24,2.41
			c-0.04,0.18-0.05,0.36-0.05,0.55c0,0.22,0.02,0.44,0.06,0.66c-0.1,0.01-0.19,0.01-0.28,0.01C15.41,24.48,14.2,22.35,13.93,21.11z"
			/>
		<path class="st4" d="M16.77,28.24c-0.98,0-1.86-0.34-2.41-0.69C14.09,27.37,14,27,14.19,26.72c0.18-0.28,0.55-0.36,0.83-0.18
			c0.24,0.15,2.29,1.35,3.99-0.59c0.24,0.33,0.53,0.62,0.86,0.85C18.9,27.89,17.78,28.24,16.77,28.24z"/>
		<path class="st4" d="M18.18,16.24c0.18-0.28,0.55-0.36,0.83-0.18c0.28,0.18,0.36,0.55,0.18,0.83c-0.15,0.24-1.35,2.29,0.59,3.99
			c-0.33,0.24-0.61,0.53-0.84,0.87C16.79,19.84,17.46,17.36,18.18,16.24z"/>
		<path class="st4" d="M22.59,27.38c0.16,2.86-2.07,4.14-3.36,4.42c-0.04,0.01-0.09,0.02-0.13,0.02c-0.28,0-0.53-0.19-0.59-0.48
			c-0.07-0.33,0.13-0.65,0.46-0.72c0.27-0.06,2.58-0.67,2.41-3.22c0.18,0.03,0.36,0.04,0.54,0.04
			C22.16,27.44,22.38,27.42,22.59,27.38z"/>
		<path class="st4" d="M24.88,16.99c-0.27,0.06-2.58,0.67-2.41,3.23c-0.18-0.03-0.36-0.04-0.54-0.04c-0.23,0-0.45,0.02-0.67,0.06
			c-0.16-2.87,2.07-4.15,3.36-4.43c0.33-0.07,0.65,0.13,0.72,0.46C25.41,16.59,25.21,16.91,24.88,16.99z"/>
		<path class="st4" d="M25.68,31.36c-0.11,0.18-0.31,0.28-0.51,0.28c-0.11,0-0.22-0.03-0.33-0.1c-0.28-0.18-0.36-0.55-0.18-0.83
			c0.15-0.24,1.34-2.29-0.58-3.99c0.33-0.24,0.61-0.53,0.84-0.87C27.06,27.78,26.39,30.25,25.68,31.36z"/>
		<path class="st4" d="M23.98,20.81c1.92-2.14,4.4-1.47,5.51-0.76c0.28,0.18,0.36,0.55,0.18,0.83c-0.18,0.28-0.55,0.36-0.83,0.18
			c-0.24-0.15-2.29-1.35-3.99,0.59C24.61,21.32,24.32,21.04,23.98,20.81z"/>
		<path class="st4" d="M29.46,27.22c-0.04,0.01-0.08,0.02-0.13,0.02c-0.28,0-0.53-0.19-0.59-0.48c-0.06-0.27-0.67-2.56-3.22-2.41
			c0.03-0.18,0.04-0.36,0.04-0.54c0-0.23-0.02-0.45-0.07-0.67c2.87-0.16,4.15,2.07,4.43,3.36C30,26.82,29.79,27.15,29.46,27.22z"/>
	</g>
  <rect
      width="50"
      height="50"
      x="0"
      y="0"
      style="fill:#ffffff;fill-opacity:0" />
</g>
</svg>
