<?xml version="1.0" encoding="utf-8"?>
<!-- Generator: Adobe Illustrator 25.4.1, SVG Export Plug-In . SVG Version: 6.00 Build 0)  -->
<svg version="1.1" id="레이어_1" xmlns="http://www.w3.org/2000/svg" xmlns:xlink="http://www.w3.org/1999/xlink" x="0px"
	 y="0px" viewBox="0 0 50 50" style="enable-background:new 0 0 50 50;" xml:space="preserve">
<style type="text/css">
	.그림자_x0020_만들기{fill:none;}
	.모퉁이_x0020_둥글리기_x0020_2pt{fill:#FFFFFF;stroke:#231815;stroke-miterlimit:10;}
	.라이브_x0020_반사_x0020_X{fill:none;}
	.경사_x0020_부드럽게{fill:url(#SVGID_1_);}
	.황혼{fill:#FFFFFF;}
	.잎_GS{fill:#FFE100;}
	.퐁파두르_GS{fill-rule:evenodd;clip-rule:evenodd;fill:#4CACE2;}
	.st0{opacity:0.3;clip-path:url(#SVGID_00000103981425189140112510000013811123994651852455_);}
	.st1{fill:none;}
	.st2{opacity:0.3;}
	.st3{fill:#E8E8E8;}
	.st4{fill:#9E9E9E;}
	.st5{fill:#6B6B6B;}
</style>
<linearGradient id="SVGID_1_" gradientUnits="userSpaceOnUse" x1="0" y1="0" x2="0.7071" y2="0.7071">
	<stop  offset="0" style="stop-color:#E6E7EA"/>
	<stop  offset="0.1747" style="stop-color:#E2E3E6"/>
	<stop  offset="0.3538" style="stop-color:#D6D7DA"/>
	<stop  offset="0.5349" style="stop-color:#C1C4C5"/>
	<stop  offset="0.7174" style="stop-color:#A4A8A8"/>
	<stop  offset="0.8993" style="stop-color:#808584"/>
	<stop  offset="1" style="stop-color:#686E6C"/>
</linearGradient>
<g>
	<g>
		<defs>
			<rect id="SVGID_00000119810502972001602280000016584518621010098341_" width="50" height="50"/>
		</defs>
		<clipPath id="SVGID_00000144339552076915205480000003817349905219121041_">
			<use xlink:href="#SVGID_00000119810502972001602280000016584518621010098341_"  style="overflow:visible;"/>
		</clipPath>
		<polygon style="opacity:0.3;clip-path:url(#SVGID_00000144339552076915205480000003817349905219121041_);" points="58.42,36.78 
			39.45,67.45 13.11,40 13.48,10.05 36.83,10.64 		"/>
	</g>
	<circle class="st1" cx="25" cy="28" r="8.25"/>
	<path class="st2" d="M14,16.25v24c0,0.41,0.34,0.75,0.75,0.75h22.5c0.41,0,0.75-0.34,0.75-0.75v-24H14z M26,37.25
		c-4.56,0-8.25-3.69-8.25-8.25s3.69-8.25,8.25-8.25s8.25,3.69,8.25,8.25S30.56,37.25,26,37.25z"/>
	<g class="st2">
		<g>
			<path d="M37.25,11h-22.5C14.34,11,14,11.34,14,11.75v4.5h24v-4.5C38,11.34,37.66,11,37.25,11z M22.81,14.79
				c0,0.29-0.23,0.52-0.53,0.52h-5.7c-0.29,0-0.53-0.23-0.53-0.52v-2.32c0-0.29,0.23-0.53,0.53-0.53h5.7c0.29,0,0.53,0.23,0.53,0.53
				V14.79z M29.94,15.31c-0.93,0-1.69-0.76-1.69-1.69s0.76-1.69,1.69-1.69s1.69,0.76,1.69,1.69S30.87,15.31,29.94,15.31z
				 M34.62,15.31c-0.93,0-1.69-0.76-1.69-1.69s0.76-1.69,1.69-1.69s1.69,0.76,1.69,1.69S35.55,15.31,34.62,15.31z"/>
		</g>
		<g>
			<path class="st2" d="M37.25,11h-22.5C14.34,11,14,11.34,14,11.75v4.5h24v-4.5C38,11.34,37.66,11,37.25,11z M22.81,14.79
				c0,0.29-0.23,0.52-0.53,0.52h-5.7c-0.29,0-0.53-0.23-0.53-0.52v-2.32c0-0.29,0.23-0.53,0.53-0.53h5.7c0.29,0,0.53,0.23,0.53,0.53
				V14.79z M29.94,15.31c-0.93,0-1.69-0.76-1.69-1.69s0.76-1.69,1.69-1.69s1.69,0.76,1.69,1.69S30.87,15.31,29.94,15.31z
				 M34.62,15.31c-0.93,0-1.69-0.76-1.69-1.69s0.76-1.69,1.69-1.69s1.69,0.76,1.69,1.69S35.55,15.31,34.62,15.31z"/>
		</g>
	</g>
	<path class="st2" d="M28.8,30.2c0,1.55-1.25,2.8-2.8,2.8s-2.8-1.25-2.8-2.8c0-1.55,2.8-5.2,2.8-5.2S28.8,28.65,28.8,30.2z"/>
	<path class="st3" d="M13,15.25v24c0,0.41,0.34,0.75,0.75,0.75h22.5c0.41,0,0.75-0.34,0.75-0.75v-24H13z M25,36.25
		c-4.56,0-8.25-3.69-8.25-8.25s3.69-8.25,8.25-8.25s8.25,3.69,8.25,8.25S29.56,36.25,25,36.25z"/>
	<g>
		<g>
			<path class="st4" d="M36.25,10h-22.5C13.34,10,13,10.34,13,10.75v4.5h24v-4.5C37,10.34,36.66,10,36.25,10z M21.81,13.79
				c0,0.29-0.23,0.52-0.53,0.52h-5.7c-0.29,0-0.53-0.23-0.53-0.52v-2.32c0-0.29,0.23-0.53,0.53-0.53h5.7c0.29,0,0.53,0.23,0.53,0.53
				V13.79z M28.94,14.31c-0.93,0-1.69-0.76-1.69-1.69s0.76-1.69,1.69-1.69s1.69,0.76,1.69,1.69S29.87,14.31,28.94,14.31z
				 M33.62,14.31c-0.93,0-1.69-0.76-1.69-1.69s0.76-1.69,1.69-1.69s1.69,0.76,1.69,1.69S34.55,14.31,33.62,14.31z"/>
		</g>
		<g>
			<path class="st4" d="M36.25,10h-22.5C13.34,10,13,10.34,13,10.75v4.5h24v-4.5C37,10.34,36.66,10,36.25,10z M21.81,13.79
				c0,0.29-0.23,0.52-0.53,0.52h-5.7c-0.29,0-0.53-0.23-0.53-0.52v-2.32c0-0.29,0.23-0.53,0.53-0.53h5.7c0.29,0,0.53,0.23,0.53,0.53
				V13.79z M28.94,14.31c-0.93,0-1.69-0.76-1.69-1.69s0.76-1.69,1.69-1.69s1.69,0.76,1.69,1.69S29.87,14.31,28.94,14.31z
				 M33.62,14.31c-0.93,0-1.69-0.76-1.69-1.69s0.76-1.69,1.69-1.69s1.69,0.76,1.69,1.69S34.55,14.31,33.62,14.31z"/>
		</g>
	</g>
	<path class="st3" d="M27.8,29.2c0,1.55-1.25,2.8-2.8,2.8s-2.8-1.25-2.8-2.8c0-1.55,2.8-5.2,2.8-5.2S27.8,27.65,27.8,29.2z"/>
	<g>
		<g>
			<path class="st4" d="M24.99,19.71c-4.56,0-8.26,3.7-8.26,8.26s3.7,8.26,8.26,8.26s8.26-3.7,8.26-8.26S29.55,19.71,24.99,19.71z
				 M24.99,34.45c-3.58,0-6.48-2.9-6.48-6.48c0-3.58,2.9-6.48,6.48-6.48s6.48,2.9,6.48,6.48C31.47,31.55,28.57,34.45,24.99,34.45z"
				/>
		</g>
		<g>
			<path class="st5" d="M24.99,19.71c-4.56,0-8.26,3.7-8.26,8.26s3.7,8.26,8.26,8.26s8.26-3.7,8.26-8.26S29.55,19.71,24.99,19.71z
				 M24.99,34.45c-3.58,0-6.48-2.9-6.48-6.48c0-3.58,2.9-6.48,6.48-6.48s6.48,2.9,6.48,6.48C31.47,31.55,28.57,34.45,24.99,34.45z"
				/>
		</g>
	</g>
  <rect
    width="50"
    height="50"
    x="0"
    y="0"
    style="fill:#ffffff;fill-opacity:0" />
</g>
</svg>
