<svg width="24" height="24" viewBox="0 0 24 24" fill="none" xmlns="http://www.w3.org/2000/svg">
<path d="M19.5656 4.43555H7.36523L9.21799 6.2883H19.5656V16.6359L21.196 18.2664C21.335 18.007 21.4184 17.7198 21.4184 17.4048V6.2883C21.4184 5.26929 20.5846 4.43555 19.5656 4.43555Z" fill="#797C88"/>
<path d="M17.7112 9.99414H12.9219L14.7746 11.8469H17.7112V9.99414Z" fill="#797C88"/>
<path d="M2 4.31546L3.11165 5.42711C2.9727 5.68649 2.88932 5.97367 2.88932 6.28864V17.4052C2.88932 18.4242 3.72306 19.2579 4.74208 19.2579H16.9425L19.6845 22L20.9907 20.6938L3.30619 3L2 4.31546ZM4.74208 7.05753L7.67869 9.99415H6.59483V11.8469H10L8.44759 10.763L11.3842 13.6997H6.59483V15.5524H13.237L15.0897 17.4052H4.74208V7.05753Z" fill="#797C88"/>
</svg>
