<svg width="18" height="18" viewBox="0 0 18 18" fill="none" xmlns="http://www.w3.org/2000/svg">
<g clip-path="url(#clip0_266_5)">
<path d="M2.11844 8.11875C2.07989 8.4 2.06061 8.69063 2.06061 9C2.06061 9.3 2.07989 9.6 2.12808 9.88125L0.171557 11.3625C-0.00192785 11.4938 -0.0501188 11.7469 0.0558996 11.9344L1.9064 15.0469C2.02206 15.2531 2.26301 15.3188 2.47505 15.2531L4.77854 14.3531C5.26044 14.7094 5.77126 15.0094 6.3399 15.2344L6.68687 17.6156C6.72542 17.8406 6.91818 18 7.1495 18H10.8505C11.0818 18 11.2649 17.8406 11.3035 17.6156L11.6505 15.2344C12.2191 15.0094 12.7396 14.7 13.2118 14.3531L15.5153 15.2531C15.7274 15.3281 15.9683 15.2531 16.084 15.0469L17.9248 11.9344C18.0405 11.7375 18.0019 11.4938 17.8092 11.3625L15.8526 9.88125C15.9008 9.6 15.9394 9.29063 15.9394 9C15.9394 8.70938 15.9201 8.4 15.8719 8.11875L17.8284 6.6375C18.0019 6.50625 18.0501 6.25313 17.9441 6.06563L16.0936 2.95312C15.9779 2.74687 15.737 2.68125 15.525 2.74688L13.2215 3.64688C12.7396 3.29063 12.2287 2.99063 11.6601 2.76563L11.3131 0.384375C11.2649 0.159375 11.0818 4.29153e-07 10.8505 4.29153e-07H7.1495C6.91818 4.29153e-07 6.72542 0.159375 6.69651 0.384375L6.34954 2.76563C5.7809 2.99063 5.26044 3.29063 4.78818 3.64688L2.48469 2.74688C2.27265 2.67188 2.0317 2.74687 1.91604 2.95312L0.0655378 6.06563C-0.0501186 6.27188 -0.00192762 6.50625 0.181195 6.6375L2.11844 8.11875ZM9 5.625C10.9083 5.625 12.4697 7.14375 12.4697 9C12.4697 10.8563 10.9083 12.375 9 12.375C7.09167 12.375 5.53031 10.8563 5.53031 9C5.53031 7.14375 7.09167 5.625 9 5.625Z" fill="#787e94"/>
</g>
<defs>
<clipPath id="clip0_266_5">
<rect width="18" height="18" fill="#787e94"/>
</clipPath>
</defs>
</svg>
