<svg width="24" height="24" viewBox="0 0 24 24" fill="none" xmlns="http://www.w3.org/2000/svg">
<path d="M20.4107 13.0771C20.458 12.7333 20.4814 12.3781 20.4814 12C20.4814 11.6333 20.458 11.2667 20.399 10.9229L22.7903 9.1125C23.0023 8.95208 23.0613 8.64271 22.9316 8.41355L20.6699 4.60938C20.5287 4.35729 20.2341 4.27708 19.975 4.35729L17.1596 5.45729C16.5706 5.02188 15.9462 4.65521 15.2512 4.38021L14.8272 1.46979C14.78 1.19479 14.5444 1 14.2617 1H9.73826C9.45555 1 9.23174 1.19479 9.18461 1.46979L8.76054 4.38021C8.06553 4.65521 7.42942 5.03333 6.85222 5.45729L4.03683 4.35729C3.77767 4.26562 3.48318 4.35729 3.34183 4.60938L1.09188 8.41355C0.950525 8.65417 0.997644 8.95208 1.23324 9.1125L3.62454 10.9229C3.56564 11.2667 3.51853 11.6448 3.51853 12C3.51853 12.3552 3.54208 12.7333 3.60099 13.0771L1.20968 14.8875C0.997644 15.0479 0.938745 15.3573 1.06832 15.5864L3.33005 19.3907C3.47141 19.6427 3.7659 19.7229 4.02506 19.6427L6.84044 18.5427C7.42942 18.9781 8.05375 19.3448 8.74876 19.6198L9.17283 22.5302C9.23174 22.8052 9.45555 23 9.73826 23H14.2617C14.5444 23 14.78 22.8052 14.8154 22.5302L15.2394 19.6198C15.9345 19.3448 16.5706 18.9781 17.1478 18.5427L19.9631 19.6427C20.2223 19.7343 20.5168 19.6427 20.6582 19.3907L22.9199 15.5864C23.0613 15.3343 23.0023 15.0479 22.7785 14.8875L20.4107 13.0771ZM12 16.125C9.66758 16.125 7.75926 14.2687 7.75926 12C7.75926 9.73124 9.66758 7.875 12 7.875C14.3324 7.875 16.2407 9.73124 16.2407 12C16.2407 14.2687 14.3324 16.125 12 16.125Z" fill="#1B7BFF"/>
</svg>
