<svg width="76" height="51" viewBox="0 0 76 51" fill="none" xmlns="http://www.w3.org/2000/svg">
<path fill-rule="evenodd" clip-rule="evenodd" d="M11.0379 30.2692C11.0379 30.1978 11.0094 30.1293 10.9586 30.0789C10.9077 30.0284 10.8388 30 10.767 30H3.17986C2.38935 30 1.63121 30.312 1.07223 30.8674C0.51325 31.4228 0.199219 32.1761 0.199219 32.9615V48.0385C0.199219 48.8239 0.51325 49.5772 1.07223 50.1326C1.63121 50.688 2.38935 51 3.17986 51H14.0186C14.8091 51 15.5672 50.688 16.1262 50.1326C16.6852 49.5772 16.9992 48.8239 16.9992 48.0385V37.4275C16.9992 37.3561 16.9707 37.2877 16.9199 37.2372C16.869 37.1867 16.8001 37.1583 16.7283 37.1583H11.8508C11.6352 37.1583 11.4285 37.0732 11.276 36.9217C11.1236 36.7703 11.0379 36.5648 11.0379 36.3506V30.2692ZM11.8508 40.7692C12.0664 40.7692 12.2732 40.8543 12.4256 41.0058C12.5781 41.1573 12.6637 41.3627 12.6637 41.5769C12.6637 41.7911 12.5781 41.9966 12.4256 42.148C12.2732 42.2995 12.0664 42.3846 11.8508 42.3846H5.34761C5.13201 42.3846 4.92525 42.2995 4.7728 42.148C4.62035 41.9966 4.5347 41.7911 4.5347 41.5769C4.5347 41.3627 4.62035 41.1573 4.7728 41.0058C4.92525 40.8543 5.13201 40.7692 5.34761 40.7692H11.8508ZM11.8508 45.0769C12.0664 45.0769 12.2732 45.162 12.4256 45.3135C12.5781 45.465 12.6637 45.6704 12.6637 45.8846C12.6637 46.0988 12.5781 46.3043 12.4256 46.4557C12.2732 46.6072 12.0664 46.6923 11.8508 46.6923H5.34761C5.13201 46.6923 4.92525 46.6072 4.7728 46.4557C4.62035 46.3043 4.5347 46.0988 4.5347 45.8846C4.5347 45.6704 4.62035 45.465 4.7728 45.3135C4.92525 45.162 5.13201 45.0769 5.34761 45.0769H11.8508Z" fill="white"/>
<path d="M12.6602 30.6196C12.6602 30.4215 12.8693 30.2955 13.0243 30.4193C13.1555 30.5248 13.2736 30.6476 13.3744 30.7876L16.6401 35.3075C16.7138 35.4108 16.6336 35.5444 16.5057 35.5444H12.9311C12.8593 35.5444 12.7903 35.516 12.7395 35.4655C12.6887 35.415 12.6602 35.3466 12.6602 35.2751V30.6196Z" fill="white"/>
<path fill-rule="evenodd" clip-rule="evenodd" d="M11.0379 0.269231C11.0379 0.197826 11.0094 0.129346 10.9586 0.0788559C10.9077 0.0283654 10.8388 0 10.767 0H3.17986C2.38935 0 1.63121 0.312018 1.07223 0.867415C0.51325 1.42281 0.199219 2.17609 0.199219 2.96154V18.0385C0.199219 18.8239 0.51325 19.5772 1.07223 20.1326C1.63121 20.688 2.38935 21 3.17986 21H14.0186C14.8091 21 15.5672 20.688 16.1262 20.1326C16.6852 19.5772 16.9992 18.8239 16.9992 18.0385V7.42754C16.9992 7.35613 16.9707 7.28765 16.9199 7.23716C16.869 7.18667 16.8001 7.15831 16.7283 7.15831H11.8508C11.6352 7.15831 11.4285 7.07321 11.276 6.92174C11.1236 6.77027 11.0379 6.56483 11.0379 6.35062V0.269231ZM11.8508 10.7692C12.0664 10.7692 12.2732 10.8543 12.4256 11.0058C12.5781 11.1573 12.6637 11.3627 12.6637 11.5769C12.6637 11.7911 12.5781 11.9966 12.4256 12.148C12.2732 12.2995 12.0664 12.3846 11.8508 12.3846H5.34761C5.13201 12.3846 4.92525 12.2995 4.7728 12.148C4.62035 11.9966 4.5347 11.7911 4.5347 11.5769C4.5347 11.3627 4.62035 11.1573 4.7728 11.0058C4.92525 10.8543 5.13201 10.7692 5.34761 10.7692H11.8508ZM11.8508 15.0769C12.0664 15.0769 12.2732 15.162 12.4256 15.3135C12.5781 15.465 12.6637 15.6704 12.6637 15.8846C12.6637 16.0988 12.5781 16.3043 12.4256 16.4557C12.2732 16.6072 12.0664 16.6923 11.8508 16.6923H5.34761C5.13201 16.6923 4.92525 16.6072 4.7728 16.4557C4.62035 16.3043 4.5347 16.0988 4.5347 15.8846C4.5347 15.6704 4.62035 15.465 4.7728 15.3135C4.92525 15.162 5.13201 15.0769 5.34761 15.0769H11.8508Z" fill="white"/>
<path d="M12.6602 0.619609C12.6602 0.421456 12.8693 0.295456 13.0243 0.419302C13.1555 0.52484 13.2736 0.64761 13.3744 0.78761L16.6401 5.30746C16.7138 5.41084 16.6336 5.54438 16.5057 5.54438H12.9311C12.8593 5.54438 12.7903 5.51601 12.7395 5.46552C12.6887 5.41503 12.6602 5.34655 12.6602 5.27515V0.619609Z" fill="white"/>
<path d="M61.5 35.999C55.7045 35.999 49.8849 34.6314 47.1356 31.6801C47.0542 32.0084 47 32.3452 47 32.7026V38.0747C47 42.8343 54.5144 45 61.5 45C68.4856 45 76 42.8343 76 38.0747V32.7026C76 32.3452 75.9458 32.0098 75.8644 31.6814C73.1136 34.6328 67.2955 36.0018 61.4985 36.0018L61.5 35.999ZM61.5 25.6138C55.7045 25.6138 49.8849 24.2462 47.1371 21.2949C47.0501 21.629 47.0046 21.9711 47.0015 22.3147V27.6867C47.0015 32.4449 54.5144 34.6106 61.5 34.6106C68.4856 34.6106 76 32.4449 76 27.6853V22.3119C76 21.9558 75.9458 21.6191 75.8644 21.2907C73.1136 24.2421 67.2955 25.6111 61.4985 25.6111L61.5 25.6138ZM61.5 5C54.5144 5 47 7.16849 47 11.9281V17.3001C47 22.0597 54.5144 24.2254 61.5 24.2254C68.4856 24.2254 76 22.0611 76 17.3015V11.9295C76 7.16988 68.4856 5.00139 61.5 5.00139V5ZM61.5 16.0849C55.1577 16.0849 50.013 14.2241 50.013 11.9281C50.013 9.6335 55.1562 7.77123 61.5 7.77123C67.8438 7.77123 72.987 9.6335 72.987 11.9281C72.987 14.2254 67.8438 16.0849 61.5 16.0849Z" fill="white"/>
<path d="M37.6216 13L37.2786 13.3644L41.0684 17.2416L30 17.2416V17.7584L41.0684 17.7584L37.2786 21.6356L37.6216 22L42 17.5L37.6216 13Z" fill="white" stroke="white" stroke-width="1.5"/>
<path d="M37.6216 29L37.2786 29.3644L41.0684 33.2416L30 33.2416V33.7584L41.0684 33.7584L37.2786 37.6356L37.6216 38L42 33.5L37.6216 29Z" fill="white" stroke="white" stroke-width="1.5"/>
<path d="M20 10H28C29.1046 10 30 10.8954 30 12V39C30 40.1046 29.1046 41 28 41H20" stroke="white" stroke-width="2"/>
</svg>
