<svg width="99" height="100" viewBox="0 0 99 100" fill="none" xmlns="http://www.w3.org/2000/svg">
<g filter="url(#filter0_d_474_473)">
<path d="M49.5017 29.4399C38.4285 29.4399 29.4495 38.4168 29.4495 49.4921C29.4495 60.5674 38.4285 69.5443 49.5017 69.5443C60.5749 69.5443 69.5539 60.5674 69.5539 49.4921C69.5539 38.4168 60.5749 29.4399 49.5017 29.4399ZM49.5017 29.4399V14.6646M49.5017 14.6646C46.0045 14.6646 43.1695 11.8295 43.1695 8.33228C43.1695 4.83504 46.0045 2 49.5017 2C52.999 2 55.834 4.83504 55.834 8.33228C55.834 11.8295 52.999 14.6646 49.5017 14.6646ZM24.8762 24.8645C22.4012 27.3374 18.3929 27.3374 15.92 24.8645C13.4471 22.3916 13.4471 18.3811 15.92 15.9082H15.922C18.3929 13.4374 22.4033 13.4353 24.8762 15.9082C27.3491 18.3832 27.3491 22.3916 24.8762 24.8645ZM24.8762 24.8645L35.3245 35.3107M49.5017 84.3175C52.9969 84.3175 55.834 87.1526 55.834 90.6498C55.834 94.1471 52.999 96.98 49.5017 96.98C46.0066 96.9842 43.1695 94.1471 43.1695 90.6498C43.1695 87.1526 46.0045 84.3175 49.5017 84.3175ZM49.5017 84.3175V69.5402M84.3293 49.4921C84.3293 45.9969 87.1643 43.1598 90.6615 43.1598C94.1567 43.1598 96.9917 45.9948 96.9917 49.49C96.9938 52.9873 94.1588 55.8244 90.6615 55.8244C87.1643 55.8244 84.3293 52.9893 84.3293 49.4921ZM84.3293 49.4921H69.5519M74.1273 24.8645C71.6564 22.3916 71.6544 18.3811 74.1273 15.9082C76.6002 13.4353 80.6085 13.4374 83.0814 15.9082C85.5543 18.3791 85.5543 22.3916 83.0814 24.8645C80.6085 27.3374 76.6002 27.3374 74.1273 24.8645ZM74.1273 24.8645L63.679 35.3107M14.6763 49.4921H29.4537M24.8762 74.1176L35.3245 63.6673M74.1273 74.1176L63.679 63.6673M2.01172 49.49C2.01172 52.9893 4.84676 55.8244 8.34193 55.8244C11.8392 55.8244 14.6742 52.9893 14.6742 49.4921C14.6742 45.9948 11.8392 43.1598 8.34193 43.1598C4.84469 43.1598 2.00965 45.9969 2.01172 49.49ZM15.92 83.0697C18.3929 85.5426 22.4012 85.5447 24.8741 83.0718C27.347 80.5989 27.345 76.5884 24.8741 74.1176C22.4012 71.6447 18.3929 71.6447 15.9179 74.1176C13.445 76.5905 13.445 80.601 15.9179 83.0697H15.92ZM83.0814 83.0697C85.5543 80.5989 85.5543 76.5884 83.0814 74.1176C80.6085 71.6447 76.5981 71.6447 74.1252 74.1176C71.6523 76.5905 71.6523 80.5989 74.1252 83.0718C76.5981 85.5447 80.6085 85.5447 83.0794 83.0697H83.0814Z" stroke="white" stroke-width="2.5" stroke-linecap="round" stroke-linejoin="round" shape-rendering="crispEdges"/>
</g>
<g filter="url(#filter1_d_474_473)">
<path d="M57.9459 46.8462H59.2375H59.2426C60.2182 46.8462 61.0117 47.6363 61.0117 48.6137V50.3829C61.0117 51.3586 60.2182 52.1521 59.2426 52.1538H57.951C57.7947 52.652 57.592 53.1295 57.3533 53.5847L58.2705 54.5019C58.9609 55.1942 58.9609 56.3141 58.2705 57.0046L57.0184 58.2568C56.3279 58.9456 55.2063 58.9456 54.5159 58.2568L53.5987 57.3396C53.1435 57.5783 52.666 57.7827 52.1679 57.9391V59.2308C52.1662 60.2064 51.3744 61 50.3988 61H48.628C47.6524 61 46.8589 60.2064 46.8589 59.2308V57.9408C46.3591 57.7845 45.8816 57.5801 45.4265 57.3413L44.5093 58.2586C43.8188 58.9474 42.699 58.9491 42.0085 58.2586L40.7564 57.0063C40.0659 56.3158 40.0659 55.1942 40.7564 54.5037L41.6719 53.5881C41.4331 53.1312 41.2287 52.6537 41.0724 52.1538H39.7808C38.8052 52.1538 38.0117 51.3637 38.0117 50.3846V48.6154C38.0117 47.6397 38.8035 46.8462 39.7825 46.8462H41.0707C41.2287 46.348 41.4314 45.8705 41.6701 45.4136L40.753 44.4963C40.0625 43.8058 40.0625 42.6842 40.753 41.9937L42.0034 40.7432C42.6938 40.0527 43.8154 40.0527 44.5059 40.7432L45.4213 41.6587C45.8782 41.4199 46.3557 41.2155 46.8555 41.0592V39.7692C46.8555 38.7919 47.6473 38 48.6246 38H50.3937C51.371 38 52.1628 38.7919 52.1628 39.7692V41.0592C52.6609 41.2155 53.1384 41.4199 53.5952 41.6587L54.5124 40.7432C55.2029 40.0527 56.3227 40.0509 57.0132 40.7414L58.2653 41.9937C58.9558 42.6824 58.9558 43.8041 58.2653 44.4963L57.3481 45.4136C57.5852 45.8705 57.7896 46.348 57.9459 46.8462Z" stroke="white" stroke-width="2" stroke-linecap="round" stroke-linejoin="round" shape-rendering="crispEdges"/>
</g>
<g filter="url(#filter2_d_474_473)">
<path d="M49.5087 53.9223C51.9511 53.9223 53.9314 51.9418 53.9314 49.4992C53.9314 47.0567 51.9511 45.0762 49.5087 45.0762C47.0663 45.0762 45.0859 47.0567 45.0859 49.4992C45.0859 51.9418 47.0663 53.9223 49.5087 53.9223Z" stroke="white" stroke-width="2" stroke-linecap="round" stroke-linejoin="round" shape-rendering="crispEdges"/>
</g>
<defs>
<filter id="filter0_d_474_473" x="0.761719" y="0.75" width="97.4805" height="98.4805" filterUnits="userSpaceOnUse" color-interpolation-filters="sRGB">
<feFlood flood-opacity="0" result="BackgroundImageFix"/>
<feColorMatrix in="SourceAlpha" type="matrix" values="0 0 0 0 0 0 0 0 0 0 0 0 0 0 0 0 0 0 127 0" result="hardAlpha"/>
<feOffset dy="1"/>
<feComposite in2="hardAlpha" operator="out"/>
<feColorMatrix type="matrix" values="0 0 0 0 0 0 0 0 0 0 0 0 0 0 0 0 0 0 0.15 0"/>
<feBlend mode="normal" in2="BackgroundImageFix" result="effect1_dropShadow_474_473"/>
<feBlend mode="normal" in="SourceGraphic" in2="effect1_dropShadow_474_473" result="shape"/>
</filter>
<filter id="filter1_d_474_473" x="37.0117" y="37" width="25" height="26" filterUnits="userSpaceOnUse" color-interpolation-filters="sRGB">
<feFlood flood-opacity="0" result="BackgroundImageFix"/>
<feColorMatrix in="SourceAlpha" type="matrix" values="0 0 0 0 0 0 0 0 0 0 0 0 0 0 0 0 0 0 127 0" result="hardAlpha"/>
<feOffset dy="1"/>
<feComposite in2="hardAlpha" operator="out"/>
<feColorMatrix type="matrix" values="0 0 0 0 0 0 0 0 0 0 0 0 0 0 0 0 0 0 0.15 0"/>
<feBlend mode="normal" in2="BackgroundImageFix" result="effect1_dropShadow_474_473"/>
<feBlend mode="normal" in="SourceGraphic" in2="effect1_dropShadow_474_473" result="shape"/>
</filter>
<filter id="filter2_d_474_473" x="44.0859" y="44.0762" width="10.8438" height="12.8457" filterUnits="userSpaceOnUse" color-interpolation-filters="sRGB">
<feFlood flood-opacity="0" result="BackgroundImageFix"/>
<feColorMatrix in="SourceAlpha" type="matrix" values="0 0 0 0 0 0 0 0 0 0 0 0 0 0 0 0 0 0 127 0" result="hardAlpha"/>
<feOffset dy="2"/>
<feComposite in2="hardAlpha" operator="out"/>
<feColorMatrix type="matrix" values="0 0 0 0 0 0 0 0 0 0 0 0 0 0 0 0 0 0 0.15 0"/>
<feBlend mode="normal" in2="BackgroundImageFix" result="effect1_dropShadow_474_473"/>
<feBlend mode="normal" in="SourceGraphic" in2="effect1_dropShadow_474_473" result="shape"/>
</filter>
</defs>
</svg>
