<svg width="97" height="82" viewBox="0 0 97 82" fill="none" xmlns="http://www.w3.org/2000/svg">
<g filter="url(#filter0_d_474_472)">
<path d="M45.125 16.2539H36.7199V42.2925M27.2136 42.2925H36.7199M36.7199 42.2925V68.7856H45.125M36.7199 51.5845H45.125M36.7199 33.8973H45.125" stroke="white" stroke-width="2.5" stroke-linecap="round" stroke-linejoin="round"/>
</g>
<g filter="url(#filter1_d_474_472)">
<path d="M4.3608 39.6103H2.94479H2.93914C1.8696 39.6103 0.999655 40.4765 0.999655 41.548V43.4876C0.999655 44.5573 1.8696 45.4273 2.93914 45.4291H4.35515C4.5265 45.9753 4.7487 46.4988 5.01044 46.9978L4.00491 48.0034C3.24795 48.7623 3.24795 49.9901 4.00491 50.7471L5.37762 52.1199C6.13458 52.8751 7.36418 52.8751 8.12114 52.1199L9.12666 51.1143C9.62566 51.3761 10.1491 51.6002 10.6952 51.7716V53.1877C10.6971 54.2573 11.5651 55.1273 12.6347 55.1273H14.5761C15.6456 55.1273 16.5155 54.2573 16.5155 53.1877V51.7734C17.0635 51.6021 17.587 51.378 18.086 51.1162L19.0915 52.1218C19.8484 52.877 21.0762 52.8788 21.8331 52.1218L23.2058 50.749C23.9628 49.992 23.9628 48.7623 23.2058 48.0053L22.2022 47.0016C22.4639 46.5007 22.688 45.9771 22.8593 45.4291H24.2754C25.3449 45.4291 26.2148 44.5629 26.2148 43.4895V41.5499C26.2148 40.4803 25.3468 39.6103 24.2735 39.6103H22.8612C22.688 39.0641 22.4658 38.5406 22.2041 38.0397L23.2096 37.0341C23.9665 36.2771 23.9665 35.0474 23.2096 34.2904L21.8388 32.9195C21.0818 32.1625 19.8522 32.1625 19.0952 32.9195L18.0916 33.9232C17.5907 33.6614 17.0673 33.4373 16.5193 33.266V31.8517C16.5193 30.7802 15.6512 29.9121 14.5798 29.9121H12.6403C11.5689 29.9121 10.7009 30.7802 10.7009 31.8517V33.266C10.1548 33.4373 9.6313 33.6614 9.13042 33.9232L8.12491 32.9195C7.36794 32.1625 6.14023 32.1606 5.38327 32.9176L4.01056 34.2904C3.2536 35.0455 3.2536 36.2752 4.01056 37.0341L5.01609 38.0397C4.75623 38.5406 4.53215 39.0641 4.3608 39.6103Z" stroke="white" stroke-width="2" stroke-linecap="round" stroke-linejoin="round"/>
</g>
<g filter="url(#filter2_d_474_472)">
<path d="M79.5876 52H82.6063M55.3937 52H76.1386M52.0125 47H85.9875C87.0983 47 88 47.8961 88 49V55C88 56.1039 87.0983 57 85.9875 57H52.0125C50.9017 57 50 56.1039 50 55V49C50 47.8961 50.9017 47 52.0125 47Z" stroke="white" stroke-width="2" stroke-linecap="round" stroke-linejoin="round"/>
</g>
<g filter="url(#filter3_d_474_472)">
<path d="M79.5876 34H82.6063M55.3937 34H76.1386M52.0125 29H85.9875C87.0983 29 88 29.8961 88 31V37C88 38.1039 87.0983 39 85.9875 39H52.0125C50.9017 39 50 38.1039 50 37V31C50 29.8961 50.9017 29 52.0125 29Z" stroke="white" stroke-width="2" stroke-linecap="round" stroke-linejoin="round"/>
</g>
<g filter="url(#filter4_d_474_472)">
<path d="M79.5876 16.5H82.6063M55.3937 16.5H76.1386M52.0125 11H85.9875C87.0983 11 88 11.9857 88 13.2V19.8C88 21.0143 87.0983 22 85.9875 22H52.0125C50.9017 22 50 21.0143 50 19.8V13.2C50 11.9857 50.9017 11 52.0125 11Z" stroke="white" stroke-width="2" stroke-linecap="round" stroke-linejoin="round"/>
</g>
<g filter="url(#filter5_d_474_472)">
<path d="M79.5876 69H82.6063M55.3937 69H76.1386M52.0125 64H85.9875C87.0983 64 88 64.8961 88 66V72C88 73.1039 87.0983 74 85.9875 74H52.0125C50.9017 74 50 73.1039 50 72V66C50 64.8961 50.9017 64 52.0125 64Z" stroke="white" stroke-width="2" stroke-linecap="round" stroke-linejoin="round"/>
</g>
<g filter="url(#filter6_d_474_472)">
<path d="M13.6122 47.3681C10.9346 47.3681 8.76351 45.1968 8.76351 42.519C8.76351 39.8412 10.9346 37.6699 13.6122 37.6699C16.2898 37.6699 18.4609 39.8412 18.4609 42.519C18.4609 45.1968 16.2898 47.3681 13.6122 47.3681Z" stroke="white" stroke-width="2" stroke-linecap="round" stroke-linejoin="round"/>
</g>
<defs>
<filter id="filter0_d_474_472" x="25.9648" y="15.0039" width="20.4102" height="56.0312" filterUnits="userSpaceOnUse" color-interpolation-filters="sRGB">
<feFlood flood-opacity="0" result="BackgroundImageFix"/>
<feColorMatrix in="SourceAlpha" type="matrix" values="0 0 0 0 0 0 0 0 0 0 0 0 0 0 0 0 0 0 127 0" result="hardAlpha"/>
<feOffset dy="1"/>
<feColorMatrix type="matrix" values="0 0 0 0 0 0 0 0 0 0 0 0 0 0 0 0 0 0 0.15 0"/>
<feBlend mode="normal" in2="BackgroundImageFix" result="effect1_dropShadow_474_472"/>
<feBlend mode="normal" in="SourceGraphic" in2="effect1_dropShadow_474_472" result="shape"/>
</filter>
<filter id="filter1_d_474_472" x="0" y="28.9121" width="27.2148" height="28.2148" filterUnits="userSpaceOnUse" color-interpolation-filters="sRGB">
<feFlood flood-opacity="0" result="BackgroundImageFix"/>
<feColorMatrix in="SourceAlpha" type="matrix" values="0 0 0 0 0 0 0 0 0 0 0 0 0 0 0 0 0 0 127 0" result="hardAlpha"/>
<feOffset dy="1"/>
<feColorMatrix type="matrix" values="0 0 0 0 0 0 0 0 0 0 0 0 0 0 0 0 0 0 0.15 0"/>
<feBlend mode="normal" in2="BackgroundImageFix" result="effect1_dropShadow_474_472"/>
<feBlend mode="normal" in="SourceGraphic" in2="effect1_dropShadow_474_472" result="shape"/>
</filter>
<filter id="filter2_d_474_472" x="49" y="46" width="40" height="14" filterUnits="userSpaceOnUse" color-interpolation-filters="sRGB">
<feFlood flood-opacity="0" result="BackgroundImageFix"/>
<feColorMatrix in="SourceAlpha" type="matrix" values="0 0 0 0 0 0 0 0 0 0 0 0 0 0 0 0 0 0 127 0" result="hardAlpha"/>
<feOffset dy="2"/>
<feColorMatrix type="matrix" values="0 0 0 0 0 0 0 0 0 0 0 0 0 0 0 0 0 0 0.15 0"/>
<feBlend mode="normal" in2="BackgroundImageFix" result="effect1_dropShadow_474_472"/>
<feBlend mode="normal" in="SourceGraphic" in2="effect1_dropShadow_474_472" result="shape"/>
</filter>
<filter id="filter3_d_474_472" x="49" y="28" width="40" height="14" filterUnits="userSpaceOnUse" color-interpolation-filters="sRGB">
<feFlood flood-opacity="0" result="BackgroundImageFix"/>
<feColorMatrix in="SourceAlpha" type="matrix" values="0 0 0 0 0 0 0 0 0 0 0 0 0 0 0 0 0 0 127 0" result="hardAlpha"/>
<feOffset dy="2"/>
<feColorMatrix type="matrix" values="0 0 0 0 0 0 0 0 0 0 0 0 0 0 0 0 0 0 0.15 0"/>
<feBlend mode="normal" in2="BackgroundImageFix" result="effect1_dropShadow_474_472"/>
<feBlend mode="normal" in="SourceGraphic" in2="effect1_dropShadow_474_472" result="shape"/>
</filter>
<filter id="filter4_d_474_472" x="49" y="10" width="40" height="15" filterUnits="userSpaceOnUse" color-interpolation-filters="sRGB">
<feFlood flood-opacity="0" result="BackgroundImageFix"/>
<feColorMatrix in="SourceAlpha" type="matrix" values="0 0 0 0 0 0 0 0 0 0 0 0 0 0 0 0 0 0 127 0" result="hardAlpha"/>
<feOffset dy="2"/>
<feColorMatrix type="matrix" values="0 0 0 0 0 0 0 0 0 0 0 0 0 0 0 0 0 0 0.15 0"/>
<feBlend mode="normal" in2="BackgroundImageFix" result="effect1_dropShadow_474_472"/>
<feBlend mode="normal" in="SourceGraphic" in2="effect1_dropShadow_474_472" result="shape"/>
</filter>
<filter id="filter5_d_474_472" x="49" y="63" width="40" height="14" filterUnits="userSpaceOnUse" color-interpolation-filters="sRGB">
<feFlood flood-opacity="0" result="BackgroundImageFix"/>
<feColorMatrix in="SourceAlpha" type="matrix" values="0 0 0 0 0 0 0 0 0 0 0 0 0 0 0 0 0 0 127 0" result="hardAlpha"/>
<feOffset dy="2"/>
<feColorMatrix type="matrix" values="0 0 0 0 0 0 0 0 0 0 0 0 0 0 0 0 0 0 0.15 0"/>
<feBlend mode="normal" in2="BackgroundImageFix" result="effect1_dropShadow_474_472"/>
<feBlend mode="normal" in="SourceGraphic" in2="effect1_dropShadow_474_472" result="shape"/>
</filter>
<filter id="filter6_d_474_472" x="7.76172" y="36.6699" width="11.6992" height="13.6973" filterUnits="userSpaceOnUse" color-interpolation-filters="sRGB">
<feFlood flood-opacity="0" result="BackgroundImageFix"/>
<feColorMatrix in="SourceAlpha" type="matrix" values="0 0 0 0 0 0 0 0 0 0 0 0 0 0 0 0 0 0 127 0" result="hardAlpha"/>
<feOffset dy="2"/>
<feColorMatrix type="matrix" values="0 0 0 0 0 0 0 0 0 0 0 0 0 0 0 0 0 0 0.15 0"/>
<feBlend mode="normal" in2="BackgroundImageFix" result="effect1_dropShadow_474_472"/>
<feBlend mode="normal" in="SourceGraphic" in2="effect1_dropShadow_474_472" result="shape"/>
</filter>
</defs>
</svg>
