<svg width="102" height="103" viewBox="0 0 102 103" fill="none" xmlns="http://www.w3.org/2000/svg">
<g filter="url(#filter0_d_474_473)">
<path d="M51 29.8901C39.3415 29.8901 29.888 39.3415 29.888 51.0022C29.888 62.6628 39.3415 72.1142 51 72.1142C62.6585 72.1142 72.112 62.6628 72.112 51.0022C72.112 39.3415 62.6585 29.8901 51 29.8901ZM51 29.8901V14.3339M51 14.3339C47.3179 14.3339 44.333 11.349 44.333 7.66696C44.333 3.98488 47.3179 1 51 1C54.6821 1 57.667 3.98488 57.667 7.66696C57.667 11.349 54.6821 14.3339 51 14.3339ZM25.0729 25.0729C22.4672 27.6765 18.2469 27.6765 15.6433 25.0729C13.0397 22.4693 13.0397 18.2469 15.6433 15.6433H15.6455C18.2469 13.0419 22.4693 13.0397 25.0729 15.6433C27.6765 18.2491 27.6765 22.4693 25.0729 25.0729ZM25.0729 25.0729L36.0734 36.0712M51 87.6683C54.6799 87.6683 57.667 90.6531 57.667 94.3352C57.667 98.0173 54.6821 101 51 101C47.3201 101.004 44.333 98.0173 44.333 94.3352C44.333 90.6531 47.3179 87.6683 51 87.6683ZM51 87.6683V72.1098M87.6683 51.0022C87.6683 47.3223 90.6531 44.3352 94.3352 44.3352C98.0151 44.3352 101 47.3201 101 51C101.002 54.6821 98.0173 57.6691 94.3352 57.6691C90.6531 57.6691 87.6683 54.6843 87.6683 51.0022ZM87.6683 51.0022H72.1099M76.9271 25.0729C74.3256 22.4693 74.3235 18.2469 76.9271 15.6433C79.5306 13.0397 83.7509 13.0419 86.3545 15.6433C88.9581 18.2448 88.9581 22.4693 86.3545 25.0729C83.7509 27.6765 79.5306 27.6765 76.9271 25.0729ZM76.9271 25.0729L65.9266 36.0712M14.3339 51.0022H29.8923M25.0729 76.9292L36.0734 65.9266M76.9271 76.9292L65.9266 65.9266M1 51C1 54.6843 3.98488 57.6691 7.66478 57.6691C11.3469 57.6691 14.3317 54.6843 14.3317 51.0022C14.3317 47.3201 11.3469 44.3352 7.66478 44.3352C3.9827 44.3352 0.997822 47.3223 1 51ZM15.6433 86.3545C18.2469 88.9581 22.4672 88.9602 25.0708 86.3566C27.6744 83.753 27.6722 79.5306 25.0708 76.9292C22.4672 74.3256 18.2469 74.3256 15.6412 76.9292C13.0376 79.5328 13.0376 83.7552 15.6412 86.3545H15.6433ZM86.3545 86.3545C88.9581 83.7531 88.9581 79.5306 86.3545 76.9292C83.7509 74.3256 79.5285 74.3256 76.9249 76.9292C74.3213 79.5328 74.3213 83.753 76.9249 86.3566C79.5285 88.9602 83.7509 88.9603 86.3523 86.3545H86.3545Z" stroke="white" stroke-width="2" stroke-linecap="round" stroke-linejoin="round"/>
</g>
<g filter="url(#filter1_d_474_473)">
<path d="M59.8901 48.216H61.2499H61.2554C62.2825 48.216 63.118 49.0479 63.118 50.077V51.9397C63.118 52.9669 62.2825 53.8025 61.2554 53.8043H59.8955C59.7309 54.3287 59.5175 54.8315 59.2662 55.3107L60.2318 56.2765C60.9588 57.0053 60.9588 58.1844 60.2318 58.9114L58.9135 60.2298C58.1866 60.955 57.0057 60.955 56.2788 60.2298L55.3131 59.2641C54.8339 59.5155 54.3312 59.7307 53.8068 59.8952V61.2552C53.805 62.2824 52.9713 63.118 51.9442 63.118H50.0798C49.0526 63.118 48.2172 62.2824 48.2172 61.2552V59.897C47.6909 59.7325 47.1882 59.5173 46.709 59.2659L45.7433 60.2316C45.0164 60.9568 43.8373 60.9586 43.1104 60.2316L41.7921 58.9132C41.0651 58.1862 41.0651 57.0053 41.7921 56.2783L42.7559 55.3143C42.5046 54.8333 42.2894 54.3305 42.1248 53.8043H40.7649C39.7378 53.8043 38.9023 52.9724 38.9023 51.9415V50.0788C38.9023 49.0516 39.736 48.216 40.7668 48.216H42.123C42.2894 47.6916 42.5028 47.1888 42.7541 46.7078L41.7885 45.742C41.0615 45.015 41.0615 43.8341 41.7885 43.1071L43.1049 41.7905C43.8319 41.0635 45.0128 41.0635 45.7397 41.7905L46.7036 42.7544C47.1846 42.503 47.6873 42.2878 48.2135 42.1233V40.7651C48.2135 39.7361 49.0472 38.9023 50.0761 38.9023H51.9387C52.9677 38.9023 53.8013 39.7361 53.8013 40.7651V42.1233C54.3258 42.2878 54.8285 42.503 55.3095 42.7544L56.2752 41.7905C57.0021 41.0635 58.1812 41.0617 58.9081 41.7887L60.2264 43.1071C60.9534 43.8323 60.9534 45.0132 60.2264 45.742L59.2607 46.7078C59.5103 47.1888 59.7255 47.6916 59.8901 48.216Z" stroke="white" stroke-width="2" stroke-linecap="round" stroke-linejoin="round"/>
</g>
<g filter="url(#filter2_d_474_473)">
<path d="M51.0081 55.6653C53.5795 55.6653 55.6646 53.5801 55.6646 51.0084C55.6646 48.4367 53.5795 46.3516 51.0081 46.3516C48.4366 46.3516 46.3516 48.4367 46.3516 51.0084C46.3516 53.5801 48.4366 55.6653 51.0081 55.6653Z" stroke="white" stroke-width="2" stroke-linecap="round" stroke-linejoin="round"/>
</g>
<defs>
<filter id="filter0_d_474_473" x="0" y="0" width="102" height="103" filterUnits="userSpaceOnUse" color-interpolation-filters="sRGB">
<feFlood flood-opacity="0" result="BackgroundImageFix"/>
<feColorMatrix in="SourceAlpha" type="matrix" values="0 0 0 0 0 0 0 0 0 0 0 0 0 0 0 0 0 0 127 0" result="hardAlpha"/>
<feOffset dy="1"/>
<feColorMatrix type="matrix" values="0 0 0 0 0 0 0 0 0 0 0 0 0 0 0 0 0 0 0.15 0"/>
<feBlend mode="normal" in2="BackgroundImageFix" result="effect1_dropShadow_474_473"/>
<feBlend mode="normal" in="SourceGraphic" in2="effect1_dropShadow_474_473" result="shape"/>
</filter>
<filter id="filter1_d_474_473" x="37.9023" y="37.9023" width="26.2148" height="27.2148" filterUnits="userSpaceOnUse" color-interpolation-filters="sRGB">
<feFlood flood-opacity="0" result="BackgroundImageFix"/>
<feColorMatrix in="SourceAlpha" type="matrix" values="0 0 0 0 0 0 0 0 0 0 0 0 0 0 0 0 0 0 127 0" result="hardAlpha"/>
<feOffset dy="1"/>
<feColorMatrix type="matrix" values="0 0 0 0 0 0 0 0 0 0 0 0 0 0 0 0 0 0 0.15 0"/>
<feBlend mode="normal" in2="BackgroundImageFix" result="effect1_dropShadow_474_473"/>
<feBlend mode="normal" in="SourceGraphic" in2="effect1_dropShadow_474_473" result="shape"/>
</filter>
<filter id="filter2_d_474_473" x="45.3516" y="45.3516" width="11.3125" height="13.3145" filterUnits="userSpaceOnUse" color-interpolation-filters="sRGB">
<feFlood flood-opacity="0" result="BackgroundImageFix"/>
<feColorMatrix in="SourceAlpha" type="matrix" values="0 0 0 0 0 0 0 0 0 0 0 0 0 0 0 0 0 0 127 0" result="hardAlpha"/>
<feOffset dy="2"/>
<feColorMatrix type="matrix" values="0 0 0 0 0 0 0 0 0 0 0 0 0 0 0 0 0 0 0.15 0"/>
<feBlend mode="normal" in2="BackgroundImageFix" result="effect1_dropShadow_474_473"/>
<feBlend mode="normal" in="SourceGraphic" in2="effect1_dropShadow_474_473" result="shape"/>
</filter>
</defs>
</svg>
