<svg width="16" height="14" viewBox="0 0 16 14" fill="none" xmlns="http://www.w3.org/2000/svg">
<path fill-rule="evenodd" clip-rule="evenodd" d="M0 14V0H16V14H0ZM1 13H15V3H1V13ZM12.0435 1.5C12.0435 1.77614 11.8099 2 11.5217 2C11.2336 2 11 1.77614 11 1.5C11 1.22386 11.2336 1 11.5217 1C11.8099 1 12.0435 1.22386 12.0435 1.5ZM13.5217 1.5C13.5217 1.77614 13.2881 2 13 2C12.7119 2 12.4783 1.77614 12.4783 1.5C12.4783 1.22386 12.7119 1 13 1C13.2881 1 13.5217 1.22386 13.5217 1.5ZM14.4783 2C14.7664 2 15 1.77614 15 1.5C15 1.22386 14.7664 1 14.4783 1C14.1901 1 13.9565 1.22386 13.9565 1.5C13.9565 1.77614 14.1901 2 14.4783 2Z" fill="#0A84FF"/>
</svg>
