<svg width="23" height="20" viewBox="0 0 23 20" fill="none" xmlns="http://www.w3.org/2000/svg">
<g clip-path="url(#clip0_156_5)">
<path fill-rule="evenodd" clip-rule="evenodd" d="M0 0.5H12V1.5H20V4.5H21V9.5H20V5.5H11V1.5H1V16.5H12.5L13.56 17.5H0V0.5ZM19 4.5H12V2.5H19V4.5Z" fill="white"/>
<path d="M17 19C20.0376 19 22.5 16.5376 22.5 13.5C22.5 10.4624 20.0376 8 17 8C13.9624 8 11.5 10.4624 11.5 13.5C11.5 16.5376 13.9624 19 17 19Z" stroke="white"/>
<path d="M14.84 16.5L17 14.34L19.16 16.5L20 15.66L17.84 13.5L20 11.34L19.16 10.5L17 12.66L14.84 10.5L14 11.34L16.16 13.5L14 15.66L14.84 16.5Z" fill="white"/>
</g>
<defs>
<clipPath id="clip0_156_5">
<rect width="23" height="19" fill="white" transform="translate(0 0.5)"/>
</clipPath>
</defs>
</svg>
