<svg width="16" height="16" viewBox="0 0 16 16" fill="none" xmlns="http://www.w3.org/2000/svg">
<path fill-rule="evenodd" clip-rule="evenodd" d="M2 0H1V1V11V12H6V15V16H15V15V6H14V15H7V12V11V9V8V7V6V5H9H10H13V4H10V2H9V4H7H6V6H3V7H6V8H3V9H6V11H2V1H8V0H2ZM3 4H5V5H3V4ZM8 10H13V11H8V10ZM11 8H8V9H11V8ZM8 12H13V13H8V12Z" fill="#868A96"/>
<path fill-rule="evenodd" clip-rule="evenodd" d="M10 3H7V0L8 1V0L9 1L10 2H9L10 3Z" fill="#868A96"/>
<path fill-rule="evenodd" clip-rule="evenodd" d="M15 7H12V4L13 5V4L14 5L15 6H14L15 7Z" fill="#868A96"/>
</svg>
