<svg width="16" height="16" viewBox="0 0 16 16" fill="none" xmlns="http://www.w3.org/2000/svg">
<path fill-rule="evenodd" clip-rule="evenodd" d="M6 15V5V4H7H12V5H7V15H14V7H15V15V16H6V15ZM13 10H8V11H13V10ZM8 12H13V13H8V12Z" fill="#868A96"/>
<path fill-rule="evenodd" clip-rule="evenodd" d="M15 8H11V4L12 5V4L13.5 5.5L15 7H14L15 8Z" fill="#868A96"/>
<path fill-rule="evenodd" clip-rule="evenodd" d="M5 1H0V3V13H5V3H10V1H5Z" fill="#F5BD2A"/>
<path d="M7 1H3V2H7V1Z" fill="#868A96"/>
<path d="M6 0H4V2H6V0Z" fill="#868A96"/>
</svg>
