<svg width="16" height="16" viewBox="0 0 16 16" fill="none" xmlns="http://www.w3.org/2000/svg">
<path fill-rule="evenodd" clip-rule="evenodd" d="M0 0H1H9V1H1V15H13V16H0V15V0ZM13 4H12V6H13V4Z" fill="#8D919E"/>
<path d="M13 13H12V15H13V13Z" fill="#8D919E"/>
<path d="M11.9855 8.5V7L15 9.5L11.9855 12V10.5C9.05979 10.4453 6.50024 12.5 6.5 13.5C6.5 12 8.48178 8.42733 11.9855 8.5Z" fill="#2CA158"/>
<path fill-rule="evenodd" clip-rule="evenodd" d="M13 5H8V0L9 1V0L11 2L13 4H12L13 5Z" fill="#8D919E"/>
</svg>
