<svg width="16" height="16" viewBox="0 0 16 16" fill="none" xmlns="http://www.w3.org/2000/svg">
<g clip-path="url(#clip0_428_432)">
<path fill-rule="evenodd" clip-rule="evenodd" d="M0 15V2V1H1H13H14V2V6H13V2H1V14H14V15H1H0Z" fill="#8D919E"/>
<path d="M14 13H13V14H14V13Z" fill="#8D919E"/>
<path d="M10.5 3.5C10.7652 3.5 11.0196 3.60536 11.2071 3.79289C11.3946 3.98043 11.5 4.23478 11.5 4.5C11.5 4.76522 11.3946 5.01957 11.2071 5.20711C11.0196 5.39464 10.7652 5.5 10.5 5.5C10.2348 5.5 9.98043 5.39464 9.79289 5.20711C9.60536 5.01957 9.5 4.76522 9.5 4.5C9.5 4.23478 9.60536 3.98043 9.79289 3.79289C9.98043 3.60536 10.2348 3.5 10.5 3.5Z" stroke="#8D919E"/>
<path d="M0 10L3.5 6L7 9.5L9 7.5L10 8.5" stroke="#8D919E"/>
<path d="M12.9855 8.5V7L16 9.5L12.9855 12V10.5C10.0598 10.4453 7.50024 12.5 7.5 13.5C7.5 12 9.48178 8.42733 12.9855 8.5Z" fill="#2CA158"/>
</g>
<defs>
<clipPath id="clip0_428_432">
<rect width="16" height="16" fill="white"/>
</clipPath>
</defs>
</svg>
