<svg width="16" height="16" viewBox="0 0 16 16" fill="none" xmlns="http://www.w3.org/2000/svg">
<path fill-rule="evenodd" clip-rule="evenodd" d="M0 0H1H8V1H1V14H12V15H1H0V14V0ZM12 4H11V5H12V4Z" fill="#8D919E"/>
<path fill-rule="evenodd" clip-rule="evenodd" d="M12 5H7V0L8 1V0L10 2L12 4H11L12 5Z" fill="#8D919E"/>
<path d="M8 10.9081L7.9 10.9081L7.9 11.0081L7.9 12.5L7.9 12.6L8 12.6L9.70509 12.6L9.80509 12.6L9.80509 12.5L9.80509 11.0081L9.80509 10.9081L9.70509 10.9081L8 10.9081ZM8 6.43257L7.9 6.43257L7.9 6.53257L7.9 8.02443L7.9 8.12443L8 8.12443L9.70509 8.12443L9.80509 8.12443L9.80509 8.02443L9.80509 6.53257L9.80509 6.43257L9.70509 6.43257L8 6.43257Z" fill="#0391FF" stroke="#0391FF" stroke-width="0.2"/>
<path d="M10 10.9081L9.9 10.9081L9.9 11.0081L9.9 12.5L9.9 12.6L10 12.6L12.1288 12.6C12.9182 12.6 13.6745 12.2741 14.2315 11.6954C14.7883 11.1169 15.1005 10.3329 15.1005 9.51628C15.1005 8.69964 14.7883 7.91571 14.2315 7.33713C13.6745 6.75843 12.9182 6.43257 12.1288 6.43257L10 6.43257L9.9 6.43257L9.9 6.53257L9.9 8.02443L9.9 8.12443L10 8.12443L12.1288 8.12443C12.4818 8.12443 12.8212 8.2701 13.0721 8.53073C13.323 8.79148 13.4647 9.14593 13.4647 9.51628C13.4647 9.88664 13.323 10.2411 13.0721 10.5018C12.8212 10.7625 12.4818 10.9081 12.1288 10.9081L10 10.9081Z" fill="#D93813" stroke="#D93813" stroke-width="0.2"/>
</svg>
