<svg width="16" height="16" viewBox="0 0 16 16" fill="none" xmlns="http://www.w3.org/2000/svg">
<g clip-path="url(#clip0_431_2043)">
<mask id="mask0_431_2043" style="mask-type:luminance" maskUnits="userSpaceOnUse" x="0" y="0" width="16" height="16">
<path d="M16 0H0V16H16V0Z" fill="white"/>
</mask>
<g mask="url(#mask0_431_2043)">
<path fill-rule="evenodd" clip-rule="evenodd" d="M10 1H15V6H16V1V0H10V1ZM0 10H1V15H6V16H0V15V10Z" fill="#868A96"/>
<path fill-rule="evenodd" clip-rule="evenodd" d="M6 1H1V6H0V1V0H6V1ZM16 10H15V15H10V16H16V15V10Z" fill="#868A96"/>
<path d="M8 6.4C8.43399 6.4 8.85021 6.56857 9.15708 6.86863C9.46396 7.16869 9.63636 7.57565 9.63636 8C9.63636 8.42435 9.46396 8.83131 9.15708 9.13137C8.85021 9.43143 8.43399 9.6 8 9.6C7.56601 9.6 7.14979 9.43143 6.84292 9.13137C6.53604 8.83131 6.36364 8.42435 6.36364 8C6.36364 7.57565 6.53604 7.16869 6.84292 6.86863C7.14979 6.56857 7.56601 6.4 8 6.4ZM8 4C10.7273 4 13.0564 5.65867 14 8C13.0564 10.3413 10.7273 12 8 12C5.27273 12 2.94364 10.3413 2 8C2.94364 5.65867 5.27273 4 8 4ZM3.18909 8C3.62996 8.88016 4.31453 9.62173 5.16499 10.1404C6.01545 10.6591 6.99767 10.934 8 10.934C9.00233 10.934 9.98455 10.6591 10.835 10.1404C11.6855 9.62173 12.37 8.88016 12.8109 8C12.37 7.11984 11.6855 6.37827 10.835 5.8596C9.98455 5.34093 9.00233 5.06596 8 5.06596C6.99767 5.06596 6.01545 5.34093 5.16499 5.8596C4.31453 6.37827 3.62996 7.11984 3.18909 8Z" fill="#868A96"/>
</g>
</g>
<defs>
<clipPath id="clip0_431_2043">
<rect width="16" height="16" fill="white"/>
</clipPath>
</defs>
</svg>
