<svg width="16" height="16" viewBox="0 0 16 16" fill="none" xmlns="http://www.w3.org/2000/svg">
<path fill-rule="evenodd" clip-rule="evenodd" d="M1 0H2H9V1H2V14H11V15H2H1V14V0ZM13 4H12V5H13V4Z" fill="#868A96"/>
<path d="M13 5H12V7H13V5Z" fill="#868A96"/>
<path fill-rule="evenodd" clip-rule="evenodd" d="M13 5H8V0L9 1V0L11 2L13 4H12L13 5Z" fill="#868A96"/>
<path fill-rule="evenodd" clip-rule="evenodd" d="M5 1H4V3H3V4H4H5H6V3H5V1ZM4 14H5V12H6V11H5H4H3V12H4V14ZM9 9H8V6H9V9ZM8 14H9V11H8V14ZM5 9H4V8H3V7H4V6H5V7H6V8H5V9Z" fill="#868A96"/>
<path d="M12.6786 8V9.1382C12.6786 9.20782 12.7068 9.27459 12.757 9.32382C12.8073 9.37304 12.8754 9.4007 12.9464 9.4007C13.0175 9.4007 13.0856 9.37304 13.1358 9.32382C13.1861 9.27459 13.2143 9.20782 13.2143 9.1382V8H13.5714V9.48785C13.5714 9.55747 13.5996 9.62424 13.6499 9.67347C13.7001 9.72269 13.7682 9.75035 13.8393 9.75035C13.9103 9.75035 13.9785 9.72269 14.0287 9.67347C14.0789 9.62424 14.1071 9.55747 14.1071 9.48785V8H14.7321C14.8032 8 14.8713 8.02766 14.9215 8.07688C14.9718 8.12611 15 8.19288 15 8.2625V11.15H10V8.2625C10 8.19288 10.0282 8.12611 10.0785 8.07688C10.1287 8.02766 10.1968 8 10.2679 8H12.6786Z" fill="#F5BD2A"/>
<path d="M10 11.6748V12.288C10 12.4969 10.0847 12.6972 10.2354 12.8449C10.3861 12.9925 10.5905 13.0755 10.8036 13.0755H11.7857V14.2998C11.7857 14.4855 11.861 14.6635 11.9949 14.7948C12.1289 14.9261 12.3106 14.9998 12.5 14.9998C12.6894 14.9998 12.8711 14.9261 13.0051 14.7948C13.139 14.6635 13.2143 14.4855 13.2143 14.2998V13.0755H14.1964C14.302 13.0755 14.4064 13.0551 14.5039 13.0156C14.6014 12.976 14.69 12.918 14.7646 12.8449C14.8393 12.7717 14.8984 12.6849 14.9388 12.5894C14.9792 12.4938 15 12.3914 15 12.288V11.6748H10Z" fill="#868A96"/>
</svg>
