<svg width="16" height="16" viewBox="0 0 16 16" fill="none" xmlns="http://www.w3.org/2000/svg">
<path d="M15 14H1V16H15V14Z" fill="#F5BD2A"/>
<path d="M6.9981 12L2.66797 8.25H11.3282L6.9981 12Z" fill="#8D919E" fill-opacity="0.5"/>
<path d="M11.6702 10.6635L12.6349 9.69615L13.6001 10.6635C13.791 10.8549 13.921 11.0987 13.9737 11.3642C14.0264 11.6297 13.9994 11.9049 13.8961 12.155C13.7929 12.4051 13.6179 12.6189 13.3935 12.7693C13.169 12.9197 12.9051 13 12.6352 13C12.3652 13 12.1013 12.9197 11.8769 12.7693C11.6524 12.6189 11.4775 12.4051 11.3742 12.155C11.2709 11.9049 11.2439 11.6297 11.2966 11.3642C11.3493 11.0987 11.4793 10.8549 11.6702 10.6635ZM6.01985 1L12.1965 7.19324C12.2473 7.24408 12.2875 7.30446 12.315 7.37092C12.3425 7.43738 12.3566 7.50861 12.3566 7.58056C12.3566 7.6525 12.3425 7.72374 12.315 7.79019C12.2875 7.85665 12.2473 7.91703 12.1965 7.96787L7.56429 12.6129C7.46191 12.7156 7.32308 12.7732 7.17831 12.7732C7.03355 12.7732 6.89472 12.7156 6.79234 12.6129L2.16011 7.96787C2.10936 7.91703 2.06909 7.85665 2.04161 7.79019C2.01414 7.72374 2 7.6525 2 7.58056C2 7.50861 2.01414 7.43738 2.04161 7.37092C2.06909 7.30446 2.10936 7.24408 2.16011 7.19324L6.40637 2.93522L5.2479 1.77409L6.01985 1ZM7.17831 3.70985L3.31803 7.58028L7.17777 11.4518L11.0386 7.58083L7.17831 3.70985Z" fill="#868A96"/>
</svg>
