<svg width="16" height="16" viewBox="0 0 16 16" fill="none" xmlns="http://www.w3.org/2000/svg">
<g clip-path="url(#clip0_431_2157)">
<mask id="mask0_431_2157" style="mask-type:luminance" maskUnits="userSpaceOnUse" x="0" y="0" width="16" height="16">
<path d="M16 0H0V16H16V0Z" fill="white"/>
</mask>
<g mask="url(#mask0_431_2157)">
<path d="M2 9L14 9V7L2 7V9Z" fill="#2CA158"/>
<path d="M2 12H4L4 7H2L2 12Z" fill="#2CA158"/>
<path d="M12 8H14V4H12V8Z" fill="#2CA158"/>
<path d="M4.5 12.5H1.5V15.5H4.5V12.5Z" stroke="#868A96"/>
<path d="M3 12H2V13H3V12Z" fill="#00FFF9"/>
<path d="M11.5 3.5L14.5 3.5V0.5L11.5 0.5V3.5Z" stroke="#868A96"/>
<path d="M13 4H14V3H13V4Z" fill="#00FFF9"/>
<path d="M6.54688 15.9005V11.4545H7.76487C8.22087 11.4545 8.61088 11.5345 8.93488 11.6945C9.26288 11.8545 9.51487 12.0965 9.69087 12.4205C9.87087 12.7445 9.96088 13.1565 9.96088 13.6565C9.96088 14.1565 9.87288 14.5725 9.69688 14.9045C9.52088 15.2365 9.27287 15.4865 8.95287 15.6545C8.63287 15.8185 8.25287 15.9005 7.81287 15.9005H6.54688ZM7.43488 15.1805H7.70487C7.98487 15.1805 8.22487 15.1305 8.42487 15.0305C8.62887 14.9265 8.78488 14.7625 8.89288 14.5385C9.00088 14.3105 9.05487 14.0165 9.05487 13.6565C9.05487 13.2965 9.00088 13.0085 8.89288 12.7925C8.78488 12.5725 8.62887 12.4145 8.42487 12.3185C8.22487 12.2185 7.98487 12.1685 7.70487 12.1685H7.43488V15.1805ZM12.6361 15.9845C12.3561 15.9845 12.0941 15.9365 11.8501 15.8405C11.6061 15.7405 11.3901 15.5925 11.2021 15.3965C11.0181 15.2005 10.8721 14.9605 10.7641 14.6765C10.6601 14.3925 10.6081 14.0665 10.6081 13.6985C10.6081 13.3305 10.6621 13.0045 10.7701 12.7205C10.8781 12.4325 11.0261 12.1885 11.2141 11.9885C11.4061 11.7885 11.6261 11.6365 11.8741 11.5325C12.1261 11.4285 12.3921 11.3765 12.6721 11.3765C12.9561 11.3765 13.2081 11.4345 13.4281 11.5505C13.6521 11.6625 13.8341 11.7945 13.9741 11.9465L13.5121 12.5105C13.4001 12.3985 13.2761 12.3085 13.1401 12.2405C13.0081 12.1725 12.8581 12.1385 12.6901 12.1385C12.4661 12.1385 12.2641 12.2005 12.0841 12.3245C11.9081 12.4445 11.7701 12.6185 11.6701 12.8465C11.5701 13.0745 11.5201 13.3485 11.5201 13.6685C11.5201 13.9925 11.5661 14.2705 11.6581 14.5025C11.7541 14.7305 11.8881 14.9065 12.0601 15.0305C12.2361 15.1545 12.4401 15.2165 12.6721 15.2165C12.8641 15.2165 13.0341 15.1765 13.1821 15.0965C13.3341 15.0125 13.4681 14.9065 13.5841 14.7785L14.0581 15.3305C13.8741 15.5465 13.6641 15.7105 13.4281 15.8225C13.1921 15.9305 12.9281 15.9845 12.6361 15.9845Z" fill="#6C7182"/>
</g>
</g>
<defs>
<clipPath id="clip0_431_2157">
<rect width="16" height="16" fill="white"/>
</clipPath>
</defs>
</svg>
