<svg width="16" height="16" viewBox="0 0 16 16" fill="none" xmlns="http://www.w3.org/2000/svg">
<g clip-path="url(#clip0_429_882)">
<rect x="14" y="9" width="12" height="2" transform="rotate(-180 14 9)" fill="#FAE700"/>
<path d="M4 12H2V8H4V12Z" fill="#FAE700"/>
<path d="M5 12H1V10H5V12Z" fill="#FAE700"/>
<rect x="14" y="8" width="2" height="4" transform="rotate(-180 14 8)" fill="#FAE700"/>
<rect x="15" y="6" width="4" height="2" transform="rotate(-180 15 6)" fill="#FAE700"/>
<rect x="1.5" y="12.5" width="3" height="3" stroke="#8D919E"/>
<rect x="2" y="12" width="1" height="1" fill="#00FFF9"/>
<rect x="14.5" y="3.5" width="3" height="3" transform="rotate(-180 14.5 3.5)" stroke="#8D919E"/>
<rect x="14" y="4" width="1" height="1" transform="rotate(-180 14 4)" fill="#00FFF9"/>
<path d="M11.8036 15.9844C11.4036 15.9844 11.0416 15.8964 10.7176 15.7204C10.3976 15.5444 10.1436 15.2864 9.95561 14.9464C9.76761 14.6064 9.67361 14.1904 9.67361 13.6984C9.67361 13.3304 9.72761 13.0044 9.83561 12.7204C9.94761 12.4324 10.1016 12.1884 10.2976 11.9884C10.4936 11.7884 10.7196 11.6364 10.9756 11.5324C11.2316 11.4284 11.5076 11.3764 11.8036 11.3764C12.1236 11.3764 12.3956 11.4364 12.6196 11.5564C12.8476 11.6724 13.0336 11.8024 13.1776 11.9464L12.7036 12.5104C12.5916 12.4064 12.4676 12.3184 12.3316 12.2464C12.1996 12.1744 12.0336 12.1384 11.8336 12.1384C11.5856 12.1384 11.3676 12.2004 11.1796 12.3244C10.9916 12.4444 10.8456 12.6184 10.7416 12.8464C10.6376 13.0744 10.5856 13.3484 10.5856 13.6684C10.5856 13.9924 10.6336 14.2704 10.7296 14.5024C10.8296 14.7304 10.9776 14.9064 11.1736 15.0304C11.3696 15.1544 11.6116 15.2164 11.8996 15.2164C12.0076 15.2164 12.1116 15.2024 12.2116 15.1744C12.3116 15.1424 12.3916 15.1004 12.4516 15.0484V14.1724H11.6656V13.4464H13.2496V15.4504C13.0976 15.5984 12.8956 15.7244 12.6436 15.8284C12.3916 15.9324 12.1116 15.9844 11.8036 15.9844Z" fill="#7D8292"/>
</g>
<defs>
<clipPath id="clip0_429_882">
<rect width="16" height="16" fill="white"/>
</clipPath>
</defs>
</svg>
