<svg width="16" height="17" viewBox="0 0 16 17" fill="none" xmlns="http://www.w3.org/2000/svg">
<g clip-path="url(#clip0_429_946)">
<path d="M2.8091 2.07858L13.1907 6.28686C13.2796 6.32345 13.3558 6.38351 13.4107 6.46028C13.4656 6.53704 13.4972 6.62745 13.5017 6.72133C13.5062 6.8152 13.4836 6.90882 13.4364 6.99162C13.3891 7.07442 13.3192 7.14312 13.2343 7.18997L9.96739 8.5468C9.91087 8.57672 9.86186 8.61854 9.82405 8.66913C9.78624 8.71972 9.7606 8.77777 9.74904 8.83896C9.73748 8.90014 9.74031 8.96286 9.7573 9.02245C9.7743 9.08203 9.80503 9.13693 9.84719 9.18304L13.7449 13.5C13.7955 13.5472 13.8355 13.6041 13.8624 13.6671C13.8893 13.7301 13.9026 13.798 13.9015 13.8665C13.9005 13.9351 13.885 14.0029 13.8561 14.0658C13.8272 14.1288 13.7854 14.1855 13.7334 14.2327L12.6418 15.1125C12.5353 15.199 12.3984 15.2415 12.2611 15.2308C12.1237 15.2201 11.9971 15.157 11.9091 15.0553L8.0098 10.7312C7.97202 10.6809 7.92301 10.6396 7.86635 10.6103C7.80969 10.581 7.74681 10.5645 7.6823 10.5618C7.61779 10.5592 7.55329 10.5705 7.49349 10.595C7.43369 10.6196 7.38011 10.6567 7.33666 10.7036L5.34527 13.557C5.28438 13.6387 5.20003 13.7013 5.10295 13.7369C5.00587 13.7725 4.90046 13.7795 4.80015 13.7569C4.69984 13.7343 4.60918 13.6831 4.5397 13.61C4.47021 13.5369 4.42507 13.445 4.41001 13.3462L2.10868 2.66793C2.08801 2.57864 2.09292 2.48524 2.1229 2.39776C2.15287 2.31028 2.20677 2.23203 2.27879 2.17143C2.35081 2.11083 2.43824 2.07016 2.53168 2.0538C2.62512 2.03744 2.72102 2.04601 2.8091 2.07858Z" stroke="#8D919E" stroke-linecap="round" stroke-linejoin="round"/>
</g>
<defs>
<clipPath id="clip0_429_946">
<rect width="16" height="16" fill="white" transform="translate(0 0.5)"/>
</clipPath>
</defs>
</svg>
