<svg width="16" height="16" viewBox="0 0 16 16" fill="none" xmlns="http://www.w3.org/2000/svg">
<g clip-path="url(#clip0_429_896)">
<rect x="14" y="9" width="12" height="2" transform="rotate(-180 14 9)" fill="#90BDE4"/>
<path d="M4 12H2V8H4V12Z" fill="#90BDE4"/>
<path d="M5 12H1V10H5V12Z" fill="#90BDE4"/>
<rect x="14" y="8" width="2" height="4" transform="rotate(-180 14 8)" fill="#90BDE4"/>
<rect x="15" y="6" width="4" height="2" transform="rotate(-180 15 6)" fill="#90BDE4"/>
<rect x="1.5" y="12.5" width="3" height="3" stroke="#8D919E"/>
<rect x="2" y="12" width="1" height="1" fill="#00FFF9"/>
<rect x="14.5" y="3.5" width="3" height="3" transform="rotate(-180 14.5 3.5)" stroke="#8D919E"/>
<rect x="14" y="4" width="1" height="1" transform="rotate(-180 14 4)" fill="#00FFF9"/>
<path d="M9.72088 15.9004L8.86888 11.4544H9.77488L10.1169 13.6264C10.1569 13.8584 10.1929 14.0924 10.2249 14.3284C10.2609 14.5644 10.2949 14.8024 10.3269 15.0424H10.3509C10.3989 14.8024 10.4469 14.5644 10.4949 14.3284C10.5429 14.0924 10.5889 13.8584 10.6329 13.6264L11.1429 11.4544H11.9049L12.4209 13.6264C12.4689 13.8544 12.5149 14.0884 12.5589 14.3284C12.6069 14.5644 12.6549 14.8024 12.7029 15.0424H12.7329C12.7649 14.8024 12.7969 14.5644 12.8289 14.3284C12.8649 14.0924 12.8989 13.8584 12.9309 13.6264L13.2849 11.4544H14.1249L13.3029 15.9004H12.1989L11.7009 13.6984C11.6649 13.5264 11.6309 13.3564 11.5989 13.1884C11.5669 13.0164 11.5389 12.8464 11.5149 12.6784H11.4909C11.4589 12.8464 11.4249 13.0164 11.3889 13.1884C11.3569 13.3564 11.3249 13.5264 11.2929 13.6984L10.8069 15.9004H9.72088Z" fill="#7D8292"/>
</g>
<defs>
<clipPath id="clip0_429_896">
<rect width="16" height="16" fill="white"/>
</clipPath>
</defs>
</svg>
