<svg width="16" height="16" viewBox="0 0 16 16" fill="none" xmlns="http://www.w3.org/2000/svg">
<g clip-path="url(#clip0_429_832)">
<rect x="13" y="8" width="11" height="1" transform="rotate(-180 13 8)" fill="#2CA158"/>
<rect x="3" y="12" width="1" height="5" transform="rotate(-180 3 12)" fill="#2CA158"/>
<rect x="14" y="8" width="1" height="4" transform="rotate(-180 14 8)" fill="#2CA158"/>
<rect x="1.5" y="12.5" width="3" height="3" stroke="#8D919E"/>
<rect x="2" y="12" width="1" height="1" fill="#00FFF9"/>
<rect x="14.5" y="3.5" width="3" height="3" transform="rotate(-180 14.5 3.5)" stroke="#8D919E"/>
<rect x="14" y="4" width="1" height="1" transform="rotate(-180 14 4)" fill="#00FFF9"/>
<path d="M6.546 15.9004V11.4544H7.764C8.22 11.4544 8.61 11.5344 8.934 11.6944C9.262 11.8544 9.514 12.0964 9.69 12.4204C9.87 12.7444 9.96 13.1564 9.96 13.6564C9.96 14.1564 9.872 14.5724 9.696 14.9044C9.52 15.2364 9.272 15.4864 8.952 15.6544C8.632 15.8184 8.252 15.9004 7.812 15.9004H6.546ZM7.434 15.1804H7.704C7.984 15.1804 8.224 15.1304 8.424 15.0304C8.628 14.9264 8.784 14.7624 8.892 14.5384C9 14.3104 9.054 14.0164 9.054 13.6564C9.054 13.2964 9 13.0084 8.892 12.7924C8.784 12.5724 8.628 12.4144 8.424 12.3184C8.224 12.2184 7.984 12.1684 7.704 12.1684H7.434V15.1804ZM12.6352 15.9844C12.3552 15.9844 12.0932 15.9364 11.8492 15.8404C11.6052 15.7404 11.3892 15.5924 11.2012 15.3964C11.0172 15.2004 10.8712 14.9604 10.7632 14.6764C10.6592 14.3924 10.6072 14.0664 10.6072 13.6984C10.6072 13.3304 10.6612 13.0044 10.7692 12.7204C10.8772 12.4324 11.0252 12.1884 11.2132 11.9884C11.4052 11.7884 11.6252 11.6364 11.8732 11.5324C12.1252 11.4284 12.3912 11.3764 12.6712 11.3764C12.9552 11.3764 13.2072 11.4344 13.4272 11.5504C13.6512 11.6624 13.8332 11.7944 13.9732 11.9464L13.5112 12.5104C13.3992 12.3984 13.2752 12.3084 13.1392 12.2404C13.0072 12.1724 12.8572 12.1384 12.6892 12.1384C12.4652 12.1384 12.2632 12.2004 12.0832 12.3244C11.9072 12.4444 11.7692 12.6184 11.6692 12.8464C11.5692 13.0744 11.5192 13.3484 11.5192 13.6684C11.5192 13.9924 11.5652 14.2704 11.6572 14.5024C11.7532 14.7304 11.8872 14.9064 12.0592 15.0304C12.2352 15.1544 12.4392 15.2164 12.6712 15.2164C12.8632 15.2164 13.0332 15.1764 13.1812 15.0964C13.3332 15.0124 13.4672 14.9064 13.5832 14.7784L14.0572 15.3304C13.8732 15.5464 13.6632 15.7104 13.4272 15.8224C13.1912 15.9304 12.9272 15.9844 12.6352 15.9844Z" fill="#7D8292"/>
</g>
<defs>
<clipPath id="clip0_429_832">
<rect width="16" height="16" fill="white"/>
</clipPath>
</defs>
</svg>
