<svg width="16" height="16" viewBox="0 0 16 16" fill="none" xmlns="http://www.w3.org/2000/svg">
<g clip-path="url(#clip0_429_856)">
<rect x="14" y="9" width="12" height="2" transform="rotate(-180 14 9)" fill="#0391FF"/>
<rect x="4" y="12" width="2" height="5" transform="rotate(-180 4 12)" fill="#0391FF"/>
<rect x="14" y="8" width="2" height="4" transform="rotate(-180 14 8)" fill="#0391FF"/>
<rect x="1.5" y="12.5" width="3" height="3" stroke="#8D919E"/>
<rect x="2" y="12" width="1" height="1" fill="#00FFF9"/>
<rect x="14.5" y="3.5" width="3" height="3" transform="rotate(-180 14.5 3.5)" stroke="#8D919E"/>
<rect x="14" y="4" width="1" height="1" transform="rotate(-180 14 4)" fill="#00FFF9"/>
<path d="M5.976 15.9004L7.398 11.4544H8.448L9.87 15.9004H8.934L8.304 13.5844C8.236 13.3524 8.17 13.1124 8.106 12.8644C8.046 12.6124 7.982 12.3684 7.914 12.1324H7.89C7.834 12.3724 7.772 12.6164 7.704 12.8644C7.64 13.1124 7.576 13.3524 7.512 13.5844L6.876 15.9004H5.976ZM6.858 14.7604V14.0704H8.97V14.7604H6.858ZM12.0961 15.9844C11.8161 15.9844 11.5541 15.9364 11.3101 15.8404C11.0661 15.7404 10.8501 15.5924 10.6621 15.3964C10.4781 15.2004 10.3321 14.9604 10.2241 14.6764C10.1201 14.3924 10.0681 14.0664 10.0681 13.6984C10.0681 13.3304 10.1221 13.0044 10.2301 12.7204C10.3381 12.4324 10.4861 12.1884 10.6741 11.9884C10.8661 11.7884 11.0861 11.6364 11.3341 11.5324C11.5861 11.4284 11.8521 11.3764 12.1321 11.3764C12.4161 11.3764 12.6681 11.4344 12.8881 11.5504C13.1121 11.6624 13.2941 11.7944 13.4341 11.9464L12.9721 12.5104C12.8601 12.3984 12.7361 12.3084 12.6001 12.2404C12.4681 12.1724 12.3181 12.1384 12.1501 12.1384C11.9261 12.1384 11.7241 12.2004 11.5441 12.3244C11.3681 12.4444 11.2301 12.6184 11.1301 12.8464C11.0301 13.0744 10.9801 13.3484 10.9801 13.6684C10.9801 13.9924 11.0261 14.2704 11.1181 14.5024C11.2141 14.7304 11.3481 14.9064 11.5201 15.0304C11.6961 15.1544 11.9001 15.2164 12.1321 15.2164C12.3241 15.2164 12.4941 15.1764 12.6421 15.0964C12.7941 15.0124 12.9281 14.9064 13.0441 14.7784L13.5181 15.3304C13.3341 15.5464 13.1241 15.7104 12.8881 15.8224C12.6521 15.9304 12.3881 15.9844 12.0961 15.9844Z" fill="#7D8292"/>
</g>
<defs>
<clipPath id="clip0_429_856">
<rect width="16" height="16" fill="white"/>
</clipPath>
</defs>
</svg>
