<svg width="16" height="16" viewBox="0 0 16 16" fill="none" xmlns="http://www.w3.org/2000/svg">
<g clip-path="url(#clip0_429_868)">
<rect x="14" y="9" width="12" height="2" transform="rotate(-180 14 9)" fill="#FF8C00"/>
<path d="M4 12H2V8H4V12Z" fill="#FF8C00"/>
<path d="M5 12H1V10H5V12Z" fill="#FF8C00"/>
<rect x="14" y="8" width="2" height="4" transform="rotate(-180 14 8)" fill="#FF8C00"/>
<rect x="15" y="6" width="4" height="2" transform="rotate(-180 15 6)" fill="#FF8C00"/>
<rect x="1.5" y="12.5" width="3" height="3" stroke="#8D919E"/>
<rect x="2" y="12" width="1" height="1" fill="#00FFF9"/>
<rect x="14.5" y="3.5" width="3" height="3" transform="rotate(-180 14.5 3.5)" stroke="#8D919E"/>
<rect x="14" y="4" width="1" height="1" transform="rotate(-180 14 4)" fill="#00FFF9"/>
<path d="M11.053 15.9004V12.1984H9.805V11.4544H13.195V12.1984H11.941V15.9004H11.053Z" fill="#7D8292"/>
</g>
<defs>
<clipPath id="clip0_429_868">
<rect width="16" height="16" fill="white"/>
</clipPath>
</defs>
</svg>
